<svg width="1440" height="3049" viewBox="0 0 1440 3049" fill="none" xmlns="http://www.w3.org/2000/svg">
<g opacity="0.3">
<g filter="url(#filter0_f_1_1845)">
<ellipse cx="426.186" cy="1295.04" rx="268.698" ry="408.541" transform="rotate(-111.286 426.186 1295.04)" fill="#25FE02"/>
</g>
<mask id="mask0_1_1845" style="mask-type:alpha" maskUnits="userSpaceOnUse" x="-282" y="591" width="1405" height="1614">
<path d="M1122.07 916.687L243.321 591.144L-225.137 1364.6L-281.434 1613.19L125.223 2141.91L539.38 2204.21L878.034 1518.85L1122.07 916.687Z" fill="url(#paint0_linear_1_1845)"/>
</mask>
<g mask="url(#mask0_1_1845)">
<mask id="mask1_1_1845" style="mask-type:alpha" maskUnits="userSpaceOnUse" x="-394" y="535" width="1512" height="1708">
<path d="M479.263 2242.81C92.4211 2051.02 -373.342 1764.93 -393.238 1756.66L216.659 535.382L1117.16 895.382L479.263 2242.81Z" fill="url(#paint1_linear_1_1845)"/>
</mask>
<g mask="url(#mask1_1_1845)">
<path d="M-18.3485 1381.91C47.8905 1247.86 242.218 1203.65 366.508 1265.06C490.798 1326.48 627.092 1461.34 556.024 1605.17C520.806 1676.44 561.129 1804.04 457.393 1858.13C351.794 1913.2 191.963 1809.84 129.265 1778.86C4.97527 1717.44 -84.5874 1515.96 -18.3485 1381.91Z" fill="#02FE85"/>
<g filter="url(#filter1_f_1_1845)">
<path d="M-8.4961 1388.78C62.5436 1245.01 221.017 1195.3 317.512 1242.98C414.006 1290.66 513.835 1407.47 442.796 1551.24C407.592 1622.49 431.862 1742.1 341.985 1803C250.493 1865 128.568 1780.38 79.8907 1756.33C-16.6038 1708.65 -79.5358 1532.54 -8.4961 1388.78Z" fill="#02FE85"/>
</g>
<g filter="url(#filter2_f_1_1845)">
<path d="M-6.34522 1384.42C73.2765 1223.29 263.163 1173.63 382.313 1232.51C501.463 1291.38 627.785 1429.44 548.164 1590.58C508.707 1670.43 554.647 1813.76 448.435 1879.31C340.316 1946.04 178.582 1838.8 118.477 1809.1C-0.673561 1750.23 -85.9669 1545.56 -6.34522 1384.42Z" fill="#02FE85"/>
</g>
<g filter="url(#filter3_f_1_1845)">
<path d="M41.7936 1384.99C172.406 1202.01 424.669 1121.63 578.824 1197.8C732.979 1273.98 849.735 1457.3 754.245 1650.55C706.925 1746.32 814.106 1952.44 681.12 2028.29C545.745 2105.5 269.864 1954.9 192.1 1916.48C37.9444 1840.31 -109.514 1596.97 41.7936 1384.99Z" fill="#02FE85"/>
</g>
<g filter="url(#filter4_f_1_1845)">
<path d="M106.613 1352.19C209.431 1144.11 503.904 1048.25 654.623 1122.72C805.342 1197.19 914.553 1386.43 811.735 1594.51C760.784 1697.63 756.439 1851.25 620.85 1936.67C482.825 2023.63 140.261 1930.02 64.2308 1892.45C-86.488 1817.98 3.79438 1560.27 106.613 1352.19Z" fill="#02FE85"/>
</g>
<g filter="url(#filter5_f_1_1845)">
<path d="M214.134 1286.07C320.387 1071.03 615.003 986.29 769.158 1062.46C923.313 1138.63 1034.45 1333.34 928.192 1548.37C875.539 1654.93 588.37 1710.99 449.047 1799.66C307.221 1889.92 111.452 1756.73 33.6883 1718.3C-120.467 1642.13 107.881 1501.1 214.134 1286.07Z" fill="#02FE85"/>
</g>
<g filter="url(#filter6_f_1_1845)">
<path d="M109.702 1435.69C202.674 1247.54 485.855 1185.93 640.011 1262.1C794.166 1338.28 912.238 1518.93 819.267 1707.09C773.195 1800.33 758.261 1933.8 626.757 2006.65C492.892 2080.8 295.313 1951.27 217.549 1912.84C63.3936 1836.67 16.7311 1623.84 109.702 1435.69Z" fill="#02FE85"/>
</g>
</g>
</g>
<mask id="mask2_1_1845" style="mask-type:alpha" maskUnits="userSpaceOnUse" x="375" y="873" width="1697" height="1182">
<path d="M375.906 1870.93C426.367 1442.11 490.825 895.093 491.643 873.541L2071.17 1056.83L1955.44 2054.22L375.906 1870.93Z" fill="url(#paint2_linear_1_1845)"/>
</mask>
<g mask="url(#mask2_1_1845)">
<path d="M1207.8 1133.95C1385.95 1154.62 1517.9 1325.61 1501.92 1463.32C1485.94 1601.03 1392.86 1773.38 1201.72 1751.2C1107 1740.21 981.31 1818.92 876.734 1737.29C770.279 1654.19 818.122 1469.39 826.183 1399.92C842.163 1262.21 1029.65 1113.28 1207.8 1133.95Z" fill="#02FED1"/>
<g filter="url(#filter7_f_1_1845)">
<path d="M1204.29 1145.5C1395.35 1167.67 1516.77 1315.57 1503.03 1433.94C1489.3 1552.31 1399.19 1699.29 1208.12 1677.12C1113.44 1666.13 988.944 1735 883.296 1663C775.75 1589.71 820.522 1431.28 827.451 1371.57C841.187 1253.2 1013.23 1123.33 1204.29 1145.5Z" fill="#02FED1"/>
</g>
<g filter="url(#filter8_f_1_1845)">
<path d="M1210.08 1146.17C1424.22 1171.02 1558.59 1351.59 1541.65 1497.52C1524.72 1643.46 1421.7 1825.6 1207.56 1800.75C1101.44 1788.44 959.254 1888.44 841.61 1801.13C721.852 1712.26 775.564 1504.26 784.107 1430.64C801.042 1284.7 995.935 1121.32 1210.08 1146.17Z" fill="#02FED1"/>
</g>
<g filter="url(#filter9_f_1_1845)">
<path d="M1232.79 1166.32C1493.02 1232.8 1690.06 1447.49 1670.24 1618.29C1650.42 1789.1 1494.8 1958.17 1237.98 1928.37C1110.71 1913.6 925.507 2080.77 784.172 1978.17C640.298 1873.72 702.329 1644.83 712.327 1558.67C732.147 1387.87 931.32 1089.31 1232.79 1166.32Z" fill="#02FED1"/>
</g>
<g filter="url(#filter10_f_1_1845)">
<path d="M1313.85 1245.78C1590.38 1277.87 1802.9 1525.56 1783.52 1692.55C1764.15 1859.54 1598.71 2023.31 1322.18 1991.22C1185.14 1975.32 1011.36 2019.74 858.205 1917.69C702.295 1813.8 766.41 1590.42 776.185 1506.18C795.563 1339.18 1037.32 1213.69 1313.85 1245.78Z" fill="#02FED1"/>
</g>
<g filter="url(#filter11_f_1_1845)">
<path d="M1413.74 1324.93C1699.51 1358.09 1919.4 1611.72 1899.58 1782.52C1879.76 1953.32 1709.02 2120.64 1423.25 2087.48C1281.64 2071.04 1102.13 2116.28 943.756 2011.7C782.534 1905.24 848.509 1676.81 858.508 1590.65C878.327 1419.84 1127.97 1291.77 1413.74 1324.93Z" fill="#02FED1"/>
</g>
<g filter="url(#filter12_f_1_1845)">
<path d="M1201.95 1272.83C1452 1301.84 1641.15 1551.9 1621.33 1722.7C1601.51 1893.5 1449.43 2062.99 1199.38 2033.97C1075.47 2019.59 919.747 2047.57 782.4 1945.43C642.586 1841.46 703.694 1612.46 713.692 1526.3C733.512 1355.5 951.905 1243.81 1201.95 1272.83Z" fill="#02FED1"/>
</g>
</g>
<mask id="mask3_1_1845" style="mask-type:alpha" maskUnits="userSpaceOnUse" x="224" y="656" width="1103" height="1503">
<path d="M224.778 769.714C664.035 717.451 1143.5 660.591 1165.2 656.541L1326.42 2045.76L386.004 2158.93L224.778 769.714Z" fill="url(#paint3_linear_1_1845)"/>
</mask>
<g mask="url(#mask3_1_1845)">
<path d="M1122.66 1273C1134.38 1370.36 1043.54 1464.34 953.267 1475.2C862.997 1486.06 739.791 1460.91 727.22 1356.45C720.991 1304.68 653.084 1249.09 690.635 1182.18C728.861 1114.07 853.691 1113.49 899.228 1108.01C989.498 1097.14 1110.94 1175.64 1122.66 1273Z" fill="#02FE85"/>
<g filter="url(#filter13_f_1_1845)">
<path d="M1114.79 1272.76C1127.35 1377.18 1058.17 1461.32 988.091 1469.75C918.008 1478.18 821.297 1449.86 808.731 1345.44C802.504 1293.7 746.272 1236.73 773.773 1171.05C801.769 1104.19 899.065 1106.92 934.418 1102.67C1004.5 1094.23 1102.22 1168.35 1114.79 1272.76Z" fill="#02FE85"/>
</g>
<g filter="url(#filter14_f_1_1845)">
<path d="M1115.17 1275.92C1129.25 1392.96 1042.8 1488.33 956.268 1498.74C869.73 1509.16 750.852 1478.67 736.768 1361.64C729.789 1303.64 653.155 1241.43 687.957 1167.34C723.383 1091.92 850.648 1092.78 894.302 1087.53C980.839 1077.11 1101.08 1158.89 1115.17 1275.92Z" fill="#02FE85"/>
</g>
<g filter="url(#filter15_f_1_1845)">
<path d="M1087.53 1292.88C1081.46 1440.19 971.784 1574.81 859.823 1588.29C747.863 1601.76 618.001 1542.99 601.11 1402.63C592.74 1333.08 459.955 1258.35 505.764 1169.01C552.397 1078.06 757.886 1061.78 814.365 1054.98C926.326 1041.51 1094.57 1122.22 1087.53 1292.88Z" fill="#02FE85"/>
</g>
<g filter="url(#filter16_f_1_1845)">
<path d="M1063.71 1334.14C1081.9 1485.27 954.603 1643.52 845.138 1656.7C735.673 1669.87 607.833 1605.15 589.646 1454.02C580.633 1379.13 527.914 1293.22 571.718 1197.69C616.308 1100.44 837.968 1028.95 893.187 1022.31C1002.65 1009.13 1045.52 1183.01 1063.71 1334.14Z" fill="#02FE85"/>
</g>
<g filter="url(#filter17_f_1_1845)">
<path d="M1028.39 1409.01C1047.19 1565.19 915.83 1717.39 803.869 1730.87C691.908 1744.34 561.052 1677.3 542.257 1521.13C532.943 1443.73 670.504 1309.95 715.193 1211.29C760.684 1110.86 915.946 1113.77 972.425 1106.97C1084.39 1093.5 1009.6 1252.84 1028.39 1409.01Z" fill="#02FE85"/>
</g>
<g filter="url(#filter18_f_1_1845)">
<path d="M1032.06 1289.4C1048.51 1426.06 915.125 1561.46 803.164 1574.93C691.203 1588.4 561.574 1531.57 545.129 1394.91C536.979 1327.19 497.302 1248.55 543.374 1161.39C590.274 1072.66 745.216 1072.9 801.695 1066.11C913.655 1052.63 1015.62 1152.75 1032.06 1289.4Z" fill="#02FE85"/>
</g>
<g filter="url(#filter19_f_1_1845)">
<path d="M1032.06 1289.4C1048.51 1426.06 915.125 1561.46 803.164 1574.93C691.203 1588.4 561.574 1531.57 545.129 1394.91C536.979 1327.19 497.302 1248.55 543.374 1161.39C590.274 1072.66 745.216 1072.9 801.695 1066.11C913.655 1052.63 1015.62 1152.75 1032.06 1289.4Z" fill="#02FE85"/>
</g>
</g>
</g>
<defs>
<filter id="filter0_f_1_1845" x="-215.414" y="755.465" width="1283.2" height="1079.16" filterUnits="userSpaceOnUse" color-interpolation-filters="sRGB">
<feFlood flood-opacity="0" result="BackgroundImageFix"/>
<feBlend mode="normal" in="SourceGraphic" in2="BackgroundImageFix" result="shape"/>
<feGaussianBlur stdDeviation="124.268" result="effect1_foregroundBlur_1_1845"/>
</filter>
<filter id="filter1_f_1_1845" x="-48.9126" y="1215.48" width="525.685" height="619.731" filterUnits="userSpaceOnUse" color-interpolation-filters="sRGB">
<feFlood flood-opacity="0" result="BackgroundImageFix"/>
<feBlend mode="normal" in="SourceGraphic" in2="BackgroundImageFix" result="shape"/>
<feGaussianBlur stdDeviation="4.97072" result="effect1_foregroundBlur_1_1845"/>
</filter>
<filter id="filter2_f_1_1845" x="-72.1466" y="1173.82" width="680.024" height="761.781" filterUnits="userSpaceOnUse" color-interpolation-filters="sRGB">
<feFlood flood-opacity="0" result="BackgroundImageFix"/>
<feBlend mode="normal" in="SourceGraphic" in2="BackgroundImageFix" result="shape"/>
<feGaussianBlur stdDeviation="17.3975" result="effect1_foregroundBlur_1_1845"/>
</filter>
<filter id="filter3_f_1_1845" x="-71.3192" y="1119.47" width="909.825" height="980.236" filterUnits="userSpaceOnUse" color-interpolation-filters="sRGB">
<feFlood flood-opacity="0" result="BackgroundImageFix"/>
<feBlend mode="normal" in="SourceGraphic" in2="BackgroundImageFix" result="shape"/>
<feGaussianBlur stdDeviation="24.8536" result="effect1_foregroundBlur_1_1845"/>
</filter>
<filter id="filter4_f_1_1845" x="-149.934" y="963.447" width="1136.15" height="1143.33" filterUnits="userSpaceOnUse" color-interpolation-filters="sRGB">
<feFlood flood-opacity="0" result="BackgroundImageFix"/>
<feBlend mode="normal" in="SourceGraphic" in2="BackgroundImageFix" result="shape"/>
<feGaussianBlur stdDeviation="67.1047" result="effect1_foregroundBlur_1_1845"/>
</filter>
<filter id="filter5_f_1_1845" x="-351.221" y="701.96" width="1654.42" height="1461.52" filterUnits="userSpaceOnUse" color-interpolation-filters="sRGB">
<feFlood flood-opacity="0" result="BackgroundImageFix"/>
<feBlend mode="normal" in="SourceGraphic" in2="BackgroundImageFix" result="shape"/>
<feGaussianBlur stdDeviation="166.519" result="effect1_foregroundBlur_1_1845"/>
</filter>
<filter id="filter6_f_1_1845" x="-92.0763" y="1076.19" width="1098.34" height="1107.06" filterUnits="userSpaceOnUse" color-interpolation-filters="sRGB">
<feFlood flood-opacity="0" result="BackgroundImageFix"/>
<feBlend mode="normal" in="SourceGraphic" in2="BackgroundImageFix" result="shape"/>
<feGaussianBlur stdDeviation="77.0461" result="effect1_foregroundBlur_1_1845"/>
</filter>
<filter id="filter7_f_1_1845" x="802.4" y="1133.06" width="711.63" height="573.175" filterUnits="userSpaceOnUse" color-interpolation-filters="sRGB">
<feFlood flood-opacity="0" result="BackgroundImageFix"/>
<feBlend mode="normal" in="SourceGraphic" in2="BackgroundImageFix" result="shape"/>
<feGaussianBlur stdDeviation="4.97072" result="effect1_foregroundBlur_1_1845"/>
</filter>
<filter id="filter8_f_1_1845" x="729.94" y="1108.85" width="847.944" height="763.195" filterUnits="userSpaceOnUse" color-interpolation-filters="sRGB">
<feFlood flood-opacity="0" result="BackgroundImageFix"/>
<feBlend mode="normal" in="SourceGraphic" in2="BackgroundImageFix" result="shape"/>
<feGaussianBlur stdDeviation="17.3975" result="effect1_foregroundBlur_1_1845"/>
</filter>
<filter id="filter9_f_1_1845" x="640.78" y="1104.16" width="1080.54" height="957.218" filterUnits="userSpaceOnUse" color-interpolation-filters="sRGB">
<feFlood flood-opacity="0" result="BackgroundImageFix"/>
<feBlend mode="normal" in="SourceGraphic" in2="BackgroundImageFix" result="shape"/>
<feGaussianBlur stdDeviation="24.8536" result="effect1_foregroundBlur_1_1845"/>
</filter>
<filter id="filter10_f_1_1845" x="620.666" y="1106.54" width="1298.29" height="1022.94" filterUnits="userSpaceOnUse" color-interpolation-filters="sRGB">
<feFlood flood-opacity="0" result="BackgroundImageFix"/>
<feBlend mode="normal" in="SourceGraphic" in2="BackgroundImageFix" result="shape"/>
<feGaussianBlur stdDeviation="67.1047" result="effect1_foregroundBlur_1_1845"/>
</filter>
<filter id="filter11_f_1_1845" x="503.676" y="986.639" width="1730.19" height="1438.11" filterUnits="userSpaceOnUse" color-interpolation-filters="sRGB">
<feFlood flood-opacity="0" result="BackgroundImageFix"/>
<feBlend mode="normal" in="SourceGraphic" in2="BackgroundImageFix" result="shape"/>
<feGaussianBlur stdDeviation="166.519" result="effect1_foregroundBlur_1_1845"/>
</filter>
<filter id="filter12_f_1_1845" x="537.738" y="1114.15" width="1239.11" height="1077.17" filterUnits="userSpaceOnUse" color-interpolation-filters="sRGB">
<feFlood flood-opacity="0" result="BackgroundImageFix"/>
<feBlend mode="normal" in="SourceGraphic" in2="BackgroundImageFix" result="shape"/>
<feGaussianBlur stdDeviation="77.0461" result="effect1_foregroundBlur_1_1845"/>
</filter>
<filter id="filter13_f_1_1845" x="759.725" y="1095.49" width="363.069" height="382.175" filterUnits="userSpaceOnUse" color-interpolation-filters="sRGB">
<feFlood flood-opacity="0" result="BackgroundImageFix"/>
<feBlend mode="normal" in="SourceGraphic" in2="BackgroundImageFix" result="shape"/>
<feGaussianBlur stdDeviation="3.25995" result="effect1_foregroundBlur_1_1845"/>
</filter>
<filter id="filter14_f_1_1845" x="656.117" y="1063.82" width="483.386" height="459.649" filterUnits="userSpaceOnUse" color-interpolation-filters="sRGB">
<feFlood flood-opacity="0" result="BackgroundImageFix"/>
<feBlend mode="normal" in="SourceGraphic" in2="BackgroundImageFix" result="shape"/>
<feGaussianBlur stdDeviation="11.4098" result="effect1_foregroundBlur_1_1845"/>
</filter>
<filter id="filter15_f_1_1845" x="463.578" y="1020.94" width="656.768" height="601.825" filterUnits="userSpaceOnUse" color-interpolation-filters="sRGB">
<feFlood flood-opacity="0" result="BackgroundImageFix"/>
<feBlend mode="normal" in="SourceGraphic" in2="BackgroundImageFix" result="shape"/>
<feGaussianBlur stdDeviation="16.2998" result="effect1_foregroundBlur_1_1845"/>
</filter>
<filter id="filter16_f_1_1845" x="466.52" y="933.584" width="686.956" height="812.799" filterUnits="userSpaceOnUse" color-interpolation-filters="sRGB">
<feFlood flood-opacity="0" result="BackgroundImageFix"/>
<feBlend mode="normal" in="SourceGraphic" in2="BackgroundImageFix" result="shape"/>
<feGaussianBlur stdDeviation="44.0093" result="effect1_foregroundBlur_1_1845"/>
</filter>
<filter id="filter17_f_1_1845" x="323.389" y="887.754" width="930.701" height="1063.22" filterUnits="userSpaceOnUse" color-interpolation-filters="sRGB">
<feFlood flood-opacity="0" result="BackgroundImageFix"/>
<feBlend mode="normal" in="SourceGraphic" in2="BackgroundImageFix" result="shape"/>
<feGaussianBlur stdDeviation="109.208" result="effect1_foregroundBlur_1_1845"/>
</filter>
<filter id="filter18_f_1_1845" x="420.422" y="963.834" width="714.082" height="714.082" filterUnits="userSpaceOnUse" color-interpolation-filters="sRGB">
<feFlood flood-opacity="0" result="BackgroundImageFix"/>
<feBlend mode="normal" in="SourceGraphic" in2="BackgroundImageFix" result="shape"/>
<feGaussianBlur stdDeviation="50.5292" result="effect1_foregroundBlur_1_1845"/>
</filter>
<filter id="filter19_f_1_1845" x="420.422" y="963.834" width="714.082" height="714.082" filterUnits="userSpaceOnUse" color-interpolation-filters="sRGB">
<feFlood flood-opacity="0" result="BackgroundImageFix"/>
<feBlend mode="normal" in="SourceGraphic" in2="BackgroundImageFix" result="shape"/>
<feGaussianBlur stdDeviation="50.5292" result="effect1_foregroundBlur_1_1845"/>
</filter>
<linearGradient id="paint0_linear_1_1845" x1="301.567" y1="1278.87" x2="120.582" y2="1736.02" gradientUnits="userSpaceOnUse">
<stop stop-color="#C4C4C4"/>
<stop offset="0.943414" stop-color="#C4C4C4" stop-opacity="0"/>
</linearGradient>
<linearGradient id="paint1_linear_1_1845" x1="125.734" y1="1455.44" x2="607.626" y2="1759.92" gradientUnits="userSpaceOnUse">
<stop stop-color="#C4C4C4"/>
<stop offset="1" stop-color="#C4C4C4" stop-opacity="0"/>
</linearGradient>
<linearGradient id="paint2_linear_1_1845" x1="1133.72" y1="1108.18" x2="1074.24" y2="1817.24" gradientUnits="userSpaceOnUse">
<stop stop-color="#C4C4C4"/>
<stop offset="1" stop-color="#C4C4C4" stop-opacity="0"/>
</linearGradient>
<linearGradient id="paint3_linear_1_1845" x1="969.19" y1="1246.94" x2="385.265" y2="1255.81" gradientUnits="userSpaceOnUse">
<stop stop-color="#C4C4C4"/>
<stop offset="1" stop-color="#C4C4C4" stop-opacity="0"/>
</linearGradient>
</defs>
</svg>
