<svg width="577" height="445" viewBox="0 0 577 445" fill="none" xmlns="http://www.w3.org/2000/svg">
<path d="M288.05 444.846C211.124 444.846 138.922 427.457 84.4873 396.081C57.0809 380.394 35.7228 361.871 21.1691 341.08C7.18236 321.045 0 300.064 0 278.328C0 256.781 7.18236 235.612 21.1691 215.577C35.7228 195.164 57.0809 176.641 84.4873 160.764C138.922 129.389 211.124 112 288.05 112C364.977 112 437.179 129.389 491.614 160.764C519.209 176.641 540.378 195.164 554.932 215.766C568.919 235.801 576.101 256.781 576.101 278.517C576.101 300.064 568.919 321.234 554.932 341.269C540.378 361.871 519.209 380.393 491.614 396.27L491.425 396.081L491.614 396.27C437.368 427.646 364.977 444.846 288.05 444.846ZM288.05 112.756C214.337 112.756 140.812 129.011 84.6763 161.331C30.4305 192.707 0.567034 234.289 0.567034 278.517C0.567034 322.746 30.4305 364.517 84.6763 395.703C196.759 460.345 379.153 460.345 491.425 395.703C545.67 364.328 575.534 322.746 575.534 278.517C575.534 234.289 545.67 192.518 491.425 161.331C435.478 128.822 361.764 112.756 288.05 112.756Z" fill="url(#paint0_linear_1_2022)"/>
<path d="M288.05 397.593C235.317 397.593 182.583 386.064 142.324 362.816C103.388 340.323 81.8408 310.46 81.8408 278.517C81.8408 246.575 103.388 216.711 142.324 194.219C222.653 147.912 353.258 147.912 433.588 194.219C472.523 216.711 494.071 246.575 494.071 278.517C494.071 310.46 472.523 340.323 433.588 362.816C393.707 385.875 340.973 397.593 288.05 397.593ZM288.05 160.008C235.317 160.008 182.772 171.538 142.702 194.786C103.955 217.089 82.5969 246.953 82.5969 278.517C82.5969 310.082 103.955 339.945 142.702 362.248C222.842 408.556 353.258 408.556 433.398 362.248C472.145 339.945 493.504 310.082 493.504 278.517C493.504 246.953 472.334 217.089 433.588 194.786C393.518 171.538 340.784 160.008 288.05 160.008Z" fill="url(#paint1_linear_1_2022)"/>
<path opacity="0.1" d="M439.135 286.756L399.443 263.886C396.419 262.185 396.797 259.16 400.199 257.081L438.19 235.156C441.592 233.077 446.885 232.888 449.909 234.589L489.601 257.459C492.625 259.16 492.247 262.185 488.845 264.264L450.854 286.189C447.452 288.268 442.159 288.457 439.135 286.756Z" fill="white"/>
<path d="M503.21 224.194V214.932H479.395L451.232 198.677C447.452 196.598 441.026 196.787 436.678 199.244L409.65 214.932H386.024V224.572C385.835 226.084 386.78 227.407 388.481 228.541L437.812 257.081C441.593 259.16 448.019 258.971 452.366 256.514L499.619 229.297C502.076 227.785 503.399 225.895 503.21 224.194Z" fill="url(#paint2_linear_1_2022)"/>
<path opacity="0.5" d="M503.21 224.194V214.932H479.395L451.232 198.677C447.452 196.598 441.026 196.787 436.678 199.244L409.65 214.932H386.024V224.572C385.835 226.084 386.78 227.407 388.481 228.541L437.812 257.081C441.593 259.16 448.019 258.971 452.366 256.514L499.619 229.297C502.076 227.785 503.399 225.895 503.21 224.194Z" fill="url(#paint3_linear_1_2022)"/>
<path d="M451.422 198.677C449.531 197.543 447.263 197.165 444.617 197.165V258.404C447.452 258.404 450.287 257.648 452.367 256.325L499.619 229.108C502.076 227.596 503.399 225.894 503.21 224.004V214.743H479.395L451.422 198.677Z" fill="url(#paint4_linear_1_2022)"/>
<path d="M437.812 247.253L388.481 218.712C384.701 216.633 385.268 212.853 389.615 210.207L436.867 182.99C441.214 180.533 447.83 180.154 451.421 182.423L500.753 210.963C504.533 213.042 503.966 216.822 499.618 219.468L452.366 246.686C448.019 249.143 441.593 249.521 437.812 247.253Z" fill="url(#paint5_linear_1_2022)"/>
<path opacity="0.5" d="M437.812 247.253L388.481 218.712C384.701 216.633 385.268 212.853 389.615 210.207L436.867 182.99C441.214 180.533 447.83 180.154 451.421 182.423L500.753 210.963C504.533 213.042 503.966 216.822 499.618 219.468L452.366 246.686C448.019 249.143 441.593 249.521 437.812 247.253Z" fill="url(#paint6_linear_1_2022)"/>
<path d="M439.135 241.016L399.443 218.145C396.419 216.444 396.797 213.42 400.199 211.341L438.19 189.416C441.592 187.337 446.885 187.148 449.909 188.849L489.601 211.719C492.625 213.42 492.247 216.444 488.845 218.523L450.854 240.449C447.452 242.528 442.159 242.717 439.135 241.016Z" fill="#5CFFF3"/>
<path d="M400.199 214.365L438.189 192.44C441.592 190.361 446.884 190.172 449.908 191.873L489.6 214.743C490.356 215.121 490.923 215.688 491.301 216.255C492.246 214.554 491.679 212.853 489.6 211.719L449.908 188.849C446.884 187.148 441.592 187.337 438.189 189.416L400.199 211.341C397.552 212.853 396.796 214.932 397.741 216.633C398.308 215.688 399.064 214.932 400.199 214.365Z" fill="#42E8E0"/>
<path opacity="0.5" d="M439.513 247.253L390.182 218.712C386.402 216.633 385.457 213.42 391.316 210.207L438.568 182.989C440.647 181.855 443.294 181.099 445.94 180.91C442.916 180.721 439.513 181.477 436.867 182.989L389.615 210.207C385.268 212.664 384.89 216.444 388.481 218.712L437.812 247.253C439.702 248.387 442.349 248.765 444.995 248.765C442.916 248.765 441.025 248.198 439.513 247.253Z" fill="url(#paint7_linear_1_2022)"/>
<path opacity="0.8" d="M499.619 223.627L452.367 250.844C448.019 253.301 441.404 253.679 437.813 251.411L388.481 223.06C386.591 222.115 385.835 220.603 386.024 219.09V221.17C385.835 222.682 386.78 224.005 388.481 225.139L437.813 253.679C441.593 255.758 448.019 255.569 452.367 253.112L499.619 225.895C502.076 224.383 503.399 222.682 503.21 220.792V218.712C503.399 220.224 502.076 222.115 499.619 223.627Z" fill="url(#paint8_linear_1_2022)"/>
<path d="M491.113 220.98C491.68 221.358 491.68 221.736 491.113 222.114C490.546 222.492 489.79 222.492 489.223 222.114C488.656 221.736 488.656 221.358 489.223 220.98C489.601 220.602 490.546 220.602 491.113 220.98Z" fill="#FCCC6B"/>
<path d="M494.137 219.09C494.704 219.469 494.704 219.847 494.137 220.225C493.57 220.603 492.814 220.603 492.247 220.225C491.68 219.847 491.68 219.469 492.247 219.09C492.625 218.901 493.57 218.901 494.137 219.09Z" fill="#FCCC6B"/>
<path d="M497.162 217.389C497.729 217.767 497.729 218.145 497.162 218.523C496.595 218.901 495.839 218.901 495.272 218.523C494.705 218.145 494.705 217.767 495.272 217.389C495.65 217.011 496.595 217.011 497.162 217.389Z" fill="#FCCC6B"/>
<path opacity="0.1" d="M441.971 227.218L423.449 216.444C422.125 215.688 422.125 214.176 423.827 213.231L441.593 203.025C443.295 202.08 445.752 201.891 447.075 202.836L465.598 213.609C466.921 214.365 466.921 215.877 465.22 216.822L447.453 227.029C445.941 227.785 443.484 227.974 441.971 227.218Z" fill="url(#paint9_linear_1_2022)"/>
<path opacity="0.8" d="M452.744 155.772H436.678V214.932C436.678 215.121 436.867 215.31 437.056 215.499L443.86 219.468C444.427 219.846 445.183 219.657 445.939 219.468L452.366 215.688C452.744 215.499 452.744 215.31 452.933 215.121V155.772H452.744Z" fill="#5CFFF3"/>
<path opacity="0.5" d="M466.731 146.511H422.503V215.121C422.503 215.688 422.692 216.255 423.448 216.634L441.971 227.407C443.294 228.163 445.94 228.163 447.452 227.218L465.219 217.012C465.975 216.445 466.542 215.877 466.542 215.31V146.511H466.731Z" fill="#5CFFF3"/>
<path d="M503.21 132.902V123.641H479.395L451.232 107.386C447.452 105.307 441.026 105.496 436.678 107.953L409.65 123.641H386.024V133.28C385.835 134.792 386.78 136.115 388.481 137.249L437.812 165.79C441.593 167.869 448.019 167.68 452.366 165.223L499.619 138.005C502.076 136.493 503.399 134.603 503.21 132.902Z" fill="url(#paint10_linear_1_2022)"/>
<path opacity="0.5" d="M503.21 132.902V123.641H479.395L451.232 107.386C447.452 105.307 441.026 105.496 436.678 107.953L409.65 123.641H386.024V133.28C385.835 134.792 386.78 136.115 388.481 137.249L437.812 165.79C441.593 167.869 448.019 167.68 452.366 165.223L499.619 138.005C502.076 136.493 503.399 134.603 503.21 132.902Z" fill="url(#paint11_linear_1_2022)"/>
<path d="M451.422 107.386C449.531 106.252 447.263 105.874 444.617 105.874V167.113C447.452 167.113 450.287 166.357 452.367 165.034L499.619 137.817C502.076 136.305 503.399 134.603 503.21 132.713V123.452H479.395L451.422 107.386Z" fill="url(#paint12_linear_1_2022)"/>
<path d="M437.812 156.151L388.481 127.61C384.701 125.531 385.268 121.751 389.615 119.105L436.867 91.8873C441.214 89.4302 447.83 89.0522 451.421 91.3203L500.753 119.861C504.533 121.94 503.966 125.72 499.618 128.366L452.366 155.584C448.019 158.041 441.593 158.23 437.812 156.151Z" fill="url(#paint13_linear_1_2022)"/>
<path opacity="0.5" d="M437.812 156.151L388.481 127.61C384.701 125.531 385.268 121.751 389.615 119.105L436.867 91.8873C441.214 89.4302 447.83 89.0522 451.421 91.3203L500.753 119.861C504.533 121.94 503.966 125.72 499.618 128.366L452.366 155.584C448.019 158.041 441.593 158.23 437.812 156.151Z" fill="url(#paint14_linear_1_2022)"/>
<path d="M439.135 149.724L399.443 126.854C396.419 125.153 396.797 122.129 400.199 120.05L438.19 98.1244C441.592 96.0453 446.885 95.8563 449.909 97.5574L489.601 120.428C492.625 122.129 492.247 125.153 488.845 127.232L450.854 149.346C447.452 151.236 442.159 151.425 439.135 149.724Z" fill="#5CFFF3"/>
<path d="M400.199 123.074L438.189 101.149C441.592 99.0695 446.884 98.8805 449.908 100.582L489.6 123.452C490.356 123.83 490.923 124.397 491.301 124.964C492.246 123.263 491.679 121.562 489.6 120.428L449.908 97.5574C446.884 95.8563 441.592 96.0453 438.189 98.1244L400.199 120.05C397.552 121.562 396.796 123.641 397.741 125.342C398.308 124.586 399.064 123.641 400.199 123.074Z" fill="#42E8E0"/>
<path opacity="0.5" d="M439.513 156.15L390.182 127.61C386.402 125.531 385.457 122.318 391.316 119.105L438.568 91.8872C440.647 90.7531 443.294 89.9971 445.94 89.8081C442.916 89.6191 439.513 90.3751 436.867 91.8872L389.615 119.105C385.268 121.562 384.89 125.342 388.481 127.61L437.812 156.15C439.702 157.284 442.349 157.663 444.995 157.663C442.916 157.473 441.025 156.906 439.513 156.15Z" fill="url(#paint15_linear_1_2022)"/>
<path opacity="0.8" d="M499.619 132.335L452.367 159.553C448.019 162.01 441.404 162.388 437.813 160.12L388.481 131.579C386.591 130.634 385.835 129.122 386.024 127.61V129.689C385.835 131.201 386.78 132.524 388.481 133.658L437.813 162.199C441.593 164.278 448.019 164.089 452.367 161.632L499.619 134.415C502.076 132.902 503.399 131.201 503.21 129.311V127.232C503.399 128.933 502.076 130.823 499.619 132.335Z" fill="url(#paint16_linear_1_2022)"/>
<path d="M491.113 129.689C491.68 130.067 491.68 130.445 491.113 130.823C490.546 131.201 489.79 131.201 489.223 130.823C488.656 130.445 488.656 130.067 489.223 129.689C489.601 129.311 490.546 129.311 491.113 129.689Z" fill="white"/>
<path d="M494.137 127.799C494.704 128.177 494.704 128.556 494.137 128.934C493.57 129.312 492.814 129.312 492.247 128.934C491.68 128.556 491.68 128.177 492.247 127.799C492.625 127.61 493.57 127.61 494.137 127.799Z" fill="white"/>
<path d="M497.162 126.098C497.729 126.476 497.729 126.854 497.162 127.232C496.595 127.61 495.839 127.61 495.272 127.232C494.705 126.854 494.705 126.476 495.272 126.098C495.65 125.72 496.595 125.72 497.162 126.098Z" fill="white"/>
<path opacity="0.5" d="M503.211 132.903C503.211 134.604 502.077 136.494 499.62 137.817L452.368 165.034C448.02 167.491 441.405 167.869 437.814 165.601L388.482 137.061C386.592 136.116 385.836 134.604 386.025 133.092V214.933C386.025 216.256 386.781 217.579 388.482 218.713L437.814 247.253C441.594 249.332 448.02 249.143 452.368 246.686L499.62 219.469C502.077 218.146 503.211 216.256 503.211 214.555V132.903Z" fill="#5CFFF3"/>
<path opacity="0.7" d="M499.62 137.817L452.368 165.034C450.099 166.357 447.264 166.924 444.618 167.113V248.765C447.453 248.765 450.288 248.009 452.368 246.686L499.62 219.469C502.077 218.146 503.211 216.256 503.211 214.555V132.903C503.211 134.604 502.077 136.494 499.62 137.817Z" fill="#42E8E0"/>
<path opacity="0.1" d="M126.325 287.513L86.6326 264.643C83.6085 262.942 83.9865 259.917 87.3887 257.838L125.38 235.913C128.782 233.834 134.074 233.645 137.098 235.346L176.79 258.216C179.814 259.917 179.436 262.942 176.034 265.021L138.043 286.946C134.452 289.025 129.349 289.214 126.325 287.513Z" fill="white"/>
<path d="M190.21 224.951V215.689H166.395L138.232 199.435C134.452 197.355 128.026 197.544 123.678 200.002L96.839 215.689H73.0238V225.329C72.8348 226.841 73.7799 228.164 75.481 229.298L124.812 257.838C128.593 259.918 135.019 259.729 139.366 257.271L186.619 230.054C189.265 228.542 190.399 226.652 190.21 224.951Z" fill="url(#paint17_linear_1_2022)"/>
<path opacity="0.5" d="M190.21 224.951V215.689H166.395L138.232 199.435C134.452 197.355 128.026 197.544 123.678 200.002L96.839 215.689H73.0238V225.329C72.8348 226.841 73.7799 228.164 75.481 229.298L124.812 257.838C128.593 259.918 135.019 259.729 139.366 257.271L186.619 230.054C189.265 228.542 190.399 226.652 190.21 224.951Z" fill="url(#paint18_linear_1_2022)"/>
<path d="M138.422 199.623C136.531 198.489 134.263 198.111 131.617 198.111V259.35C134.452 259.35 137.287 258.594 139.367 257.271L186.619 230.054C189.076 228.542 190.399 226.841 190.21 224.951V215.689H166.395L138.422 199.623Z" fill="url(#paint19_linear_1_2022)"/>
<path d="M125.001 248.199L75.6693 219.659C71.8891 217.58 72.4562 213.799 76.8034 211.153L124.056 183.936C128.403 181.479 135.018 181.101 138.609 183.369L187.941 211.909C191.721 213.988 191.154 217.769 186.807 220.415L139.555 247.632C135.207 250.089 128.592 250.278 125.001 248.199Z" fill="url(#paint20_linear_1_2022)"/>
<path opacity="0.5" d="M125.001 248.199L75.6693 219.659C71.8891 217.58 72.4562 213.799 76.8034 211.153L124.056 183.936C128.403 181.479 135.018 181.101 138.609 183.369L187.941 211.909C191.721 213.988 191.154 217.769 186.807 220.415L139.555 247.632C135.207 250.089 128.592 250.278 125.001 248.199Z" fill="url(#paint21_linear_1_2022)"/>
<path d="M126.325 241.773L86.6326 218.902C83.6085 217.201 83.9865 214.177 87.3887 212.098L125.38 190.173C128.782 188.094 134.074 187.905 137.098 189.606L176.79 212.476C179.814 214.177 179.436 217.201 176.034 219.28L138.043 241.206C134.452 243.474 129.349 243.663 126.325 241.773Z" fill="#5CFFF3"/>
<path d="M87.3889 215.122L125.38 193.197C128.782 191.118 134.074 190.929 137.098 192.63L176.79 215.5C177.546 215.878 178.113 216.445 178.492 217.012C179.437 215.311 178.87 213.61 176.79 212.476L137.098 189.606C134.074 187.905 128.782 188.094 125.38 190.173L87.3889 212.098C84.7428 213.61 83.9868 215.689 84.9318 217.39C85.3098 216.634 86.2549 215.689 87.3889 215.122Z" fill="#42E8E0"/>
<path opacity="0.5" d="M126.513 248.199L77.1819 219.659C73.4017 217.579 72.4567 214.366 78.316 211.153L125.568 183.936C127.647 182.802 130.294 182.046 132.94 181.857C129.916 181.668 126.513 182.424 123.867 183.936L76.6149 211.153C72.2677 213.61 71.8896 217.39 75.4808 219.659L124.812 248.199C126.702 249.333 129.349 249.711 131.995 249.711C130.105 249.522 128.025 248.955 126.513 248.199Z" fill="url(#paint22_linear_1_2022)"/>
<path opacity="0.8" d="M186.807 224.384L139.555 251.601C135.208 254.059 128.593 254.437 125.001 252.168L75.6699 223.628C73.7798 222.683 73.0237 221.171 73.2127 219.659V221.738C73.0237 223.25 73.9688 224.573 75.6699 225.707L125.001 254.248C128.782 256.327 135.208 256.138 139.555 253.68L186.807 226.463C189.265 224.951 190.588 223.25 190.399 221.36V219.281C190.399 221.171 189.265 222.872 186.807 224.384Z" fill="url(#paint23_linear_1_2022)"/>
<path d="M178.113 221.737C178.68 222.115 178.68 222.493 178.113 222.871C177.546 223.249 176.79 223.249 176.223 222.871C175.656 222.493 175.656 222.115 176.223 221.737C176.79 221.359 177.735 221.359 178.113 221.737Z" fill="#FCCC6B"/>
<path d="M181.137 220.037C181.704 220.415 181.704 220.793 181.137 221.171C180.57 221.549 179.814 221.549 179.247 221.171C178.68 220.793 178.68 220.415 179.247 220.037C179.814 219.659 180.759 219.659 181.137 220.037Z" fill="#FCCC6B"/>
<path d="M184.162 218.146C184.729 218.524 184.729 218.902 184.162 219.28C183.595 219.658 182.839 219.658 182.272 219.28C181.705 218.902 181.705 218.524 182.272 218.146C182.839 217.957 183.784 217.957 184.162 218.146Z" fill="#FCCC6B"/>
<path opacity="0.1" d="M129.16 227.974L110.637 217.201C109.314 216.445 109.314 214.933 111.015 213.988L128.782 203.781C130.483 202.836 132.94 202.647 134.263 203.592L152.786 214.366C154.109 215.122 154.109 216.634 152.408 217.579L134.641 227.785C132.94 228.731 130.483 228.731 129.16 227.974Z" fill="url(#paint24_linear_1_2022)"/>
<path opacity="0.8" d="M139.744 156.529H123.678V215.689C123.678 215.878 123.867 216.067 124.056 216.256L130.86 220.225C131.427 220.603 132.183 220.414 132.939 220.225L139.366 216.445C139.744 216.256 139.744 216.067 139.933 215.878V156.529H139.744Z" fill="#5CFFF3"/>
<path opacity="0.5" d="M153.732 147.268H109.692V215.878C109.692 216.445 109.881 217.012 110.637 217.39L129.16 228.164C130.483 228.92 133.13 228.92 134.642 227.975L152.409 217.768C153.165 217.201 153.732 216.634 153.732 216.067V147.268Z" fill="#5CFFF3"/>
<path d="M190.21 133.659V124.398H166.395L138.421 108.332C134.641 106.253 128.215 106.442 123.867 108.899L96.839 124.398H73.0238V134.226C72.8348 135.738 73.7799 137.061 75.481 138.195L124.812 166.736C128.593 168.815 135.019 168.626 139.366 166.169L186.619 138.951C189.265 137.25 190.399 135.36 190.21 133.659Z" fill="url(#paint25_linear_1_2022)"/>
<path opacity="0.5" d="M190.21 133.659V124.398H166.395L138.421 108.332C134.641 106.253 128.215 106.442 123.867 108.899L96.839 124.398H73.0238V134.226C72.8348 135.738 73.7799 137.061 75.481 138.195L124.812 166.736C128.593 168.815 135.019 168.626 139.366 166.169L186.619 138.951C189.265 137.25 190.399 135.36 190.21 133.659Z" fill="url(#paint26_linear_1_2022)"/>
<path d="M138.422 108.331C136.531 107.197 134.263 106.819 131.617 106.819V168.058C134.452 168.058 137.287 167.302 139.367 165.979L186.619 138.762C189.076 137.25 190.399 135.549 190.21 133.659V124.397H166.395L138.422 108.331Z" fill="url(#paint27_linear_1_2022)"/>
<path d="M125.001 156.907L75.6693 128.367C71.8891 126.288 72.4562 122.507 76.8034 119.861L124.056 92.6439C128.403 90.1868 135.018 89.8088 138.609 92.0769L187.941 120.617C191.721 122.696 191.154 126.477 186.807 129.123L139.555 156.34C135.207 158.797 128.592 158.986 125.001 156.907Z" fill="url(#paint28_linear_1_2022)"/>
<path opacity="0.5" d="M125.001 156.907L75.6693 128.367C71.8891 126.288 72.4562 122.507 76.8034 119.861L124.056 92.6439C128.403 90.1868 135.018 89.8088 138.609 92.0769L187.941 120.617C191.721 122.696 191.154 126.477 186.807 129.123L139.555 156.34C135.207 158.797 128.592 158.986 125.001 156.907Z" fill="url(#paint29_linear_1_2022)"/>
<path d="M126.325 150.67L86.6326 127.8C83.6085 126.099 83.9865 123.074 87.3887 120.995L125.38 99.0702C128.782 96.9911 134.074 96.8021 137.098 98.5032L176.79 121.373C179.814 123.074 179.436 126.099 176.034 128.178L138.043 150.103C134.452 152.182 129.349 152.371 126.325 150.67Z" fill="#5CFFF3"/>
<path d="M87.3889 123.83L125.38 101.905C128.782 99.8261 134.074 99.6371 137.098 101.338L176.79 124.208C177.546 124.586 178.113 125.153 178.492 125.72C179.437 124.019 178.87 122.318 176.79 121.184L137.098 98.314C134.074 96.6129 128.782 96.8019 125.38 98.881L87.3889 120.806C84.7428 122.318 83.9868 124.397 84.9318 126.098C85.3098 125.342 86.2549 124.586 87.3889 123.83Z" fill="#42E8E0"/>
<path opacity="0.5" d="M126.513 156.907L77.1819 128.367C73.4017 126.287 72.4567 123.074 78.316 119.861L125.568 92.6438C127.647 91.5097 130.294 90.7537 132.94 90.5647C129.916 90.3757 126.513 91.1317 123.867 92.6438L76.6149 119.861C72.2677 122.318 71.8896 126.098 75.4808 128.367L125.001 156.907C126.891 158.041 129.538 158.419 132.184 158.419C130.105 158.23 128.025 157.663 126.513 156.907Z" fill="url(#paint30_linear_1_2022)"/>
<path opacity="0.8" d="M186.807 133.092L139.555 160.309C135.208 162.766 128.593 163.144 125.001 160.876L75.6699 132.525C73.7798 131.58 73.0237 130.068 73.2127 128.556V130.635C73.0237 132.147 73.9688 133.47 75.6699 134.604L125.001 163.144C128.782 165.223 135.208 165.034 139.555 162.577L186.807 135.36C189.265 133.848 190.588 132.147 190.399 130.257V128.177C190.399 129.879 189.265 131.769 186.807 133.092Z" fill="url(#paint31_linear_1_2022)"/>
<path d="M178.113 130.446C178.68 130.824 178.68 131.202 178.113 131.58C177.546 131.958 176.79 131.958 176.223 131.58C175.656 131.202 175.656 130.824 176.223 130.446C176.79 130.068 177.735 130.068 178.113 130.446Z" fill="white"/>
<path d="M181.137 128.745C181.704 129.123 181.704 129.501 181.137 129.879C180.57 130.257 179.814 130.257 179.247 129.879C178.68 129.501 178.68 129.123 179.247 128.745C179.814 128.367 180.759 128.367 181.137 128.745Z" fill="white"/>
<path d="M184.162 126.855C184.729 127.233 184.729 127.611 184.162 127.989C183.595 128.367 182.839 128.367 182.272 127.989C181.705 127.611 181.705 127.233 182.272 126.855C182.839 126.666 183.784 126.666 184.162 126.855Z" fill="white"/>
<path opacity="0.5" d="M190.399 133.659C190.399 135.36 189.265 137.25 186.807 138.573L139.555 165.791C135.208 168.248 128.593 168.626 125.001 166.358L75.6699 138.006C73.7798 136.872 73.0237 135.549 73.2127 134.037V215.878C73.2127 217.201 73.9688 218.524 75.6699 219.659L125.001 248.199C128.782 250.278 135.208 250.089 139.555 247.632L186.807 220.415C189.265 219.091 190.399 217.201 190.399 215.5V133.659Z" fill="#5CFFF3"/>
<path opacity="0.7" d="M186.807 138.762L139.555 165.98C137.287 167.303 134.452 167.87 131.806 168.059V249.711C134.641 249.711 137.476 248.955 139.555 247.632L186.807 220.415C189.265 219.091 190.399 217.201 190.399 215.5V133.659C190.399 135.36 189.265 137.25 186.807 138.762Z" fill="#42E8E0"/>
<path opacity="0.1" d="M283.013 196.976L243.321 174.106C240.297 172.405 240.675 169.381 244.077 167.302L282.068 145.377C285.47 143.298 290.762 143.109 293.787 144.81L333.479 167.68C336.503 169.381 336.125 172.405 332.723 174.484L294.732 196.409C291.33 198.488 286.037 198.677 283.013 196.976Z" fill="white"/>
<path d="M347.088 134.414V125.153H323.272L295.299 108.898C291.519 106.819 285.093 107.008 280.745 109.465L253.717 125.153H229.902V134.792C229.713 136.304 230.658 137.627 232.359 138.761L281.69 167.302C285.471 169.381 291.897 169.192 296.244 166.735L343.497 139.517C345.954 138.005 347.277 136.115 347.088 134.414Z" fill="url(#paint32_linear_1_2022)"/>
<path opacity="0.5" d="M347.088 134.414V125.153H323.272L295.299 108.898C291.519 106.819 285.093 107.008 280.745 109.465L253.717 125.153H229.902V134.792C229.713 136.304 230.658 137.627 232.359 138.761L281.69 167.302C285.471 169.381 291.897 169.192 296.244 166.735L343.497 139.517C345.954 138.005 347.277 136.115 347.088 134.414Z" fill="url(#paint33_linear_1_2022)"/>
<path d="M295.299 108.898C293.409 107.764 291.141 107.385 288.495 107.385V168.625C291.33 168.625 294.165 167.869 296.245 166.545L343.497 139.328C345.954 137.816 347.277 136.115 347.088 134.225V124.963H323.273L295.299 108.898Z" fill="url(#paint34_linear_1_2022)"/>
<path d="M281.69 157.473L232.359 128.933C228.579 126.854 229.146 123.074 233.493 120.427L280.745 93.2101C285.092 90.753 291.708 90.3749 295.299 92.6431L344.63 121.183C348.411 123.263 347.844 127.043 343.496 129.689L296.244 156.906C291.897 159.363 285.47 159.741 281.69 157.473Z" fill="url(#paint35_linear_1_2022)"/>
<path opacity="0.5" d="M281.69 157.473L232.359 128.933C228.579 126.854 229.146 123.074 233.493 120.427L280.745 93.2101C285.092 90.753 291.708 90.3749 295.299 92.6431L344.63 121.183C348.411 123.263 347.844 127.043 343.496 129.689L296.244 156.906C291.897 159.363 285.47 159.741 281.69 157.473Z" fill="url(#paint36_linear_1_2022)"/>
<path d="M283.013 151.236L243.321 128.366C240.297 126.665 240.675 123.641 244.077 121.562L282.068 99.6364C285.47 97.5573 290.762 97.3683 293.787 99.0694L333.479 121.94C336.503 123.641 336.125 126.665 332.723 128.744L294.732 150.669C291.33 152.748 286.037 152.937 283.013 151.236Z" fill="#5CFFF3"/>
<path d="M244.076 124.396L282.067 102.471C285.47 100.392 290.762 100.203 293.786 101.904L333.478 124.774C334.234 125.152 334.801 125.72 335.179 126.287C336.124 124.585 335.557 122.884 333.478 121.75L293.786 98.8802C290.762 97.1791 285.47 97.3681 282.067 99.4472L244.076 121.372C241.43 122.884 240.674 124.963 241.619 126.665C242.186 125.909 242.942 125.152 244.076 124.396Z" fill="#42E8E0"/>
<path opacity="0.5" d="M283.391 157.473L234.06 128.933C230.28 126.854 229.335 123.64 235.194 120.427L282.446 93.2099C284.525 92.0759 287.172 91.3198 289.818 91.1308C286.793 90.9418 283.391 91.6979 280.745 93.2099L233.493 120.427C229.146 122.884 228.768 126.665 232.359 128.933L281.69 157.473C283.58 158.607 286.226 158.985 288.873 158.985C286.793 158.796 284.903 158.418 283.391 157.473Z" fill="url(#paint37_linear_1_2022)"/>
<path opacity="0.8" d="M343.497 133.847L296.245 161.064C291.897 163.521 285.282 163.899 281.691 161.631L232.359 133.091C230.469 132.146 229.713 130.634 229.902 129.122V131.201C229.713 132.713 230.658 134.036 232.359 135.17L281.691 163.71C285.471 165.79 291.897 165.601 296.245 163.143L343.497 135.926C345.954 134.414 347.277 132.713 347.088 130.823V128.744C347.277 130.445 345.954 132.335 343.497 133.847Z" fill="url(#paint38_linear_1_2022)"/>
<path d="M334.991 131.012C335.558 131.39 335.558 131.768 334.991 132.146C334.424 132.524 333.668 132.524 333.101 132.146C332.534 131.768 332.534 131.39 333.101 131.012C333.479 130.823 334.424 130.823 334.991 131.012Z" fill="#FCCC6B"/>
<path d="M338.015 129.311C338.582 129.689 338.582 130.067 338.015 130.445C337.448 130.823 336.692 130.823 336.124 130.445C335.557 130.067 335.557 129.689 336.124 129.311C336.503 129.122 337.448 129.122 338.015 129.311Z" fill="#FCCC6B"/>
<path d="M341.04 127.61C341.607 127.988 341.607 128.366 341.04 128.744C340.473 129.122 339.717 129.122 339.15 128.744C338.583 128.366 338.583 127.988 339.15 127.61C339.528 127.232 340.473 127.232 341.04 127.61Z" fill="#FCCC6B"/>
<path opacity="0.1" d="M285.849 137.438L267.326 126.665C266.003 125.909 266.003 124.397 267.704 123.452L285.471 113.245C287.172 112.3 289.63 112.111 290.953 113.056L309.476 123.83C310.799 124.586 310.799 126.098 309.098 127.043L291.331 137.249C289.819 138.005 287.361 138.194 285.849 137.438Z" fill="url(#paint39_linear_1_2022)"/>
<path opacity="0.8" d="M296.621 65.9927H280.556V125.153C280.556 125.342 280.745 125.531 280.934 125.72L287.738 129.689C288.305 130.067 289.061 129.878 289.817 129.689L296.243 125.909C296.621 125.72 296.621 125.531 296.81 125.342V65.9927H296.621Z" fill="#5CFFF3"/>
<path opacity="0.5" d="M310.609 56.5422H266.381V125.153C266.381 125.72 266.57 126.287 267.326 126.665L285.849 137.438C287.172 138.194 289.818 138.194 291.33 137.249L309.097 127.043C309.853 126.476 310.42 125.909 310.42 125.342V56.5422H310.609Z" fill="#5CFFF3"/>
<path d="M347.088 43.1227V33.8612H323.272L295.299 17.6064C291.519 15.5273 285.093 15.7163 280.745 18.1734L253.717 33.8612H229.902V43.5007C229.713 45.0128 230.658 46.3358 232.359 47.4699L281.69 76.0103C285.471 78.0894 291.897 77.9004 296.244 75.4433L343.497 48.2259C345.954 46.7139 347.277 44.8238 347.088 43.1227Z" fill="url(#paint40_linear_1_2022)"/>
<path opacity="0.5" d="M347.088 43.1227V33.8612H323.272L295.299 17.6064C291.519 15.5273 285.093 15.7163 280.745 18.1734L253.717 33.8612H229.902V43.5007C229.713 45.0128 230.658 46.3358 232.359 47.4699L281.69 76.0103C285.471 78.0894 291.897 77.9004 296.244 75.4433L343.497 48.2259C345.954 46.7139 347.277 44.8238 347.088 43.1227Z" fill="url(#paint41_linear_1_2022)"/>
<path d="M295.299 17.6066C293.409 16.4725 291.141 16.0945 288.495 16.0945V77.5226C291.33 77.5226 294.165 76.7665 296.245 75.4435L343.497 48.2261C345.954 46.714 347.277 45.0129 347.088 43.1228V33.8614H323.273L295.299 17.6066Z" fill="url(#paint42_linear_1_2022)"/>
<path d="M281.69 66.182L232.359 37.8306C228.579 35.7515 229.146 31.9713 233.493 29.3252L280.745 2.1078C285.092 -0.349328 291.708 -0.727347 295.299 1.54077L344.63 30.0812C348.411 32.1603 347.844 35.9405 343.496 38.5866L296.244 65.804C291.897 68.0721 285.47 68.4501 281.69 66.182Z" fill="url(#paint43_linear_1_2022)"/>
<path opacity="0.5" d="M281.69 66.182L232.359 37.8306C228.579 35.7515 229.146 31.9713 233.493 29.3252L280.745 2.1078C285.092 -0.349328 291.708 -0.727347 295.299 1.54077L344.63 30.0812C348.411 32.1603 347.844 35.9405 343.496 38.5866L296.244 65.804C291.897 68.0721 285.47 68.4501 281.69 66.182Z" fill="url(#paint44_linear_1_2022)"/>
<path d="M283.013 59.9445L243.321 37.0743C240.297 35.3733 240.675 32.3491 244.077 30.27L282.068 8.3449C285.47 6.2658 290.762 6.07679 293.787 7.77787L333.479 30.648C336.503 32.3491 336.125 35.3733 332.723 37.4524L294.732 59.3775C291.33 61.4566 286.037 61.6456 283.013 59.9445Z" fill="#5CFFF3"/>
<path d="M244.076 33.2942L282.067 11.3691C285.47 9.28995 290.762 9.10094 293.786 10.802L333.478 33.6722C334.234 34.0502 334.801 34.6172 335.179 35.1842C336.124 33.4832 335.557 31.7821 333.478 30.648L293.786 7.77787C290.762 6.07679 285.47 6.2658 282.067 8.3449L244.076 30.27C241.43 31.7821 240.674 33.8612 241.619 35.5623C242.186 34.6172 242.942 33.8612 244.076 33.2942Z" fill="#42E8E0"/>
<path opacity="0.5" d="M283.391 66.1819L234.06 37.8304C230.28 35.7513 229.335 32.5382 235.194 29.325L282.446 2.10765C284.525 0.973591 287.172 0.217553 289.818 0.0285433C286.793 -0.160466 283.391 0.595572 280.745 2.10765L233.493 29.325C229.146 31.7821 228.768 35.5623 232.359 37.8304L281.69 66.1819C283.58 67.3159 286.226 67.6939 288.873 67.6939C286.793 67.5049 284.903 67.1269 283.391 66.1819Z" fill="url(#paint45_linear_1_2022)"/>
<path opacity="0.8" d="M343.497 42.5559L296.245 69.7733C291.897 72.2304 285.282 72.6084 281.691 70.3403L232.359 41.7999C230.469 40.8548 229.713 39.3427 229.902 37.8307V39.9098C229.713 41.4218 230.658 42.7449 232.359 43.879L281.691 72.4194C285.471 74.4985 291.897 74.3095 296.245 71.8524L343.497 44.635C345.954 43.1229 347.277 41.4218 347.088 39.5317V37.4526C347.277 39.1537 345.954 41.0438 343.497 42.5559Z" fill="url(#paint46_linear_1_2022)"/>
<path d="M334.991 39.9097C335.558 40.2878 335.558 40.6658 334.991 41.0438C334.424 41.4218 333.668 41.4218 333.101 41.0438C332.534 40.6658 332.534 40.2878 333.101 39.9097C333.479 39.5317 334.424 39.5317 334.991 39.9097Z" fill="white"/>
<path d="M338.015 38.0199C338.582 38.3979 338.582 38.776 338.015 39.154C337.448 39.532 336.692 39.532 336.124 39.154C335.557 38.776 335.557 38.3979 336.124 38.0199C336.503 37.8309 337.448 37.8309 338.015 38.0199Z" fill="white"/>
<path d="M341.04 36.3187C341.607 36.6967 341.607 37.0747 341.04 37.4527C340.473 37.8307 339.717 37.8307 339.15 37.4527C338.583 37.0747 338.583 36.6967 339.15 36.3187C339.528 35.9407 340.473 35.9407 341.04 36.3187Z" fill="white"/>
<path opacity="0.5" d="M347.089 43.123C347.089 44.8241 345.955 46.7142 343.498 48.0373L296.246 75.2547C291.898 77.7118 285.283 78.0898 281.692 75.8217L232.36 47.2813C230.47 46.3362 229.714 44.8241 229.903 43.3121V125.153C229.903 126.476 230.659 127.799 232.36 128.933L281.692 157.474C285.472 159.553 291.898 159.364 296.246 156.907L343.498 129.689C345.955 128.366 347.089 126.476 347.089 124.775V43.123Z" fill="#5CFFF3"/>
<path opacity="0.7" d="M343.498 48.0373L296.245 75.2547C293.977 76.5777 291.142 77.1448 288.496 77.3338V158.986C291.331 158.986 294.166 158.23 296.245 156.907L343.498 129.689C345.955 128.366 347.089 126.476 347.089 124.775V43.123C347.089 44.8241 345.955 46.7142 343.498 48.0373Z" fill="#42E8E0"/>
<path opacity="0.1" d="M282.448 377.292L242.756 354.422C239.732 352.721 240.11 349.697 243.512 347.618L281.503 325.693C284.905 323.613 290.197 323.424 293.221 325.126L332.913 347.996C335.937 349.697 335.559 352.721 332.157 354.8L294.166 376.725C290.575 378.804 285.283 378.993 282.448 377.292Z" fill="white"/>
<path d="M346.333 314.73V305.469H322.518L294.355 289.214C290.575 287.135 284.149 287.324 279.801 289.781L252.773 305.469H229.147V315.108C228.958 316.62 229.903 317.943 231.604 319.077L280.935 347.618C284.716 349.697 291.142 349.508 295.489 347.051L342.742 319.833C345.388 318.321 346.522 316.431 346.333 314.73Z" fill="url(#paint47_linear_1_2022)"/>
<path opacity="0.5" d="M346.333 314.73V305.469H322.518L294.355 289.214C290.575 287.135 284.149 287.324 279.801 289.781L252.773 305.469H229.147V315.108C228.958 316.62 229.903 317.943 231.604 319.077L280.935 347.618C284.716 349.697 291.142 349.508 295.489 347.051L342.742 319.833C345.388 318.321 346.522 316.431 346.333 314.73Z" fill="url(#paint48_linear_1_2022)"/>
<path d="M294.545 289.403C292.654 288.269 290.386 287.891 287.74 287.891V349.13C290.575 349.13 293.411 348.374 295.49 347.051L342.742 319.833C345.199 318.321 346.522 316.62 346.333 314.73V305.469H322.518L294.545 289.403Z" fill="url(#paint49_linear_1_2022)"/>
<path d="M281.124 337.978L231.792 309.438C228.012 307.359 228.579 303.579 232.926 300.933L280.179 273.715C284.526 271.258 291.141 270.88 294.733 273.148L344.064 301.689C347.844 303.768 347.277 307.548 342.93 310.194L295.678 337.411C291.33 339.869 284.715 340.058 281.124 337.978Z" fill="url(#paint50_linear_1_2022)"/>
<path opacity="0.5" d="M281.124 337.978L231.792 309.438C228.012 307.359 228.579 303.579 232.926 300.933L280.179 273.715C284.526 271.258 291.141 270.88 294.733 273.148L344.064 301.689C347.844 303.768 347.277 307.548 342.93 310.194L295.678 337.411C291.33 339.869 284.715 340.058 281.124 337.978Z" fill="url(#paint51_linear_1_2022)"/>
<path d="M282.448 331.741L242.756 308.871C239.732 307.17 240.11 304.146 243.512 302.067L281.503 280.142C284.905 278.062 290.197 277.873 293.221 279.574L332.913 302.445C335.937 304.146 335.559 307.17 332.157 309.249L294.166 331.174C290.575 333.253 285.283 333.442 282.448 331.741Z" fill="#5CFFF3"/>
<path d="M243.512 304.902L281.503 282.976C284.905 280.897 290.197 280.708 293.221 282.409L332.913 305.28C333.669 305.658 334.237 306.225 334.615 306.792C335.56 305.091 334.993 303.389 332.913 302.255L293.221 279.385C290.197 277.684 284.905 277.873 281.503 279.952L243.512 301.877C240.866 303.389 240.11 305.469 241.055 307.17C241.433 306.414 242.378 305.658 243.512 304.902Z" fill="#42E8E0"/>
<path opacity="0.5" d="M282.636 337.978L233.305 309.438C229.525 307.359 228.58 304.146 234.439 300.932L281.691 273.715C283.77 272.581 286.417 271.825 289.063 271.636C286.039 271.447 282.636 272.203 279.99 273.715L232.738 300.932C228.391 303.39 228.013 307.17 231.604 309.438L280.935 337.978C282.825 339.112 285.472 339.49 288.118 339.49C286.228 339.301 284.149 338.734 282.636 337.978Z" fill="url(#paint52_linear_1_2022)"/>
<path opacity="0.8" d="M342.93 314.163L295.678 341.381C291.331 343.838 284.716 344.216 281.124 341.948L231.793 313.407C229.903 312.462 229.147 310.95 229.336 309.438V311.517C229.147 313.029 230.092 314.352 231.793 315.486L281.124 344.027C284.905 346.106 291.331 345.917 295.678 343.46L342.93 316.242C345.388 314.73 346.711 313.029 346.522 311.139V309.06C346.522 310.95 345.388 312.84 342.93 314.163Z" fill="url(#paint53_linear_1_2022)"/>
<path d="M334.236 311.517C334.803 311.895 334.803 312.273 334.236 312.651C333.669 313.029 332.913 313.029 332.346 312.651C331.779 312.273 331.779 311.895 332.346 311.517C332.913 311.139 333.669 311.139 334.236 311.517Z" fill="#FCCC6B"/>
<path d="M337.26 309.816C337.827 310.194 337.827 310.572 337.26 310.95C336.693 311.328 335.937 311.328 335.37 310.95C334.803 310.572 334.803 310.194 335.37 309.816C335.937 309.438 336.882 309.438 337.26 309.816Z" fill="#FCCC6B"/>
<path d="M340.285 307.926C340.852 308.304 340.852 308.682 340.285 309.06C339.718 309.438 338.962 309.438 338.395 309.06C337.828 308.682 337.828 308.304 338.395 307.926C338.962 307.737 339.907 307.737 340.285 307.926Z" fill="#FCCC6B"/>
<path opacity="0.1" d="M285.283 317.754L266.76 306.98C265.437 306.224 265.437 304.712 267.138 303.767L284.905 293.561C286.606 292.616 289.063 292.427 290.386 293.372L308.909 304.145C310.232 304.901 310.232 306.413 308.531 307.358L290.764 317.565C289.063 318.51 286.606 318.51 285.283 317.754Z" fill="url(#paint54_linear_1_2022)"/>
<path opacity="0.8" d="M295.867 246.308H279.801V305.468C279.801 305.657 279.99 305.846 280.179 306.035L286.983 310.004C287.55 310.382 288.306 310.193 289.062 310.004L295.489 306.224C295.867 306.035 295.867 305.846 296.056 305.657V246.308H295.867Z" fill="#5CFFF3"/>
<path opacity="0.5" d="M309.854 237.047H265.626V305.657C265.626 306.224 265.815 306.791 266.571 307.169L285.094 317.943C286.417 318.699 289.063 318.699 290.575 317.754L308.342 307.547C309.098 306.98 309.665 306.413 309.665 305.846V237.047H309.854Z" fill="#5CFFF3"/>
<path d="M346.333 223.438V214.177H322.518L294.355 197.922C290.575 195.843 284.149 196.032 279.801 198.489L252.773 214.177H229.147V223.816C228.958 225.328 229.903 226.651 231.604 227.785L280.935 256.326C284.716 258.405 291.142 258.216 295.489 255.759L342.742 228.541C345.388 227.029 346.522 225.328 346.333 223.438Z" fill="url(#paint55_linear_1_2022)"/>
<path opacity="0.5" d="M346.333 223.438V214.177H322.518L294.355 197.922C290.575 195.843 284.149 196.032 279.801 198.489L252.773 214.177H229.147V223.816C228.958 225.328 229.903 226.651 231.604 227.785L280.935 256.326C284.716 258.405 291.142 258.216 295.489 255.759L342.742 228.541C345.388 227.029 346.522 225.328 346.333 223.438Z" fill="url(#paint56_linear_1_2022)"/>
<path d="M294.545 198.111C292.654 196.977 290.386 196.599 287.74 196.599V257.838C290.575 257.838 293.411 257.082 295.49 255.759L342.742 228.541C345.199 227.029 346.522 225.328 346.333 223.438V214.177H322.518L294.545 198.111Z" fill="url(#paint57_linear_1_2022)"/>
<path d="M281.124 246.686L231.792 218.146C228.012 216.067 228.579 212.287 232.926 209.641L280.179 182.423C284.526 179.966 291.141 179.588 294.733 181.856L344.064 210.397C347.844 212.476 347.277 216.256 342.93 218.902L295.678 246.119C291.33 248.577 284.715 248.766 281.124 246.686Z" fill="url(#paint58_linear_1_2022)"/>
<path opacity="0.5" d="M281.124 246.686L231.792 218.146C228.012 216.067 228.579 212.287 232.926 209.641L280.179 182.423C284.526 179.966 291.141 179.588 294.733 181.856L344.064 210.397C347.844 212.476 347.277 216.256 342.93 218.902L295.678 246.119C291.33 248.577 284.715 248.766 281.124 246.686Z" fill="url(#paint59_linear_1_2022)"/>
<path d="M282.448 240.449L242.756 217.579C239.732 215.878 240.11 212.854 243.512 210.775L281.503 188.85C284.905 186.77 290.197 186.581 293.221 188.283L332.913 211.153C335.937 212.854 335.559 215.878 332.157 217.957L294.166 239.882C290.575 241.961 285.283 242.15 282.448 240.449Z" fill="#5CFFF3"/>
<path d="M243.512 213.61L281.503 191.684C284.905 189.605 290.197 189.416 293.221 191.117L332.913 213.988C333.669 214.366 334.237 214.933 334.615 215.5C335.56 213.799 334.993 212.098 332.913 210.963L293.221 188.093C290.197 186.392 284.905 186.581 281.503 188.66L243.512 210.585C240.866 212.098 240.11 214.177 241.055 215.878C241.433 215.122 242.378 214.366 243.512 213.61Z" fill="#42E8E0"/>
<path opacity="0.5" d="M282.636 246.686L233.305 218.146C229.525 216.067 228.58 212.854 234.439 209.64L281.691 182.423C283.77 181.289 286.417 180.533 289.063 180.344C286.039 180.155 282.636 180.911 279.99 182.423L232.738 209.64C228.391 212.098 228.013 215.878 231.604 218.146L280.935 246.686C282.825 247.82 285.472 248.198 288.118 248.198C286.228 248.009 284.149 247.631 282.636 246.686Z" fill="url(#paint60_linear_1_2022)"/>
<path opacity="0.8" d="M342.93 222.871L295.678 250.089C291.331 252.546 284.716 252.924 281.124 250.656L231.793 222.115C229.903 221.17 229.147 219.658 229.336 218.146V220.225C229.147 221.737 230.092 223.06 231.793 224.194L281.124 252.735C284.905 254.814 291.331 254.625 295.678 252.168L342.93 224.95C345.388 223.438 346.711 221.737 346.522 219.847V217.768C346.522 219.658 345.388 221.548 342.93 222.871Z" fill="url(#paint61_linear_1_2022)"/>
<path d="M334.236 220.225C334.803 220.603 334.803 220.981 334.236 221.359C333.669 221.737 332.913 221.737 332.346 221.359C331.779 220.981 331.779 220.603 332.346 220.225C332.913 219.847 333.669 219.847 334.236 220.225Z" fill="white"/>
<path d="M337.26 218.524C337.827 218.902 337.827 219.28 337.26 219.658C336.693 220.036 335.937 220.036 335.37 219.658C334.803 219.28 334.803 218.902 335.37 218.524C335.937 218.146 336.882 218.146 337.26 218.524Z" fill="white"/>
<path d="M340.285 216.823C340.852 217.201 340.852 217.579 340.285 217.957C339.718 218.335 338.962 218.335 338.395 217.957C337.828 217.579 337.828 217.201 338.395 216.823C338.962 216.445 339.907 216.445 340.285 216.823Z" fill="white"/>
<path opacity="0.5" d="M346.522 223.628C346.522 225.329 345.388 227.219 342.93 228.542L295.678 255.759C291.331 258.216 284.716 258.594 281.124 256.326L231.793 227.786C229.903 226.652 229.147 225.329 229.336 223.817V305.658C229.336 306.981 230.092 308.304 231.793 309.438L281.124 337.978C284.905 340.058 291.331 339.869 295.678 337.411L342.93 310.194C345.388 308.871 346.522 306.981 346.522 305.28V223.628Z" fill="#5CFFF3"/>
<path opacity="0.7" d="M342.93 228.542L295.678 255.759C293.41 257.082 290.575 257.649 287.929 257.838V339.49C290.764 339.49 293.599 338.734 295.678 337.411L342.93 310.194C345.388 308.871 346.522 306.981 346.522 305.28V223.438C346.522 225.329 345.388 227.03 342.93 228.542Z" fill="#42E8E0"/>
<defs>
<linearGradient id="paint0_linear_1_2022" x1="288.131" y1="444.904" x2="288.131" y2="112.093" gradientUnits="userSpaceOnUse">
<stop stop-color="#02FE85"/>
<stop offset="0.294617" stop-color="#88FFF3"/>
<stop offset="0.93289" stop-opacity="0"/>
</linearGradient>
<linearGradient id="paint1_linear_1_2022" x1="288.014" y1="397.635" x2="288.014" y2="159.555" gradientUnits="userSpaceOnUse">
<stop stop-color="#02FE85"/>
<stop offset="0.294617" stop-color="#88FFF3"/>
<stop offset="0.93289" stop-opacity="0"/>
</linearGradient>
<linearGradient id="paint2_linear_1_2022" x1="387.251" y1="228.017" x2="447.441" y2="235.372" gradientUnits="userSpaceOnUse">
<stop offset="0.201276" stop-color="#02FE85"/>
<stop offset="1" stop-color="#02FED1"/>
</linearGradient>
<linearGradient id="paint3_linear_1_2022" x1="387.251" y1="228.017" x2="447.441" y2="235.372" gradientUnits="userSpaceOnUse">
<stop offset="0.201276" stop-color="#02FE85"/>
<stop offset="1" stop-color="#02FED1"/>
</linearGradient>
<linearGradient id="paint4_linear_1_2022" x1="445.243" y1="227.922" x2="475.672" y2="229.782" gradientUnits="userSpaceOnUse">
<stop offset="0.201276" stop-color="#02FE85"/>
<stop offset="1" stop-color="#02FED1"/>
</linearGradient>
<linearGradient id="paint5_linear_1_2022" x1="387.219" y1="214.99" x2="447.609" y2="221.658" gradientUnits="userSpaceOnUse">
<stop offset="0.201276" stop-color="#02FE85"/>
<stop offset="1" stop-color="#02FED1"/>
</linearGradient>
<linearGradient id="paint6_linear_1_2022" x1="385.982" y1="214.955" x2="503.219" y2="214.955" gradientUnits="userSpaceOnUse">
<stop stop-color="#42E8E0"/>
<stop offset="0.1022" stop-color="#3CCACE"/>
<stop offset="0.3445" stop-color="#2F87A5"/>
<stop offset="0.564" stop-color="#255385"/>
<stop offset="0.7534" stop-color="#1E2D6E"/>
<stop offset="0.905" stop-color="#1A1660"/>
<stop offset="1" stop-color="#180D5B"/>
</linearGradient>
<linearGradient id="paint7_linear_1_2022" x1="385.982" y1="214.957" x2="445.817" y2="214.957" gradientUnits="userSpaceOnUse">
<stop stop-color="#42E8E0"/>
<stop offset="0.1022" stop-color="#3CCACE"/>
<stop offset="0.3445" stop-color="#2F87A5"/>
<stop offset="0.564" stop-color="#255385"/>
<stop offset="0.7534" stop-color="#1E2D6E"/>
<stop offset="0.905" stop-color="#1A1660"/>
<stop offset="1" stop-color="#180D5B"/>
</linearGradient>
<linearGradient id="paint8_linear_1_2022" x1="401.928" y1="249.069" x2="500.056" y2="184.93" gradientUnits="userSpaceOnUse">
<stop stop-color="#42E8E0"/>
<stop offset="0.1022" stop-color="#3CCACE"/>
<stop offset="0.3445" stop-color="#2F87A5"/>
<stop offset="0.564" stop-color="#255385"/>
<stop offset="0.7534" stop-color="#1E2D6E"/>
<stop offset="0.905" stop-color="#1A1660"/>
<stop offset="1" stop-color="#180D5B"/>
</linearGradient>
<linearGradient id="paint9_linear_1_2022" x1="422.969" y1="215.014" x2="445.647" y2="217.517" gradientUnits="userSpaceOnUse">
<stop offset="0.201276" stop-color="#02FE85"/>
<stop offset="1" stop-color="#02FED1"/>
</linearGradient>
<linearGradient id="paint10_linear_1_2022" x1="387.251" y1="136.725" x2="447.441" y2="144.081" gradientUnits="userSpaceOnUse">
<stop offset="0.201276" stop-color="#02FE85"/>
<stop offset="1" stop-color="#02FED1"/>
</linearGradient>
<linearGradient id="paint11_linear_1_2022" x1="387.251" y1="136.725" x2="447.441" y2="144.081" gradientUnits="userSpaceOnUse">
<stop offset="0.201276" stop-color="#02FE85"/>
<stop offset="1" stop-color="#02FED1"/>
</linearGradient>
<linearGradient id="paint12_linear_1_2022" x1="445.243" y1="136.631" x2="475.672" y2="138.491" gradientUnits="userSpaceOnUse">
<stop offset="0.201276" stop-color="#02FE85"/>
<stop offset="1" stop-color="#02FED1"/>
</linearGradient>
<linearGradient id="paint13_linear_1_2022" x1="387.219" y1="123.849" x2="447.607" y2="130.525" gradientUnits="userSpaceOnUse">
<stop offset="0.201276" stop-color="#02FE85"/>
<stop offset="1" stop-color="#02FED1"/>
</linearGradient>
<linearGradient id="paint14_linear_1_2022" x1="385.982" y1="123.678" x2="503.219" y2="123.678" gradientUnits="userSpaceOnUse">
<stop stop-color="#42E8E0"/>
<stop offset="0.1022" stop-color="#3CCACE"/>
<stop offset="0.3445" stop-color="#2F87A5"/>
<stop offset="0.564" stop-color="#255385"/>
<stop offset="0.7534" stop-color="#1E2D6E"/>
<stop offset="0.905" stop-color="#1A1660"/>
<stop offset="1" stop-color="#180D5B"/>
</linearGradient>
<linearGradient id="paint15_linear_1_2022" x1="385.982" y1="123.68" x2="445.817" y2="123.68" gradientUnits="userSpaceOnUse">
<stop stop-color="#42E8E0"/>
<stop offset="0.1022" stop-color="#3CCACE"/>
<stop offset="0.3445" stop-color="#2F87A5"/>
<stop offset="0.564" stop-color="#255385"/>
<stop offset="0.7534" stop-color="#1E2D6E"/>
<stop offset="0.905" stop-color="#1A1660"/>
<stop offset="1" stop-color="#180D5B"/>
</linearGradient>
<linearGradient id="paint16_linear_1_2022" x1="401.928" y1="157.792" x2="500.055" y2="93.6537" gradientUnits="userSpaceOnUse">
<stop stop-color="#42E8E0"/>
<stop offset="0.1022" stop-color="#3CCACE"/>
<stop offset="0.3445" stop-color="#2F87A5"/>
<stop offset="0.564" stop-color="#255385"/>
<stop offset="0.7534" stop-color="#1E2D6E"/>
<stop offset="0.905" stop-color="#1A1660"/>
<stop offset="1" stop-color="#180D5B"/>
</linearGradient>
<linearGradient id="paint17_linear_1_2022" x1="74.2513" y1="228.774" x2="134.443" y2="236.13" gradientUnits="userSpaceOnUse">
<stop offset="0.201276" stop-color="#02FE85"/>
<stop offset="1" stop-color="#02FED1"/>
</linearGradient>
<linearGradient id="paint18_linear_1_2022" x1="74.2513" y1="228.774" x2="134.443" y2="236.13" gradientUnits="userSpaceOnUse">
<stop offset="0.201276" stop-color="#02FE85"/>
<stop offset="1" stop-color="#02FED1"/>
</linearGradient>
<linearGradient id="paint19_linear_1_2022" x1="132.243" y1="228.868" x2="162.672" y2="230.728" gradientUnits="userSpaceOnUse">
<stop offset="0.201276" stop-color="#02FE85"/>
<stop offset="1" stop-color="#02FED1"/>
</linearGradient>
<linearGradient id="paint20_linear_1_2022" x1="74.4073" y1="215.898" x2="134.796" y2="222.573" gradientUnits="userSpaceOnUse">
<stop offset="0.201276" stop-color="#02FE85"/>
<stop offset="1" stop-color="#02FED1"/>
</linearGradient>
<linearGradient id="paint21_linear_1_2022" x1="73.0822" y1="215.766" x2="190.32" y2="215.766" gradientUnits="userSpaceOnUse">
<stop stop-color="#42E8E0"/>
<stop offset="0.1022" stop-color="#3CCACE"/>
<stop offset="0.3445" stop-color="#2F87A5"/>
<stop offset="0.564" stop-color="#255385"/>
<stop offset="0.7534" stop-color="#1E2D6E"/>
<stop offset="0.905" stop-color="#1A1660"/>
<stop offset="1" stop-color="#180D5B"/>
</linearGradient>
<linearGradient id="paint22_linear_1_2022" x1="73.0827" y1="215.767" x2="132.918" y2="215.767" gradientUnits="userSpaceOnUse">
<stop stop-color="#42E8E0"/>
<stop offset="0.1022" stop-color="#3CCACE"/>
<stop offset="0.3445" stop-color="#2F87A5"/>
<stop offset="0.564" stop-color="#255385"/>
<stop offset="0.7534" stop-color="#1E2D6E"/>
<stop offset="0.905" stop-color="#1A1660"/>
<stop offset="1" stop-color="#180D5B"/>
</linearGradient>
<linearGradient id="paint23_linear_1_2022" x1="89.0281" y1="249.88" x2="187.156" y2="185.741" gradientUnits="userSpaceOnUse">
<stop stop-color="#42E8E0"/>
<stop offset="0.1022" stop-color="#3CCACE"/>
<stop offset="0.3445" stop-color="#2F87A5"/>
<stop offset="0.564" stop-color="#255385"/>
<stop offset="0.7534" stop-color="#1E2D6E"/>
<stop offset="0.905" stop-color="#1A1660"/>
<stop offset="1" stop-color="#180D5B"/>
</linearGradient>
<linearGradient id="paint24_linear_1_2022" x1="110.158" y1="215.803" x2="132.837" y2="218.3" gradientUnits="userSpaceOnUse">
<stop offset="0.201276" stop-color="#02FE85"/>
<stop offset="1" stop-color="#02FED1"/>
</linearGradient>
<linearGradient id="paint25_linear_1_2022" x1="74.2513" y1="137.671" x2="134.443" y2="145.027" gradientUnits="userSpaceOnUse">
<stop offset="0.201276" stop-color="#02FE85"/>
<stop offset="1" stop-color="#02FED1"/>
</linearGradient>
<linearGradient id="paint26_linear_1_2022" x1="74.2513" y1="137.671" x2="134.443" y2="145.027" gradientUnits="userSpaceOnUse">
<stop offset="0.201276" stop-color="#02FE85"/>
<stop offset="1" stop-color="#02FED1"/>
</linearGradient>
<linearGradient id="paint27_linear_1_2022" x1="132.243" y1="137.576" x2="162.672" y2="139.436" gradientUnits="userSpaceOnUse">
<stop offset="0.201276" stop-color="#02FE85"/>
<stop offset="1" stop-color="#02FED1"/>
</linearGradient>
<linearGradient id="paint28_linear_1_2022" x1="74.4073" y1="124.606" x2="134.796" y2="131.281" gradientUnits="userSpaceOnUse">
<stop offset="0.201276" stop-color="#02FE85"/>
<stop offset="1" stop-color="#02FED1"/>
</linearGradient>
<linearGradient id="paint29_linear_1_2022" x1="73.0822" y1="124.488" x2="190.32" y2="124.488" gradientUnits="userSpaceOnUse">
<stop stop-color="#42E8E0"/>
<stop offset="0.1022" stop-color="#3CCACE"/>
<stop offset="0.3445" stop-color="#2F87A5"/>
<stop offset="0.564" stop-color="#255385"/>
<stop offset="0.7534" stop-color="#1E2D6E"/>
<stop offset="0.905" stop-color="#1A1660"/>
<stop offset="1" stop-color="#180D5B"/>
</linearGradient>
<linearGradient id="paint30_linear_1_2022" x1="73.0827" y1="124.49" x2="132.918" y2="124.49" gradientUnits="userSpaceOnUse">
<stop stop-color="#42E8E0"/>
<stop offset="0.1022" stop-color="#3CCACE"/>
<stop offset="0.3445" stop-color="#2F87A5"/>
<stop offset="0.564" stop-color="#255385"/>
<stop offset="0.7534" stop-color="#1E2D6E"/>
<stop offset="0.905" stop-color="#1A1660"/>
<stop offset="1" stop-color="#180D5B"/>
</linearGradient>
<linearGradient id="paint31_linear_1_2022" x1="89.0281" y1="158.602" x2="187.155" y2="94.4635" gradientUnits="userSpaceOnUse">
<stop stop-color="#42E8E0"/>
<stop offset="0.1022" stop-color="#3CCACE"/>
<stop offset="0.3445" stop-color="#2F87A5"/>
<stop offset="0.564" stop-color="#255385"/>
<stop offset="0.7534" stop-color="#1E2D6E"/>
<stop offset="0.905" stop-color="#1A1660"/>
<stop offset="1" stop-color="#180D5B"/>
</linearGradient>
<linearGradient id="paint32_linear_1_2022" x1="231.129" y1="138.237" x2="291.319" y2="145.593" gradientUnits="userSpaceOnUse">
<stop offset="0.201276" stop-color="#02FE85"/>
<stop offset="1" stop-color="#02FED1"/>
</linearGradient>
<linearGradient id="paint33_linear_1_2022" x1="231.129" y1="138.237" x2="291.319" y2="145.593" gradientUnits="userSpaceOnUse">
<stop offset="0.201276" stop-color="#02FE85"/>
<stop offset="1" stop-color="#02FED1"/>
</linearGradient>
<linearGradient id="paint34_linear_1_2022" x1="289.121" y1="138.142" x2="319.55" y2="140.002" gradientUnits="userSpaceOnUse">
<stop offset="0.201276" stop-color="#02FE85"/>
<stop offset="1" stop-color="#02FED1"/>
</linearGradient>
<linearGradient id="paint35_linear_1_2022" x1="231.097" y1="125.21" x2="291.487" y2="131.879" gradientUnits="userSpaceOnUse">
<stop offset="0.201276" stop-color="#02FE85"/>
<stop offset="1" stop-color="#02FED1"/>
</linearGradient>
<linearGradient id="paint36_linear_1_2022" x1="229.864" y1="125.149" x2="347.102" y2="125.149" gradientUnits="userSpaceOnUse">
<stop stop-color="#42E8E0"/>
<stop offset="0.1022" stop-color="#3CCACE"/>
<stop offset="0.3445" stop-color="#2F87A5"/>
<stop offset="0.564" stop-color="#255385"/>
<stop offset="0.7534" stop-color="#1E2D6E"/>
<stop offset="0.905" stop-color="#1A1660"/>
<stop offset="1" stop-color="#180D5B"/>
</linearGradient>
<linearGradient id="paint37_linear_1_2022" x1="229.864" y1="125.151" x2="289.7" y2="125.151" gradientUnits="userSpaceOnUse">
<stop stop-color="#42E8E0"/>
<stop offset="0.1022" stop-color="#3CCACE"/>
<stop offset="0.3445" stop-color="#2F87A5"/>
<stop offset="0.564" stop-color="#255385"/>
<stop offset="0.7534" stop-color="#1E2D6E"/>
<stop offset="0.905" stop-color="#1A1660"/>
<stop offset="1" stop-color="#180D5B"/>
</linearGradient>
<linearGradient id="paint38_linear_1_2022" x1="245.81" y1="159.262" x2="343.938" y2="95.124" gradientUnits="userSpaceOnUse">
<stop stop-color="#42E8E0"/>
<stop offset="0.1022" stop-color="#3CCACE"/>
<stop offset="0.3445" stop-color="#2F87A5"/>
<stop offset="0.564" stop-color="#255385"/>
<stop offset="0.7534" stop-color="#1E2D6E"/>
<stop offset="0.905" stop-color="#1A1660"/>
<stop offset="1" stop-color="#180D5B"/>
</linearGradient>
<linearGradient id="paint39_linear_1_2022" x1="266.847" y1="125.234" x2="289.525" y2="127.738" gradientUnits="userSpaceOnUse">
<stop offset="0.201276" stop-color="#02FE85"/>
<stop offset="1" stop-color="#02FED1"/>
</linearGradient>
<linearGradient id="paint40_linear_1_2022" x1="231.129" y1="46.9457" x2="291.319" y2="54.3012" gradientUnits="userSpaceOnUse">
<stop offset="0.201276" stop-color="#02FE85"/>
<stop offset="1" stop-color="#02FED1"/>
</linearGradient>
<linearGradient id="paint41_linear_1_2022" x1="231.129" y1="46.9457" x2="291.319" y2="54.3012" gradientUnits="userSpaceOnUse">
<stop offset="0.201276" stop-color="#02FE85"/>
<stop offset="1" stop-color="#02FED1"/>
</linearGradient>
<linearGradient id="paint42_linear_1_2022" x1="289.121" y1="46.9463" x2="319.551" y2="48.8005" gradientUnits="userSpaceOnUse">
<stop offset="0.201276" stop-color="#02FE85"/>
<stop offset="1" stop-color="#02FED1"/>
</linearGradient>
<linearGradient id="paint43_linear_1_2022" x1="231.097" y1="34.022" x2="291.483" y2="40.7067" gradientUnits="userSpaceOnUse">
<stop offset="0.201276" stop-color="#02FE85"/>
<stop offset="1" stop-color="#02FED1"/>
</linearGradient>
<linearGradient id="paint44_linear_1_2022" x1="229.864" y1="33.8722" x2="347.102" y2="33.8722" gradientUnits="userSpaceOnUse">
<stop stop-color="#42E8E0"/>
<stop offset="0.1022" stop-color="#3CCACE"/>
<stop offset="0.3445" stop-color="#2F87A5"/>
<stop offset="0.564" stop-color="#255385"/>
<stop offset="0.7534" stop-color="#1E2D6E"/>
<stop offset="0.905" stop-color="#1A1660"/>
<stop offset="1" stop-color="#180D5B"/>
</linearGradient>
<linearGradient id="paint45_linear_1_2022" x1="229.864" y1="33.8739" x2="289.7" y2="33.8739" gradientUnits="userSpaceOnUse">
<stop stop-color="#42E8E0"/>
<stop offset="0.1022" stop-color="#3CCACE"/>
<stop offset="0.3445" stop-color="#2F87A5"/>
<stop offset="0.564" stop-color="#255385"/>
<stop offset="0.7534" stop-color="#1E2D6E"/>
<stop offset="0.905" stop-color="#1A1660"/>
<stop offset="1" stop-color="#180D5B"/>
</linearGradient>
<linearGradient id="paint46_linear_1_2022" x1="245.81" y1="67.9862" x2="343.938" y2="3.84768" gradientUnits="userSpaceOnUse">
<stop stop-color="#42E8E0"/>
<stop offset="0.1022" stop-color="#3CCACE"/>
<stop offset="0.3445" stop-color="#2F87A5"/>
<stop offset="0.564" stop-color="#255385"/>
<stop offset="0.7534" stop-color="#1E2D6E"/>
<stop offset="0.905" stop-color="#1A1660"/>
<stop offset="1" stop-color="#180D5B"/>
</linearGradient>
<linearGradient id="paint47_linear_1_2022" x1="230.374" y1="318.553" x2="290.566" y2="325.909" gradientUnits="userSpaceOnUse">
<stop offset="0.201276" stop-color="#02FE85"/>
<stop offset="1" stop-color="#02FED1"/>
</linearGradient>
<linearGradient id="paint48_linear_1_2022" x1="230.374" y1="318.553" x2="290.566" y2="325.909" gradientUnits="userSpaceOnUse">
<stop offset="0.201276" stop-color="#02FE85"/>
<stop offset="1" stop-color="#02FED1"/>
</linearGradient>
<linearGradient id="paint49_linear_1_2022" x1="288.366" y1="318.647" x2="318.795" y2="320.507" gradientUnits="userSpaceOnUse">
<stop offset="0.201276" stop-color="#02FE85"/>
<stop offset="1" stop-color="#02FED1"/>
</linearGradient>
<linearGradient id="paint50_linear_1_2022" x1="230.53" y1="305.677" x2="290.919" y2="312.353" gradientUnits="userSpaceOnUse">
<stop offset="0.201276" stop-color="#02FE85"/>
<stop offset="1" stop-color="#02FED1"/>
</linearGradient>
<linearGradient id="paint51_linear_1_2022" x1="229.201" y1="305.572" x2="346.438" y2="305.572" gradientUnits="userSpaceOnUse">
<stop stop-color="#42E8E0"/>
<stop offset="0.1022" stop-color="#3CCACE"/>
<stop offset="0.3445" stop-color="#2F87A5"/>
<stop offset="0.564" stop-color="#255385"/>
<stop offset="0.7534" stop-color="#1E2D6E"/>
<stop offset="0.905" stop-color="#1A1660"/>
<stop offset="1" stop-color="#180D5B"/>
</linearGradient>
<linearGradient id="paint52_linear_1_2022" x1="229.201" y1="305.573" x2="289.036" y2="305.573" gradientUnits="userSpaceOnUse">
<stop stop-color="#42E8E0"/>
<stop offset="0.1022" stop-color="#3CCACE"/>
<stop offset="0.3445" stop-color="#2F87A5"/>
<stop offset="0.564" stop-color="#255385"/>
<stop offset="0.7534" stop-color="#1E2D6E"/>
<stop offset="0.905" stop-color="#1A1660"/>
<stop offset="1" stop-color="#180D5B"/>
</linearGradient>
<linearGradient id="paint53_linear_1_2022" x1="245.147" y1="339.685" x2="343.274" y2="275.547" gradientUnits="userSpaceOnUse">
<stop stop-color="#42E8E0"/>
<stop offset="0.1022" stop-color="#3CCACE"/>
<stop offset="0.3445" stop-color="#2F87A5"/>
<stop offset="0.564" stop-color="#255385"/>
<stop offset="0.7534" stop-color="#1E2D6E"/>
<stop offset="0.905" stop-color="#1A1660"/>
<stop offset="1" stop-color="#180D5B"/>
</linearGradient>
<linearGradient id="paint54_linear_1_2022" x1="266.281" y1="305.582" x2="288.96" y2="308.079" gradientUnits="userSpaceOnUse">
<stop offset="0.201276" stop-color="#02FE85"/>
<stop offset="1" stop-color="#02FED1"/>
</linearGradient>
<linearGradient id="paint55_linear_1_2022" x1="230.374" y1="227.261" x2="290.566" y2="234.617" gradientUnits="userSpaceOnUse">
<stop offset="0.201276" stop-color="#02FE85"/>
<stop offset="1" stop-color="#02FED1"/>
</linearGradient>
<linearGradient id="paint56_linear_1_2022" x1="230.374" y1="227.261" x2="290.566" y2="234.617" gradientUnits="userSpaceOnUse">
<stop offset="0.201276" stop-color="#02FE85"/>
<stop offset="1" stop-color="#02FED1"/>
</linearGradient>
<linearGradient id="paint57_linear_1_2022" x1="288.366" y1="227.355" x2="318.795" y2="229.215" gradientUnits="userSpaceOnUse">
<stop offset="0.201276" stop-color="#02FE85"/>
<stop offset="1" stop-color="#02FED1"/>
</linearGradient>
<linearGradient id="paint58_linear_1_2022" x1="230.53" y1="214.385" x2="290.919" y2="221.061" gradientUnits="userSpaceOnUse">
<stop offset="0.201276" stop-color="#02FE85"/>
<stop offset="1" stop-color="#02FED1"/>
</linearGradient>
<linearGradient id="paint59_linear_1_2022" x1="229.201" y1="214.294" x2="346.438" y2="214.294" gradientUnits="userSpaceOnUse">
<stop stop-color="#42E8E0"/>
<stop offset="0.1022" stop-color="#3CCACE"/>
<stop offset="0.3445" stop-color="#2F87A5"/>
<stop offset="0.564" stop-color="#255385"/>
<stop offset="0.7534" stop-color="#1E2D6E"/>
<stop offset="0.905" stop-color="#1A1660"/>
<stop offset="1" stop-color="#180D5B"/>
</linearGradient>
<linearGradient id="paint60_linear_1_2022" x1="229.201" y1="214.296" x2="289.036" y2="214.296" gradientUnits="userSpaceOnUse">
<stop stop-color="#42E8E0"/>
<stop offset="0.1022" stop-color="#3CCACE"/>
<stop offset="0.3445" stop-color="#2F87A5"/>
<stop offset="0.564" stop-color="#255385"/>
<stop offset="0.7534" stop-color="#1E2D6E"/>
<stop offset="0.905" stop-color="#1A1660"/>
<stop offset="1" stop-color="#180D5B"/>
</linearGradient>
<linearGradient id="paint61_linear_1_2022" x1="245.147" y1="248.408" x2="343.274" y2="184.27" gradientUnits="userSpaceOnUse">
<stop stop-color="#42E8E0"/>
<stop offset="0.1022" stop-color="#3CCACE"/>
<stop offset="0.3445" stop-color="#2F87A5"/>
<stop offset="0.564" stop-color="#255385"/>
<stop offset="0.7534" stop-color="#1E2D6E"/>
<stop offset="0.905" stop-color="#1A1660"/>
<stop offset="1" stop-color="#180D5B"/>
</linearGradient>
</defs>
</svg>
