<svg width="157" height="35" viewBox="0 0 157 35" fill="none" xmlns="http://www.w3.org/2000/svg">
<path d="M61.3515 11.1372C62.3187 11.7251 63.1342 12.5406 63.6463 13.6596C64.2342 14.7785 64.5377 16.1061 64.5377 17.5853C64.5377 19.0646 64.2342 20.3163 63.5704 21.4352C62.9825 22.5542 62.0912 23.3507 60.9722 23.8817C59.8533 24.4696 58.5257 24.7731 57.1223 24.7731C56.3068 24.7731 55.5672 24.6214 54.8275 24.3369C54.0879 24.1093 53.4241 23.6731 52.9121 23.1611V30.8609H48.626V10.5493H52.3242L52.7035 12.1803C54.3345 10.8527 56.0982 10.189 57.9568 10.189C59.1895 10.189 60.3843 10.4734 61.3515 11.1372ZM58.9809 20.3163C59.7205 19.6525 60.0998 18.7612 60.0998 17.6612C60.0998 16.5423 59.7205 15.6699 59.0568 14.9302C58.393 14.1906 57.5016 13.8871 56.5344 13.8871C55.7189 13.8871 54.9793 14.0389 54.3914 14.3992C53.8034 14.7026 53.3483 15.2147 52.9879 15.8785V19.2163C53.2155 19.8801 53.6517 20.3922 54.1638 20.7715C54.7517 21.1508 55.4155 21.3594 56.231 21.3594C57.3499 21.3594 58.2413 20.9801 58.9809 20.3163Z" fill="white"/>
<path d="M67.0414 13.7354C67.7052 12.6923 68.5966 11.8199 69.7724 11.2131C70.9482 10.6251 72.2948 10.2458 73.774 10.2458C75.2533 10.2458 76.5809 10.5493 77.7757 11.2131C78.8946 11.801 79.767 12.6923 80.4308 13.8113C81.0945 14.9302 81.398 16.106 81.398 17.5095C81.398 18.9129 81.0945 20.1077 80.4308 21.2076C79.767 22.3266 78.9515 23.199 77.7757 23.8059C76.6567 24.3938 75.2533 24.7731 73.774 24.7731C72.2948 24.7731 70.9672 24.4696 69.7724 23.8817C68.5966 23.2938 67.7052 22.4783 67.0414 21.3594C66.4535 20.2404 66.0742 18.9887 66.0742 17.5095C66.0742 16.106 66.4535 14.8544 67.0414 13.7354ZM71.4034 20.1646C71.9913 20.9042 72.8068 21.2076 73.774 21.2076C74.7412 21.2076 75.5567 20.8283 76.1447 20.1646C76.7326 19.5008 77.036 18.5336 77.036 17.5095C77.036 16.3905 76.7326 15.5181 76.1447 14.8544C75.4809 14.1147 74.7412 13.7354 73.6982 13.7354C72.731 13.7354 71.9913 14.1147 71.3275 14.7785C70.7396 15.5181 70.4362 16.4095 70.4362 17.5095C70.4551 18.5525 70.7396 19.4249 71.4034 20.1646Z" fill="white"/>
<path d="M88.3574 0.0427246V24.3938H84.0713V0.0427246H88.3574Z" fill="white"/>
<path d="M105.958 10.9287L97.234 30.8989H93.0806L96.3426 23.7301L90.1221 10.9287H95.0151L98.5615 18.913L102.108 10.9287H105.958Z" fill="white"/>
<path d="M122.4 10.9286V24.3938C122.4 25.6455 122.021 26.8403 121.281 27.8644C120.541 28.9075 119.574 29.723 118.322 30.3109C117.071 30.8988 115.724 31.2022 114.245 31.2022C113.126 31.2022 112.178 31.0505 111.362 30.8229C110.547 30.5195 109.883 30.235 109.371 29.9316C108.783 29.5523 108.195 29.1161 107.512 28.5282L110.035 25.5696C110.623 26.1575 111.286 26.6127 111.893 26.8972C112.481 27.2006 113.297 27.4092 114.188 27.4092C115.307 27.4092 116.179 27.1058 116.919 26.5937C117.659 26.0817 118.038 25.2662 118.038 24.2989V22.3835C117.602 23.0473 116.995 23.6352 116.123 24.0903C115.25 24.5455 114.207 24.7541 113.012 24.7541C111.817 24.7541 110.642 24.4507 109.617 23.7869C108.574 23.199 107.759 22.3076 107.095 21.1887C106.507 20.0697 106.128 18.8939 106.128 17.5664C106.128 16.2388 106.431 14.9681 107.095 13.8682C107.759 12.7492 108.574 11.8768 109.693 11.2131C110.736 10.5493 111.836 10.2458 113.031 10.2458C114.15 10.2458 115.098 10.3976 115.99 10.682C116.881 10.9855 117.545 11.4217 117.981 11.9337L118.417 10.8907H122.4V10.9286ZM118.019 19.2163V15.8785C117.716 15.2147 117.279 14.7026 116.616 14.3233C115.952 13.944 115.212 13.7354 114.321 13.7354C113.278 13.7354 112.405 14.1147 111.666 14.7785C110.926 15.4423 110.547 16.3336 110.547 17.4336C110.547 18.4767 110.926 19.4249 111.666 20.1646C112.405 20.9042 113.297 21.2835 114.321 21.2835C116.028 21.2077 117.279 20.5439 118.019 19.2163Z" fill="white"/>
<path d="M125.947 13.7354C126.61 12.6164 127.502 11.8199 128.678 11.1371C129.854 10.5492 131.2 10.1699 132.679 10.1699C134.159 10.1699 135.486 10.4734 136.681 11.1371C137.8 11.7251 138.672 12.6164 139.336 13.7354C139.924 14.8543 140.303 16.0301 140.303 17.4335C140.303 18.837 140 20.0317 139.336 21.1317C138.748 22.2507 137.857 23.1231 136.681 23.7299C135.562 24.3178 134.159 24.6972 132.679 24.6972C131.2 24.6972 129.872 24.3937 128.678 23.8058C127.502 23.2179 126.61 22.4024 125.947 21.2834C125.283 20.1645 124.979 18.9128 124.979 17.3577C124.979 16.106 125.283 14.8543 125.947 13.7354ZM130.233 20.1645C130.821 20.9041 131.636 21.2076 132.603 21.2076C133.571 21.2076 134.386 20.8283 134.974 20.1645C135.562 19.5007 135.865 18.5335 135.865 17.5094C135.865 16.3905 135.562 15.5181 134.974 14.8543C134.386 14.1905 133.571 13.8112 132.603 13.8112C131.636 13.8112 130.897 14.1905 130.233 14.8543C129.569 15.5181 129.266 16.4853 129.266 17.5094C129.341 18.5525 129.645 19.4249 130.233 20.1645Z" fill="white"/>
<path d="M155.475 11.3649C156.366 12.1045 156.726 13.0717 156.802 14.2476V24.3939H152.44V15.8785C152.364 14.551 151.701 13.8872 150.449 13.8872C149.482 13.8872 148.666 14.3234 148.078 15.2906C147.49 16.2578 147.187 17.4337 147.187 18.8371V24.3939H142.882V10.9287H146.808L147.111 13.0717C147.623 12.1804 148.287 11.5166 149.178 11.0045C150.07 10.4925 151.094 10.2649 152.288 10.2649C153.54 10.2649 154.659 10.6252 155.475 11.3649Z" fill="white"/>
<path d="M30.2682 10.701C29.5286 10.2648 28.5614 10.2648 27.7459 10.701L21.9805 14.0958L18.0547 16.3147L12.2894 19.7094C11.5497 20.1456 10.5825 20.1456 9.767 19.7094L5.17746 17.0543C4.43782 16.6181 3.92577 15.8026 3.92577 14.9113V9.65795C3.92577 8.7666 4.36196 7.9511 5.17746 7.5149L9.69114 4.91669C10.4308 4.4805 11.398 4.4805 12.2135 4.91669L16.7272 7.5149C17.4668 7.9511 17.9789 8.7666 17.9789 9.65795V13.0527L21.9046 10.7579V7.36318C21.9046 6.47182 21.4684 5.65633 20.6529 5.22013L12.2894 0.327147C11.5497 -0.109049 10.5825 -0.109049 9.767 0.327147L1.25169 5.22013C0.436196 5.65633 0 6.47182 0 7.36318V17.206C0 18.0974 0.436196 18.9129 1.25169 19.3491L9.767 24.2421C10.5066 24.6783 11.4739 24.6783 12.2894 24.2421L18.0547 20.9042L21.9805 18.6095L27.7459 15.2716C28.4855 14.8354 29.4527 14.8354 30.2682 15.2716L34.7819 17.8888C35.5215 18.325 36.0336 19.1405 36.0336 20.0318V25.2852C36.0336 26.1765 35.5974 26.992 34.7819 27.4282L30.2682 30.0833C29.5286 30.5195 28.5614 30.5195 27.7459 30.0833L23.2322 27.4851C22.4925 27.0489 21.9805 26.2334 21.9805 25.342V21.9473L18.0547 24.2421V27.6368C18.0547 28.5282 18.4909 29.3437 19.3064 29.7799L27.8217 34.6729C28.5614 35.1091 29.5286 35.1091 30.3441 34.6729L38.8594 29.7799C39.599 29.3437 40.1111 28.5282 40.1111 27.6368V17.794C40.1111 16.9026 39.6749 16.0871 38.8594 15.6509L30.2682 10.701Z" fill="#7359A6"/>
</svg>
