<svg width="813" height="1378" viewBox="0 0 813 1378" fill="none" xmlns="http://www.w3.org/2000/svg">
<g filter="url(#filter0_f_1_1821)">
<ellipse rx="242.428" ry="250.201" transform="matrix(0.707107 0.707107 0.707107 -0.707107 688.666 688.682)" fill="#02FE85"/>
</g>
<g opacity="0.5">
<mask id="mask0_1_1821" style="mask-type:alpha" maskUnits="userSpaceOnUse" x="302" y="430" width="798" height="626">
<path fill-rule="evenodd" clip-rule="evenodd" d="M846.457 904.805C843.882 917.374 833.399 928.896 819.732 934.256C803.604 941.038 779.551 934.848 765.409 924.978L765.409 925.237L763.074 923.289C761.646 922.121 760.543 921.147 759.115 919.719C751.717 912.321 748.074 902.724 749.033 892.81C749.863 883.803 754.388 875.773 761.51 870.987C769.992 865.23 780.749 864.079 790.476 867.981L791.773 868.501L792.139 868.643C796.008 870.148 799.462 871.491 804.803 871.436C817.505 871.194 830.533 872.314 839.684 881.464C845.914 887.565 848.324 895.929 846.457 904.805ZM788.409 873.033C780.498 869.911 771.361 870.871 764.498 875.527C757.829 880.12 754.21 887.503 754.352 896.317C754.492 903.705 757.352 910.32 762.999 915.966C776.303 929.27 800.352 933.127 810.071 931.456C812.598 931.005 815.189 930.231 817.586 929.263C830.152 924.095 838.952 914.645 841.076 903.955C842.557 896.763 840.604 890.15 835.671 885.218C830.414 879.961 821.985 877.098 811.292 877.018C809.023 876.95 807.209 876.948 805.718 877.01L805.606 877.009C800.437 876.938 798.195 876.907 788.409 873.033Z" fill="url(#paint0_linear_1_1821)"/>
<path fill-rule="evenodd" clip-rule="evenodd" d="M778.917 944.957C815.997 951.879 843.192 933.77 856.321 914.54C868.868 896.152 870.847 874.314 861.364 859.006C859.935 856.671 858.117 854.465 855.976 852.323C852.666 849.013 848.838 846.092 845.075 843.364L843.583 842.261C843.413 842.158 843.243 842.02 843.063 841.875C842.901 841.743 842.73 841.605 842.545 841.481L842.451 841.411C837.139 837.39 829.792 831.83 812.531 835.672C809.71 836.273 807.243 836.913 804.975 837.501L804.972 837.502L804.964 837.504C804.318 837.672 803.689 837.835 803.072 837.992C794.863 840.381 792.562 840.438 790.23 840.497L790.049 840.501C788.753 840.5 787.456 840.498 785.448 840.819C775.729 842.361 767.884 840.082 760.298 837.803L760.073 837.737C753.932 835.938 748.096 834.228 741.693 834.731C726.4 835.877 716.693 845.714 713.024 864.05C708.84 884.718 715.154 904.752 730.925 920.523C743.19 932.789 760.247 941.432 778.917 944.957ZM839.635 845.949C840.414 846.598 841.127 847.183 841.971 847.767L843.073 848.611C845.604 850.494 848.134 852.377 850.405 854.519L851.184 855.298C860.464 864.578 863.917 877.35 860.761 891.28C856.123 912.012 838.651 930.523 816.173 938.463C795.315 945.693 762.447 939.102 742.984 923.91C740.064 921.637 737.404 919.236 735.002 916.834C720.076 901.908 714.478 884.531 718.469 865.224C721.688 849.156 729.259 841.195 742.155 840.241C747.495 839.808 752.716 841.325 758.347 842.961L758.879 843.115C780.944 849.64 795.338 845.819 806.952 842.737L807.226 842.664C816.879 840.02 824.588 838.022 833.926 842.053C835.728 842.843 837.335 844.122 838.916 845.38C839.065 845.498 839.213 845.616 839.361 845.733L839.512 845.853L839.635 845.949Z" fill="url(#paint1_linear_1_1821)"/>
<path fill-rule="evenodd" clip-rule="evenodd" d="M882.019 892.476C871.88 918.061 850.458 939.742 824.744 950.4C808.486 956.923 787.037 958.384 765.838 954.272C748.919 950.943 724.345 942.678 703.383 921.716C697.282 915.616 691.829 908.738 687.217 901.279C675.59 882.274 671.997 862.243 676.309 840.02C680.297 818.638 689.482 805.819 703.54 801.885C718.44 797.628 730.308 802.765 740.813 807.316L741.267 807.511C762.602 816.678 768.499 816.233 784.114 813.597C786.965 813.083 789.103 812.503 791.305 811.469C792.73 810.823 794.154 810.177 795.644 809.595L799.725 807.851C819.09 798.74 841.374 791.383 858.892 805.924C859.411 806.314 859.801 806.703 860.32 807.222C861.553 808.455 862.592 809.753 863.63 811.051C863.73 811.17 863.828 811.288 863.925 811.405L864.572 812.186C864.758 812.412 864.944 812.637 865.134 812.866C865.259 813.016 865.385 813.167 865.513 813.322C867.136 815.203 868.629 816.826 870.186 818.383C874.989 823.445 879.078 827.793 882.849 836.223C890.065 852.759 889.834 872.72 882.019 892.476ZM866.724 822.818C866.286 822.347 865.856 821.885 865.46 821.423L865.459 821.422C864.615 820.449 863.772 819.476 862.993 818.438C861.305 816.362 859.617 814.285 857.605 812.274C853.581 808.25 847.483 803.575 836.594 803.171C824.799 802.896 814.954 807.159 804.526 811.746L804.23 811.874C790.85 817.649 777.056 823.603 758.523 819.46C751.562 817.932 745.527 815.356 739.574 812.815L739.135 812.628C732.067 809.572 725.258 806.646 718.063 806.053C708.276 805.197 699.466 808.036 693.771 813.861C683.416 824.605 679.428 845.727 680.098 861.93C681.033 882.022 690.262 900.959 707.525 918.222C710.576 921.272 713.82 924.258 717.389 927.179C744.704 949.706 791.961 957.872 822.728 945.407C849.544 934.297 871.286 910.607 879.415 883.658C885.285 864.159 883.315 845.621 873.834 831.35C872.396 829.141 870.63 827.166 868.895 825.226L868.892 825.224L868.887 825.218C868.587 824.882 868.287 824.547 867.991 824.213C867.577 823.735 867.147 823.273 866.725 822.819L866.724 822.818Z" fill="url(#paint2_linear_1_1821)"/>
<path fill-rule="evenodd" clip-rule="evenodd" d="M777.78 966.343C743.754 965.194 711.009 953.548 688.041 934.462C684.018 931.087 680.189 927.517 676.555 923.882L675.841 923.169C660.33 907.658 649.419 891.052 643.303 873.804C636.927 855.649 635.604 836.204 639.399 815.924C644.544 787.286 656.511 770.777 675.041 766.784C694.013 762.5 707.637 769.448 722.046 776.797L722.365 776.96C737.866 784.953 753.885 793.076 777.791 787.212C780.965 786.374 786.861 784.762 790.422 782.369C798.192 777.065 808.163 770.857 828.245 764.275C840.294 760.144 852.089 760.29 862.465 764.711C868.171 767.182 873.75 771.078 878.877 776.205C882.057 779.385 885.108 783.083 888.16 787.3C903.68 809.421 909.553 838.464 903.954 867.037C898.163 896.97 880.767 923.971 855 943.248C847.62 948.812 839.655 953.532 831.235 957.279C816.079 963.868 797.548 966.954 777.78 966.343ZM875.059 779.894C862.079 766.914 847.751 763.589 830.132 769.397C810.763 775.786 801.115 781.8 793.604 786.845C787.388 791.114 767.437 798.085 745.783 792.611C736.253 790.2 728.016 785.976 720.039 781.882L719.749 781.735C711.165 777.369 703.01 773.222 693.972 771.736C680.618 769.514 668.503 772.673 660.737 780.569C646.952 794.483 641.742 822.797 642.745 844.769C644.077 871.213 656.685 896.506 680.114 919.934C683.683 923.503 687.447 927.008 691.47 930.384C712.817 948.495 744.978 959.946 777.514 961.028C796.633 961.638 814.451 958.617 828.959 952.286C836.991 948.667 844.697 944.206 851.689 938.902C907.302 897.436 911.55 829.588 883.628 790.534C880.965 786.318 877.979 782.814 875.059 779.894Z" fill="url(#paint3_linear_1_1821)"/>
<path fill-rule="evenodd" clip-rule="evenodd" d="M790.057 753.139C785.201 756.438 779.955 758.828 774.254 760.246C743.157 768.369 723.31 757.194 704.176 746.345L704.14 746.324C693.451 740.29 683.343 734.583 671.428 731.977C653.211 727.869 635.589 732.121 624.198 743.253C613.649 753.802 606.607 769.67 602.749 791.83C596.123 827.66 601.74 858.646 620.512 889.326C628.372 901.975 638.24 914.432 649.013 925.205C664.848 941.04 682.558 953.314 700.196 960.726C714.722 966.968 730.023 971.396 745.71 973.881C768.398 977.542 789.85 977.247 809.546 973.127C830.797 968.62 850.162 959.509 866.929 946.117C882.013 934.148 894.76 919.843 904.782 903.33C914.094 887.919 920.681 871.337 924.286 853.714C927.763 837.128 928.322 820.214 925.772 803.425C922.368 779.57 911.254 756.289 896.132 741.167C879.518 724.553 859.486 720.183 836.555 728.317C811.8 737.096 800.072 745.765 790.655 752.726L790.446 752.881L790.057 753.139ZM892.314 745.245C896.727 749.658 900.883 755.108 904.78 761.335C937.85 820.81 920.457 896.742 863.488 942.029C855.008 948.822 845.618 954.577 835.709 959.165C785.061 982.166 708.895 970.719 665.94 933.589C661.333 929.629 656.92 925.475 652.831 921.387C623.367 891.923 607.51 860.404 605.715 827.543C604.445 799.868 610.812 764.297 628.027 747.211C637.8 737.439 653.608 733.832 670.269 737.419C681.343 739.83 691.127 745.343 701.493 751.183L701.526 751.202L702.737 751.873C712.22 757.128 722.053 762.577 733.432 765.763C753.66 771.365 778.283 768.029 793.239 757.616L794.21 756.904C803.209 750.241 814.475 741.961 838.313 733.569C859.041 726.21 877.193 730.123 892.314 745.245Z" fill="url(#paint4_linear_1_1821)"/>
<path fill-rule="evenodd" clip-rule="evenodd" d="M685.794 715.614C673.919 708.504 661.653 701.16 647.79 697.725C626.266 692.122 604.626 696.887 591.294 709.96C578.803 722.321 570.469 741.299 565.904 767.799C558.318 812.118 564.653 846.67 587.127 883.382C596.741 898.95 608.232 913.418 621.212 926.398L622.315 927.501C638.994 944.05 654.565 956.645 680.829 968.023C734.068 990.845 817.813 999.645 878.534 949.179C911.872 921.681 935.215 883.282 944.424 841.104C950.349 814.282 950.052 786.932 943.407 761.907C937.543 739.734 926.952 720.082 913.453 706.583C907.288 700.418 900.735 695.678 893.926 692.622C879.076 685.926 862.485 685.904 844.542 692.554C816.233 702.936 802.747 713.528 791.946 722.011L791.505 722.357C785.29 727.274 779.398 730.96 770.522 733.346C732.429 743.662 708.819 729.501 685.987 715.73L685.794 715.614ZM595.188 713.854C607.161 702.011 626.339 698.019 646.501 703.038C659.727 706.296 671.143 713.182 683.142 720.522C694.883 727.602 706.947 734.878 721.146 738.98C745.848 746.208 775.33 741.777 792.809 728.321L794.104 727.286L794.324 727.114C805.73 718.162 818.753 707.942 846.364 697.741C854.59 694.577 863.143 693.033 871.892 693.24C885.632 693.648 898.862 699.888 910.154 711.18C932.09 733.116 944.587 771.889 942.699 812.327C940.307 863.782 916.264 910.929 874.963 944.961C806.993 1001.38 696.602 985.867 640.085 936.599C635.284 932.445 630.676 928.096 626.263 923.683C601.472 898.892 571.28 858.992 568.491 810.252C566.963 783.614 572.795 735.858 595.188 713.854Z" fill="url(#paint5_linear_1_1821)"/>
<path fill-rule="evenodd" clip-rule="evenodd" d="M766.856 706.51C775.018 704.188 782.466 700.245 789.004 694.875C789.49 694.454 789.991 694.05 790.493 693.646C790.995 693.241 791.497 692.837 791.982 692.416C804.411 682.064 820.012 669.189 852.658 656.791C873.386 648.913 892.505 648.875 909.625 656.675C917.277 660.186 924.608 665.316 931.227 671.935C959.329 700.037 980.603 759.366 964.691 828.495C959.409 851.819 950.626 874.101 938.471 894.693C897.35 964.629 838.34 987.166 796.159 993.782C762.401 998.985 726.104 996.342 691.028 985.989C659.259 976.613 630.528 961.472 610.088 943.233L609.309 942.584C604.443 938.235 599.705 933.756 595.227 929.278C565.439 899.49 529.145 851.675 525.758 793.278C524.895 778.177 525.974 761.911 528.995 743.574C534.201 712.668 543.827 690.711 558.39 676.538C566.674 668.384 577.23 663.279 589.736 661.287C622.004 656.406 643.993 670.241 667.15 684.855L667.162 684.862C694.012 701.747 721.579 719.083 766.856 706.51ZM562.348 680.497C548.692 693.893 539.583 714.814 534.505 744.554C531.484 762.502 530.469 778.314 531.332 793.027C534.651 849.674 570.036 896.321 599.175 925.46C604.043 930.327 609.105 935.13 614.425 939.804C673.149 991.538 778.224 1006.27 848.754 972.728C896.422 949.851 934.467 905.057 953.12 849.671C970.418 798.496 968.01 744.961 946.63 702.87C940.912 691.845 934.353 682.698 927.149 675.494L927.085 675.429C914.884 663.228 900.682 656.793 884.997 656.252C875.47 655.915 865.168 657.78 854.545 661.913C822.741 673.988 807.657 686.476 795.487 696.569C794.97 697.022 794.452 697.442 793.934 697.863C793.416 698.283 792.898 698.704 792.38 699.157C778.462 710.609 757.019 716.865 733.493 716.379C705.374 715.433 684.751 702.451 664.844 689.919L664.824 689.907L664.274 689.562C650.598 680.986 637.704 672.9 622.669 668.85C599.134 662.272 576.457 666.648 562.348 680.497Z" fill="url(#paint6_linear_1_1821)"/>
<path fill-rule="evenodd" clip-rule="evenodd" d="M542.32 631.863C536.232 634.706 530.534 638.587 525.68 643.311C516.49 652.242 508.859 664.156 502.852 678.729C498.266 690.324 494.785 703.67 492.15 719.415C488.679 740.408 487.474 758.876 488.469 776.052C492.45 842.422 533.874 896.918 567.945 930.99C573.397 936.312 579.107 941.764 584.947 946.957C607.983 967.403 640.281 984.428 676.07 994.847C715.49 1006.31 756.453 1009.22 794.422 1003.18C842.241 995.596 908.893 969.83 955.186 890.309C968.828 867.062 978.709 841.994 984.829 815.755C993.076 780.9 993.675 745.256 986.566 712.647C980.239 683.41 967.825 657.663 951.598 640.143C950.625 639.04 949.651 638.066 948.613 637.028C941.864 630.279 934.014 624.759 925.324 620.599C915.726 616.308 905.094 613.96 894.595 614.075C883.707 614.19 872.304 616.507 860.645 621.028C823.918 635.299 806.7 650.052 792.912 661.893C792.163 662.516 791.445 663.139 790.735 663.756C789.971 664.419 789.217 665.073 788.445 665.71C780.289 672.569 772.194 677.029 763.124 679.609C710.715 694.507 679.254 674.049 648.832 654.24L648.726 654.171C622.623 637.245 597.862 621.188 561.301 626.251C554.757 627.214 548.343 629.084 542.32 631.863ZM529.509 647.14C545.884 631.284 571.8 626.525 599.031 634.469C616.342 639.483 631.002 649.095 646.505 659.292C669.144 674.035 692.496 689.232 724.773 690.314C737.476 690.72 750.564 688.924 764.687 684.925C779.587 680.669 788.65 672.904 795.252 667.21L796.353 666.24L796.553 666.068C810.113 654.45 827.017 639.966 862.661 626.15C894.336 613.816 922.859 619.04 944.989 641.17C953.621 649.802 961.283 660.96 967.848 674.384C1017.5 776.721 961.783 927.842 855.18 979.542C765.092 1023.16 646.711 994.482 588.636 943.009C582.926 937.946 577.345 932.624 572.088 927.367C538.665 893.944 497.956 840.55 494.108 775.866C493.112 759.079 494.318 740.999 497.725 720.459C503.445 686.313 513.847 662.413 529.509 647.14Z" fill="url(#paint7_linear_1_1821)"/>
<path fill-rule="evenodd" clip-rule="evenodd" d="M793.518 631.693C791.641 633.44 789.829 634.993 788.016 636.546C778.501 644.763 769.758 649.741 759.393 652.708C699.793 669.865 664.569 646.42 630.513 623.625L630.23 623.436C601.209 604.087 573.749 585.78 532.737 591.085C525.35 592.111 518.224 594.176 511.423 597.212C504.493 600.378 498.147 604.647 492.711 609.953C482.355 619.92 473.819 633.388 467.361 649.84C462.195 662.795 458.327 677.696 455.37 695.449C451.514 719.034 450.117 739.771 451.31 758.956C455.82 833.233 502.503 894.542 540.858 932.897L541.053 933.092C546.829 938.868 552.929 944.579 559.223 950.226C594.198 981.448 646.012 1004.14 701.24 1012.38C713.751 1014.28 726.455 1015.46 739.093 1015.93C784.721 1017.55 827.936 1008.99 864.205 991.284C906.69 970.475 945.005 933.198 972.16 886.055C987.095 860.217 998.268 832.3 1005.16 803.211C1011.8 775.676 1014.29 747.358 1012.43 719.099C1010.52 691.423 1004.26 665.75 993.793 643.118C987.227 628.786 979.433 616.591 970.541 606.792C969.243 605.365 967.945 603.937 966.582 602.574C959.118 595.111 950.555 589.137 941.087 584.587C930.387 579.582 918.458 577.103 906.663 577.216C894.479 577.329 881.781 580.033 868.761 585.135C827.987 601.306 808.95 618.089 793.628 631.596L793.518 631.693ZM562.911 946.149C556.682 940.566 550.517 934.79 544.741 929.014C507.1 891.373 461.326 831.232 456.948 758.64C455.821 739.909 457.089 719.56 460.945 696.364C467.372 657.877 479.065 630.868 496.67 613.783C515.18 595.921 544.596 590.777 575.328 600.152C594.472 606.042 610.741 616.86 628.012 628.345L628.548 628.701C663.311 651.839 699.29 675.786 761.085 657.895C777.462 653.191 787.428 644.401 796.226 636.64L796.247 636.622L797.283 635.716L797.419 635.596C812.349 622.481 830.999 606.097 870.842 590.322C906.273 576.308 938.167 582.055 963.088 606.977C973.018 616.906 981.72 629.88 988.87 645.444C1032.62 740.32 997.875 875.916 909.778 954.147C865.763 993.36 806.944 1012.85 739.864 1010.62C672.784 1008.39 604.959 983.666 562.911 946.149Z" fill="url(#paint8_linear_1_1821)"/>
<path fill-rule="evenodd" clip-rule="evenodd" d="M787.587 607.381C779.884 614.175 770.043 621.68 755.921 625.808C689.065 645.287 649.689 618.467 611.546 592.361L611.314 592.203C579.354 570.441 549.098 549.839 504.366 555.854C496.202 556.88 488.233 559.137 480.72 562.497C472.948 565.986 466.02 570.707 459.936 576.531C448.48 587.598 438.974 602.426 431.87 620.692C426.187 635.072 421.933 651.657 418.655 671.289C414.414 697.466 412.955 720.471 414.216 741.665C416.603 780.813 429.879 820.494 453.653 859.413C469.438 885.293 489.693 910.597 513.835 934.739C540.249 961.153 563.412 979.785 603.552 997.274C631.242 1009.3 660.353 1017.57 690.171 1022.02C703.784 1024.11 717.655 1025.43 731.46 1025.9C782.272 1027.66 830.412 1018.07 870.76 998.098C917.131 975.35 959.07 934.06 988.939 881.866C1005.43 853.438 1017.7 822.735 1025.43 790.731C1032.91 760.411 1035.84 729.307 1034.18 698.131C1032.45 667.539 1025.93 639.274 1014.88 614.242C1007.73 598.16 999.22 584.473 989.418 573.377L989.238 573.182C987.68 571.5 986.178 569.878 984.616 568.316C976.179 559.879 966.837 553.255 956.85 548.575C944.982 543.05 931.758 540.31 918.731 540.486C905.316 540.662 891.192 543.623 876.877 549.372C832.014 567.406 811.151 586.179 794.376 601.272L794.059 601.557C792.118 603.369 789.787 605.44 787.587 607.381ZM551.626 565.836C572.892 572.605 590.991 584.879 610.063 597.867L610.071 597.873C648.601 624.107 688.366 651.182 757.483 630.865C775.493 625.705 786.561 615.675 796.335 606.81L797.565 605.71C814.07 590.762 834.719 572.191 879.023 554.365C894.18 548.294 908.952 545.463 922.887 545.936C944.793 546.744 964.248 555.455 980.862 572.069C992.284 583.491 1002.03 598.411 1010.02 616.504C1056.18 721.169 1017.25 870.823 921.448 957.274C873.356 1000.69 806.18 1023.22 732.23 1020.72C658.28 1018.22 583.518 990.83 537.251 949.353C530.633 943.382 524.143 937.281 517.978 931.115C475.859 888.996 424.761 821.978 419.789 741.284C418.464 720.544 419.923 697.927 424.165 672.139C431.234 629.376 444.219 599.387 463.83 580.425C488.23 556.934 525.172 557.503 551.626 565.836Z" fill="url(#paint9_linear_1_1821)"/>
<path fill-rule="evenodd" clip-rule="evenodd" d="M1056.12 677.099C1057.66 711.126 1054.27 745.145 1045.89 778.186C1037.32 813.106 1023.89 846.529 1005.98 877.677C979.147 924.496 946.081 961.456 907.686 987.262C871.103 1011.9 828.351 1027.4 780.66 1033.42C761.869 1035.73 742.751 1036.55 723.826 1036C692.198 1034.92 660.629 1029.89 630.157 1021.29C614.597 1016.86 599.165 1011.27 584.315 1004.83C570.113 998.654 556.234 991.376 543.066 983.127C531.585 975.917 520.557 967.866 510.369 958.973L507.839 956.701C500.766 950.275 493.822 943.72 487.202 937.1L487.008 936.905C477.792 927.69 469.03 918.28 460.916 908.872C445.986 891.612 432.35 873.058 420.398 853.599C394.286 810.918 379.774 767.541 377.122 724.634C375.664 701.431 377.314 676.157 382.005 647.324C385.539 625.748 390.245 607.543 396.445 591.738C404.259 571.723 414.606 555.406 427.226 543.304C433.893 536.897 441.598 531.788 450.018 528.041C458.308 524.423 467.054 522.037 475.996 520.883C493.103 518.703 511.641 520.673 529.601 526.466C553.523 534.169 574.249 548.533 594.384 562.488L594.772 562.756C635.948 591.253 678.499 620.701 752.254 598.972C767.543 594.456 778.095 586.37 787.093 578.281C789.552 576.081 792.012 573.881 794.536 571.487C812.789 554.662 835.573 533.695 884.929 513.673C900.604 507.344 916.024 503.995 930.865 503.821C945.252 503.582 959.708 506.648 972.743 512.693C983.509 517.763 993.564 524.841 1002.65 533.927C1004.6 535.874 1006.54 537.951 1008.43 540.092C1019.14 552.356 1028.43 567.599 1035.97 585.496C1047.74 612.927 1054.45 643.72 1056.12 677.099ZM527.923 531.649C498.746 522.146 457.915 521.312 430.991 547.198C409.438 567.972 395.097 601.004 387.385 648.174C382.758 676.554 381.108 701.438 382.565 724.253C388.067 812.724 444.358 886.49 490.631 932.763C497.316 939.447 504.324 946.067 511.462 952.558C561.882 998.059 643.517 1027.92 724.532 1030.62C806.324 1033.33 880.366 1008.35 933.053 960.337C1036.49 865.73 1079.55 701.953 1031.05 587.563C1022.53 567.526 1011.75 550.92 999.091 538.264C980.79 519.963 959.195 510.277 934.955 509.465C919.66 508.926 903.527 512.079 887.139 518.731C842.188 536.945 820.178 555.32 798.107 575.704L797.136 576.546C785.485 587.288 773.381 598.353 753.817 604.159C677.568 626.671 633.91 596.475 591.744 567.252C570.985 552.836 551.265 539.199 527.923 531.649Z" fill="url(#paint10_linear_1_1821)"/>
<path fill-rule="evenodd" clip-rule="evenodd" d="M1077.93 656.196C1079.41 691.972 1075.51 728.843 1066.35 765.771C1056.94 803.477 1042.35 839.75 1023.02 873.488C1003.04 908.392 977.873 940.049 948.358 967.357C925.704 988.324 899.351 1005.46 870.14 1018.19C842.03 1030.46 811.257 1038.78 778.534 1042.95C757.929 1045.51 736.932 1046.52 716.128 1045.78C681.842 1044.63 647.81 1039.2 614.745 1029.82C597.888 1025 581.094 1018.95 564.947 1012C549.513 1005.24 534.466 997.308 520.196 988.474C506.704 980.03 493.859 970.421 482.049 959.776C474.457 952.96 467.124 945.886 460.05 938.812L459.92 938.682C449.731 928.493 440.06 918.046 431.102 907.664C414.874 888.847 400.004 868.671 387.013 847.525C358.628 801.018 342.814 753.88 339.897 707.343C338.307 682.066 340.019 654.524 345.16 623.164C349.016 599.579 354.108 579.82 360.825 562.719C364.57 552.874 369.288 543.353 374.784 534.353C380.215 525.417 386.815 517.26 394.322 509.882C401.571 502.893 409.924 497.396 419.186 493.325C428.189 489.385 437.712 486.87 447.496 485.653C466.158 483.345 486.382 485.577 505.963 492.085C531.916 500.682 554.363 516.371 576.15 531.599L576.727 532.003C621.512 563.339 667.884 595.785 748.717 571.877C764.394 567.232 775.271 559.341 786.793 548.858C788.248 547.545 789.704 546.192 791.213 544.79C792.455 543.636 793.733 542.449 795.078 541.222L795.142 541.157C814.948 522.649 839.608 499.677 893.304 477.651C909.627 470.934 925.694 467.327 941.183 466.895C956.153 466.332 971.387 469.14 985.264 474.862C998.233 480.324 1010.3 488.507 1021.07 499.28C1022.82 501.032 1024.58 502.914 1026.26 504.731C1038.6 518.488 1049.06 535.936 1057.44 556.362C1069.41 586.45 1076.39 619.966 1077.93 656.196ZM1016.09 502.578C1006.48 492.973 995.324 485.44 982.873 480.109C971.784 475.492 960.051 472.948 948.06 472.607C931.08 472.065 913.262 475.475 895.191 482.903C842.507 504.498 818.291 527.101 798.829 545.266L798.713 545.375L798.518 545.569L798.153 545.908C783.681 559.354 771.158 570.989 750.215 577.258C666.835 601.882 619.551 568.763 573.782 536.705L573.685 536.638C551.109 520.793 529.702 505.857 504.22 497.332C472.255 486.724 427.665 485.495 398.151 513.841C374.592 536.491 359.024 572.568 350.605 624.079C345.528 655.115 343.816 682.268 345.406 707.027C351.502 803.471 412.987 883.984 463.608 934.605C470.682 941.678 478.21 948.818 485.737 955.698C540.31 1005.09 628.884 1037.62 716.833 1040.53C776.46 1042.56 833.346 1030.84 881.465 1006.86C904.457 995.423 925.758 980.741 944.658 963.399C1057.8 859.084 1103.96 685.072 1052.13 558.688C1042.9 536.122 1031.01 517.505 1016.87 503.357L1016.09 502.578Z" fill="url(#paint11_linear_1_1821)"/>
<path fill-rule="evenodd" clip-rule="evenodd" d="M388.419 458.805C398.199 454.606 408.499 451.833 419.062 450.616C439.279 448.182 461.123 450.74 482.26 457.898C494.969 462.193 507.939 468.432 522.014 476.942C534.39 484.404 546.509 493.03 558.174 501.334L558.211 501.36L558.317 501.435C606.809 535.828 656.881 571.342 744.921 545.041C766.324 538.621 779.119 526.541 795.253 511.309L795.489 511.086L795.54 511.039C816.826 490.921 843.302 465.897 901.226 441.953C918.844 434.719 936.337 430.725 952.992 430.164C969.193 429.539 985.724 432.608 1000.77 438.85C1014.58 444.767 1027.36 453.534 1038.78 464.956C1040.86 467.033 1042.94 469.239 1044.95 471.51C1058.19 486.564 1069.43 505.439 1078.27 527.746C1084.84 544.411 1089.92 561.786 1093.38 579.354C1096.97 597.7 1099.07 616.498 1099.74 635.163C1100.42 654.607 1099.67 674.308 1097.49 693.618C1095.25 713.64 1091.58 733.661 1086.75 753.162C1076.37 793.783 1060.61 832.776 1039.86 869.104C1018.46 906.729 991.613 940.845 960.028 970.484C910.513 1016.62 844.513 1045.37 769.087 1053.43C748.999 1055.61 728.521 1056.36 708.299 1055.68L698.578 1055.28C675.374 1053.95 652.104 1050.87 629.284 1046.05C607.113 1041.35 585.134 1034.9 563.995 1026.84C543.764 1019.16 524.05 1009.8 505.369 998.758C487.857 988.494 471.379 976.417 456.259 962.851C448.213 955.581 440.361 948.117 432.833 940.589C421.67 929.426 411.026 918.005 401.288 906.586C383.762 886.341 367.789 864.413 353.629 841.581C322.969 791.377 305.789 740.413 302.674 690.182C300.951 662.96 302.789 633.086 308.38 599.069C312.557 573.605 318.036 552.161 325.269 533.636C329.402 523.013 334.378 512.715 340.327 503.002C346.211 493.354 353.393 484.485 361.418 476.59C369.379 469.148 378.379 463.133 388.419 458.805ZM1034.12 468.06C1023.87 457.806 1011.93 449.754 998.701 444.032C986.64 438.96 973.869 436.156 960.842 435.814C942.37 435.205 923.127 439.002 903.437 447.14C846.438 470.652 820.289 495.372 799.384 515.24C782.62 531.094 769.352 543.584 746.614 550.487C705.866 562.679 669.509 563.083 635.468 551.694C605.505 541.755 580.374 523.919 556.043 506.651L555.431 506.217L554.584 505.617C530.505 488.564 507.692 472.408 480.647 463.275C446.023 451.561 397.544 449.938 365.442 480.743C339.876 505.27 323.016 544.326 313.89 600.179C308.428 633.807 306.589 663.162 308.247 690.06C314.808 794.476 381.682 881.801 436.586 936.706C444.114 944.234 452.032 951.763 460.143 959.097C519.842 1013.23 612.242 1047.51 707.45 1050.69C806.223 1053.81 894.645 1023.93 956.263 966.461C1077.17 853.602 1127.46 665.856 1073.22 529.683C1063.27 504.847 1050.41 484.35 1034.9 468.839L1034.12 468.06Z" fill="url(#paint12_linear_1_1821)"/>
</mask>
<g mask="url(#mask0_1_1821)">
<g filter="url(#filter1_f_1_1821)">
<circle r="392.19" transform="matrix(0.725796 0.68791 0.68791 -0.725796 670.378 646.591)" fill="#02FE85"/>
<circle r="148.73" transform="matrix(0.725796 0.68791 0.68791 -0.725796 724.768 912.519)" fill="#02DCB2"/>
<circle r="95.645" transform="matrix(0.725796 0.68791 0.68791 -0.725796 696.223 644.605)" fill="#02DCB2"/>
<circle r="95.645" transform="matrix(0.725796 0.68791 0.68791 -0.725796 745.075 800.618)" fill="#05EE76"/>
<circle r="95.645" transform="matrix(0.725796 0.68791 0.68791 -0.725796 866.985 783.755)" fill="#05EE76"/>
<circle r="95.645" transform="matrix(0.725796 0.68791 0.68791 -0.725796 822.88 659.984)" fill="black"/>
<circle r="95.645" transform="matrix(0.725796 0.68791 0.68791 -0.725796 866.97 1000.64)" fill="black"/>
<circle r="95.645" transform="matrix(0.725796 0.68791 0.68791 -0.725796 623.031 788.351)" fill="black"/>
<circle r="101.594" transform="matrix(0.725796 0.68791 0.68791 -0.725796 528.637 671.737)" fill="black"/>
<circle r="101.594" transform="matrix(0.725796 0.68791 0.68791 -0.725796 848.009 1114.45)" fill="black"/>
<circle r="136.374" transform="matrix(0.725796 0.68791 0.68791 -0.725796 761.326 464.817)" fill="black"/>
<circle r="136.374" transform="matrix(0.725796 0.68791 0.68791 -0.725796 347.76 565.876)" fill="black"/>
<circle r="142.781" transform="matrix(0.725796 0.68791 0.68791 -0.725796 362.229 598.506)" fill="black"/>
</g>
</g>
</g>
<defs>
<filter id="filter0_f_1_1821" x="0.320312" y="0.336304" width="1376.69" height="1376.69" filterUnits="userSpaceOnUse" color-interpolation-filters="sRGB">
<feFlood flood-opacity="0" result="BackgroundImageFix"/>
<feBlend mode="normal" in="SourceGraphic" in2="BackgroundImageFix" result="shape"/>
<feGaussianBlur stdDeviation="221" result="effect1_foregroundBlur_1_1821"/>
</filter>
<filter id="filter1_f_1_1821" x="11.3853" y="54.3999" width="1478.79" height="1361.64" filterUnits="userSpaceOnUse" color-interpolation-filters="sRGB">
<feFlood flood-opacity="0" result="BackgroundImageFix"/>
<feBlend mode="normal" in="SourceGraphic" in2="BackgroundImageFix" result="shape"/>
<feGaussianBlur stdDeviation="100" result="effect1_foregroundBlur_1_1821"/>
</filter>
<linearGradient id="paint0_linear_1_1821" x1="1040.91" y1="942.784" x2="429.555" y2="673.059" gradientUnits="userSpaceOnUse">
<stop stop-color="#FC5050"/>
<stop offset="0.56" stop-color="#7E4CA8"/>
<stop offset="1" stop-color="#0048FF"/>
</linearGradient>
<linearGradient id="paint1_linear_1_1821" x1="1040.91" y1="942.784" x2="429.555" y2="673.059" gradientUnits="userSpaceOnUse">
<stop stop-color="#FC5050"/>
<stop offset="0.56" stop-color="#7E4CA8"/>
<stop offset="1" stop-color="#0048FF"/>
</linearGradient>
<linearGradient id="paint2_linear_1_1821" x1="1040.91" y1="942.784" x2="429.555" y2="673.059" gradientUnits="userSpaceOnUse">
<stop stop-color="#FC5050"/>
<stop offset="0.56" stop-color="#7E4CA8"/>
<stop offset="1" stop-color="#0048FF"/>
</linearGradient>
<linearGradient id="paint3_linear_1_1821" x1="1040.91" y1="942.784" x2="429.555" y2="673.059" gradientUnits="userSpaceOnUse">
<stop stop-color="#FC5050"/>
<stop offset="0.56" stop-color="#7E4CA8"/>
<stop offset="1" stop-color="#0048FF"/>
</linearGradient>
<linearGradient id="paint4_linear_1_1821" x1="1040.91" y1="942.784" x2="429.555" y2="673.059" gradientUnits="userSpaceOnUse">
<stop stop-color="#FC5050"/>
<stop offset="0.56" stop-color="#7E4CA8"/>
<stop offset="1" stop-color="#0048FF"/>
</linearGradient>
<linearGradient id="paint5_linear_1_1821" x1="1040.91" y1="942.784" x2="429.555" y2="673.059" gradientUnits="userSpaceOnUse">
<stop stop-color="#FC5050"/>
<stop offset="0.56" stop-color="#7E4CA8"/>
<stop offset="1" stop-color="#0048FF"/>
</linearGradient>
<linearGradient id="paint6_linear_1_1821" x1="1040.91" y1="942.784" x2="429.555" y2="673.059" gradientUnits="userSpaceOnUse">
<stop stop-color="#FC5050"/>
<stop offset="0.56" stop-color="#7E4CA8"/>
<stop offset="1" stop-color="#0048FF"/>
</linearGradient>
<linearGradient id="paint7_linear_1_1821" x1="1040.91" y1="942.784" x2="429.555" y2="673.059" gradientUnits="userSpaceOnUse">
<stop stop-color="#FC5050"/>
<stop offset="0.56" stop-color="#7E4CA8"/>
<stop offset="1" stop-color="#0048FF"/>
</linearGradient>
<linearGradient id="paint8_linear_1_1821" x1="1040.91" y1="942.784" x2="429.555" y2="673.059" gradientUnits="userSpaceOnUse">
<stop stop-color="#FC5050"/>
<stop offset="0.56" stop-color="#7E4CA8"/>
<stop offset="1" stop-color="#0048FF"/>
</linearGradient>
<linearGradient id="paint9_linear_1_1821" x1="1040.91" y1="942.784" x2="429.555" y2="673.059" gradientUnits="userSpaceOnUse">
<stop stop-color="#FC5050"/>
<stop offset="0.56" stop-color="#7E4CA8"/>
<stop offset="1" stop-color="#0048FF"/>
</linearGradient>
<linearGradient id="paint10_linear_1_1821" x1="1040.91" y1="942.784" x2="429.555" y2="673.059" gradientUnits="userSpaceOnUse">
<stop stop-color="#FC5050"/>
<stop offset="0.56" stop-color="#7E4CA8"/>
<stop offset="1" stop-color="#0048FF"/>
</linearGradient>
<linearGradient id="paint11_linear_1_1821" x1="1040.91" y1="942.784" x2="429.555" y2="673.059" gradientUnits="userSpaceOnUse">
<stop stop-color="#FC5050"/>
<stop offset="0.56" stop-color="#7E4CA8"/>
<stop offset="1" stop-color="#0048FF"/>
</linearGradient>
<linearGradient id="paint12_linear_1_1821" x1="1040.91" y1="942.784" x2="429.555" y2="673.059" gradientUnits="userSpaceOnUse">
<stop stop-color="#FC5050"/>
<stop offset="0.56" stop-color="#7E4CA8"/>
<stop offset="1" stop-color="#0048FF"/>
</linearGradient>
</defs>
</svg>
