<svg width="648" height="1088" viewBox="0 0 648 1088" fill="none" xmlns="http://www.w3.org/2000/svg">
<g opacity="0.5">
<mask id="mask0_1_1823" style="mask-type:alpha" maskUnits="userSpaceOnUse" x="137" y="298" width="798" height="626">
<path fill-rule="evenodd" clip-rule="evenodd" d="M681.457 772.805C678.882 785.374 668.399 796.896 654.732 802.256C638.604 809.038 614.551 802.848 600.409 792.978L600.409 793.237L598.074 791.289C596.646 790.121 595.543 789.147 594.115 787.719C586.717 780.321 583.074 770.724 584.033 760.81C584.863 751.803 589.388 743.773 596.51 738.987C604.992 733.23 615.749 732.079 625.476 735.981L626.773 736.501L627.139 736.643C631.008 738.148 634.462 739.491 639.803 739.436C652.505 739.194 665.533 740.314 674.684 749.464C680.914 755.565 683.324 763.929 681.457 772.805ZM623.409 741.033C615.498 737.911 606.361 738.871 599.498 743.527C592.829 748.12 589.21 755.503 589.352 764.317C589.492 771.705 592.352 778.32 597.999 783.966C611.303 797.27 635.352 801.127 645.071 799.456C647.598 799.005 650.189 798.231 652.586 797.263C665.152 792.095 673.952 782.645 676.076 771.955C677.557 764.763 675.604 758.15 670.671 753.218C665.414 747.961 656.985 745.098 646.292 745.018C644.023 744.95 642.209 744.948 640.718 745.01L640.606 745.009C635.437 744.938 633.195 744.907 623.409 741.033Z" fill="url(#paint0_linear_1_1823)"/>
<path fill-rule="evenodd" clip-rule="evenodd" d="M613.917 812.957C650.997 819.879 678.192 801.77 691.321 782.54C703.868 764.152 705.847 742.314 696.364 727.006C694.935 724.671 693.117 722.465 690.976 720.323C687.666 717.013 683.838 714.092 680.075 711.364L678.583 710.261C678.413 710.158 678.243 710.02 678.063 709.875C677.901 709.743 677.73 709.605 677.545 709.481L677.451 709.411C672.139 705.39 664.792 699.83 647.531 703.672C644.71 704.273 642.243 704.913 639.975 705.501L639.972 705.502L639.964 705.504C639.318 705.672 638.689 705.835 638.072 705.992C629.863 708.381 627.562 708.438 625.23 708.497L625.049 708.501C623.753 708.5 622.456 708.498 620.448 708.819C610.729 710.361 602.884 708.082 595.298 705.803L595.073 705.737C588.932 703.938 583.096 702.228 576.693 702.731C561.4 703.876 551.693 713.714 548.024 732.05C543.84 752.718 550.154 772.752 565.925 788.523C578.19 800.789 595.247 809.432 613.917 812.957ZM674.635 713.949C675.414 714.598 676.127 715.183 676.971 715.767L678.073 716.611C680.604 718.494 683.134 720.377 685.405 722.519L686.184 723.298C695.464 732.578 698.917 745.35 695.761 759.28C691.123 780.012 673.651 798.523 651.173 806.463C630.315 813.693 597.447 807.102 577.984 791.91C575.064 789.637 572.404 787.236 570.002 784.834C555.076 769.908 549.478 752.531 553.469 733.224C556.688 717.156 564.259 709.195 577.155 708.241C582.495 707.808 587.716 709.325 593.347 710.961L593.879 711.115C615.944 717.64 630.338 713.819 641.952 710.737L642.226 710.664C651.879 708.02 659.588 706.022 668.926 710.053C670.728 710.843 672.335 712.122 673.916 713.38C674.065 713.498 674.213 713.616 674.361 713.733L674.512 713.853L674.635 713.949Z" fill="url(#paint1_linear_1_1823)"/>
<path fill-rule="evenodd" clip-rule="evenodd" d="M717.019 760.476C706.88 786.061 685.458 807.742 659.744 818.4C643.486 824.923 622.037 826.384 600.838 822.272C583.919 818.943 559.345 810.678 538.383 789.716C532.282 783.616 526.829 776.738 522.217 769.279C510.59 750.274 506.997 730.243 511.309 708.019C515.297 686.638 524.482 673.819 538.54 669.885C553.44 665.628 565.308 670.765 575.813 675.316L576.267 675.511C597.602 684.678 603.499 684.233 619.114 681.597C621.965 681.083 624.103 680.503 626.305 679.469C627.73 678.823 629.154 678.177 630.644 677.595L634.725 675.851C654.09 666.74 676.374 659.383 693.892 673.924C694.411 674.314 694.801 674.703 695.32 675.222C696.553 676.455 697.592 677.753 698.631 679.051C698.73 679.17 698.828 679.288 698.925 679.405L699.572 680.186C699.758 680.412 699.944 680.637 700.134 680.866C700.259 681.016 700.385 681.167 700.513 681.322C702.136 683.203 703.629 684.826 705.186 686.383C709.989 691.445 714.078 695.793 717.849 704.223C725.065 720.759 724.834 740.72 717.019 760.476ZM701.724 690.818C701.286 690.347 700.856 689.885 700.46 689.423L700.459 689.422C699.615 688.449 698.772 687.476 697.993 686.438C696.305 684.362 694.617 682.285 692.605 680.274C688.581 676.25 682.483 671.575 671.594 671.171C659.799 670.896 649.954 675.159 639.526 679.746L639.23 679.874C625.85 685.649 612.056 691.603 593.523 687.46C586.562 685.932 580.527 683.356 574.574 680.815L574.135 680.628C567.067 677.572 560.258 674.646 553.063 674.053C543.276 673.197 534.466 676.036 528.771 681.861C518.416 692.605 514.428 713.727 515.098 729.93C516.033 750.022 525.262 768.959 542.525 786.222C545.576 789.272 548.82 792.258 552.389 795.179C579.704 817.706 626.961 825.872 657.728 813.407C684.544 802.297 706.286 778.607 714.415 751.658C720.285 732.159 718.315 713.621 708.834 699.35C707.396 697.141 705.63 695.166 703.895 693.226L703.892 693.224L703.887 693.218C703.587 692.882 703.287 692.547 702.991 692.213C702.577 691.735 702.147 691.273 701.725 690.819L701.724 690.818Z" fill="url(#paint2_linear_1_1823)"/>
<path fill-rule="evenodd" clip-rule="evenodd" d="M612.78 834.343C578.754 833.194 546.009 821.548 523.041 802.462C519.018 799.087 515.189 795.517 511.555 791.882L510.841 791.169C495.33 775.658 484.419 759.052 478.303 741.804C471.927 723.649 470.604 704.204 474.399 683.924C479.544 655.286 491.511 638.777 510.041 634.784C529.013 630.5 542.637 637.448 557.046 644.797L557.365 644.96C572.866 652.953 588.885 661.076 612.791 655.212C615.965 654.374 621.861 652.762 625.422 650.369C633.192 645.065 643.163 638.857 663.245 632.275C675.294 628.144 687.089 628.29 697.465 632.711C703.171 635.182 708.75 639.078 713.877 644.205C717.057 647.385 720.108 651.083 723.16 655.3C738.68 677.421 744.553 706.464 738.954 735.037C733.163 764.97 715.767 791.971 690 811.248C682.62 816.812 674.655 821.532 666.235 825.279C651.079 831.868 632.548 834.954 612.78 834.343ZM710.059 647.894C697.079 634.914 682.751 631.589 665.132 637.397C645.763 643.786 636.115 649.8 628.604 654.845C622.388 659.114 602.437 666.085 580.783 660.611C571.253 658.2 563.016 653.976 555.039 649.882L554.749 649.735C546.165 645.369 538.01 641.222 528.972 639.736C515.618 637.514 503.503 640.673 495.737 648.569C481.952 662.483 476.742 690.797 477.745 712.769C479.077 739.213 491.685 764.506 515.114 787.934C518.683 791.503 522.447 795.008 526.47 798.384C547.817 816.495 579.978 827.946 612.514 829.028C631.633 829.638 649.451 826.617 663.959 820.286C671.991 816.667 679.697 812.206 686.689 806.902C742.302 765.436 746.55 697.588 718.628 658.534C715.965 654.318 712.979 650.814 710.059 647.894Z" fill="url(#paint3_linear_1_1823)"/>
<path fill-rule="evenodd" clip-rule="evenodd" d="M625.057 621.139C620.201 624.438 614.955 626.828 609.254 628.246C578.157 636.369 558.31 625.194 539.176 614.345L539.14 614.324C528.451 608.29 518.343 602.583 506.428 599.977C488.211 595.869 470.589 600.121 459.198 611.253C448.649 621.802 441.607 637.67 437.749 659.83C431.123 695.66 436.74 726.646 455.512 757.326C463.372 769.975 473.24 782.432 484.013 793.205C499.848 809.04 517.558 821.314 535.196 828.726C549.722 834.968 565.023 839.396 580.71 841.881C603.398 845.542 624.85 845.247 644.546 841.127C665.797 836.62 685.162 827.509 701.929 814.117C717.013 802.148 729.76 787.843 739.782 771.33C749.094 755.919 755.681 739.337 759.286 721.714C762.763 705.128 763.322 688.214 760.772 671.425C757.368 647.57 746.254 624.289 731.132 609.167C714.518 592.553 694.486 588.183 671.555 596.317C646.8 605.096 635.072 613.765 625.655 620.726L625.446 620.881L625.057 621.139ZM727.314 613.245C731.727 617.658 735.883 623.108 739.78 629.335C772.85 688.81 755.457 764.742 698.488 810.029C690.008 816.822 680.618 822.577 670.709 827.165C620.061 850.166 543.895 838.719 500.94 801.589C496.333 797.629 491.92 793.475 487.831 789.387C458.367 759.923 442.51 728.404 440.715 695.543C439.445 667.868 445.812 632.297 463.027 615.211C472.8 605.439 488.608 601.832 505.269 605.419C516.343 607.83 526.127 613.343 536.493 619.183L536.526 619.202L537.737 619.873C547.22 625.128 557.053 630.577 568.432 633.763C588.66 639.365 613.283 636.029 628.239 625.616L629.21 624.904C638.209 618.241 649.475 609.961 673.313 601.569C694.041 594.21 712.193 598.123 727.314 613.245Z" fill="url(#paint4_linear_1_1823)"/>
<path fill-rule="evenodd" clip-rule="evenodd" d="M520.794 583.614C508.919 576.504 496.653 569.16 482.79 565.725C461.266 560.122 439.626 564.887 426.294 577.96C413.803 590.321 405.469 609.299 400.904 635.799C393.318 680.118 399.653 714.67 422.127 751.382C431.741 766.95 443.232 781.418 456.212 794.398L457.315 795.501C473.994 812.051 489.565 824.645 515.829 836.023C569.068 858.845 652.813 867.645 713.534 817.179C746.872 789.681 770.215 751.282 779.424 709.104C785.349 682.282 785.052 654.932 778.407 629.907C772.543 607.734 761.952 588.082 748.453 574.583C742.288 568.418 735.735 563.678 728.926 560.622C714.076 553.926 697.485 553.903 679.542 560.554C651.233 570.936 637.747 581.528 626.946 590.011L626.505 590.357C620.29 595.274 614.398 598.96 605.522 601.346C567.429 611.662 543.819 597.501 520.987 583.73L520.794 583.614ZM430.188 581.854C442.161 570.011 461.339 566.019 481.501 571.037C494.727 574.296 506.143 581.182 518.142 588.522C529.883 595.602 541.947 602.878 556.146 606.98C580.848 614.208 610.33 609.777 627.809 596.321L629.104 595.286L629.324 595.114C640.73 586.162 653.753 575.942 681.364 565.741C689.59 562.577 698.143 561.033 706.892 561.24C720.632 561.648 733.862 567.888 745.154 579.18C767.09 601.116 779.587 639.889 777.699 680.327C775.307 731.782 751.264 778.929 709.963 812.961C641.993 869.38 531.602 853.867 475.085 804.599C470.284 800.445 465.676 796.096 461.263 791.683C436.472 766.892 406.28 726.992 403.491 678.252C401.963 651.614 407.795 603.858 430.188 581.854Z" fill="url(#paint5_linear_1_1823)"/>
<path fill-rule="evenodd" clip-rule="evenodd" d="M601.856 574.51C610.018 572.188 617.466 568.245 624.004 562.875C624.49 562.454 624.991 562.05 625.493 561.646C625.995 561.241 626.497 560.837 626.982 560.416C639.411 550.064 655.012 537.189 687.658 524.791C708.386 516.913 727.505 516.875 744.625 524.675C752.277 528.186 759.608 533.316 766.227 539.935C794.329 568.037 815.603 627.366 799.691 696.495C794.409 719.819 785.626 742.101 773.471 762.693C732.35 832.629 673.34 855.165 631.159 861.782C597.401 866.985 561.104 864.342 526.028 853.989C494.259 844.613 465.528 829.472 445.088 811.233L444.309 810.584C439.443 806.235 434.705 801.756 430.227 797.278C400.439 767.49 364.145 719.675 360.758 661.278C359.895 646.177 360.974 629.911 363.995 611.574C369.201 580.668 378.827 558.711 393.39 544.538C401.674 536.384 412.23 531.279 424.736 529.287C457.004 524.406 478.993 538.241 502.15 552.855L502.162 552.862C529.012 569.747 556.579 587.083 601.856 574.51ZM397.348 548.497C383.692 561.893 374.583 582.814 369.505 612.554C366.484 630.502 365.469 646.314 366.332 661.027C369.651 717.674 405.036 764.321 434.175 793.46C439.043 798.327 444.105 803.13 449.425 807.804C508.149 859.538 613.224 874.266 683.754 840.728C731.422 817.851 769.467 773.057 788.12 717.671C805.418 666.496 803.01 612.961 781.63 570.87C775.912 559.845 769.353 550.698 762.149 543.494L762.085 543.429C749.884 531.228 735.682 524.793 719.997 524.252C710.47 523.915 700.168 525.78 689.545 529.913C657.741 541.988 642.657 554.476 630.487 564.569C629.97 565.022 629.452 565.442 628.934 565.863C628.416 566.283 627.898 566.704 627.38 567.157C613.462 578.609 592.019 584.865 568.493 584.379C540.374 583.433 519.751 570.451 499.844 557.919L499.824 557.907L499.274 557.562C485.598 548.986 472.704 540.9 457.669 536.85C434.134 530.272 411.457 534.648 397.348 548.497Z" fill="url(#paint6_linear_1_1823)"/>
<path fill-rule="evenodd" clip-rule="evenodd" d="M377.32 499.863C371.232 502.706 365.534 506.587 360.68 511.311C351.49 520.242 343.859 532.156 337.852 546.729C333.266 558.324 329.785 571.67 327.15 587.415C323.679 608.408 322.474 626.876 323.469 644.052C327.45 710.422 368.874 764.918 402.945 798.99C408.397 804.312 414.107 809.764 419.947 814.957C442.983 835.403 475.281 852.428 511.07 862.847C550.49 874.308 591.453 877.217 629.422 871.177C677.241 863.596 743.893 837.83 790.186 758.309C803.828 735.062 813.709 709.994 819.829 683.755C828.076 648.9 828.675 613.256 821.566 580.647C815.239 551.41 802.825 525.663 786.598 508.143C785.625 507.04 784.651 506.066 783.613 505.028C776.864 498.279 769.014 492.759 760.324 488.599C750.726 484.308 740.094 481.96 729.595 482.075C718.707 482.19 707.304 484.507 695.645 489.028C658.918 503.299 641.7 518.052 627.912 529.893C627.163 530.516 626.445 531.139 625.735 531.756C624.971 532.419 624.217 533.073 623.445 533.71C615.289 540.569 607.194 545.029 598.124 547.609C545.715 562.507 514.254 542.049 483.832 522.24L483.726 522.171C457.623 505.245 432.862 489.188 396.301 494.251C389.757 495.214 383.343 497.084 377.32 499.863ZM364.509 515.14C380.884 499.284 406.8 494.525 434.031 502.469C451.342 507.483 466.002 517.095 481.505 527.292C504.144 542.035 527.496 557.232 559.773 558.314C572.476 558.72 585.565 556.924 599.687 552.925C614.587 548.669 623.65 540.904 630.252 535.21L631.353 534.24L631.553 534.068C645.113 522.45 662.017 507.966 697.661 494.15C729.336 481.816 757.859 487.04 779.989 509.17C788.621 517.802 796.283 528.96 802.848 542.384C852.504 644.721 796.783 795.842 690.18 847.542C600.092 891.162 481.711 862.482 423.636 811.009C417.926 805.946 412.345 800.624 407.088 795.367C373.665 761.944 332.956 708.55 329.108 643.866C328.112 627.079 329.318 608.999 332.725 588.459C338.445 554.313 348.847 530.413 364.509 515.14Z" fill="url(#paint7_linear_1_1823)"/>
<path fill-rule="evenodd" clip-rule="evenodd" d="M628.518 499.693C626.641 501.44 624.829 502.993 623.016 504.546C613.501 512.763 604.758 517.741 594.393 520.708C534.793 537.865 499.569 514.42 465.513 491.625L465.23 491.436C436.209 472.087 408.749 453.78 367.736 459.085C360.35 460.111 353.224 462.176 346.423 465.212C339.493 468.378 333.147 472.647 327.711 477.953C317.355 487.92 308.819 501.388 302.361 517.84C297.195 530.795 293.327 545.696 290.37 563.449C286.514 587.034 285.117 607.771 286.31 626.956C290.82 701.233 337.503 762.542 375.858 800.897L376.053 801.092C381.829 806.868 387.929 812.579 394.223 818.226C429.198 849.448 481.012 872.138 536.24 880.38C548.751 882.277 561.455 883.461 574.093 883.933C619.721 885.551 662.936 876.992 699.205 859.284C741.69 838.475 780.005 801.198 807.16 754.055C822.095 728.217 833.268 700.3 840.162 671.211C846.799 643.676 849.287 615.358 847.433 587.099C845.516 559.423 839.258 533.75 828.793 511.118C822.227 496.786 814.433 484.591 805.541 474.792C804.243 473.365 802.945 471.937 801.582 470.574C794.118 463.111 785.555 457.137 776.087 452.587C765.387 447.582 753.458 445.103 741.663 445.216C729.479 445.329 716.781 448.033 703.761 453.135C662.987 469.306 643.95 486.089 628.628 499.596L628.518 499.693ZM397.911 814.149C391.682 808.566 385.517 802.79 379.741 797.014C342.1 759.373 296.326 699.232 291.948 626.64C290.821 607.909 292.089 587.56 295.945 564.364C302.372 525.877 314.065 498.868 331.67 481.783C350.18 463.921 379.596 458.777 410.328 468.152C429.472 474.042 445.741 484.86 463.012 496.345L463.548 496.701C498.311 519.839 534.29 543.786 596.085 525.895C612.462 521.191 622.428 512.401 631.226 504.64L631.247 504.622L632.283 503.716L632.419 503.596C647.349 490.481 665.999 474.097 705.842 458.322C741.273 444.308 773.167 450.055 798.088 474.977C808.018 484.906 816.72 497.88 823.87 513.444C867.618 608.32 832.875 743.916 744.778 822.147C700.763 861.36 641.944 880.851 574.864 878.619C507.784 876.388 439.959 851.666 397.911 814.149Z" fill="url(#paint8_linear_1_1823)"/>
<path fill-rule="evenodd" clip-rule="evenodd" d="M622.587 475.381C614.884 482.175 605.043 489.68 590.921 493.808C524.065 513.287 484.689 486.467 446.546 460.361L446.314 460.203C414.354 438.441 384.098 417.839 339.366 423.854C331.202 424.88 323.233 427.137 315.72 430.497C307.948 433.986 301.02 438.707 294.936 444.531C283.48 455.598 273.974 470.426 266.87 488.692C261.187 503.072 256.933 519.657 253.655 539.289C249.414 565.466 247.955 588.471 249.216 609.665C251.603 648.813 264.879 688.494 288.653 727.413C304.438 753.293 324.693 778.597 348.835 802.739C375.249 829.153 398.412 847.785 438.552 865.274C466.242 877.302 495.353 885.573 525.171 890.021C538.784 892.114 552.655 893.43 566.46 893.902C617.272 895.658 665.412 886.068 705.76 866.098C752.131 843.35 794.07 802.06 823.939 749.866C840.426 721.438 852.697 690.735 860.43 658.731C867.905 628.411 870.843 597.307 869.18 566.131C867.452 535.539 860.932 507.274 849.88 482.242C842.729 466.16 834.22 452.473 824.418 441.377L824.238 441.182C822.68 439.5 821.178 437.878 819.616 436.316C811.179 427.879 801.837 421.255 791.85 416.575C779.982 411.05 766.758 408.31 753.731 408.486C740.316 408.662 726.192 411.623 711.877 417.372C667.014 435.406 646.151 454.179 629.376 469.272L629.059 469.557C627.118 471.369 624.787 473.44 622.587 475.381ZM386.626 433.836C407.892 440.605 425.991 452.879 445.063 465.867L445.071 465.873C483.601 492.107 523.366 519.182 592.483 498.865C610.493 493.705 621.561 483.675 631.335 474.81L632.565 473.71C649.07 458.762 669.719 440.191 714.023 422.365C729.18 416.294 743.952 413.463 757.887 413.936C779.793 414.744 799.248 423.455 815.862 440.069C827.284 451.491 837.026 466.411 845.023 484.504C891.182 589.169 852.245 738.823 756.448 825.274C708.356 868.694 641.18 891.219 567.23 888.719C493.28 886.218 418.518 858.83 372.251 817.353C365.633 811.382 359.143 805.281 352.978 799.115C310.859 756.996 259.761 689.978 254.789 609.284C253.464 588.544 254.923 565.927 259.165 540.139C266.234 497.376 279.219 467.387 298.83 448.425C323.23 424.934 360.172 425.503 386.626 433.836Z" fill="url(#paint9_linear_1_1823)"/>
<path fill-rule="evenodd" clip-rule="evenodd" d="M891.121 545.099C892.659 579.126 889.271 613.145 880.892 646.186C872.321 681.106 858.887 714.529 840.978 745.677C814.147 792.496 781.081 829.456 742.686 855.262C706.103 879.903 663.351 895.398 615.66 901.424C596.869 903.731 577.751 904.547 558.826 904.002C527.198 902.921 495.629 897.887 465.157 889.29C449.597 884.862 434.165 879.267 419.315 872.83C405.113 866.654 391.234 859.376 378.066 851.127C366.585 843.917 355.557 835.866 345.369 826.973L342.839 824.701C335.766 818.275 328.822 811.72 322.202 805.1L322.008 804.905C312.792 795.69 304.03 786.28 295.916 776.872C280.986 759.612 267.35 741.058 255.398 721.599C229.286 678.918 214.774 635.541 212.122 592.634C210.664 569.431 212.314 544.157 217.005 515.324C220.539 493.748 225.245 475.543 231.445 459.738C239.259 439.723 249.606 423.406 262.227 411.304C268.893 404.897 276.598 399.788 285.018 396.041C293.308 392.423 302.054 390.037 310.996 388.883C328.103 386.703 346.641 388.673 364.601 394.466C388.523 402.169 409.249 416.533 429.384 430.488L429.772 430.756C470.948 459.253 513.499 488.701 587.254 466.972C602.543 462.456 613.096 454.37 622.093 446.281C624.552 444.081 627.012 441.881 629.536 439.487C647.789 422.662 670.573 401.695 719.929 381.673C735.604 375.344 751.024 371.995 765.865 371.821C780.252 371.582 794.708 374.648 807.743 380.693C818.509 385.763 828.564 392.841 837.65 401.927C839.597 403.874 841.544 405.951 843.426 408.092C854.137 420.356 863.425 435.599 870.968 453.496C882.736 480.927 889.454 511.72 891.121 545.099ZM362.923 399.649C333.746 390.146 292.915 389.312 265.991 415.198C244.438 435.972 230.097 469.004 222.385 516.174C217.758 544.554 216.108 569.438 217.565 592.253C223.067 680.724 279.358 754.49 325.631 800.763C332.316 807.447 339.324 814.067 346.462 820.558C396.882 866.059 478.517 895.919 559.532 898.624C641.324 901.33 715.366 876.351 768.053 828.337C871.486 733.73 914.551 569.953 866.045 455.563C857.528 435.526 846.746 418.92 834.091 406.264C815.79 387.963 794.195 378.277 769.955 377.465C754.66 376.926 738.527 380.079 722.139 386.731C677.188 404.945 655.178 423.32 633.107 443.704L632.136 444.546C620.485 455.288 608.381 466.353 588.817 472.159C512.568 494.671 468.91 464.475 426.744 435.252C405.985 420.836 386.265 407.199 362.923 399.649Z" fill="url(#paint10_linear_1_1823)"/>
<path fill-rule="evenodd" clip-rule="evenodd" d="M912.932 524.196C914.408 559.972 910.506 596.843 901.354 633.771C891.944 671.477 877.348 707.75 858.017 741.488C838.039 776.392 812.873 808.049 783.358 835.357C760.704 856.324 734.351 873.461 705.14 886.188C677.03 898.463 646.257 906.78 613.534 910.948C592.929 913.511 571.932 914.519 551.128 913.778C516.842 912.628 482.81 907.202 449.745 897.824C432.888 893.004 416.094 886.954 399.947 879.997C384.513 873.235 369.467 865.308 355.196 856.474C341.704 848.03 328.859 838.421 317.049 827.776C309.457 820.96 302.124 813.886 295.05 806.812L294.92 806.682C284.731 796.493 275.06 786.046 266.102 775.664C249.874 756.847 235.004 736.671 222.013 715.525C193.628 669.018 177.814 621.88 174.898 575.343C173.307 550.066 175.019 522.524 180.16 491.164C184.016 467.579 189.108 447.82 195.825 430.719C199.57 420.874 204.288 411.353 209.784 402.353C215.215 393.417 221.815 385.26 229.322 377.882C236.571 370.893 244.924 365.396 254.186 361.325C263.189 357.385 272.712 354.87 282.496 353.653C301.158 351.345 321.382 353.577 340.963 360.085C366.916 368.682 389.363 384.371 411.15 399.6L411.727 400.003C456.512 431.339 502.884 463.785 583.717 439.877C599.394 435.232 610.271 427.341 621.793 416.858C623.248 415.545 624.704 414.192 626.213 412.79C627.455 411.636 628.733 410.449 630.078 409.222L630.142 409.157C649.948 390.649 674.608 367.677 728.304 345.651C744.627 338.934 760.694 335.327 776.183 334.895C791.153 334.332 806.387 337.14 820.264 342.862C833.233 348.324 845.299 356.507 856.072 367.28C857.824 369.032 859.577 370.914 861.264 372.731C873.597 386.488 884.055 403.936 892.444 424.362C904.411 454.45 911.392 487.966 912.932 524.196ZM851.086 370.578C841.481 360.973 830.324 353.44 817.873 348.109C806.784 343.492 795.051 340.948 783.06 340.607C766.08 340.065 748.262 343.475 730.191 350.903C677.507 372.498 653.291 395.101 633.829 413.266L633.713 413.375L633.518 413.569L633.153 413.908C618.681 427.354 606.158 438.989 585.215 445.258C501.835 469.882 454.551 436.763 408.782 404.706L408.685 404.638C386.109 388.793 364.702 373.857 339.22 365.332C307.255 354.724 262.665 353.495 233.151 381.841C209.592 404.491 194.024 440.568 185.605 492.079C180.528 523.115 178.816 550.268 180.406 575.027C186.502 671.471 247.988 751.984 298.608 802.604C305.682 809.678 313.21 816.818 320.737 823.698C375.31 873.093 463.884 905.62 551.833 908.529C611.46 910.556 668.346 898.84 716.465 874.862C739.457 863.423 760.758 848.741 779.658 831.399C892.799 727.084 938.961 553.072 887.133 426.688C877.899 404.122 866.013 385.505 851.865 371.357L851.086 370.578Z" fill="url(#paint11_linear_1_1823)"/>
<path fill-rule="evenodd" clip-rule="evenodd" d="M223.418 326.805C233.199 322.606 243.499 319.833 254.062 318.616C274.279 316.182 296.123 318.74 317.26 325.898C329.969 330.193 342.939 336.432 357.014 344.942C369.39 352.404 381.509 361.03 393.174 369.334L393.211 369.36L393.317 369.435C441.809 403.828 491.881 439.342 579.921 413.041C601.324 406.621 614.119 394.541 630.253 379.309L630.489 379.086L630.54 379.039C651.826 358.921 678.302 333.897 736.226 309.953C753.844 302.719 771.337 298.725 787.992 298.164C804.193 297.539 820.724 300.608 835.768 306.85C849.58 312.767 862.36 321.534 873.782 332.956C875.859 335.033 877.936 337.239 879.948 339.51C893.19 354.564 904.428 373.439 913.273 395.746C919.842 412.411 924.921 429.786 928.38 447.354C931.97 465.7 934.07 484.498 934.744 503.163C935.419 522.607 934.668 542.308 932.492 561.618C930.251 581.64 926.585 601.661 921.751 621.162C911.373 661.783 895.614 700.776 874.861 737.104C853.462 774.729 826.613 808.845 795.028 838.484C745.513 884.624 679.513 913.372 604.087 921.434C583.999 923.609 563.521 924.359 543.299 923.682L533.578 923.28C510.374 921.952 487.104 918.873 464.284 914.046C442.113 909.349 420.134 902.902 398.995 894.837C378.764 887.161 359.05 877.802 340.369 866.758C322.857 856.494 306.379 844.417 291.259 830.851C283.213 823.581 275.361 816.117 267.833 808.589C256.67 797.426 246.026 786.005 236.288 774.586C218.762 754.341 202.789 732.413 188.629 709.581C157.969 659.377 140.789 608.413 137.674 558.182C135.951 530.96 137.789 501.086 143.38 467.069C147.557 441.605 153.036 420.161 160.269 401.636C164.402 391.013 169.378 380.715 175.327 371.002C181.211 361.354 188.393 352.485 196.418 344.59C204.379 337.148 213.379 331.133 223.418 326.805ZM869.12 336.06C858.866 325.806 846.93 317.754 833.701 312.032C821.64 306.96 808.869 304.156 795.842 303.814C777.37 303.205 758.127 307.002 738.437 315.14C681.438 338.652 655.289 363.372 634.384 383.24C617.62 399.094 604.352 411.584 581.614 418.487C540.866 430.679 504.509 431.083 470.468 419.694C440.505 409.755 415.374 391.919 391.043 374.651L390.431 374.217L389.584 373.617C365.505 356.564 342.692 340.408 315.647 331.275C281.023 319.561 232.544 317.938 200.442 348.743C174.876 373.27 158.016 412.326 148.89 468.179C143.428 501.807 141.589 531.162 143.247 558.06C149.808 662.476 216.682 749.801 271.586 804.706C279.114 812.234 287.031 819.763 295.143 827.097C354.842 881.231 447.242 915.513 542.45 918.691C641.223 921.809 729.645 891.925 791.263 834.461C912.169 721.602 962.46 533.856 908.22 397.683C898.27 372.847 885.41 352.35 869.899 336.839L869.12 336.06Z" fill="url(#paint12_linear_1_1823)"/>
</mask>
<g mask="url(#mask0_1_1823)">
<g filter="url(#filter0_f_1_1823)">
<circle r="392.19" transform="matrix(0.725796 0.68791 0.68791 -0.725796 505.378 514.591)" fill="#02FE85"/>
<circle r="148.73" transform="matrix(0.725796 0.68791 0.68791 -0.725796 559.768 780.519)" fill="#02DCB2"/>
<circle r="95.645" transform="matrix(0.725796 0.68791 0.68791 -0.725796 531.223 512.605)" fill="#02DCB2"/>
<circle r="95.645" transform="matrix(0.725796 0.68791 0.68791 -0.725796 580.075 668.618)" fill="#05EE76"/>
<circle r="95.645" transform="matrix(0.725796 0.68791 0.68791 -0.725796 701.985 651.755)" fill="#05EE76"/>
<circle r="95.645" transform="matrix(0.725796 0.68791 0.68791 -0.725796 657.88 527.984)" fill="black"/>
<circle r="95.645" transform="matrix(0.725796 0.68791 0.68791 -0.725796 701.97 868.641)" fill="black"/>
<circle r="95.645" transform="matrix(0.725796 0.68791 0.68791 -0.725796 458.031 656.351)" fill="black"/>
<circle r="101.594" transform="matrix(0.725796 0.68791 0.68791 -0.725796 363.637 539.737)" fill="black"/>
<circle r="101.594" transform="matrix(0.725796 0.68791 0.68791 -0.725796 683.009 982.449)" fill="black"/>
<circle r="136.374" transform="matrix(0.725796 0.68791 0.68791 -0.725796 596.326 332.817)" fill="black"/>
<circle r="136.374" transform="matrix(0.725796 0.68791 0.68791 -0.725796 182.76 433.876)" fill="black"/>
<circle r="142.781" transform="matrix(0.725796 0.68791 0.68791 -0.725796 197.229 466.506)" fill="black"/>
</g>
</g>
</g>
<defs>
<filter id="filter0_f_1_1823" x="-153.615" y="-77.6001" width="1478.79" height="1361.64" filterUnits="userSpaceOnUse" color-interpolation-filters="sRGB">
<feFlood flood-opacity="0" result="BackgroundImageFix"/>
<feBlend mode="normal" in="SourceGraphic" in2="BackgroundImageFix" result="shape"/>
<feGaussianBlur stdDeviation="100" result="effect1_foregroundBlur_1_1823"/>
</filter>
<linearGradient id="paint0_linear_1_1823" x1="875.911" y1="810.784" x2="264.555" y2="541.059" gradientUnits="userSpaceOnUse">
<stop stop-color="#FC5050"/>
<stop offset="0.56" stop-color="#7E4CA8"/>
<stop offset="1" stop-color="#0048FF"/>
</linearGradient>
<linearGradient id="paint1_linear_1_1823" x1="875.911" y1="810.784" x2="264.555" y2="541.059" gradientUnits="userSpaceOnUse">
<stop stop-color="#FC5050"/>
<stop offset="0.56" stop-color="#7E4CA8"/>
<stop offset="1" stop-color="#0048FF"/>
</linearGradient>
<linearGradient id="paint2_linear_1_1823" x1="875.911" y1="810.784" x2="264.555" y2="541.059" gradientUnits="userSpaceOnUse">
<stop stop-color="#FC5050"/>
<stop offset="0.56" stop-color="#7E4CA8"/>
<stop offset="1" stop-color="#0048FF"/>
</linearGradient>
<linearGradient id="paint3_linear_1_1823" x1="875.911" y1="810.784" x2="264.555" y2="541.059" gradientUnits="userSpaceOnUse">
<stop stop-color="#FC5050"/>
<stop offset="0.56" stop-color="#7E4CA8"/>
<stop offset="1" stop-color="#0048FF"/>
</linearGradient>
<linearGradient id="paint4_linear_1_1823" x1="875.911" y1="810.784" x2="264.555" y2="541.059" gradientUnits="userSpaceOnUse">
<stop stop-color="#FC5050"/>
<stop offset="0.56" stop-color="#7E4CA8"/>
<stop offset="1" stop-color="#0048FF"/>
</linearGradient>
<linearGradient id="paint5_linear_1_1823" x1="875.911" y1="810.784" x2="264.555" y2="541.059" gradientUnits="userSpaceOnUse">
<stop stop-color="#FC5050"/>
<stop offset="0.56" stop-color="#7E4CA8"/>
<stop offset="1" stop-color="#0048FF"/>
</linearGradient>
<linearGradient id="paint6_linear_1_1823" x1="875.911" y1="810.784" x2="264.555" y2="541.059" gradientUnits="userSpaceOnUse">
<stop stop-color="#FC5050"/>
<stop offset="0.56" stop-color="#7E4CA8"/>
<stop offset="1" stop-color="#0048FF"/>
</linearGradient>
<linearGradient id="paint7_linear_1_1823" x1="875.911" y1="810.784" x2="264.555" y2="541.059" gradientUnits="userSpaceOnUse">
<stop stop-color="#FC5050"/>
<stop offset="0.56" stop-color="#7E4CA8"/>
<stop offset="1" stop-color="#0048FF"/>
</linearGradient>
<linearGradient id="paint8_linear_1_1823" x1="875.911" y1="810.784" x2="264.555" y2="541.059" gradientUnits="userSpaceOnUse">
<stop stop-color="#FC5050"/>
<stop offset="0.56" stop-color="#7E4CA8"/>
<stop offset="1" stop-color="#0048FF"/>
</linearGradient>
<linearGradient id="paint9_linear_1_1823" x1="875.911" y1="810.784" x2="264.555" y2="541.059" gradientUnits="userSpaceOnUse">
<stop stop-color="#FC5050"/>
<stop offset="0.56" stop-color="#7E4CA8"/>
<stop offset="1" stop-color="#0048FF"/>
</linearGradient>
<linearGradient id="paint10_linear_1_1823" x1="875.911" y1="810.784" x2="264.555" y2="541.059" gradientUnits="userSpaceOnUse">
<stop stop-color="#FC5050"/>
<stop offset="0.56" stop-color="#7E4CA8"/>
<stop offset="1" stop-color="#0048FF"/>
</linearGradient>
<linearGradient id="paint11_linear_1_1823" x1="875.911" y1="810.784" x2="264.555" y2="541.059" gradientUnits="userSpaceOnUse">
<stop stop-color="#FC5050"/>
<stop offset="0.56" stop-color="#7E4CA8"/>
<stop offset="1" stop-color="#0048FF"/>
</linearGradient>
<linearGradient id="paint12_linear_1_1823" x1="875.911" y1="810.784" x2="264.555" y2="541.059" gradientUnits="userSpaceOnUse">
<stop stop-color="#FC5050"/>
<stop offset="0.56" stop-color="#7E4CA8"/>
<stop offset="1" stop-color="#0048FF"/>
</linearGradient>
</defs>
</svg>
