<svg width="220" height="27" viewBox="0 0 220 27" fill="none" xmlns="http://www.w3.org/2000/svg">
<path d="M64.2916 10.6787H48.2735V5.33936H68.4607V0H48.2369C46.8472 0 45.4941 0.548569 44.5067 1.53598C43.5193 2.5234 42.9707 3.87652 42.9707 5.26621V10.6787C42.9707 12.0684 43.5193 13.4215 44.5067 14.409C45.4941 15.3964 46.8472 15.9449 48.2369 15.9449H64.255V21.2843H43.2998V26.6236H64.2916C65.6813 26.6236 67.0344 26.0751 68.0218 25.0877C69.0092 24.1003 69.5578 22.7471 69.5578 21.3574V15.9449C69.5578 14.5552 69.0092 13.2021 68.0218 12.2147C67.071 11.2273 65.7178 10.6787 64.2916 10.6787ZM95.3769 0H79.2857C78.5908 0 77.896 0.146286 77.2743 0.402283C76.616 0.658279 76.0308 1.06056 75.5554 1.53598C75.08 2.01141 74.6777 2.59654 74.4217 3.25481C74.1657 3.91309 74.0194 4.57137 74.0194 5.26621V21.394C74.0194 22.0889 74.1657 22.7837 74.4217 23.4054C74.6777 24.0637 75.08 24.6488 75.5554 25.1242C76.0308 25.5997 76.616 26.0019 77.2743 26.2579C77.9325 26.5139 78.5908 26.6602 79.2857 26.6602H95.3769C96.7666 26.6602 98.1197 26.1117 99.1071 25.1242C100.095 24.1368 100.643 22.7837 100.643 21.394V5.30279C100.643 3.91309 100.095 2.55996 99.1071 1.57255C98.1197 0.585131 96.7666 0 95.3769 0ZM95.3403 21.3574H79.3588V5.37593H95.3403V21.3574ZM151.696 0H136.007C134.618 0 133.264 0.548569 132.277 1.53598C131.29 2.5234 130.741 3.87652 130.741 5.26621V26.6236H136.044V17.8466H151.66V26.6236H156.999V5.30279C156.999 4.60794 156.853 3.91309 156.597 3.29139C156.341 2.63311 155.938 2.04797 155.463 1.57255C154.988 1.09712 154.402 0.694853 153.744 0.438856C153.086 0.146288 152.391 0 151.696 0ZM151.66 12.5804H136.044V5.33936H151.66V12.5804ZM214.123 0H198.434C197.739 0 197.044 0.146286 196.386 0.402283C195.728 0.658279 195.142 1.06056 194.667 1.53598C194.192 2.01141 193.789 2.59654 193.533 3.25481C193.277 3.91309 193.131 4.57137 193.131 5.26621V26.6236H198.47V17.8466H214.086V26.6236H219.426V5.30279C219.426 3.91309 218.877 2.55996 217.89 1.57255C216.866 0.585131 215.549 0 214.123 0ZM214.086 12.5804H198.47V5.33936H214.086V12.5804ZM183.074 21.3574H180.953L173.31 2.23083C173.054 1.57255 172.578 1.02399 172.03 0.621711C171.444 0.21943 170.75 0 170.055 0H165.301C164.35 0 163.472 0.365705 162.814 1.02398C162.155 1.68226 161.79 2.59654 161.79 3.51081V26.6602H167.129V5.33936H169.25L176.894 24.466C177.15 25.1242 177.588 25.6728 178.174 26.0751C178.759 26.4774 179.453 26.6968 180.148 26.6968H184.903C185.853 26.6968 186.731 26.3311 187.389 25.6728C188.048 25.0145 188.413 24.1003 188.413 23.186V0.0365732H183.074V21.3574ZM110.7 0H105.361V21.394C105.361 22.7837 105.909 24.1368 106.897 25.1242C107.884 26.1117 109.237 26.6602 110.627 26.6602H126.645V21.3209H110.664V0H110.7Z" fill="white"/>
<path d="M5.08336 20.3335C5.19308 20.2238 5.30279 20.1506 5.4125 20.0775C5.52221 20.0044 5.6685 20.0044 5.81478 20.0044H29.0739C29.1836 20.0044 29.2568 20.0409 29.3665 20.0775C29.4396 20.1141 29.5128 20.2238 29.5493 20.2969C29.5859 20.3701 29.5859 20.4798 29.5859 20.5895C29.5859 20.6992 29.5128 20.7723 29.4762 20.8455L24.5391 26.3311C24.4294 26.4408 24.3197 26.514 24.21 26.5871C24.1003 26.6603 23.954 26.6603 23.8077 26.6603H0.511993C0.40228 26.6603 0.329139 26.6237 0.219426 26.5871C0.146284 26.5506 0.073142 26.4408 0.0365711 26.3677C1.38962e-07 26.2946 0 26.1848 0 26.0751C0 25.9654 0.0731416 25.8923 0.109713 25.8191L5.08336 20.3335ZM29.4762 15.7987C29.5493 15.8718 29.5859 15.945 29.5859 16.0547C29.5859 16.1644 29.5859 16.2376 29.5493 16.3473C29.5128 16.4204 29.4396 16.5301 29.3665 16.5667C29.2933 16.6033 29.1836 16.6398 29.0739 16.6398L5.85135 16.6764C5.70507 16.6764 5.55878 16.6398 5.44907 16.6033C5.33936 16.5667 5.19308 16.457 5.11993 16.3473L0.146284 10.8982C0.0731418 10.825 0.0365711 10.7519 0.0365711 10.6422C0.0365711 10.5325 0.0365712 10.4593 0.0731422 10.3496C0.109713 10.2765 0.182855 10.1668 0.255997 10.1302C0.329139 10.0936 0.438851 10.0571 0.548564 10.0571L23.8443 10.0205C23.9905 10.0205 24.1368 10.0571 24.2465 10.0936C24.3563 10.1668 24.5025 10.2399 24.5757 10.3496L29.4762 15.7987ZM5.08336 0.365757C5.19308 0.256045 5.30279 0.182898 5.4125 0.109756C5.52221 0.0366144 5.6685 0.0366211 5.81478 0.0366211L29.1105 0.0731943C29.2202 0.0731943 29.2933 0.109759 29.403 0.146329C29.4762 0.1829 29.5493 0.292616 29.5859 0.365757C29.6225 0.438899 29.6225 0.548608 29.6225 0.658321C29.6225 0.768033 29.5493 0.84118 29.5128 0.914322L24.5757 6.36339C24.466 6.4731 24.3563 6.54625 24.2465 6.61939C24.1368 6.69253 23.9905 6.69253 23.8443 6.69253H0.511993C0.40228 6.69253 0.329139 6.65596 0.219426 6.61939C0.146284 6.58282 0.073142 6.47311 0.0365711 6.39996C1.38962e-07 6.32682 0 6.21711 0 6.1074C0 5.99769 0.0731416 5.92454 0.109713 5.8514L5.08336 0.365757Z" fill="url(#paint0_linear_1_2002)"/>
<defs>
<linearGradient id="paint0_linear_1_2002" x1="0.893978" y1="27.268" x2="28.724" y2="-0.561939" gradientUnits="userSpaceOnUse">
<stop stop-color="#9945FF"/>
<stop offset="0.14" stop-color="#8A53F4"/>
<stop offset="0.42" stop-color="#6377D6"/>
<stop offset="0.79" stop-color="#24B0A7"/>
<stop offset="0.99" stop-color="#00D18C"/>
<stop offset="1" stop-color="#00D18C"/>
</linearGradient>
</defs>
</svg>
