<svg width="229" height="845" viewBox="0 0 229 845" fill="none" xmlns="http://www.w3.org/2000/svg">
<path d="M25.2 196.7L-21 196.7V11.55L15.75 11.55L105 106.05C114.567 116.083 122.733 122.85 129.5 126.35C136.5 129.85 143.383 131.6 150.15 131.6C159.95 131.6 167.417 128.217 172.55 121.45C177.917 114.917 180.6 105.233 180.6 92.4C180.6 81.6667 178.5 71.9833 174.3 63.35C170.333 54.7167 164.267 47.4833 156.1 41.65L182.7 0.35C196.933 9.91667 208.017 23.1 215.95 39.9C224.117 56.7 228.2 75.95 228.2 97.65C228.2 115.85 225.167 131.717 219.1 145.25C213.267 159.017 204.867 169.633 193.9 177.1C183.167 184.8 170.45 188.65 155.75 188.65C142.45 188.65 129.967 185.85 118.3 180.25C106.633 174.65 93.3333 163.8 78.4 147.7L25.2 91.35V196.7ZM-25.2 324.412C-25.2 304.112 -20.1833 286.028 -10.15 270.162C-0.116666 254.295 14.35 241.812 33.25 232.712C52.3833 223.845 75.1333 219.412 101.5 219.412C127.867 219.412 150.5 223.845 169.4 232.712C188.533 241.812 203.117 254.295 213.15 270.162C223.183 286.028 228.2 304.112 228.2 324.412C228.2 344.712 223.183 362.795 213.15 378.662C203.117 394.528 188.533 406.895 169.4 415.762C150.5 424.862 127.867 429.412 101.5 429.412C75.1333 429.412 52.3833 424.862 33.25 415.762C14.35 406.895 -0.116666 394.528 -10.15 378.662C-20.1833 362.795 -25.2 344.712 -25.2 324.412ZM22.75 324.412C22.75 339.345 29.1667 351.012 42 359.412C54.8333 368.045 74.6667 372.362 101.5 372.362C128.333 372.362 148.167 368.045 161 359.412C173.833 351.012 180.25 339.345 180.25 324.412C180.25 309.712 173.833 298.045 161 289.412C148.167 281.012 128.333 276.812 101.5 276.812C74.6667 276.812 54.8333 281.012 42 289.412C29.1667 298.045 22.75 309.712 22.75 324.412ZM25.2 637.96H-21L-21 452.81H15.75L105 547.31C114.567 557.343 122.733 564.11 129.5 567.61C136.5 571.11 143.383 572.86 150.15 572.86C159.95 572.86 167.417 569.476 172.55 562.71C177.917 556.176 180.6 546.493 180.6 533.66C180.6 522.926 178.5 513.243 174.3 504.61C170.333 495.976 164.267 488.743 156.1 482.91L182.7 441.61C196.933 451.176 208.017 464.36 215.95 481.16C224.117 497.96 228.2 517.21 228.2 538.91C228.2 557.11 225.167 572.976 219.1 586.51C213.267 600.276 204.867 610.893 193.9 618.36C183.167 626.06 170.45 629.91 155.75 629.91C142.45 629.91 129.967 627.11 118.3 621.51C106.633 615.91 93.3333 605.06 78.4 588.96L25.2 532.61L25.2 637.96ZM25.2 844.405H-21V659.255H15.75L105 753.755C114.567 763.788 122.733 770.555 129.5 774.055C136.5 777.555 143.383 779.305 150.15 779.305C159.95 779.305 167.417 775.922 172.55 769.155C177.917 762.622 180.6 752.938 180.6 740.105C180.6 729.372 178.5 719.688 174.3 711.055C170.333 702.422 164.267 695.188 156.1 689.355L182.7 648.055C196.933 657.622 208.017 670.805 215.95 687.605C224.117 704.405 228.2 723.655 228.2 745.355C228.2 763.555 225.167 779.422 219.1 792.955C213.267 806.722 204.867 817.338 193.9 824.805C183.167 832.505 170.45 836.355 155.75 836.355C142.45 836.355 129.967 833.555 118.3 827.955C106.633 822.355 93.3333 811.505 78.4 795.405L25.2 739.055V844.405Z" fill="#0F0F0F"/>
<path d="M25.2 196.7V199.7H28.2V196.7H25.2ZM-21 196.7H-24V199.7H-21V196.7ZM-21 11.55V8.55H-24V11.55H-21ZM15.75 11.55L17.931 9.49013L17.0432 8.55H15.75V11.55ZM105 106.05L102.819 108.11L102.824 108.115L102.829 108.12L105 106.05ZM129.5 126.35L128.122 129.015L128.14 129.024L128.158 129.033L129.5 126.35ZM172.55 121.45L170.232 119.546L170.195 119.591L170.16 119.637L172.55 121.45ZM174.3 63.35L171.574 64.6025L171.588 64.6326L171.602 64.6624L174.3 63.35ZM156.1 41.65L153.578 40.0256L152.03 42.4293L154.356 44.0912L156.1 41.65ZM182.7 0.35L184.374 -2.13985L181.834 -3.84646L180.178 -1.27443L182.7 0.35ZM215.95 39.9L213.237 41.181L213.245 41.1963L213.252 41.2116L215.95 39.9ZM219.1 145.25L216.362 144.023L216.35 144.051L216.338 144.08L219.1 145.25ZM193.9 177.1L192.212 174.62L192.181 174.641L192.151 174.662L193.9 177.1ZM118.3 180.25L117.002 182.955L118.3 180.25ZM78.4 147.7L80.5995 145.66L80.5905 145.65L80.5814 145.641L78.4 147.7ZM25.2 91.35L27.3814 89.2905L22.2 83.8023V91.35H25.2ZM25.2 193.7L-21 193.7V199.7L25.2 199.7V193.7ZM-18 196.7V11.55H-24V196.7H-18ZM-21 14.55L15.75 14.55V8.55L-21 8.55V14.55ZM13.569 13.6099L102.819 108.11L107.181 103.99L17.931 9.49013L13.569 13.6099ZM102.829 108.12C112.469 118.231 120.91 125.284 128.122 129.015L130.878 123.685C124.557 120.416 116.664 113.936 107.171 103.98L102.829 108.12ZM128.158 129.033C135.51 132.709 142.85 134.6 150.15 134.6V128.6C143.917 128.6 137.49 126.991 130.842 123.667L128.158 129.033ZM150.15 134.6C160.725 134.6 169.147 130.899 174.94 123.263L170.16 119.637C165.686 125.534 159.175 128.6 150.15 128.6V134.6ZM174.868 123.354C180.853 116.068 183.6 105.584 183.6 92.4H177.6C177.6 104.883 174.98 113.765 170.232 119.546L174.868 123.354ZM183.6 92.4C183.6 81.2661 181.419 71.1259 176.998 62.0376L171.602 64.6624C175.581 72.8408 177.6 82.0673 177.6 92.4H183.6ZM177.026 62.0975C172.829 52.9621 166.411 45.3282 157.844 39.2088L154.356 44.0912C162.122 49.6384 167.838 56.4712 171.574 64.6025L177.026 62.0975ZM158.622 43.2744L185.222 1.97443L180.178 -1.27443L153.578 40.0256L158.622 43.2744ZM181.027 2.83985C194.774 12.0797 205.515 24.8281 213.237 41.181L218.663 38.619C210.518 21.3719 199.093 7.75367 184.374 -2.13985L181.027 2.83985ZM213.252 41.2116C221.19 57.5417 225.2 76.3311 225.2 97.65H231.2C231.2 75.5689 227.043 55.8583 218.648 38.5884L213.252 41.2116ZM225.2 97.65C225.2 115.521 222.221 130.953 216.362 144.023L221.838 146.477C228.112 132.481 231.2 116.179 231.2 97.65H225.2ZM216.338 144.08C210.7 157.385 202.643 167.518 192.212 174.62L195.588 179.58C207.09 171.749 215.834 160.648 221.862 146.42L216.338 144.08ZM192.151 174.662C181.985 181.956 169.897 185.65 155.75 185.65V191.65C171.003 191.65 184.349 187.644 195.649 179.538L192.151 174.662ZM155.75 185.65C142.887 185.65 130.848 182.945 119.598 177.545L117.002 182.955C129.085 188.755 142.013 191.65 155.75 191.65V185.65ZM119.598 177.545C108.428 172.184 95.4301 161.649 80.5995 145.66L76.2005 149.74C91.2366 165.951 104.839 177.116 117.002 182.955L119.598 177.545ZM80.5814 145.641L27.3814 89.2905L23.0186 93.4095L76.2186 149.759L80.5814 145.641ZM22.2 91.35V196.7H28.2V91.35H22.2ZM-10.15 270.162L-7.61441 271.765L-10.15 270.162ZM33.25 232.712L31.9886 229.99L31.9685 229.999L31.9485 230.009L33.25 232.712ZM169.4 232.712L170.689 230.003L170.681 229.999L170.674 229.996L169.4 232.712ZM213.15 270.162L210.614 271.765L213.15 270.162ZM213.15 378.662L210.614 377.058L213.15 378.662ZM169.4 415.762L168.139 413.04L168.119 413.049L168.099 413.059L169.4 415.762ZM33.25 415.762L34.5385 413.053L34.5313 413.049L34.5242 413.046L33.25 415.762ZM-10.15 378.662L-7.61441 377.058L-10.15 378.662ZM42 359.412L43.6745 356.923L43.6588 356.912L43.643 356.902L42 359.412ZM161 359.412L159.357 356.902L159.341 356.912L159.325 356.923L161 359.412ZM161 289.412L162.675 286.923L162.659 286.912L162.643 286.902L161 289.412ZM42 289.412L40.357 286.902L40.3412 286.912L40.3255 286.923L42 289.412ZM-22.2 324.412C-22.2 304.631 -17.3197 287.113 -7.61441 271.765L-12.6856 268.558C-23.047 284.944 -28.2 303.592 -28.2 324.412H-22.2ZM-7.61441 271.765C2.08426 256.428 16.0965 244.3 34.5515 235.415L31.9485 230.009C12.6035 239.323 -2.3176 252.162 -12.6856 268.558L-7.61441 271.765ZM34.5114 235.434C53.1634 226.79 75.463 222.412 101.5 222.412V216.412C74.8037 216.412 51.6033 220.9 31.9886 229.99L34.5114 235.434ZM101.5 222.412C127.539 222.412 149.715 226.791 168.126 235.428L170.674 229.996C151.285 220.9 128.195 216.412 101.5 216.412V222.412ZM168.111 235.421C186.801 244.31 200.922 256.437 210.614 271.765L215.686 268.558C205.312 252.153 190.266 239.314 170.689 230.003L168.111 235.421ZM210.614 271.765C220.32 287.113 225.2 304.631 225.2 324.412H231.2C231.2 303.592 226.047 284.944 215.686 268.558L210.614 271.765ZM225.2 324.412C225.2 344.192 220.32 361.711 210.614 377.058L215.686 380.265C226.047 363.88 231.2 345.231 231.2 324.412H225.2ZM210.614 377.058C200.926 392.379 186.815 404.385 168.139 413.04L170.661 418.484C190.252 409.405 205.307 396.678 215.686 380.265L210.614 377.058ZM168.099 413.059C149.695 421.92 127.529 426.412 101.5 426.412V432.412C128.205 432.412 151.305 427.804 170.701 418.465L168.099 413.059ZM101.5 426.412C75.4729 426.412 53.1832 421.92 34.5385 413.053L31.9615 418.471C51.5834 427.803 74.7938 432.412 101.5 432.412V426.412ZM34.5242 413.046C16.0821 404.394 2.07956 392.388 -7.61441 377.058L-12.6856 380.265C-2.31287 396.668 12.6179 409.396 31.9758 418.478L34.5242 413.046ZM-7.61441 377.058C-17.3197 361.711 -22.2 344.192 -22.2 324.412H-28.2C-28.2 345.231 -23.047 363.88 -12.6856 380.265L-7.61441 377.058ZM19.75 324.412C19.75 340.39 26.7046 352.986 40.357 361.922L43.643 356.902C31.6287 349.038 25.75 338.3 25.75 324.412H19.75ZM40.3255 361.901C53.8992 371.032 74.4576 375.362 101.5 375.362V369.362C74.8757 369.362 55.7674 365.058 43.6745 356.923L40.3255 361.901ZM101.5 375.362C128.542 375.362 149.101 371.032 162.675 361.901L159.325 356.923C147.233 365.058 128.124 369.362 101.5 369.362V375.362ZM162.643 361.922C176.295 352.986 183.25 340.39 183.25 324.412H177.25C177.25 338.3 171.371 349.038 159.357 356.902L162.643 361.922ZM183.25 324.412C183.25 308.653 176.285 296.079 162.675 286.923L159.325 291.901C171.382 300.012 177.25 310.771 177.25 324.412H183.25ZM162.643 286.902C149.077 278.022 128.533 273.812 101.5 273.812V279.812C128.134 279.812 147.256 284.001 159.357 291.922L162.643 286.902ZM101.5 273.812C74.4672 273.812 53.9231 278.022 40.357 286.902L43.643 291.922C55.7435 284.001 74.8662 279.812 101.5 279.812V273.812ZM40.3255 286.923C26.7151 296.079 19.75 308.653 19.75 324.412H25.75C25.75 310.771 31.6182 300.012 43.6745 291.901L40.3255 286.923ZM25.2 637.96V640.96H28.2V637.96H25.2ZM-21 637.96H-24V640.96H-21V637.96ZM-21 452.81V449.81H-24V452.81H-21ZM15.75 452.81L17.931 450.75L17.0432 449.81H15.75V452.81ZM105 547.31L102.819 549.37L102.824 549.375L102.829 549.38L105 547.31ZM129.5 567.61L128.122 570.274L128.14 570.284L128.158 570.293L129.5 567.61ZM172.55 562.71L170.232 560.806L170.195 560.85L170.16 560.897L172.55 562.71ZM174.3 504.61L171.574 505.862L171.588 505.892L171.602 505.922L174.3 504.61ZM156.1 482.91L153.578 481.285L152.03 483.689L154.356 485.351L156.1 482.91ZM182.7 441.61L184.374 439.12L181.834 437.413L180.178 439.985L182.7 441.61ZM215.95 481.16L213.237 482.441L213.245 482.456L213.252 482.471L215.95 481.16ZM219.1 586.51L216.362 585.283L216.35 585.311L216.338 585.339L219.1 586.51ZM193.9 618.36L192.212 615.88L192.181 615.901L192.151 615.922L193.9 618.36ZM118.3 621.51L117.002 624.214L118.3 621.51ZM78.4 588.96L80.5995 586.92L80.5905 586.91L80.5814 586.9L78.4 588.96ZM25.2 532.61L27.3814 530.55L22.2 525.062V532.61H25.2ZM25.2 634.96H-21V640.96H25.2V634.96ZM-18 637.96L-18 452.81H-24L-24 637.96H-18ZM-21 455.81H15.75V449.81H-21V455.81ZM13.569 454.87L102.819 549.37L107.181 545.25L17.931 450.75L13.569 454.87ZM102.829 549.38C112.469 559.491 120.91 566.544 128.122 570.274L130.878 564.945C124.557 561.675 116.664 555.196 107.171 545.24L102.829 549.38ZM128.158 570.293C135.51 573.969 142.85 575.86 150.15 575.86V569.86C143.917 569.86 137.49 568.251 130.842 564.927L128.158 570.293ZM150.15 575.86C160.725 575.86 169.147 572.159 174.94 564.523L170.16 560.897C165.686 566.794 159.175 569.86 150.15 569.86V575.86ZM174.868 564.614C180.853 557.328 183.6 546.844 183.6 533.66H177.6C177.6 546.143 174.98 555.025 170.232 560.806L174.868 564.614ZM183.6 533.66C183.6 522.526 181.419 512.386 176.998 503.297L171.602 505.922C175.581 514.101 177.6 523.327 177.6 533.66H183.6ZM177.026 503.357C172.829 494.222 166.411 486.588 157.844 480.469L154.356 485.351C162.122 490.898 167.838 497.731 171.574 505.862L177.026 503.357ZM158.622 484.534L185.222 443.234L180.178 439.985L153.578 481.285L158.622 484.534ZM181.027 444.1C194.774 453.339 205.515 466.088 213.237 482.441L218.663 479.879C210.518 462.632 199.093 449.013 184.374 439.12L181.027 444.1ZM213.252 482.471C221.19 498.801 225.2 517.591 225.2 538.91H231.2C231.2 516.829 227.043 497.118 218.648 479.848L213.252 482.471ZM225.2 538.91C225.2 556.781 222.221 572.213 216.362 585.283L221.838 587.737C228.112 573.74 231.2 557.439 231.2 538.91H225.2ZM216.338 585.339C210.7 598.645 202.643 608.778 192.212 615.88L195.588 620.84C207.09 613.009 215.834 601.908 221.862 587.68L216.338 585.339ZM192.151 615.922C181.985 623.216 169.897 626.91 155.75 626.91V632.91C171.003 632.91 184.349 628.904 195.649 620.797L192.151 615.922ZM155.75 626.91C142.887 626.91 130.848 624.205 119.598 618.805L117.002 624.214C129.085 630.014 142.013 632.91 155.75 632.91V626.91ZM119.598 618.805C108.428 613.443 95.4301 602.909 80.5995 586.92L76.2005 591C91.2366 607.211 104.839 618.376 117.002 624.214L119.598 618.805ZM80.5814 586.9L27.3814 530.55L23.0186 534.669L76.2186 591.019L80.5814 586.9ZM22.2 532.61L22.2 637.96H28.2L28.2 532.61H22.2ZM25.2 844.405V847.405H28.2V844.405H25.2ZM-21 844.405H-24V847.405H-21V844.405ZM-21 659.255V656.255H-24V659.255H-21ZM15.75 659.255L17.931 657.195L17.0432 656.255H15.75V659.255ZM105 753.755L102.819 755.815L102.824 755.82L102.829 755.825L105 753.755ZM129.5 774.055L128.122 776.72L128.14 776.729L128.158 776.738L129.5 774.055ZM172.55 769.155L170.232 767.251L170.195 767.296L170.16 767.342L172.55 769.155ZM174.3 711.055L171.574 712.308L171.588 712.338L171.602 712.367L174.3 711.055ZM156.1 689.355L153.578 687.731L152.03 690.134L154.356 691.796L156.1 689.355ZM182.7 648.055L184.374 645.565L181.834 643.859L180.178 646.431L182.7 648.055ZM215.95 687.605L213.237 688.886L213.245 688.901L213.252 688.917L215.95 687.605ZM219.1 792.955L216.362 791.728L216.35 791.756L216.338 791.785L219.1 792.955ZM193.9 824.805L192.212 822.325L192.181 822.346L192.151 822.367L193.9 824.805ZM118.3 827.955L117.002 830.66L118.3 827.955ZM78.4 795.405L80.5995 793.365L80.5905 793.355L80.5814 793.346L78.4 795.405ZM25.2 739.055L27.3814 736.996L22.2 731.507V739.055H25.2ZM25.2 841.405H-21V847.405H25.2V841.405ZM-18 844.405V659.255H-24V844.405H-18ZM-21 662.255H15.75V656.255H-21V662.255ZM13.569 661.315L102.819 755.815L107.181 751.695L17.931 657.195L13.569 661.315ZM102.829 755.825C112.469 765.936 120.91 772.99 128.122 776.72L130.878 771.39C124.557 768.121 116.664 761.641 107.171 751.685L102.829 755.825ZM128.158 776.738C135.51 780.414 142.85 782.305 150.15 782.305V776.305C143.917 776.305 137.49 774.696 130.842 771.372L128.158 776.738ZM150.15 782.305C160.725 782.305 169.147 778.604 174.94 770.968L170.16 767.342C165.686 773.239 159.175 776.305 150.15 776.305V782.305ZM174.868 771.059C180.853 763.773 183.6 753.289 183.6 740.105H177.6C177.6 752.588 174.98 761.471 170.232 767.251L174.868 771.059ZM183.6 740.105C183.6 728.971 181.419 718.831 176.998 709.743L171.602 712.367C175.581 720.546 177.6 729.772 177.6 740.105H183.6ZM177.026 709.803C172.829 700.667 166.411 693.033 157.844 686.914L154.356 691.796C162.122 697.344 167.838 704.176 171.574 712.308L177.026 709.803ZM158.622 690.979L185.222 649.68L180.178 646.431L153.578 687.731L158.622 690.979ZM181.027 650.545C194.774 659.785 205.515 672.533 213.237 688.886L218.663 686.324C210.518 669.077 199.093 655.459 184.374 645.565L181.027 650.545ZM213.252 688.917C221.19 705.247 225.2 724.036 225.2 745.355H231.2C231.2 723.274 227.043 703.563 218.648 686.294L213.252 688.917ZM225.2 745.355C225.2 763.226 222.221 778.658 216.362 791.728L221.838 794.182C228.112 780.186 231.2 763.884 231.2 745.355H225.2ZM216.338 791.785C210.7 805.09 202.643 815.223 192.212 822.325L195.588 827.285C207.09 819.454 215.834 808.353 221.862 794.126L216.338 791.785ZM192.151 822.367C181.985 829.661 169.897 833.355 155.75 833.355V839.355C171.003 839.355 184.349 835.349 195.649 827.243L192.151 822.367ZM155.75 833.355C142.887 833.355 130.848 830.651 119.598 825.251L117.002 830.66C129.085 836.46 142.013 839.355 155.75 839.355V833.355ZM119.598 825.251C108.428 819.889 95.4301 809.354 80.5995 793.365L76.2005 797.445C91.2366 813.656 104.839 824.821 117.002 830.66L119.598 825.251ZM80.5814 793.346L27.3814 736.996L23.0186 741.115L76.2186 797.465L80.5814 793.346ZM22.2 739.055V844.405H28.2V739.055H22.2Z" fill="url(#paint0_linear_81_143)"/>
<defs>
<linearGradient id="paint0_linear_81_143" x1="318" y1="427.5" x2="-109" y2="427.5" gradientUnits="userSpaceOnUse">
<stop stop-color="white"/>
<stop offset="1" stop-color="white" stop-opacity="0"/>
</linearGradient>
</defs>
</svg>
