<svg width="681" height="109" viewBox="0 0 681 109" fill="none" xmlns="http://www.w3.org/2000/svg">
<path d="M80.336 85.4H33.536L24.608 107H0.704L45.632 6.19999H68.672L113.744 107H89.264L80.336 85.4ZM72.992 67.688L57.008 29.096L41.024 67.688H72.992ZM168.41 28.376C175.61 28.376 182.138 30.056 187.994 33.416C193.946 36.68 198.602 41.336 201.962 47.384C205.322 53.336 207.002 60.296 207.002 68.264C207.002 76.232 205.322 83.24 201.962 89.288C198.602 95.24 193.946 99.896 187.994 103.256C182.138 106.52 175.61 108.152 168.41 108.152C157.754 108.152 149.642 104.792 144.074 98.072V107H122.618V0.151994H145.082V37.736C150.746 31.496 158.522 28.376 168.41 28.376ZM164.522 89.72C170.282 89.72 174.986 87.8 178.634 83.96C182.378 80.024 184.25 74.792 184.25 68.264C184.25 61.736 182.378 56.552 178.634 52.712C174.986 48.776 170.282 46.808 164.522 46.808C158.762 46.808 154.01 48.776 150.266 52.712C146.618 56.552 144.794 61.736 144.794 68.264C144.794 74.792 146.618 80.024 150.266 83.96C154.01 87.8 158.762 89.72 164.522 89.72ZM258.904 108.152C250.744 108.152 243.4 106.472 236.872 103.112C230.44 99.656 225.4 94.904 221.752 88.856C218.104 82.808 216.28 75.944 216.28 68.264C216.28 60.584 218.104 53.72 221.752 47.672C225.4 41.624 230.44 36.92 236.872 33.56C243.4 30.104 250.744 28.376 258.904 28.376C267.064 28.376 274.36 30.104 280.792 33.56C287.224 36.92 292.264 41.624 295.912 47.672C299.56 53.72 301.384 60.584 301.384 68.264C301.384 75.944 299.56 82.808 295.912 88.856C292.264 94.904 287.224 99.656 280.792 103.112C274.36 106.472 267.064 108.152 258.904 108.152ZM258.904 89.72C264.664 89.72 269.368 87.8 273.016 83.96C276.76 80.024 278.632 74.792 278.632 68.264C278.632 61.736 276.76 56.552 273.016 52.712C269.368 48.776 264.664 46.808 258.904 46.808C253.144 46.808 248.392 48.776 244.648 52.712C240.904 56.552 239.032 61.736 239.032 68.264C239.032 74.792 240.904 80.024 244.648 83.96C248.392 87.8 253.144 89.72 258.904 89.72ZM394.447 29.528V107H373.135V97.784C370.159 101.144 366.607 103.736 362.479 105.56C358.351 107.288 353.887 108.152 349.087 108.152C338.911 108.152 330.847 105.224 324.895 99.368C318.943 93.512 315.967 84.824 315.967 73.304V29.528H338.431V69.992C338.431 82.472 343.663 88.712 354.127 88.712C359.503 88.712 363.823 86.984 367.087 83.528C370.351 79.976 371.983 74.744 371.983 67.832V29.528H394.447ZM465.227 103.256C463.019 104.888 460.283 106.136 457.019 107C453.851 107.768 450.491 108.152 446.939 108.152C437.723 108.152 430.571 105.8 425.483 101.096C420.491 96.392 417.995 89.48 417.995 80.36V48.536H406.043V31.256H417.995V12.392H440.459V31.256H459.755V48.536H440.459V80.072C440.459 83.336 441.275 85.88 442.907 87.704C444.635 89.432 447.035 90.296 450.107 90.296C453.659 90.296 456.683 89.336 459.179 87.416L465.227 103.256ZM596.666 29.528V107H575.354V97.784C572.378 101.144 568.826 103.736 564.698 105.56C560.57 107.288 556.106 108.152 551.306 108.152C541.13 108.152 533.066 105.224 527.114 99.368C521.162 93.512 518.186 84.824 518.186 73.304V29.528H540.65V69.992C540.65 82.472 545.882 88.712 556.346 88.712C561.722 88.712 566.042 86.984 569.306 83.528C572.57 79.976 574.202 74.744 574.202 67.832V29.528H596.666ZM643.541 108.152C637.109 108.152 630.821 107.384 624.677 105.848C618.533 104.216 613.637 102.2 609.989 99.8L617.477 83.672C620.933 85.88 625.109 87.704 630.005 89.144C634.901 90.488 639.701 91.16 644.405 91.16C653.909 91.16 658.661 88.808 658.661 84.104C658.661 81.896 657.365 80.312 654.773 79.352C652.181 78.392 648.197 77.576 642.821 76.904C636.485 75.944 631.253 74.84 627.125 73.592C622.997 72.344 619.397 70.136 616.325 66.968C613.349 63.8 611.861 59.288 611.861 53.432C611.861 48.536 613.253 44.216 616.037 40.472C618.917 36.632 623.045 33.656 628.421 31.544C633.893 29.432 640.325 28.376 647.717 28.376C653.189 28.376 658.613 29 663.989 30.248C669.461 31.4 673.973 33.032 677.525 35.144L670.037 51.128C663.221 47.288 655.781 45.368 647.717 45.368C642.917 45.368 639.317 46.04 636.917 47.384C634.517 48.728 633.317 50.456 633.317 52.568C633.317 54.968 634.613 56.648 637.205 57.608C639.797 58.568 643.925 59.48 649.589 60.344C655.925 61.4 661.109 62.552 665.141 63.8C669.173 64.952 672.677 67.112 675.653 70.28C678.629 73.448 680.117 77.864 680.117 83.528C680.117 88.328 678.677 92.6 675.797 96.344C672.917 100.088 668.693 103.016 663.125 105.128C657.653 107.144 651.125 108.152 643.541 108.152Z" fill="#0F0F0F"/>
<path d="M80.336 85.4L82.1843 84.636L81.6734 83.4H80.336V85.4ZM33.536 85.4V83.4H32.1986L31.6877 84.636L33.536 85.4ZM24.608 107V109H25.9454L26.4563 107.764L24.608 107ZM0.704 107L-1.12276 106.186L-2.3771 109H0.704V107ZM45.632 6.19999V4.19999H44.3338L43.8052 5.38578L45.632 6.19999ZM68.672 6.19999L70.4978 5.38361L69.9686 4.19999H68.672V6.19999ZM113.744 107V109H116.829L115.57 106.184L113.744 107ZM89.264 107L87.4157 107.764L87.9266 109H89.264V107ZM72.992 67.688V69.688H75.9851L74.8398 66.9227L72.992 67.688ZM57.008 29.096L58.8558 28.3307L57.008 23.8694L55.1602 28.3307L57.008 29.096ZM41.024 67.688L39.1762 66.9227L38.0309 69.688H41.024V67.688ZM80.336 83.4H33.536V87.4H80.336V83.4ZM31.6877 84.636L22.7597 106.236L26.4563 107.764L35.3843 86.164L31.6877 84.636ZM24.608 105H0.704V109H24.608V105ZM2.53076 107.814L47.4588 7.01421L43.8052 5.38578L-1.12276 106.186L2.53076 107.814ZM45.632 8.19999H68.672V4.19999H45.632V8.19999ZM66.8462 7.01638L111.918 107.816L115.57 106.184L70.4978 5.38361L66.8462 7.01638ZM113.744 105H89.264V109H113.744V105ZM91.1123 106.236L82.1843 84.636L78.4877 86.164L87.4157 107.764L91.1123 106.236ZM74.8398 66.9227L58.8558 28.3307L55.1602 29.8613L71.1442 68.4533L74.8398 66.9227ZM55.1602 28.3307L39.1762 66.9227L42.8718 68.4533L58.8558 29.8613L55.1602 28.3307ZM41.024 69.688H72.992V65.688H41.024V69.688ZM187.994 33.416L186.999 35.1507L187.015 35.1603L187.032 35.1696L187.994 33.416ZM201.962 47.384L200.214 48.3553L200.22 48.3672L201.962 47.384ZM201.962 89.288L203.704 90.2712L203.71 90.2593L201.962 89.288ZM187.994 103.256L188.968 105.003L188.977 104.998L187.994 103.256ZM144.074 98.072L145.614 96.796L142.074 92.5235V98.072H144.074ZM144.074 107V109H146.074V107H144.074ZM122.618 107H120.618V109H122.618V107ZM122.618 0.151993V-1.84801H120.618V0.151993H122.618ZM145.082 0.151993H147.082V-1.84801H145.082V0.151993ZM145.082 37.736H143.082V42.9151L146.563 39.0802L145.082 37.736ZM178.634 83.96L177.185 82.5816L177.184 82.5825L178.634 83.96ZM178.634 52.712L177.167 54.0715L177.184 54.0901L177.202 54.1082L178.634 52.712ZM150.266 52.712L148.817 51.3336L148.816 51.3345L150.266 52.712ZM150.266 83.96L148.799 85.3195L148.816 85.3381L148.834 85.3562L150.266 83.96ZM168.41 30.376C175.285 30.376 181.466 31.9761 186.999 35.1507L188.989 31.6813C182.81 28.1359 175.935 26.376 168.41 26.376V30.376ZM187.032 35.1696C192.647 38.2486 197.033 42.6303 200.214 48.3553L203.71 46.4127C200.171 40.0417 195.245 35.1114 188.956 31.6624L187.032 35.1696ZM200.22 48.3672C203.385 53.9727 205.002 60.5829 205.002 68.264H209.002C209.002 60.0091 207.259 52.6992 203.704 46.4008L200.22 48.3672ZM205.002 68.264C205.002 75.9442 203.385 82.6083 200.214 88.3167L203.71 90.2593C207.259 83.8717 209.002 76.5198 209.002 68.264H205.002ZM200.22 88.3048C197.039 93.9396 192.646 98.3334 187.011 101.514L188.977 104.998C195.246 101.459 200.165 96.5404 203.704 90.2712L200.22 88.3048ZM187.02 101.509C181.484 104.595 175.295 106.152 168.41 106.152V110.152C175.925 110.152 182.792 108.445 188.968 105.003L187.02 101.509ZM168.41 106.152C158.205 106.152 150.719 102.957 145.614 96.796L142.534 99.348C148.565 106.627 157.303 110.152 168.41 110.152V106.152ZM142.074 98.072V107H146.074V98.072H142.074ZM144.074 105H122.618V109H144.074V105ZM124.618 107V0.151993H120.618V107H124.618ZM122.618 2.15199H145.082V-1.84801H122.618V2.15199ZM143.082 0.151993V37.736H147.082V0.151993H143.082ZM146.563 39.0802C151.781 33.331 158.979 30.376 168.41 30.376V26.376C158.065 26.376 149.711 29.661 143.601 36.3918L146.563 39.0802ZM164.522 91.72C170.777 91.72 176.023 89.612 180.084 85.3375L177.184 82.5825C173.949 85.988 169.787 87.72 164.522 87.72V91.72ZM180.083 85.3384C184.25 80.958 186.25 75.1952 186.25 68.264H182.25C182.25 74.3887 180.506 79.09 177.185 82.5816L180.083 85.3384ZM186.25 68.264C186.25 61.3346 184.25 55.6074 180.066 51.3158L177.202 54.1082C180.506 57.4966 182.25 62.1374 182.25 68.264H186.25ZM180.101 51.3525C176.044 46.9757 170.793 44.808 164.522 44.808V48.808C169.771 48.808 173.928 50.5763 177.167 54.0715L180.101 51.3525ZM164.522 44.808C158.251 44.808 152.963 46.9747 148.817 51.3336L151.715 54.0904C155.057 50.5773 159.273 48.808 164.522 48.808V44.808ZM148.816 51.3345C144.737 55.6282 142.794 61.3488 142.794 68.264H146.794C146.794 62.1232 148.499 57.4758 151.716 54.0895L148.816 51.3345ZM142.794 68.264C142.794 75.1812 144.738 80.9373 148.799 85.3195L151.733 82.6005C148.498 79.1107 146.794 74.4028 146.794 68.264H142.794ZM148.834 85.3562C152.984 89.6129 158.267 91.72 164.522 91.72V87.72C159.257 87.72 155.036 85.9871 151.698 82.5638L148.834 85.3562ZM236.872 103.112L235.925 104.874L235.941 104.882L235.957 104.89L236.872 103.112ZM221.752 88.856L220.039 89.889L221.752 88.856ZM221.752 47.672L220.039 46.639L221.752 47.672ZM236.872 33.56L237.798 35.3327L237.808 35.3276L236.872 33.56ZM280.792 33.56L279.845 35.3218L279.855 35.3273L279.866 35.3327L280.792 33.56ZM295.912 47.672L297.624 46.639L295.912 47.672ZM295.912 88.856L297.624 89.889L295.912 88.856ZM280.792 103.112L281.718 104.885L281.728 104.879L281.738 104.874L280.792 103.112ZM273.016 83.96L271.567 82.5816L271.566 82.5825L273.016 83.96ZM273.016 52.712L271.549 54.0715L271.566 54.0901L271.584 54.1082L273.016 52.712ZM244.648 52.712L246.08 54.1082L246.088 54.0994L246.097 54.0904L244.648 52.712ZM244.648 83.96L243.199 85.3384L243.207 85.3474L243.216 85.3562L244.648 83.96ZM258.904 106.152C251.026 106.152 244.002 104.532 237.787 101.334L235.957 104.89C242.798 108.412 250.461 110.152 258.904 110.152V106.152ZM237.819 101.35C231.691 98.058 226.921 93.5531 223.464 87.823L220.039 89.889C223.879 96.2549 229.188 101.254 235.925 104.874L237.819 101.35ZM223.464 87.823C220.021 82.1138 218.28 75.6128 218.28 68.264H214.28C214.28 76.2752 216.187 83.5022 220.039 89.889L223.464 87.823ZM218.28 68.264C218.28 60.9152 220.021 54.4142 223.464 48.705L220.039 46.639C216.187 53.0258 214.28 60.2528 214.28 68.264H218.28ZM223.464 48.705C226.918 42.9799 231.682 38.5278 237.798 35.3327L235.946 31.7873C229.198 35.3122 223.882 40.2681 220.039 46.639L223.464 48.705ZM237.808 35.3276C244.018 32.0397 251.035 30.376 258.904 30.376V26.376C250.452 26.376 242.782 28.1683 235.936 31.7924L237.808 35.3276ZM258.904 30.376C266.773 30.376 273.737 32.0398 279.845 35.3218L281.738 31.7982C274.983 28.1682 267.355 26.376 258.904 26.376V30.376ZM279.866 35.3327C285.982 38.5278 290.746 42.9799 294.199 48.705L297.624 46.639C293.782 40.2681 288.466 35.3122 281.718 31.7873L279.866 35.3327ZM294.199 48.705C297.643 54.4142 299.384 60.9152 299.384 68.264H303.384C303.384 60.2528 301.477 53.0258 297.624 46.639L294.199 48.705ZM299.384 68.264C299.384 75.6128 297.643 82.1138 294.199 87.823L297.624 89.889C301.477 83.5022 303.384 76.2752 303.384 68.264H299.384ZM294.199 87.823C290.743 93.5531 285.972 98.058 279.845 101.35L281.738 104.874C288.475 101.254 293.785 96.2549 297.624 89.889L294.199 87.823ZM279.866 101.339C273.754 104.532 266.782 106.152 258.904 106.152V110.152C267.346 110.152 274.966 108.412 281.718 104.885L279.866 101.339ZM258.904 91.72C265.159 91.72 270.405 89.612 274.466 85.3375L271.566 82.5825C268.331 85.988 264.169 87.72 258.904 87.72V91.72ZM274.465 85.3384C278.632 80.958 280.632 75.1952 280.632 68.264H276.632C276.632 74.3887 274.888 79.09 271.567 82.5816L274.465 85.3384ZM280.632 68.264C280.632 61.3346 278.632 55.6074 274.448 51.3158L271.584 54.1082C274.888 57.4966 276.632 62.1374 276.632 68.264H280.632ZM274.483 51.3525C270.426 46.9757 265.175 44.808 258.904 44.808V48.808C264.153 48.808 268.31 50.5763 271.549 54.0715L274.483 51.3525ZM258.904 44.808C252.633 44.808 247.345 46.9747 243.199 51.3336L246.097 54.0904C249.439 50.5773 253.655 48.808 258.904 48.808V44.808ZM243.216 51.3158C239.032 55.6074 237.032 61.3346 237.032 68.264H241.032C241.032 62.1374 242.776 57.4966 246.08 54.1082L243.216 51.3158ZM237.032 68.264C237.032 75.1952 239.032 80.958 243.199 85.3384L246.097 82.5816C242.776 79.09 241.032 74.3887 241.032 68.264H237.032ZM243.216 85.3562C247.366 89.6129 252.649 91.72 258.904 91.72V87.72C253.639 87.72 249.418 85.9871 246.08 82.5638L243.216 85.3562ZM394.447 29.528H396.447V27.528H394.447V29.528ZM394.447 107V109H396.447V107H394.447ZM373.135 107H371.135V109H373.135V107ZM373.135 97.784H375.135V92.5095L371.638 96.4579L373.135 97.784ZM362.479 105.56L363.252 107.405L363.27 107.397L363.288 107.389L362.479 105.56ZM324.895 99.368L326.298 97.9423L324.895 99.368ZM315.967 29.528V27.528H313.967V29.528H315.967ZM338.431 29.528H340.431V27.528H338.431V29.528ZM367.087 83.528L368.541 84.9012L368.551 84.8913L368.56 84.8812L367.087 83.528ZM371.983 29.528V27.528H369.983V29.528H371.983ZM392.447 29.528V107H396.447V29.528H392.447ZM394.447 105H373.135V109H394.447V105ZM375.135 107V97.784H371.135V107H375.135ZM371.638 96.4579C368.854 99.6013 365.537 102.022 361.671 103.731L363.288 107.389C367.677 105.45 371.465 102.687 374.632 99.1101L371.638 96.4579ZM361.707 103.715C357.841 105.333 353.642 106.152 349.087 106.152V110.152C354.133 110.152 358.862 109.243 363.252 107.405L361.707 103.715ZM349.087 106.152C339.314 106.152 331.797 103.353 326.298 97.9423L323.493 100.794C329.897 107.095 338.508 110.152 349.087 110.152V106.152ZM326.298 97.9423C320.855 92.5868 317.967 84.4961 317.967 73.304H313.967C313.967 85.1519 317.032 94.4372 323.493 100.794L326.298 97.9423ZM317.967 73.304V29.528H313.967V73.304H317.967ZM315.967 31.528H338.431V27.528H315.967V31.528ZM336.431 29.528V69.992H340.431V29.528H336.431ZM336.431 69.992C336.431 76.4628 337.78 81.6885 340.823 85.317C343.922 89.013 348.485 90.712 354.127 90.712V86.712C349.305 86.712 346.021 85.291 343.888 82.747C341.698 80.1355 340.431 76.0012 340.431 69.992H336.431ZM354.127 90.712C359.974 90.712 364.848 88.8115 368.541 84.9012L365.633 82.1548C362.798 85.1565 359.032 86.712 354.127 86.712V90.712ZM368.56 84.8812C372.285 80.8274 373.983 75.0297 373.983 67.832H369.983C369.983 74.4583 368.417 79.1246 365.615 82.1748L368.56 84.8812ZM373.983 67.832V29.528H369.983V67.832H373.983ZM371.983 31.528H394.447V27.528H371.983V31.528ZM465.227 103.256L466.415 104.864L467.637 103.962L467.095 102.543L465.227 103.256ZM457.019 107L457.49 108.944L457.51 108.939L457.53 108.933L457.019 107ZM425.483 101.096L424.111 102.552L424.118 102.558L424.125 102.565L425.483 101.096ZM417.995 48.536H419.995V46.536H417.995V48.536ZM406.043 48.536H404.043V50.536H406.043V48.536ZM406.043 31.256V29.256H404.043V31.256H406.043ZM417.995 31.256V33.256H419.995V31.256H417.995ZM417.995 12.392V10.392H415.995V12.392H417.995ZM440.459 12.392H442.459V10.392H440.459V12.392ZM440.459 31.256H438.459V33.256H440.459V31.256ZM459.755 31.256H461.755V29.256H459.755V31.256ZM459.755 48.536V50.536H461.755V48.536H459.755ZM440.459 48.536V46.536H438.459V48.536H440.459ZM442.907 87.704L441.416 89.0376L441.453 89.079L441.492 89.1182L442.907 87.704ZM459.179 87.416L461.047 86.7026L460.089 84.1927L457.959 85.8307L459.179 87.416ZM464.038 101.648C462.074 103.099 459.581 104.253 456.507 105.067L457.53 108.933C460.984 108.019 463.964 106.677 466.415 104.864L464.038 101.648ZM456.547 105.056C453.547 105.784 450.346 106.152 446.939 106.152V110.152C450.635 110.152 454.154 109.752 457.49 108.944L456.547 105.056ZM446.939 106.152C438.056 106.152 431.451 103.89 426.84 99.6275L424.125 102.565C429.691 107.71 437.389 110.152 446.939 110.152V106.152ZM426.854 99.6404C422.383 95.4272 419.995 89.1186 419.995 80.36H415.995C415.995 89.8414 418.598 97.3568 424.111 102.552L426.854 99.6404ZM419.995 80.36V48.536H415.995V80.36H419.995ZM417.995 46.536H406.043V50.536H417.995V46.536ZM408.043 48.536V31.256H404.043V48.536H408.043ZM406.043 33.256H417.995V29.256H406.043V33.256ZM419.995 31.256V12.392H415.995V31.256H419.995ZM417.995 14.392H440.459V10.392H417.995V14.392ZM438.459 12.392V31.256H442.459V12.392H438.459ZM440.459 33.256H459.755V29.256H440.459V33.256ZM457.755 31.256V48.536H461.755V31.256H457.755ZM459.755 46.536H440.459V50.536H459.755V46.536ZM438.459 48.536V80.072H442.459V48.536H438.459ZM438.459 80.072C438.459 83.6613 439.36 86.7391 441.416 89.0376L444.397 86.3704C443.19 85.0209 442.459 83.0107 442.459 80.072H438.459ZM441.492 89.1182C443.686 91.312 446.648 92.296 450.107 92.296V88.296C447.421 88.296 445.583 87.552 444.321 86.2898L441.492 89.1182ZM450.107 92.296C454.04 92.296 457.508 91.2242 460.398 89.0012L457.959 85.8307C455.857 87.4478 453.277 88.296 450.107 88.296V92.296ZM457.31 88.1294L463.358 103.969L467.095 102.543L461.047 86.7026L457.31 88.1294ZM596.666 29.528H598.666V27.528H596.666V29.528ZM596.666 107V109H598.666V107H596.666ZM575.354 107H573.354V109H575.354V107ZM575.354 97.784H577.354V92.5095L573.857 96.4579L575.354 97.784ZM564.698 105.56L565.47 107.405L565.488 107.397L565.506 107.389L564.698 105.56ZM527.114 99.368L528.517 97.9423L527.114 99.368ZM518.186 29.528V27.528H516.186V29.528H518.186ZM540.65 29.528H542.65V27.528H540.65V29.528ZM569.306 83.528L570.76 84.9012L570.769 84.8913L570.779 84.8812L569.306 83.528ZM574.202 29.528V27.528H572.202V29.528H574.202ZM594.666 29.528V107H598.666V29.528H594.666ZM596.666 105H575.354V109H596.666V105ZM577.354 107V97.784H573.354V107H577.354ZM573.857 96.4579C571.073 99.6013 567.756 102.022 563.89 103.731L565.506 107.389C569.896 105.45 573.683 102.687 576.851 99.1101L573.857 96.4579ZM563.926 103.715C560.06 105.333 555.86 106.152 551.306 106.152V110.152C556.352 110.152 561.08 109.243 565.47 107.405L563.926 103.715ZM551.306 106.152C541.533 106.152 534.016 103.353 528.517 97.9423L525.711 100.794C532.116 107.095 540.727 110.152 551.306 110.152V106.152ZM528.517 97.9423C523.073 92.5868 520.186 84.4961 520.186 73.304H516.186C516.186 85.1519 519.251 94.4372 525.711 100.794L528.517 97.9423ZM520.186 73.304V29.528H516.186V73.304H520.186ZM518.186 31.528H540.65V27.528H518.186V31.528ZM538.65 29.528V69.992H542.65V29.528H538.65ZM538.65 69.992C538.65 76.4628 539.999 81.6885 543.041 85.317C546.14 89.013 550.704 90.712 556.346 90.712V86.712C551.524 86.712 548.24 85.291 546.107 82.747C543.917 80.1355 542.65 76.0012 542.65 69.992H538.65ZM556.346 90.712C562.193 90.712 567.067 88.8115 570.76 84.9012L567.852 82.1548C565.017 85.1565 561.251 86.712 556.346 86.712V90.712ZM570.779 84.8812C574.504 80.8274 576.202 75.0297 576.202 67.832H572.202C572.202 74.4583 570.636 79.1246 567.833 82.1748L570.779 84.8812ZM576.202 67.832V29.528H572.202V67.832H576.202ZM574.202 31.528H596.666V27.528H574.202V31.528ZM624.677 105.848L624.164 107.781L624.178 107.785L624.192 107.788L624.677 105.848ZM609.989 99.8L608.175 98.9578L607.449 100.523L608.89 101.471L609.989 99.8ZM617.477 83.672L618.554 81.9866L616.627 80.7551L615.663 82.8298L617.477 83.672ZM630.005 89.144L629.441 91.0627L629.458 91.0678L629.476 91.0727L630.005 89.144ZM654.773 79.352L654.079 81.2275L654.773 79.352ZM642.821 76.904L642.522 78.8814L642.547 78.8853L642.573 78.8886L642.821 76.904ZM627.125 73.592L627.704 71.6776L627.125 73.592ZM616.325 66.968L614.868 68.3373L614.879 68.3489L614.89 68.3603L616.325 66.968ZM616.037 40.472L614.437 39.272L614.432 39.2786L616.037 40.472ZM628.421 31.544L627.701 29.6781L627.69 29.6825L628.421 31.544ZM663.989 30.248L663.537 32.1962L663.557 32.2008L663.577 32.2051L663.989 30.248ZM677.525 35.144L679.336 35.9924L680.105 34.3512L678.548 33.4249L677.525 35.144ZM670.037 51.128L669.056 52.8705L670.934 53.9287L671.849 51.9764L670.037 51.128ZM636.917 47.384L635.94 45.639L636.917 47.384ZM637.205 57.608L637.9 55.7325L637.205 57.608ZM649.589 60.344L649.918 58.3712L649.905 58.3689L649.891 58.3669L649.589 60.344ZM665.141 63.8L664.55 65.7106L664.571 65.717L664.592 65.723L665.141 63.8ZM675.653 70.28L674.196 71.6493L675.653 70.28ZM675.797 96.344L677.383 97.5634L675.797 96.344ZM663.125 105.128L663.817 107.005L663.826 107.001L663.835 106.998L663.125 105.128ZM643.541 106.152C637.27 106.152 631.145 105.403 625.162 103.908L624.192 107.788C630.497 109.365 636.948 110.152 643.541 110.152V106.152ZM625.191 103.915C619.169 102.315 614.495 100.37 611.089 98.1292L608.89 101.471C612.78 104.03 617.898 106.117 624.164 107.781L625.191 103.915ZM611.803 100.642L619.291 84.5142L615.663 82.8298L608.175 98.9578L611.803 100.642ZM616.401 85.3574C620.049 87.6882 624.406 89.5819 629.441 91.0627L630.57 87.2253C625.812 85.8261 621.818 84.0718 618.554 81.9866L616.401 85.3574ZM629.476 91.0727C634.531 92.4603 639.509 93.16 644.405 93.16V89.16C639.894 89.16 635.272 88.5157 630.535 87.2153L629.476 91.0727ZM644.405 93.16C649.258 93.16 653.193 92.57 655.985 91.1885C657.408 90.4838 658.599 89.5415 659.429 88.3082C660.269 87.0614 660.661 85.6342 660.661 84.104H656.661C656.661 84.9258 656.46 85.5566 656.112 86.0738C655.754 86.6045 655.163 87.1322 654.21 87.6035C652.25 88.574 649.057 89.16 644.405 89.16V93.16ZM660.661 84.104C660.661 82.5774 660.201 81.172 659.237 79.9935C658.299 78.8462 656.985 78.0383 655.468 77.4765L654.079 81.2275C655.154 81.6257 655.784 82.0898 656.141 82.5265C656.473 82.932 656.661 83.4226 656.661 84.104H660.661ZM655.468 77.4765C652.653 76.4338 648.482 75.596 643.069 74.9194L642.573 78.8886C647.913 79.556 651.71 80.3502 654.079 81.2275L655.468 77.4765ZM643.121 74.9266C636.839 73.9747 631.708 72.8881 627.704 71.6776L626.547 75.5064C630.798 76.7919 636.132 77.9133 642.522 78.8814L643.121 74.9266ZM627.704 71.6776C623.909 70.5303 620.602 68.5056 617.761 65.5757L614.89 68.3603C618.193 71.7664 622.085 74.1577 626.547 75.5064L627.704 71.6776ZM617.783 65.5986C615.262 62.9147 613.861 58.9593 613.861 53.432H609.861C609.861 59.6167 611.437 64.6853 614.868 68.3373L617.783 65.5986ZM613.861 53.432C613.861 48.9433 615.128 45.0466 617.642 41.6654L614.432 39.2786C611.379 43.3854 609.861 48.1287 609.861 53.432H613.861ZM617.637 41.672C620.253 38.1842 624.051 35.4096 629.153 33.4055L627.69 29.6825C622.039 31.9024 617.581 35.0798 614.437 39.272L617.637 41.672ZM629.142 33.4098C634.333 31.4063 640.51 30.376 647.717 30.376V26.376C640.141 26.376 633.454 27.4577 627.701 29.6781L629.142 33.4098ZM647.717 30.376C653.036 30.376 658.308 30.9823 663.537 32.1962L664.442 28.2998C658.919 27.0177 653.343 26.376 647.717 26.376V30.376ZM663.577 32.2051C668.905 33.3267 673.194 34.8952 676.503 36.8631L678.548 33.4249C674.753 31.1688 670.018 29.4733 664.401 28.2909L663.577 32.2051ZM675.714 34.2955L668.226 50.2795L671.849 51.9764L679.336 35.9924L675.714 34.2955ZM671.019 49.3855C663.894 45.3713 656.114 43.368 647.717 43.368V47.368C655.448 47.368 662.549 49.2046 669.056 52.8705L671.019 49.3855ZM647.717 43.368C642.796 43.368 638.786 44.0456 635.94 45.639L637.895 49.129C639.849 48.0344 643.039 47.368 647.717 47.368V43.368ZM635.94 45.639C633.129 47.2132 631.317 49.5104 631.317 52.568H635.317C635.317 51.4016 635.906 50.2428 637.895 49.129L635.94 45.639ZM631.317 52.568C631.317 54.1491 631.753 55.6143 632.706 56.8496C633.643 58.064 634.968 58.9119 636.511 59.4835L637.9 55.7325C636.851 55.3441 636.232 54.872 635.873 54.4064C635.53 53.9617 635.317 53.3869 635.317 52.568H631.317ZM636.511 59.4835C639.304 60.518 643.6 61.4536 649.288 62.3211L649.891 58.3669C644.25 57.5064 640.291 56.618 637.9 55.7325L636.511 59.4835ZM649.261 62.3168C655.548 63.3648 660.636 64.4991 664.55 65.7106L665.733 61.8894C661.583 60.6049 656.302 59.4352 649.918 58.3712L649.261 62.3168ZM664.592 65.723C668.264 66.7721 671.457 68.7344 674.196 71.6493L677.111 68.9106C673.897 65.4895 670.083 63.1319 665.691 61.877L664.592 65.723ZM674.196 71.6493C676.728 74.3448 678.117 78.2137 678.117 83.528H682.117C682.117 77.5143 680.531 72.5511 677.111 68.9106L674.196 71.6493ZM678.117 83.528C678.117 87.8946 676.819 91.7363 674.212 95.1246L677.383 97.5634C680.536 93.4637 682.117 88.7614 682.117 83.528H678.117ZM674.212 95.1246C671.61 98.5071 667.727 101.244 662.416 103.258L663.835 106.998C669.66 104.788 674.225 101.669 677.383 97.5634L674.212 95.1246ZM662.434 103.251C657.239 105.165 650.957 106.152 643.541 106.152V110.152C651.294 110.152 658.068 109.123 663.817 107.005L662.434 103.251Z" fill="#9945FF"/>
</svg>
