<svg width="615" height="99" viewBox="0 0 615 99" fill="none" xmlns="http://www.w3.org/2000/svg">
<path d="M72.72 77.5H30.47L22.41 97H0.83L41.39 5.99999H62.19L102.88 97H80.78L72.72 77.5ZM66.09 61.51L51.66 26.67L37.23 61.51H66.09ZM152.231 26.02C158.731 26.02 164.625 27.5367 169.911 30.57C175.285 33.5167 179.488 37.72 182.521 43.18C185.555 48.5533 187.071 54.8367 187.071 62.03C187.071 69.2233 185.555 75.55 182.521 81.01C179.488 86.3833 175.285 90.5867 169.911 93.62C164.625 96.5667 158.731 98.04 152.231 98.04C142.611 98.04 135.288 95.0067 130.261 88.94V97H110.891V0.539994H131.171V34.47C136.285 28.8367 143.305 26.02 152.231 26.02ZM148.721 81.4C153.921 81.4 158.168 79.6667 161.461 76.2C164.841 72.6467 166.531 67.9233 166.531 62.03C166.531 56.1367 164.841 51.4567 161.461 47.99C158.168 44.4367 153.921 42.66 148.721 42.66C143.521 42.66 139.231 44.4367 135.851 47.99C132.558 51.4567 130.911 56.1367 130.911 62.03C130.911 67.9233 132.558 72.6467 135.851 76.2C139.231 79.6667 143.521 81.4 148.721 81.4ZM233.927 98.04C226.56 98.04 219.93 96.5233 214.037 93.49C208.23 90.37 203.68 86.08 200.387 80.62C197.094 75.16 195.447 68.9633 195.447 62.03C195.447 55.0967 197.094 48.9 200.387 43.44C203.68 37.98 208.23 33.7333 214.037 30.7C219.93 27.58 226.56 26.02 233.927 26.02C241.294 26.02 247.88 27.58 253.687 30.7C259.494 33.7333 264.044 37.98 267.337 43.44C270.63 48.9 272.277 55.0967 272.277 62.03C272.277 68.9633 270.63 75.16 267.337 80.62C264.044 86.08 259.494 90.37 253.687 93.49C247.88 96.5233 241.294 98.04 233.927 98.04ZM233.927 81.4C239.127 81.4 243.374 79.6667 246.667 76.2C250.047 72.6467 251.737 67.9233 251.737 62.03C251.737 56.1367 250.047 51.4567 246.667 47.99C243.374 44.4367 239.127 42.66 233.927 42.66C228.727 42.66 224.437 44.4367 221.057 47.99C217.677 51.4567 215.987 56.1367 215.987 62.03C215.987 67.9233 217.677 72.6467 221.057 76.2C224.437 79.6667 228.727 81.4 233.927 81.4ZM356.293 27.06V97H337.053V88.68C334.366 91.7133 331.159 94.0533 327.433 95.7C323.706 97.26 319.676 98.04 315.343 98.04C306.156 98.04 298.876 95.3967 293.503 90.11C288.129 84.8233 285.443 76.98 285.443 66.58V27.06H305.723V63.59C305.723 74.8567 310.446 80.49 319.893 80.49C324.746 80.49 328.646 78.93 331.593 75.81C334.539 72.6033 336.013 67.88 336.013 61.64V27.06H356.293ZM420.191 93.62C418.197 95.0933 415.727 96.22 412.781 97C409.921 97.6933 406.887 98.04 403.681 98.04C395.361 98.04 388.904 95.9167 384.311 91.67C379.804 87.4233 377.551 81.1833 377.551 72.95V44.22H366.761V28.62H377.551V11.59H397.831V28.62H415.251V44.22H397.831V72.69C397.831 75.6367 398.567 77.9333 400.041 79.58C401.601 81.14 403.767 81.92 406.541 81.92C409.747 81.92 412.477 81.0533 414.731 79.32L420.191 93.62ZM538.851 27.06V97H519.611V88.68C516.925 91.7133 513.718 94.0533 509.991 95.7C506.265 97.26 502.235 98.04 497.901 98.04C488.715 98.04 481.435 95.3967 476.061 90.11C470.688 84.8233 468.001 76.98 468.001 66.58V27.06H488.281V63.59C488.281 74.8567 493.005 80.49 502.451 80.49C507.305 80.49 511.205 78.93 514.151 75.81C517.098 72.6033 518.571 67.88 518.571 61.64V27.06H538.851ZM581.169 98.04C575.363 98.04 569.686 97.3467 564.139 95.96C558.593 94.4867 554.173 92.6667 550.879 90.5L557.639 75.94C560.759 77.9333 564.529 79.58 568.949 80.88C573.369 82.0933 577.703 82.7 581.949 82.7C590.529 82.7 594.819 80.5767 594.819 76.33C594.819 74.3367 593.649 72.9067 591.309 72.04C588.969 71.1733 585.373 70.4367 580.519 69.83C574.799 68.9633 570.076 67.9667 566.349 66.84C562.623 65.7133 559.373 63.72 556.599 60.86C553.913 58 552.569 53.9267 552.569 48.64C552.569 44.22 553.826 40.32 556.339 36.94C558.939 33.4733 562.666 30.7867 567.519 28.88C572.459 26.9733 578.266 26.02 584.939 26.02C589.879 26.02 594.776 26.5833 599.629 27.71C604.569 28.75 608.643 30.2233 611.849 32.13L605.089 46.56C598.936 43.0933 592.219 41.36 584.939 41.36C580.606 41.36 577.356 41.9667 575.189 43.18C573.023 44.3933 571.939 45.9533 571.939 47.86C571.939 50.0267 573.109 51.5433 575.449 52.41C577.789 53.2767 581.516 54.1 586.629 54.88C592.349 55.8333 597.029 56.8733 600.669 58C604.309 59.04 607.473 60.99 610.159 63.85C612.846 66.71 614.189 70.6967 614.189 75.81C614.189 80.1433 612.889 84 610.289 87.38C607.689 90.76 603.876 93.4033 598.849 95.31C593.909 97.13 588.016 98.04 581.169 98.04Z" fill="#0F0F0F"/>
<path d="M72.72 77.5L73.6442 77.118L73.3887 76.5H72.72V77.5ZM30.47 77.5V76.5H29.8013L29.5458 77.118L30.47 77.5ZM22.41 97V98H23.0787L23.3342 97.382L22.41 97ZM0.83 97L-0.0833807 96.5929L-0.710548 98H0.83V97ZM41.39 5.99999V4.99999H40.7409L40.4766 5.59289L41.39 5.99999ZM62.19 5.99999L63.1029 5.5918L62.8383 4.99999H62.19V5.99999ZM102.88 97V98H104.423L103.793 96.5918L102.88 97ZM80.78 97L79.8558 97.382L80.1113 98H80.78V97ZM66.09 61.51V62.51H67.5866L67.0139 61.1273L66.09 61.51ZM51.66 26.67L52.5839 26.2873L51.66 24.0567L50.7361 26.2873L51.66 26.67ZM37.23 61.51L36.3061 61.1273L35.7334 62.51H37.23V61.51ZM72.72 76.5H30.47V78.5H72.72V76.5ZM29.5458 77.118L21.4858 96.618L23.3342 97.382L31.3942 77.882L29.5458 77.118ZM22.41 96H0.83V98H22.41V96ZM1.74338 97.4071L42.3034 6.4071L40.4766 5.59289L-0.0833807 96.5929L1.74338 97.4071ZM41.39 6.99999H62.19V4.99999H41.39V6.99999ZM61.2771 6.40819L101.967 97.4082L103.793 96.5918L63.1029 5.5918L61.2771 6.40819ZM102.88 96H80.78V98H102.88V96ZM81.7042 96.618L73.6442 77.118L71.7958 77.882L79.8558 97.382L81.7042 96.618ZM67.0139 61.1273L52.5839 26.2873L50.7361 27.0527L65.1661 61.8927L67.0139 61.1273ZM50.7361 26.2873L36.3061 61.1273L38.1539 61.8927L52.5839 27.0527L50.7361 26.2873ZM37.23 62.51H66.09V60.51H37.23V62.51ZM169.911 30.57L169.414 31.4374L169.422 31.4422L169.43 31.4468L169.911 30.57ZM182.521 43.18L181.647 43.6657L181.65 43.6716L182.521 43.18ZM182.521 81.01L183.392 81.5016L183.395 81.4956L182.521 81.01ZM169.911 93.62L170.398 94.4935L170.403 94.4908L169.911 93.62ZM130.261 88.94L131.031 88.302L129.261 86.1657V88.94H130.261ZM130.261 97V98H131.261V97H130.261ZM110.891 97H109.891V98H110.891V97ZM110.891 0.539994V-0.460006H109.891V0.539994H110.891ZM131.171 0.539994H132.171V-0.460006H131.171V0.539994ZM131.171 34.47H130.171V37.0596L131.912 35.1421L131.171 34.47ZM161.461 76.2L160.737 75.5108L160.736 75.5112L161.461 76.2ZM161.461 47.99L160.728 48.6698L160.736 48.679L160.745 48.6881L161.461 47.99ZM135.851 47.99L135.127 47.3008L135.126 47.3013L135.851 47.99ZM135.851 76.2L135.118 76.8798L135.126 76.889L135.135 76.8981L135.851 76.2ZM152.231 27.02C158.569 27.02 164.288 28.4967 169.414 31.4374L170.409 29.7026C164.961 26.5766 158.894 25.02 152.231 25.02V27.02ZM169.43 31.4468C174.635 34.301 178.703 38.3672 181.647 43.6656L183.395 42.6944C180.272 37.0728 175.934 32.7324 170.392 29.6932L169.43 31.4468ZM181.65 43.6716C184.586 48.8717 186.071 54.9801 186.071 62.03H188.071C188.071 54.6932 186.523 48.235 183.392 42.6884L181.65 43.6716ZM186.071 62.03C186.071 69.0794 184.586 75.2341 181.647 80.5244L183.395 81.4956C186.523 75.8659 188.071 69.3672 188.071 62.03H186.071ZM181.65 80.5184C178.707 85.7332 174.634 89.8054 169.42 92.7492L170.403 94.4908C175.935 91.368 180.269 87.0335 183.392 81.5016L181.65 80.5184ZM169.424 92.7465C164.298 95.6041 158.574 97.04 152.231 97.04V99.04C158.889 99.04 164.952 97.5292 170.398 94.4935L169.424 92.7465ZM152.231 97.04C142.837 97.04 135.826 94.089 131.031 88.302L129.491 89.578C134.75 95.9244 142.386 99.04 152.231 99.04V97.04ZM129.261 88.94V97H131.261V88.94H129.261ZM130.261 96H110.891V98H130.261V96ZM111.891 97V0.539994H109.891V97H111.891ZM110.891 1.53999H131.171V-0.460006H110.891V1.53999ZM130.171 0.539994V34.47H132.171V0.539994H130.171ZM131.912 35.1421C136.802 29.7542 143.533 27.02 152.231 27.02V25.02C143.076 25.02 135.767 27.9192 130.431 33.7979L131.912 35.1421ZM148.721 82.4C154.169 82.4 158.687 80.5727 162.186 76.8887L160.736 75.5112C157.649 78.7607 153.674 80.4 148.721 80.4V82.4ZM162.186 76.8892C165.777 73.1137 167.531 68.125 167.531 62.03H165.531C165.531 67.7217 163.905 72.1797 160.737 75.5108L162.186 76.8892ZM167.531 62.03C167.531 55.936 165.777 50.9844 162.177 47.2919L160.745 48.6881C163.905 51.929 165.531 56.3374 165.531 62.03H167.531ZM162.195 47.3102C158.697 43.5365 154.177 41.66 148.721 41.66V43.66C153.666 43.66 157.639 45.3368 160.728 48.6698L162.195 47.3102ZM148.721 41.66C143.266 41.66 138.708 43.536 135.127 47.3008L136.576 48.6792C139.755 45.3373 143.777 43.66 148.721 43.66V41.66ZM135.126 47.3013C131.617 50.9948 129.911 55.9431 129.911 62.03H131.911C131.911 56.3303 133.498 51.9186 136.576 48.6787L135.126 47.3013ZM129.911 62.03C129.911 68.1179 131.618 73.1033 135.118 76.8798L136.585 75.5202C133.498 72.19 131.911 67.7287 131.911 62.03H129.911ZM135.135 76.8981C138.718 80.5731 143.274 82.4 148.721 82.4V80.4C143.769 80.4 139.744 78.7602 136.567 75.5019L135.135 76.8981ZM214.037 93.49L213.564 94.3709L213.572 94.3751L213.579 94.3791L214.037 93.49ZM200.387 80.62L199.531 81.1365L199.531 81.1365L200.387 80.62ZM200.387 43.44L199.531 42.9235L199.531 42.9235L200.387 43.44ZM214.037 30.7L214.5 31.5864L214.505 31.5838L214.037 30.7ZM253.687 30.7L253.214 31.5809L253.224 31.5863L253.687 30.7ZM267.337 43.44L268.193 42.9235L268.193 42.9235L267.337 43.44ZM267.337 80.62L268.193 81.1365L268.193 81.1365L267.337 80.62ZM253.687 93.49L254.15 94.3764L254.16 94.3709L253.687 93.49ZM246.667 76.2L245.943 75.5108L245.942 75.5112L246.667 76.2ZM246.667 47.99L245.934 48.6698L245.942 48.679L245.951 48.6881L246.667 47.99ZM221.057 47.99L221.773 48.6882L221.782 48.6792L221.057 47.99ZM221.057 76.2L220.332 76.8893L220.341 76.8981L221.057 76.2ZM233.927 97.04C226.702 97.04 220.231 95.5535 214.495 92.6009L213.579 94.3791C219.63 97.4931 226.419 99.04 233.927 99.04V97.04ZM214.51 92.6091C208.856 89.571 204.441 85.4045 201.243 80.1035L199.531 81.1365C202.92 86.7555 207.605 91.169 213.564 94.3709L214.51 92.6091ZM201.243 80.1035C198.052 74.8129 196.447 68.7977 196.447 62.03H194.447C194.447 69.1289 196.135 75.5071 199.531 81.1365L201.243 80.1035ZM196.447 62.03C196.447 55.2622 198.052 49.2471 201.243 43.9565L199.531 42.9235C196.135 48.5529 194.447 54.9311 194.447 62.03H196.447ZM201.243 43.9565C204.439 38.658 208.851 34.5372 214.5 31.5863L213.574 29.8136C207.61 32.9294 202.922 37.302 199.531 42.9235L201.243 43.9565ZM214.505 31.5838C220.24 28.5478 226.706 27.02 233.927 27.02V25.02C226.415 25.02 219.621 26.6121 213.569 29.8162L214.505 31.5838ZM233.927 27.02C241.148 27.02 247.569 28.5479 253.214 31.5809L254.16 29.8191C248.192 26.6121 241.439 25.02 233.927 25.02V27.02ZM253.224 31.5863C258.873 34.5372 263.285 38.658 266.481 43.9565L268.193 42.9235C264.803 37.302 260.115 32.9294 254.15 29.8136L253.224 31.5863ZM266.481 43.9565C269.672 49.2471 271.277 55.2622 271.277 62.03H273.277C273.277 54.9311 271.589 48.5529 268.193 42.9235L266.481 43.9565ZM271.277 62.03C271.277 68.7977 269.672 74.8129 266.481 80.1035L268.193 81.1365C271.589 75.5071 273.277 69.1289 273.277 62.03H271.277ZM266.481 80.1035C263.283 85.4045 258.868 89.571 253.214 92.6091L254.16 94.3709C260.12 91.169 264.804 86.7555 268.193 81.1365L266.481 80.1035ZM253.224 92.6037C247.577 95.5535 241.153 97.04 233.927 97.04V99.04C241.435 99.04 248.184 97.4932 254.15 94.3763L253.224 92.6037ZM233.927 82.4C239.375 82.4 243.892 80.5727 247.392 76.8887L245.942 75.5112C242.855 78.7607 238.88 80.4 233.927 80.4V82.4ZM247.392 76.8892C250.983 73.1137 252.737 68.125 252.737 62.03H250.737C250.737 67.7217 249.111 72.1797 245.943 75.5108L247.392 76.8892ZM252.737 62.03C252.737 55.936 250.983 50.9844 247.383 47.2919L245.951 48.6881C249.111 51.929 250.737 56.3374 250.737 62.03H252.737ZM247.401 47.3102C243.903 43.5365 239.383 41.66 233.927 41.66V43.66C238.872 43.66 242.845 45.3368 245.934 48.6698L247.401 47.3102ZM233.927 41.66C228.472 41.66 223.914 43.536 220.333 47.3008L221.782 48.6792C224.961 45.3373 228.983 43.66 233.927 43.66V41.66ZM220.341 47.2919C216.741 50.9844 214.987 55.936 214.987 62.03H216.987C216.987 56.3374 218.613 51.929 221.773 48.6881L220.341 47.2919ZM214.987 62.03C214.987 68.125 216.741 73.1137 220.333 76.8892L221.782 75.5108C218.613 72.1797 216.987 67.7217 216.987 62.03H214.987ZM220.341 76.8981C223.924 80.5731 228.48 82.4 233.927 82.4V80.4C228.975 80.4 224.95 78.7602 221.773 75.5019L220.341 76.8981ZM356.293 27.06H357.293V26.06H356.293V27.06ZM356.293 97V98H357.293V97H356.293ZM337.053 97H336.053V98H337.053V97ZM337.053 88.68H338.053V86.0428L336.304 88.017L337.053 88.68ZM327.433 95.7L327.819 96.6224L327.828 96.6187L327.837 96.6147L327.433 95.7ZM293.503 90.11L294.204 89.3972L294.204 89.3972L293.503 90.11ZM285.443 27.06V26.06H284.443V27.06H285.443ZM305.723 27.06H306.723V26.06H305.723V27.06ZM331.593 75.81L332.32 76.4967L332.329 76.4866L331.593 75.81ZM336.013 27.06V26.06H335.013V27.06H336.013ZM355.293 27.06V97H357.293V27.06H355.293ZM356.293 96H337.053V98H356.293V96ZM338.053 97V88.68H336.053V97H338.053ZM336.304 88.017C333.713 90.942 330.624 93.1965 327.028 94.7853L327.837 96.6147C331.694 94.9102 335.019 92.4847 337.801 89.343L336.304 88.017ZM327.047 94.7776C323.451 96.2827 319.553 97.04 315.343 97.04V99.04C319.799 99.04 323.961 98.2373 327.819 96.6224L327.047 94.7776ZM315.343 97.04C306.357 97.04 299.351 94.4611 294.204 89.3972L292.801 90.8228C298.401 96.3323 305.955 99.04 315.343 99.04V97.04ZM294.204 89.3972C289.085 84.3607 286.443 76.8161 286.443 66.58H284.443C284.443 77.1439 287.174 85.2859 292.801 90.8228L294.204 89.3972ZM286.443 66.58V27.06H284.443V66.58H286.443ZM285.443 28.06H305.723V26.06H285.443V28.06ZM304.723 27.06V63.59H306.723V27.06H304.723ZM304.723 63.59C304.723 69.3387 305.924 73.8366 308.499 76.9075C311.102 80.0122 314.964 81.49 319.893 81.49V79.49C315.374 79.49 312.152 78.1511 310.031 75.6225C307.883 73.0601 306.723 69.1079 306.723 63.59H304.723ZM319.893 81.49C324.982 81.49 329.159 79.8437 332.32 76.4966L330.866 75.1234C328.133 78.0163 324.51 79.49 319.893 79.49V81.49ZM332.329 76.4866C335.506 73.029 337.013 68.0228 337.013 61.64H335.013C335.013 67.7372 333.572 72.1776 330.856 75.1334L332.329 76.4866ZM337.013 61.64V27.06H335.013V61.64H337.013ZM336.013 28.06H356.293V26.06H336.013V28.06ZM420.191 93.62L420.785 94.4242L421.396 93.9728L421.125 93.2633L420.191 93.62ZM412.781 97L413.016 97.9719L413.026 97.9694L413.037 97.9667L412.781 97ZM384.311 91.67L383.625 92.3978L383.632 92.4043L384.311 91.67ZM377.551 44.22H378.551V43.22H377.551V44.22ZM366.761 44.22H365.761V45.22H366.761V44.22ZM366.761 28.62V27.62H365.761V28.62H366.761ZM377.551 28.62V29.62H378.551V28.62H377.551ZM377.551 11.59V10.59H376.551V11.59H377.551ZM397.831 11.59H398.831V10.59H397.831V11.59ZM397.831 28.62H396.831V29.62H397.831V28.62ZM415.251 28.62H416.251V27.62H415.251V28.62ZM415.251 44.22V45.22H416.251V44.22H415.251ZM397.831 44.22V43.22H396.831V44.22H397.831ZM400.041 79.58L399.295 80.2468L399.314 80.2675L399.334 80.2871L400.041 79.58ZM414.731 79.32L415.665 78.9633L415.186 77.7083L414.121 78.5274L414.731 79.32ZM419.596 92.8158C417.725 94.199 415.377 95.2784 412.525 96.0333L413.037 97.9667C416.078 97.1616 418.67 95.9876 420.785 94.4242L419.596 92.8158ZM412.545 96.0281C409.769 96.7012 406.815 97.04 403.681 97.04V99.04C406.96 99.04 410.073 98.6855 413.016 97.9719L412.545 96.0281ZM403.681 97.04C395.527 97.04 389.344 94.9616 384.99 90.9357L383.632 92.4043C388.464 96.8718 395.194 99.04 403.681 99.04V97.04ZM384.997 90.9422C380.75 86.9409 378.551 81.0026 378.551 72.95H376.551C376.551 81.3641 378.858 87.9057 383.625 92.3978L384.997 90.9422ZM378.551 72.95V44.22H376.551V72.95H378.551ZM377.551 43.22H366.761V45.22H377.551V43.22ZM367.761 44.22V28.62H365.761V44.22H367.761ZM366.761 29.62H377.551V27.62H366.761V29.62ZM378.551 28.62V11.59H376.551V28.62H378.551ZM377.551 12.59H397.831V10.59H377.551V12.59ZM396.831 11.59V28.62H398.831V11.59H396.831ZM397.831 29.62H415.251V27.62H397.831V29.62ZM414.251 28.62V44.22H416.251V28.62H414.251ZM415.251 43.22H397.831V45.22H415.251V43.22ZM396.831 44.22V72.69H398.831V44.22H396.831ZM396.831 72.69C396.831 75.7993 397.61 78.3629 399.295 80.2468L400.786 78.9132C399.525 77.5038 398.831 75.474 398.831 72.69H396.831ZM399.334 80.2871C401.126 82.08 403.574 82.92 406.541 82.92V80.92C403.961 80.92 402.075 80.2 400.748 78.8729L399.334 80.2871ZM406.541 82.92C409.938 82.92 412.89 81.9975 415.34 80.1126L414.121 78.5274C412.065 80.1092 409.556 80.92 406.541 80.92V82.92ZM413.796 79.6767L419.256 93.9767L421.125 93.2633L415.665 78.9633L413.796 79.6767ZM538.851 27.06H539.851V26.06H538.851V27.06ZM538.851 97V98H539.851V97H538.851ZM519.611 97H518.611V98H519.611V97ZM519.611 88.68H520.611V86.0428L518.863 88.017L519.611 88.68ZM509.991 95.7L510.377 96.6224L510.386 96.6187L510.395 96.6147L509.991 95.7ZM476.061 90.11L476.763 89.3972L476.763 89.3972L476.061 90.11ZM468.001 27.06V26.06H467.001V27.06H468.001ZM488.281 27.06H489.281V26.06H488.281V27.06ZM514.151 75.81L514.878 76.4967L514.888 76.4866L514.151 75.81ZM518.571 27.06V26.06H517.571V27.06H518.571ZM537.851 27.06V97H539.851V27.06H537.851ZM538.851 96H519.611V98H538.851V96ZM520.611 97V88.68H518.611V97H520.611ZM518.863 88.017C516.272 90.942 513.183 93.1965 509.587 94.7853L510.395 96.6147C514.253 94.9102 517.577 92.4847 520.36 89.343L518.863 88.017ZM509.605 94.7776C506.009 96.2827 502.112 97.04 497.901 97.04V99.04C502.357 99.04 506.52 98.2373 510.377 96.6224L509.605 94.7776ZM497.901 97.04C488.916 97.04 481.909 94.4611 476.763 89.3972L475.36 90.8228C480.96 96.3323 488.513 99.04 497.901 99.04V97.04ZM476.763 89.3972C471.644 84.3607 469.001 76.8161 469.001 66.58H467.001C467.001 77.1439 469.732 85.2859 475.36 90.8228L476.763 89.3972ZM469.001 66.58V27.06H467.001V66.58H469.001ZM468.001 28.06H488.281V26.06H468.001V28.06ZM487.281 27.06V63.59H489.281V27.06H487.281ZM487.281 63.59C487.281 69.3387 488.483 73.8366 491.057 76.9075C493.661 80.0122 497.523 81.49 502.451 81.49V79.49C497.933 79.49 494.71 78.1511 492.59 75.6225C490.442 73.0601 489.281 69.1079 489.281 63.59H487.281ZM502.451 81.49C507.54 81.49 511.717 79.8437 514.878 76.4966L513.424 75.1234C510.692 78.0163 507.069 79.49 502.451 79.49V81.49ZM514.888 76.4866C518.065 73.029 519.571 68.0228 519.571 61.64H517.571C517.571 67.7372 516.131 72.1776 513.415 75.1334L514.888 76.4866ZM519.571 61.64V27.06H517.571V61.64H519.571ZM518.571 28.06H538.851V26.06H518.571V28.06ZM564.139 95.96L563.883 96.9265L563.89 96.9284L563.897 96.9301L564.139 95.96ZM550.879 90.5L549.972 90.0789L549.609 90.8613L550.33 91.3354L550.879 90.5ZM557.639 75.94L558.178 75.0973L557.214 74.4816L556.732 75.5189L557.639 75.94ZM568.949 80.88L568.667 81.8394L568.676 81.8419L568.685 81.8443L568.949 80.88ZM591.309 72.04L590.962 72.9777L590.962 72.9777L591.309 72.04ZM580.519 69.83L580.369 70.8187L580.382 70.8207L580.395 70.8223L580.519 69.83ZM566.349 66.84L566.639 65.8828L566.639 65.8828L566.349 66.84ZM556.599 60.86L555.87 61.5447L555.876 61.5505L555.881 61.5561L556.599 60.86ZM556.339 36.94L555.539 36.34L555.537 36.3433L556.339 36.94ZM567.519 28.88L567.159 27.9471L567.154 27.9492L567.519 28.88ZM599.629 27.71L599.403 28.6841L599.413 28.6864L599.423 28.6885L599.629 27.71ZM611.849 32.13L612.755 32.5542L613.139 31.7336L612.36 31.2705L611.849 32.13ZM605.089 46.56L604.598 47.4312L605.538 47.9603L605.995 46.9842L605.089 46.56ZM575.189 43.18L574.701 42.3075L574.701 42.3075L575.189 43.18ZM575.449 52.41L575.797 51.4722L575.797 51.4722L575.449 52.41ZM586.629 54.88L586.794 53.8935L586.78 53.8914L586.629 54.88ZM600.669 58L600.374 58.9553L600.384 58.9585L600.395 58.9615L600.669 58ZM610.159 63.85L609.43 64.5347L609.43 64.5347L610.159 63.85ZM610.289 87.38L611.082 87.9897L611.082 87.9897L610.289 87.38ZM598.849 95.31L599.195 96.2484L599.204 96.245L598.849 95.31ZM581.169 97.04C575.443 97.04 569.848 96.3564 564.382 94.9899L563.897 96.9301C569.524 98.3369 575.282 99.04 581.169 99.04V97.04ZM564.396 94.9935C558.91 93.5364 554.601 91.7518 551.429 89.6646L550.33 91.3354C553.744 93.5816 558.275 95.4369 563.883 96.9265L564.396 94.9935ZM551.786 90.9211L558.546 76.3611L556.732 75.5189L549.972 90.0789L551.786 90.9211ZM557.101 76.7827C560.317 78.8374 564.178 80.519 568.667 81.8394L569.231 79.9206C564.881 78.641 561.202 77.0292 558.178 75.0973L557.101 76.7827ZM568.685 81.8443C573.184 83.0795 577.606 83.7 581.949 83.7V81.7C577.799 81.7 573.555 81.1072 569.214 79.9157L568.685 81.8443ZM581.949 83.7C586.29 83.7 589.693 83.1682 592.045 82.0037C593.236 81.4146 594.19 80.6473 594.844 79.6755C595.503 78.6968 595.819 77.5687 595.819 76.33H593.819C593.819 77.2146 593.599 77.9444 593.185 78.5583C592.768 79.1789 592.113 79.7388 591.158 80.2113C589.221 81.1701 586.189 81.7 581.949 81.7V83.7ZM595.819 76.33C595.819 75.122 595.459 74.0375 594.716 73.1293C593.985 72.2366 592.937 71.5765 591.657 71.1023L590.962 72.9777C592.022 73.3702 592.728 73.8584 593.168 74.3957C593.595 74.9175 593.819 75.5446 593.819 76.33H595.819ZM591.657 71.1023C589.205 70.1942 585.515 69.4467 580.643 68.8377L580.395 70.8223C585.23 71.4267 588.734 72.1524 590.962 72.9777L591.657 71.1023ZM580.669 68.8413C574.976 67.9787 570.303 66.9907 566.639 65.8828L566.06 67.7972C569.848 68.9426 574.623 69.948 580.369 70.8187L580.669 68.8413ZM566.639 65.8828C563.079 64.8065 559.975 62.9048 557.317 60.1639L555.881 61.5561C558.77 64.5352 562.167 66.6202 566.06 67.7972L566.639 65.8828ZM557.328 60.1753C554.869 57.5574 553.569 53.7623 553.569 48.64H551.569C551.569 54.091 552.956 58.4426 555.87 61.5447L557.328 60.1753ZM553.569 48.64C553.569 44.4236 554.763 40.7353 557.142 37.5367L555.537 36.3433C552.889 39.9047 551.569 44.0164 551.569 48.64H553.569ZM557.139 37.54C559.607 34.2494 563.169 31.6635 567.885 29.8107L567.154 27.9492C562.163 29.9099 558.271 32.6972 555.539 36.34L557.139 37.54ZM567.879 29.8129C572.679 27.9605 578.358 27.02 584.939 27.02V25.02C578.174 25.02 572.24 25.9862 567.159 27.9471L567.879 29.8129ZM584.939 27.02C589.803 27.02 594.623 27.5745 599.403 28.6841L599.855 26.7359C594.929 25.5922 589.956 25.02 584.939 25.02V27.02ZM599.423 28.6885C604.291 29.7134 608.253 31.1549 611.338 32.9895L612.36 31.2705C609.032 29.2917 604.847 27.7866 599.835 26.7314L599.423 28.6885ZM610.944 31.7058L604.184 46.1358L605.995 46.9842L612.755 32.5542L610.944 31.7058ZM605.58 45.6888C599.272 42.135 592.386 40.36 584.939 40.36V42.36C592.053 42.36 598.6 44.0517 604.598 47.4312L605.58 45.6888ZM584.939 40.36C580.545 40.36 577.09 40.9694 574.701 42.3075L575.678 44.0525C577.622 42.9639 580.667 42.36 584.939 42.36V40.36ZM574.701 42.3075C572.329 43.6359 570.939 45.4805 570.939 47.86H572.939C572.939 46.4261 573.717 45.1507 575.678 44.0525L574.701 42.3075ZM570.939 47.86C570.939 49.1339 571.288 50.2773 572.025 51.2333C572.754 52.1788 573.808 52.8686 575.102 53.3477L575.797 51.4722C574.75 51.0847 574.049 50.5828 573.609 50.0117C573.176 49.451 572.939 48.7528 572.939 47.86H570.939ZM575.102 53.3477C577.543 54.2517 581.354 55.0868 586.479 55.8686L586.78 53.8914C581.678 53.1132 578.036 52.3017 575.797 51.4722L575.102 53.3477ZM586.465 55.8664C592.161 56.8157 596.793 57.8469 600.374 58.9553L600.965 57.0447C597.266 55.8998 592.538 54.8509 586.794 53.8936L586.465 55.8664ZM600.395 58.9615C603.854 59.9501 606.863 61.8012 609.43 64.5347L610.888 63.1653C608.083 60.1788 604.764 58.1299 600.944 57.0385L600.395 58.9615ZM609.43 64.5347C611.895 67.1584 613.189 70.8715 613.189 75.81H615.189C615.189 70.5218 613.797 66.2616 610.888 63.1653L609.43 64.5347ZM613.189 75.81C613.189 79.9266 611.96 83.5681 609.497 86.7703L611.082 87.9897C613.819 84.4319 615.189 80.36 615.189 75.81H613.189ZM609.497 86.7703C607.036 89.9695 603.393 92.5171 598.495 94.375L599.204 96.245C604.359 94.2896 608.343 91.5505 611.082 87.9897L609.497 86.7703ZM598.504 94.3717C593.702 96.1407 587.932 97.04 581.169 97.04V99.04C588.1 99.04 594.117 98.1193 599.195 96.2483L598.504 94.3717Z" fill="#9945FF"/>
</svg>
