<svg width="15" height="28" viewBox="0 0 15 28" fill="none" xmlns="http://www.w3.org/2000/svg">
<path d="M8.32629 27.5365L13.9151 22.015C14.458 21.4471 14.458 20.5321 13.8831 19.9957C13.3083 19.4593 12.4141 19.4593 11.8712 19.9957L8.7734 23.0562L8.7734 1.4198C8.7734 0.631024 8.10274 -2.6998e-07 7.30434 -3.04659e-07C6.50595 -3.39338e-07 5.86723 0.631024 5.86723 1.4198L5.86723 23.0562L2.76944 19.9957C2.19459 19.4593 1.26845 19.4593 0.725542 20.0273C0.182632 20.5952 0.182632 21.4786 0.725542 22.015L6.31433 27.5365C6.85724 28.1044 7.75145 28.1675 8.32629 27.6311C8.32629 27.5996 8.35823 27.5996 8.32629 27.5365Z" fill="white"/>
</svg>
