<svg width="1220" height="1457" viewBox="0 0 1220 1457" fill="none" xmlns="http://www.w3.org/2000/svg">
<g filter="url(#filter0_f_234_3)">
<ellipse cx="500.288" cy="728.72" rx="277.333" ry="286.225" fill="#02FE85"/>
</g>
<g opacity="0.5">
<mask id="mask0_234_3" style="mask-type:alpha" maskUnits="userSpaceOnUse" x="64" y="318" width="884" height="875">
<path fill-rule="evenodd" clip-rule="evenodd" d="M802.752 681.533C810.836 669.283 811.676 651.483 804.957 636.092C797.397 617.559 772.933 603.11 753.509 599.655L753.719 599.445L750.254 599.131C748.154 598.922 746.474 598.817 744.165 598.817C732.195 598.817 721.486 603.633 714.241 612.429C707.626 620.386 704.791 630.542 706.681 640.175C708.886 651.693 716.656 661.325 727.68 666.037L729.15 666.665L729.562 666.847C733.909 668.76 737.789 670.467 742.065 674.832C752.144 685.303 763.589 694.936 778.393 694.936C788.367 695.04 797.082 690.224 802.752 681.533ZM730.095 660.278C721.171 656.404 714.556 648.237 712.771 638.919C711.091 629.809 714.136 620.91 721.381 613.894C727.47 608.031 735.135 604.995 744.27 604.995C765.794 604.995 788.367 621.328 794.877 630.542C796.557 632.951 798.027 635.673 799.182 638.395C805.167 652.74 804.642 667.503 797.712 677.869C793.092 684.884 786.163 688.653 778.183 688.653C769.678 688.653 760.544 684.151 751.829 675.565C749.939 673.785 748.469 672.319 747.314 671.063L747.222 670.973C742.984 666.849 741.145 665.06 730.095 660.278Z" fill="url(#paint0_linear_234_3)"/>
<path fill-rule="evenodd" clip-rule="evenodd" d="M780.598 594.419C816.191 618.816 823.541 655.462 818.606 681.638C813.881 706.662 797.817 725.928 777.763 730.64C774.718 731.373 771.463 731.687 767.998 731.687C762.644 731.687 757.184 730.954 751.934 730.116L749.834 729.802C749.614 729.747 749.364 729.721 749.101 729.694C748.863 729.669 748.613 729.642 748.364 729.593L748.231 729.574C740.682 728.529 730.241 727.084 719.386 710.013C717.59 707.246 716.112 704.732 714.753 702.421L714.752 702.419L714.747 702.41C714.36 701.752 713.983 701.111 713.611 700.485C708.903 691.912 707.089 690.004 705.25 688.071L705.106 687.92C704.056 686.873 703.006 685.826 701.642 683.942C695.027 674.832 686.837 670.33 678.858 666.037L678.623 665.909C672.199 662.396 666.095 659.059 661.323 653.473C649.879 640.175 649.984 624.365 661.848 606.565C675.183 586.462 696.497 575.363 722.011 575.363C741.855 575.363 762.644 582.169 780.598 594.419ZM749.624 723.625C750.779 723.729 751.829 723.834 752.984 724.043L754.559 724.253C758.129 724.776 761.699 725.3 765.269 725.405L766.529 725.405C781.543 725.405 794.667 717.866 803.382 704.045C816.401 683.523 817.241 654.415 805.482 629.809C794.457 607.089 762.539 585.834 734.505 582.378C730.305 581.855 726.21 581.646 722.326 581.646C698.177 581.646 679.593 591.174 667.203 610.02C656.809 625.621 656.494 638.186 666.153 649.389C670.123 654.059 675.573 657.055 681.451 660.287L682.007 660.593C705.134 673.163 713.687 687.897 720.588 699.785L720.751 700.066C726.42 710.013 731.04 717.866 741.855 722.159C743.951 722.977 746.286 723.243 748.583 723.504C748.798 723.528 749.013 723.553 749.227 723.578L749.447 723.604L749.624 723.625Z" fill="url(#paint1_linear_234_3)"/>
<path fill-rule="evenodd" clip-rule="evenodd" d="M821.546 720.274C834.04 691.376 834.25 656.509 822.071 627.087C814.196 608.659 798.027 590.127 777.553 576.306C761.174 565.312 734.61 552.119 700.696 552.119C690.827 552.119 680.852 553.271 671.088 555.574C646.309 561.542 627.2 574.84 612.711 596.304C598.641 616.826 595.701 634.626 603.891 649.18C612.501 664.676 626.255 670.121 638.434 674.937L638.959 675.146C663.633 684.989 668.043 690.119 678.542 704.883C680.432 707.605 681.692 709.804 682.637 712.421C683.267 714.097 683.897 715.772 684.632 717.447L686.522 722.159C694.817 745.194 706.891 769.171 732.825 771.579C733.56 771.684 734.19 771.684 735.03 771.684C737.025 771.684 738.915 771.474 740.805 771.265C740.982 771.249 741.156 771.233 741.329 771.217L742.485 771.108C742.818 771.076 743.151 771.045 743.49 771.013C743.711 770.992 743.936 770.972 744.164 770.951C746.999 770.742 749.519 770.637 752.039 770.637C760.019 770.427 766.843 770.218 776.713 766.449C795.927 758.91 811.886 742.576 821.546 720.274ZM752.826 764.248C752.091 764.275 751.369 764.301 750.674 764.355L750.673 764.355C749.203 764.459 747.734 764.564 746.264 764.773C743.22 765.087 740.174 765.402 736.92 765.402C730.41 765.402 721.696 764.25 712.561 755.769C702.796 746.45 698.282 735.037 693.557 722.892L693.421 722.548C687.269 707.054 680.927 691.08 662.583 679.439C655.717 675.045 648.751 672.246 641.88 669.486L641.374 669.283C633.185 666.037 625.31 662.896 619.01 657.556C610.401 650.332 605.571 640.908 605.676 631.59C605.991 614.523 619.85 594.21 633.5 581.646C650.509 566.149 673.293 558.296 701.221 558.296C706.156 558.296 711.196 558.506 716.446 559.029C756.764 562.903 801.597 594.524 816.401 629.495C829.106 660.174 827.531 696.925 812.306 725.3C801.282 745.822 784.693 759.224 765.479 763.098C762.528 763.722 759.502 763.891 756.53 764.056L756.526 764.057L756.517 764.057C756.002 764.086 755.489 764.114 754.979 764.145C754.258 764.197 753.536 764.223 752.827 764.248L752.826 764.248Z" fill="url(#paint2_linear_234_3)"/>
<path fill-rule="evenodd" clip-rule="evenodd" d="M796.977 576.201C768.524 549.606 732.615 532.539 698.597 529.398C692.612 528.874 686.627 528.665 680.748 528.665L679.593 528.665C654.499 528.665 632.24 533.272 613.341 542.277C593.497 551.805 576.697 566.463 563.363 585.938C544.359 613.266 540.684 636.301 552.443 654.52C564.325 673.332 580.966 678.732 598.566 684.443L598.956 684.57C617.96 690.643 637.49 697.03 652.084 721.112C653.974 724.358 657.439 730.43 658.384 735.247C660.379 745.822 663.423 758.91 674.343 780.479C680.748 793.567 690.407 802.99 702.377 807.807C708.991 810.424 716.656 811.786 724.951 811.786C730.095 811.786 735.555 811.262 741.435 810.32C771.883 804.98 800.127 786.238 818.711 758.596C838.24 729.697 846.01 693.784 840.76 657.347C839.29 646.876 836.665 636.615 832.886 626.773C825.956 609.183 813.462 591.697 796.977 576.201ZM724.846 805.713C703.847 805.713 689.567 796.813 680.013 777.861C669.513 757.025 666.573 744.356 664.578 734.2C663.003 725.719 652.504 703.94 630.56 690.852C620.9 685.093 610.821 681.848 601.056 678.706L600.702 678.591C590.228 675.179 580.276 671.937 571.763 665.828C559.163 656.823 551.918 644.468 552.023 631.799C552.128 609.392 570.818 582.274 589.402 565.312C611.871 544.999 642.529 534.738 680.433 534.738C686.207 534.738 692.087 534.947 698.072 535.471C729.99 538.088 765.269 554.841 792.462 580.284C808.422 595.257 820.391 612.115 827.006 628.972C830.576 638.395 833.201 648.237 834.566 658.184C846.01 736.713 794.562 795.033 740.385 804.038C734.82 805.294 729.57 805.713 724.846 805.713Z" fill="url(#paint3_linear_234_3)"/>
<path fill-rule="evenodd" clip-rule="evenodd" d="M634.445 758.596C633.185 752 630.875 745.822 627.41 740.063C608.826 708.338 583.732 701.323 559.478 694.622L559.432 694.609C545.904 690.844 533.111 687.284 521.365 679.754C503.306 668.341 492.491 650.646 492.281 632.427C492.281 615.36 499.421 596.828 514.225 575.782C537.849 541.439 567.458 520.917 607.461 511.284C624.05 507.41 642.109 505.316 659.539 505.316C685.157 505.316 709.411 509.714 729.675 517.985C746.475 524.686 762.434 533.482 777.133 544.161C798.447 559.553 815.561 577.143 828.161 596.409C841.705 617.245 850 640.28 852.73 664.676C855.25 686.559 853.99 708.442 848.74 729.907C843.805 749.905 835.72 768.648 824.381 785.819C813.776 802.048 800.547 816.183 784.903 827.701C762.854 844.244 735.03 854.086 710.566 854.086C683.687 854.086 663.948 841.417 651.979 816.288C639.056 789.162 636.581 772.662 634.594 759.414L634.55 759.119L634.445 758.596ZM710.776 847.699C717.916 847.699 725.685 846.652 733.875 844.768C808.737 823.408 856.089 747.916 846.64 665.2C845.275 652.844 842.335 640.594 838.03 628.867C815.666 569.29 744.795 516.938 680.013 512.227C673.083 511.703 666.153 511.494 659.539 511.494C611.871 511.494 573.547 524.163 545.514 549.292C522.1 570.652 498.476 604.576 498.581 632.322C498.581 648.133 508.45 663.838 524.83 674.414C535.737 681.421 548.112 684.877 561.221 688.537L561.263 688.549L562.785 688.986C574.708 692.405 587.069 695.951 598.851 702.579C619.745 714.411 636.965 737.027 640.639 757.549L640.849 758.91C642.739 771.579 645.154 787.39 657.649 813.461C668.463 836.182 686.312 847.699 710.776 847.699Z" fill="url(#paint4_linear_234_3)"/>
<path fill-rule="evenodd" clip-rule="evenodd" d="M519.749 704.61C504.393 700.756 488.53 696.774 474.537 688.339C452.593 675.461 438.943 654.101 438.734 632.741C438.628 612.638 447.238 590.545 464.982 565.416C494.696 523.43 527.769 500.604 575.647 489.087C596.016 484.27 617.015 481.862 638.014 481.862L639.799 481.862C666.678 481.967 689.462 484.375 719.911 496.416C781.438 521.022 856.299 581.646 864.594 671.587C869.319 720.798 857.139 770.742 830.471 812.309C813.566 838.799 791.202 860.683 765.584 875.551C742.905 888.743 718.441 896.073 696.602 896.073C686.627 896.073 677.493 894.607 669.513 891.57C652.084 884.974 638.644 871.572 629.51 851.678C615.008 820.38 612.667 800.902 610.792 785.304L610.716 784.667C609.666 775.663 607.881 767.915 602.631 758.805C580.162 719.646 549.608 712.002 520 704.673L519.749 704.61ZM445.033 632.741C445.138 652.007 457.423 670.749 477.792 682.999C491.126 691.062 505.93 694.726 521.575 698.496C536.799 702.265 552.443 706.139 567.248 714.306C593.076 728.441 613.34 755.874 616.595 780.898L616.805 782.783L616.844 783.1C618.829 799.567 621.096 818.369 635.179 848.956C639.274 858.17 644.944 866.337 652.189 873.247C663.633 884.032 679.382 889.686 697.652 889.686C733.14 889.686 774.613 868.431 805.797 834.192C845.485 790.635 864.174 733.048 858.294 672.11C848.95 571.489 747.104 494.741 661.533 488.877C654.289 488.354 647.044 488.145 639.904 488.145C599.796 488.145 543.099 495.997 501.416 533.167C478.632 553.48 444.718 596.828 445.033 632.741Z" fill="url(#paint5_linear_234_3)"/>
<path fill-rule="evenodd" clip-rule="evenodd" d="M577.957 777.547C582.682 786.028 585.517 795.242 586.462 804.875C586.514 805.608 586.593 806.341 586.672 807.074C586.75 807.807 586.829 808.54 586.882 809.273C588.562 827.701 590.767 850.736 607.146 887.173C617.54 910.312 632.975 925.809 653.134 933.347C662.163 936.698 672.243 938.478 682.952 938.478C728.415 938.478 793.617 907.695 836.665 838.904C851.26 815.764 862.179 790.635 869.004 764.145C892.313 674.309 862.809 608.345 834.04 568.872C810.941 537.356 779.443 510.132 742.695 490.134C709.411 472.02 673.923 461.026 642.634 459.246L641.479 459.141C634.025 458.723 626.57 458.513 619.325 458.513C571.132 458.513 503.096 467.832 453.118 512.331C440.204 523.849 427.919 537.879 415.53 555.155C394.741 584.368 384.766 609.916 385.081 633.16C385.186 646.458 389.596 659.127 398.1 670.854C420.254 700.904 449.233 707.5 479.787 714.411L479.802 714.414C515.181 722.475 551.502 730.751 577.957 777.547ZM391.486 633.16C391.276 611.277 400.83 586.985 420.779 558.82C432.854 541.858 444.823 528.246 457.423 517.043C505.93 473.905 572.287 464.795 619.43 464.795C627.305 464.795 635.285 465.005 643.369 465.528C732.72 471.182 829.631 544.266 859.554 628.448C879.608 685.512 874.149 752.523 844.435 812.414C817.031 867.802 771.778 909.161 720.436 925.913C706.891 930.206 694.187 932.3 682.532 932.3L682.427 932.3C662.688 932.3 645.994 926.018 632.87 913.768C624.89 906.334 618.065 896.491 612.816 884.555C596.856 849.06 594.756 826.758 593.076 808.749C593.024 807.964 592.945 807.205 592.866 806.446C592.788 805.687 592.709 804.927 592.656 804.142C590.662 783.62 578.377 761.213 558.953 742.576C535.442 720.595 508.258 714.415 482.017 708.448L481.992 708.442L481.268 708.277C463.268 704.151 446.297 700.261 430.859 691.376C406.5 677.659 391.696 655.776 391.486 633.16Z" fill="url(#paint6_linear_234_3)"/>
<path fill-rule="evenodd" clip-rule="evenodd" d="M335.943 656.3C333.318 649.075 331.848 641.327 331.744 633.579C331.533 618.92 334.998 603.11 341.928 586.462C347.598 573.374 355.577 559.762 366.182 544.894C380.356 525.105 394.321 509.19 409.02 496.102C465.927 445.635 543.519 435.059 598.641 435.059C607.356 435.164 616.386 435.374 625.31 435.897C660.483 437.991 700.382 450.346 737.76 470.868C778.918 493.485 814.406 524.268 840.235 559.867C872.784 604.681 905.857 679.439 878.978 781.212C871.209 811.053 858.924 839.323 842.65 865.499C821.126 900.366 792.777 929.683 760.649 950.31C731.88 968.842 701.012 979.627 673.713 980.674C672.033 980.778 670.458 980.778 668.779 980.778C657.859 980.778 647.044 978.894 636.65 975.229C625.415 970.936 614.915 964.235 606.516 955.649C597.801 946.75 590.452 935.651 584.677 922.563C566.513 881.309 564.518 855.447 562.943 834.716C562.842 833.606 562.765 832.521 562.689 831.448C562.607 830.294 562.527 829.154 562.418 828.015C561.368 815.869 558.428 805.713 553.178 796.289C522.835 741.843 480.837 732.943 440.204 724.358L440.063 724.328C405.256 716.905 372.237 709.863 346.758 676.194C342.243 670.121 338.568 663.42 335.943 656.3ZM337.938 633.579C338.358 659.65 355.472 684.465 383.926 700.066C401.985 710.013 421.619 714.096 442.408 718.389C472.647 724.776 503.831 731.373 530.814 756.606C541.419 766.553 550.553 778.594 558.743 793.253C567.353 808.749 568.403 822.361 569.138 832.308L569.243 833.983L569.266 834.284C570.836 854.65 572.795 880.041 590.452 920.05C606.096 955.649 633.395 974.496 669.198 974.496C683.162 974.496 698.387 971.669 714.556 966.12C837.505 923.505 914.677 756.188 870.264 628.134C832.676 519.975 713.716 447.415 625.1 442.075C616.386 441.551 607.566 441.342 599.061 441.342C544.989 441.342 468.867 451.603 413.43 500.814C399.045 513.588 385.396 529.189 371.537 548.559C348.543 580.808 337.623 608.555 337.938 633.579Z" fill="url(#paint7_linear_234_3)"/>
<path fill-rule="evenodd" clip-rule="evenodd" d="M539.004 859.636C538.899 856.704 538.689 853.982 538.479 851.259C537.429 836.915 534.384 825.816 528.4 815.031C494.066 752.942 446.608 743.414 400.62 734.304L400.239 734.228C361.112 726.404 324.09 719.001 295.205 681.533C290.06 674.728 285.966 667.294 282.921 659.336C279.876 651.169 278.196 642.583 278.091 633.893C277.776 617.454 281.766 599.655 289.85 581.122C296.15 566.463 305.075 551.281 317.044 534.529C333.003 512.331 348.648 494.427 365.132 479.873C428.864 423.437 516.22 411.606 578.272 411.606L578.587 411.606C587.932 411.606 597.486 411.92 607.146 412.443C660.693 415.48 720.961 439.038 772.303 477.046C783.958 485.632 795.192 494.95 805.797 504.793C844.015 540.392 872.049 582.274 887.063 625.935C904.597 677.136 905.437 738.283 889.268 798.384C880.448 831.365 866.904 862.986 848.95 892.094C832.046 919.736 811.152 944.655 786.793 966.015C762.854 986.851 737.025 1002.56 710.251 1012.4C693.347 1018.68 677.178 1022.24 662.058 1022.97C659.853 1023.08 657.649 1023.18 655.444 1023.18C643.369 1023.18 631.61 1021.09 620.27 1017.11C607.566 1012.5 595.911 1004.86 586.462 995.228C576.697 985.281 568.613 972.821 562.208 958.162C542.307 912.098 540.483 883.123 539.015 859.803L539.004 859.636ZM606.831 418.726C597.276 418.202 587.617 417.888 578.272 417.888C517.375 417.888 431.699 429.51 369.437 484.689C353.373 498.929 337.938 516.415 322.294 538.298C296.36 574.63 283.971 605.937 284.391 633.998C284.916 663.42 304.55 691.376 336.993 708.652C357.244 719.374 379.154 723.783 402.416 728.463L403.137 728.608C449.974 738.012 498.45 747.745 533.964 812.204C543.406 829.258 544.357 844.429 545.197 857.824L545.199 857.856L545.304 859.426L545.317 859.633C546.785 882.319 548.618 910.659 568.088 955.649C585.412 995.646 615.861 1016.8 656.179 1016.8C672.243 1016.8 689.777 1013.34 708.151 1006.54C820.286 965.178 901.867 827.387 893.888 692.842C890.003 625.517 858.189 562.171 802.122 509.714C746.055 457.257 671.193 422.39 606.831 418.726Z" fill="url(#paint8_linear_234_3)"/>
<path fill-rule="evenodd" clip-rule="evenodd" d="M514.54 874.503C513.805 862.777 511.915 848.746 503.83 833.983C465.507 764.145 411.96 753.989 359.987 744.251L359.673 744.192C316.216 735.942 275.076 728.133 243.757 687.083C237.983 679.649 233.363 671.377 230.003 662.582C226.538 653.473 224.753 644.049 224.543 634.416C224.228 616.198 228.533 596.513 237.563 575.991C244.597 559.762 254.572 542.905 267.801 524.372C285.546 499.767 302.975 479.978 321.139 463.853C354.737 434.117 397.575 412.757 448.288 400.507C481.992 392.34 518.845 388.257 557.903 388.257C600.636 388.257 634.445 391.921 681.062 410.245C713.191 422.914 743.43 439.771 771.148 460.293C783.853 469.612 796.137 479.768 807.687 490.553C850.21 530.236 881.393 576.934 897.877 625.726C916.987 681.638 917.512 748.963 899.452 815.346C889.793 851.678 874.883 886.44 855.249 918.584C836.77 949.158 813.986 976.695 787.422 1000.57C761.279 1023.92 733.14 1041.51 703.951 1052.81C685.157 1060.04 667.203 1064.23 650.299 1065.27L649.995 1065.29C647.374 1065.39 644.846 1065.48 642.319 1065.48C628.67 1065.48 615.755 1063.29 603.891 1058.99C589.822 1053.86 576.907 1045.38 566.513 1034.7C555.803 1023.71 546.773 1009.89 539.844 993.657C518.142 942.777 516.45 910.716 515.091 884.937L515.065 884.45C514.96 881.414 514.75 877.854 514.54 874.503ZM290.06 717.238C312.739 728.964 337.308 733.676 363.242 738.597L363.254 738.599C415.643 748.546 469.71 758.811 509.185 831.156C519.58 849.898 520.42 866.965 521.155 882.042L521.26 883.927C522.52 909.37 524.2 941.095 545.619 991.354C552.968 1008.53 562.628 1022.76 574.282 1033.65C592.656 1050.72 615.44 1059.41 642.319 1059.41C660.798 1059.41 680.747 1055.22 701.851 1047.06C823.856 999.73 913.417 847.176 905.857 699.752C902.077 625.726 865.959 553.166 804.117 495.369C742.275 437.572 659.643 399.251 588.667 395.376C578.482 394.853 568.298 394.539 558.323 394.539C490.181 394.539 394.636 407.417 325.339 468.67C307.49 484.375 290.375 503.85 272.946 528.142C244.072 568.453 230.318 603.215 230.843 634.416C231.578 673.157 261.922 702.579 290.06 717.238Z" fill="url(#paint9_linear_234_3)"/>
<path fill-rule="evenodd" clip-rule="evenodd" d="M788.158 1035.33C816.926 1009.05 841.705 978.789 861.654 945.284C882.968 910.103 899.137 872.2 909.847 832.517C926.016 772.94 929.166 716.295 918.982 664.362C909.322 614.837 887.273 567.72 853.57 524.268C840.235 507.201 825.431 491.076 809.682 476.208C783.223 451.498 753.614 430.034 722.011 412.339C705.841 403.334 688.832 395.377 671.613 388.571C655.129 382.079 638.014 376.739 620.69 372.76C605.571 369.305 590.137 366.897 574.702 365.85L570.818 365.64C559.898 365.117 548.979 364.803 538.269 364.803L537.954 364.803C523.045 364.803 508.345 365.326 494.171 366.373C468.132 368.258 442.093 372.237 416.685 378.31C361.037 391.712 314.209 415.061 277.356 447.624C257.407 465.214 238.298 486.993 218.769 514.111C204.174 534.424 193.255 552.956 185.485 570.756C175.616 593.268 170.786 614.837 171.206 634.835C171.416 645.41 173.516 655.776 177.296 665.618C181.075 675.251 186.22 684.256 192.52 692.423C204.594 708.024 221.184 721.426 240.398 731.268C265.98 744.388 294.365 749.534 321.94 754.534L322.471 754.63C378.831 764.887 437.072 775.486 479.157 852.725C487.871 868.745 489.866 883.822 490.601 897.643C490.811 901.412 491.021 905.182 491.126 909.161C492.281 937.536 493.751 972.926 517.48 1029.05C525.04 1046.85 534.804 1062.03 546.669 1074.17C558.113 1086.01 572.287 1095.22 587.722 1100.87C600.531 1105.48 614.39 1107.89 629.09 1107.89C632.24 1107.89 635.495 1107.78 638.749 1107.58C657.334 1106.32 677.178 1101.5 697.757 1093.13C729.465 1080.46 759.809 1060.98 788.158 1035.33ZM243.233 725.719C211.944 709.804 178.24 677.45 177.401 634.731C176.771 600.492 191.89 562.171 223.808 517.776C243.023 491.076 261.817 469.612 281.451 452.336C357.467 385.22 462.672 371.085 537.534 371.085C548.349 371.085 559.373 371.399 570.398 371.923C647.989 375.902 738.18 417.783 805.902 481.129C874.254 545.104 913.942 625.203 917.722 706.662C924.861 866.86 827.216 1034.18 695.447 1087.47C672.348 1096.79 650.194 1101.5 629.72 1101.5C600.111 1101.5 574.807 1091.87 554.543 1072.92C541.734 1060.98 531.234 1045.38 523.36 1026.74C501.731 975.648 498.791 942.98 497.426 908.637L497.321 907.171C496.586 889.057 495.746 870.315 484.616 849.793C441.148 769.904 381.406 759.015 323.659 748.544C295.205 743.414 268.221 738.493 243.233 725.719Z" fill="url(#paint10_linear_234_3)"/>
<path fill-rule="evenodd" clip-rule="evenodd" d="M788.893 1069.88C819.026 1042.14 845.695 1009.15 868.164 971.879C891.053 933.766 908.587 892.617 920.242 849.689C932.316 805.294 937.566 759.329 935.781 713.364C934.416 678.078 926.961 642.898 913.627 608.973C900.817 576.306 882.653 544.685 859.554 514.844C844.96 496.102 828.791 478.302 811.362 462.073C782.698 435.269 750.779 412.129 716.446 392.968C698.912 383.231 680.433 374.54 661.743 367.106C643.789 360.091 625.205 354.332 606.516 349.935C588.772 345.851 570.608 343.234 552.443 342.291C540.789 341.663 529.135 341.454 517.69 341.454L517.48 341.454C500.996 341.454 484.722 342.082 469.077 343.234C440.729 345.328 412.38 349.621 384.766 356.217C324.184 370.876 273.261 396.214 233.258 431.499C211.524 450.66 190.63 474.324 169.421 503.85C153.462 526.047 141.597 546.151 133.198 565.416C128.263 576.41 124.378 587.928 121.543 599.655C118.708 611.277 117.448 623.213 117.553 635.254C117.763 646.772 120.073 657.975 124.273 668.759C128.368 679.23 134.038 688.967 140.967 697.867C154.197 714.829 172.361 729.383 193.465 739.958C221.413 753.998 252.262 759.464 282.204 764.77L282.997 764.91C344.573 775.789 408.33 787.054 454.378 871.781C463.302 888.22 465.717 903.402 466.557 921.202C466.673 923.442 466.756 925.713 466.843 928.068C466.914 930.006 466.987 932 467.082 934.08L467.082 934.185C468.132 965.177 469.497 1003.71 495.116 1064.96C502.886 1083.6 512.965 1099.51 525.145 1112.39C536.799 1124.96 551.393 1135.01 567.248 1141.6C582.157 1147.68 598.536 1150.82 615.965 1150.82C618.8 1150.82 621.74 1150.71 624.575 1150.61C645.679 1149.46 668.253 1143.8 691.562 1134.07C725.58 1119.41 758.339 1097.94 788.893 1069.88ZM614.6 1144.12C599.061 1144.12 583.942 1141.19 569.558 1135.43C556.853 1130.19 545.304 1122.76 535.329 1113.33C521.155 1100.04 509.5 1082.87 500.891 1062.24C475.742 1002.15 474.437 964.281 473.388 933.843L473.382 933.661L473.382 933.347L473.361 932.777C472.531 910.194 471.812 890.652 459.943 868.64C412.413 781.274 347.375 769.815 284.419 758.724L284.286 758.7C253.207 753.256 223.808 748.021 196.3 734.304C161.861 717.028 124.798 681.952 123.853 635.149C123.118 597.77 139.707 555.993 174.566 507.515C195.565 478.302 216.144 454.953 237.458 436.211C320.404 363.128 435.269 347.736 517.165 347.736C528.61 347.736 540.474 348.05 552.128 348.574C636.23 352.762 734.19 398.099 807.687 466.89C857.559 513.483 894.098 568.976 913.627 627.297C922.971 655.148 928.326 684.256 929.586 713.573C936.726 889.476 833.305 1067.58 689.147 1127.89C663.423 1138.67 638.749 1144.12 615.86 1144.12L614.6 1144.12Z" fill="url(#paint11_linear_234_3)"/>
<path fill-rule="evenodd" clip-rule="evenodd" d="M71.4604 671.796C75.9752 683.104 82.0649 693.679 89.6246 703.207C104.009 721.53 123.748 737.131 146.637 748.439C160.391 755.245 175.931 760.69 194.2 765.192C210.247 769.167 227.028 771.992 243.181 774.712L243.233 774.72L243.378 774.745C310.425 786.15 379.657 797.927 429.599 890.419C441.719 912.925 442.298 933.047 443.028 958.419L443.038 958.79L443.041 958.87C443.985 992.362 445.16 1034.02 472.647 1100.25C481.047 1120.35 491.966 1137.73 504.986 1151.66C517.585 1165.27 533.439 1176.16 550.658 1183.28C566.618 1189.66 584.047 1192.91 602.526 1192.91C605.886 1192.91 609.351 1192.8 612.816 1192.6C635.704 1191.13 660.063 1184.95 685.262 1174.06C704.056 1165.9 722.221 1155.95 739.23 1144.54C756.974 1132.6 773.878 1119.09 789.522 1104.54C805.797 1089.36 821.126 1072.81 834.985 1055.43C849.37 1037.42 862.599 1018.26 874.464 998.578C898.927 957.325 917.722 913.035 930.321 866.86C943.445 819.115 949.325 769.799 947.75 720.274C945.02 642.898 914.887 566.254 860.394 498.72C845.905 480.711 829.946 463.539 813.041 447.729L804.852 440.19C785.008 422.495 763.694 406.161 741.33 391.607C719.596 377.472 696.602 364.908 672.978 354.332C650.404 344.176 626.885 335.8 602.841 329.622C580.372 323.759 557.273 320.199 534.069 318.942C521.68 318.314 509.29 318 497.111 318C479.052 318 461.203 318.628 444.088 319.989C413.535 322.188 382.876 327.005 352.953 334.02C287.541 349.83 232.418 377.158 189.265 415.27C165.851 435.897 143.172 461.55 120.178 493.589C102.959 517.566 90.0446 539.345 80.91 560.181C75.6602 572.117 71.3555 584.473 68.3105 597.142C65.2657 609.706 63.9007 622.69 64.0057 635.568C64.4257 648.028 66.8406 660.174 71.4604 671.796ZM601.266 1186.63C584.677 1186.63 568.508 1183.49 553.178 1177.41C539.319 1171.76 526.719 1163.7 515.905 1153.44C500.471 1138.99 487.976 1120.35 478.632 1097.84C451.543 1032.71 450.388 991.563 449.548 958.581C448.813 932.196 448.183 911.359 435.374 887.382C412.275 844.558 383.191 814.822 346.443 796.499C314.165 780.301 279.409 774.4 245.759 768.686L244.912 768.543L243.741 768.343C210.469 762.659 178.947 757.274 149.682 742.785C112.199 724.253 71.6704 686.35 70.6205 635.463C69.7805 594.943 87.7347 549.711 125.533 497.149C148.317 465.528 170.576 440.295 193.675 419.877C283.446 340.721 408.18 324.178 497.006 324.178C509.185 324.178 521.68 324.492 534.174 325.12C626.255 329.622 728.73 376.634 808.317 451.079C890.738 528.456 938.091 624.155 941.451 720.483C947.96 909.579 836.77 1102.13 682.742 1168.41C654.604 1180.45 627.62 1186.63 602.526 1186.63L601.266 1186.63Z" fill="url(#paint12_linear_234_3)"/>
</mask>
<g mask="url(#mask0_234_3)">
<g filter="url(#filter1_f_234_3)">
<circle cx="451.447" cy="747.975" r="448.658" transform="rotate(1.53507 451.447 747.975)" fill="#02FE85"/>
<circle cx="868.282" cy="788.473" r="109.416" transform="rotate(1.53507 868.282 788.473)" fill="#05EE76"/>
<circle cx="710.555" cy="576.857" r="170.145" transform="rotate(1.53507 710.555 576.857)" fill="#02DCB2"/>
<circle cx="470.744" cy="770.488" r="109.416" transform="rotate(1.53507 470.744 770.488)" fill="#02DCB2"/>
<circle cx="636.463" cy="683.803" r="109.416" transform="rotate(1.53507 636.463 683.803)" fill="#05EE76"/>
<circle cx="721.438" cy="796.06" r="109.416" transform="rotate(1.53507 721.438 796.06)" fill="#05EE76"/>
<circle cx="585.643" cy="860.503" r="109.416" transform="rotate(1.53507 585.643 860.503)" fill="black"/>
<circle cx="896.869" cy="620.605" r="109.416" transform="rotate(1.53507 896.869 620.605)" fill="black"/>
<circle cx="527.817" cy="595.003" r="109.416" transform="rotate(1.53507 527.817 595.003)" fill="black"/>
<circle cx="357.131" cy="612.977" r="116.222" transform="rotate(1.53507 357.131 612.977)" fill="black"/>
<circle cx="778.28" cy="961.504" r="116.222" transform="rotate(1.53507 778.28 961.504)" fill="black"/>
<circle cx="898.147" cy="1139.64" r="116.222" transform="rotate(1.53507 898.147 1139.64)" fill="black"/>
<circle cx="739.053" cy="1135.37" r="116.222" transform="rotate(1.53507 739.053 1135.37)" fill="#02FE85"/>
<circle cx="973.592" cy="513.205" r="116.222" transform="rotate(1.53507 973.592 513.205)" fill="black"/>
<circle cx="377.975" cy="968.583" r="156.009" transform="rotate(1.53507 377.975 968.583)" fill="black"/>
<circle cx="125.182" cy="552.295" r="156.009" transform="rotate(1.53507 125.182 552.295)" fill="black"/>
<circle cx="1024.98" cy="706.26" r="116.222" transform="rotate(1.53507 1024.98 706.26)" fill="black"/>
<circle cx="961.559" cy="962.226" r="116.222" transform="rotate(1.53507 961.559 962.226)" fill="black"/>
<circle cx="163.281" cy="537.605" r="163.339" transform="rotate(1.53507 163.281 537.605)" fill="black"/>
</g>
</g>
</g>
<defs>
<filter id="filter0_f_234_3" x="-219.045" y="0.494141" width="1438.67" height="1456.45" filterUnits="userSpaceOnUse" color-interpolation-filters="sRGB">
<feFlood flood-opacity="0" result="BackgroundImageFix"/>
<feBlend mode="normal" in="SourceGraphic" in2="BackgroundImageFix" result="shape"/>
<feGaussianBlur stdDeviation="221" result="effect1_foregroundBlur_234_3"/>
</filter>
<filter id="filter1_f_234_3" x="-230.828" y="99.3135" width="1572.03" height="1356.54" filterUnits="userSpaceOnUse" color-interpolation-filters="sRGB">
<feFlood flood-opacity="0" result="BackgroundImageFix"/>
<feBlend mode="normal" in="SourceGraphic" in2="BackgroundImageFix" result="shape"/>
<feGaussianBlur stdDeviation="100" result="effect1_foregroundBlur_234_3"/>
</filter>
<linearGradient id="paint0_linear_234_3" x1="990.771" y1="808.109" x2="278.05" y2="531.758" gradientUnits="userSpaceOnUse">
<stop stop-color="#FC5050"/>
<stop offset="0.56" stop-color="#7E4CA8"/>
<stop offset="1" stop-color="#0048FF"/>
</linearGradient>
<linearGradient id="paint1_linear_234_3" x1="990.771" y1="808.109" x2="278.05" y2="531.758" gradientUnits="userSpaceOnUse">
<stop stop-color="#FC5050"/>
<stop offset="0.56" stop-color="#7E4CA8"/>
<stop offset="1" stop-color="#0048FF"/>
</linearGradient>
<linearGradient id="paint2_linear_234_3" x1="990.771" y1="808.109" x2="278.05" y2="531.758" gradientUnits="userSpaceOnUse">
<stop stop-color="#FC5050"/>
<stop offset="0.56" stop-color="#7E4CA8"/>
<stop offset="1" stop-color="#0048FF"/>
</linearGradient>
<linearGradient id="paint3_linear_234_3" x1="990.771" y1="808.109" x2="278.05" y2="531.758" gradientUnits="userSpaceOnUse">
<stop stop-color="#FC5050"/>
<stop offset="0.56" stop-color="#7E4CA8"/>
<stop offset="1" stop-color="#0048FF"/>
</linearGradient>
<linearGradient id="paint4_linear_234_3" x1="990.771" y1="808.109" x2="278.05" y2="531.758" gradientUnits="userSpaceOnUse">
<stop stop-color="#FC5050"/>
<stop offset="0.56" stop-color="#7E4CA8"/>
<stop offset="1" stop-color="#0048FF"/>
</linearGradient>
<linearGradient id="paint5_linear_234_3" x1="990.771" y1="808.109" x2="278.05" y2="531.758" gradientUnits="userSpaceOnUse">
<stop stop-color="#FC5050"/>
<stop offset="0.56" stop-color="#7E4CA8"/>
<stop offset="1" stop-color="#0048FF"/>
</linearGradient>
<linearGradient id="paint6_linear_234_3" x1="990.771" y1="808.109" x2="278.05" y2="531.758" gradientUnits="userSpaceOnUse">
<stop stop-color="#FC5050"/>
<stop offset="0.56" stop-color="#7E4CA8"/>
<stop offset="1" stop-color="#0048FF"/>
</linearGradient>
<linearGradient id="paint7_linear_234_3" x1="990.771" y1="808.109" x2="278.05" y2="531.758" gradientUnits="userSpaceOnUse">
<stop stop-color="#FC5050"/>
<stop offset="0.56" stop-color="#7E4CA8"/>
<stop offset="1" stop-color="#0048FF"/>
</linearGradient>
<linearGradient id="paint8_linear_234_3" x1="990.771" y1="808.109" x2="278.05" y2="531.758" gradientUnits="userSpaceOnUse">
<stop stop-color="#FC5050"/>
<stop offset="0.56" stop-color="#7E4CA8"/>
<stop offset="1" stop-color="#0048FF"/>
</linearGradient>
<linearGradient id="paint9_linear_234_3" x1="990.771" y1="808.109" x2="278.05" y2="531.758" gradientUnits="userSpaceOnUse">
<stop stop-color="#FC5050"/>
<stop offset="0.56" stop-color="#7E4CA8"/>
<stop offset="1" stop-color="#0048FF"/>
</linearGradient>
<linearGradient id="paint10_linear_234_3" x1="990.771" y1="808.109" x2="278.05" y2="531.758" gradientUnits="userSpaceOnUse">
<stop stop-color="#FC5050"/>
<stop offset="0.56" stop-color="#7E4CA8"/>
<stop offset="1" stop-color="#0048FF"/>
</linearGradient>
<linearGradient id="paint11_linear_234_3" x1="990.771" y1="808.109" x2="278.05" y2="531.758" gradientUnits="userSpaceOnUse">
<stop stop-color="#FC5050"/>
<stop offset="0.56" stop-color="#7E4CA8"/>
<stop offset="1" stop-color="#0048FF"/>
</linearGradient>
<linearGradient id="paint12_linear_234_3" x1="990.771" y1="808.109" x2="278.05" y2="531.758" gradientUnits="userSpaceOnUse">
<stop stop-color="#FC5050"/>
<stop offset="0.56" stop-color="#7E4CA8"/>
<stop offset="1" stop-color="#0048FF"/>
</linearGradient>
</defs>
</svg>
