<svg width="143" height="58" viewBox="0 0 143 58" fill="none" xmlns="http://www.w3.org/2000/svg">
<path d="M41.48 28.12H53.32V50.84C50.28 53.1333 46.76 54.8933 42.76 56.12C38.76 57.3467 34.7333 57.96 30.68 57.96C24.8667 57.96 19.64 56.7333 15 54.28C10.36 51.7733 6.70667 48.3333 4.04 43.96C1.42667 39.5333 0.12 34.5467 0.12 29C0.12 23.4533 1.42667 18.4933 4.04 14.12C6.70667 9.69333 10.3867 6.25333 15.08 3.8C19.7733 1.29333 25.0533 0.039999 30.92 0.039999C35.8267 0.039999 40.28 0.866665 44.28 2.52C48.28 4.17333 51.64 6.57333 54.36 9.72L46.04 17.4C42.04 13.1867 37.2133 11.08 31.56 11.08C27.9867 11.08 24.8133 11.8267 22.04 13.32C19.2667 14.8133 17.1067 16.92 15.56 19.64C14.0133 22.36 13.24 25.48 13.24 29C13.24 32.4667 14.0133 35.56 15.56 38.28C17.1067 41 19.24 43.1333 21.96 44.68C24.7333 46.1733 27.88 46.92 31.4 46.92C35.1333 46.92 38.4933 46.12 41.48 44.52V28.12ZM106.639 35.64C106.639 35.8 106.559 36.92 106.399 39H73.8388C74.4254 41.6667 75.8121 43.7733 77.9988 45.32C80.1854 46.8667 82.9054 47.64 86.1588 47.64C88.3988 47.64 90.3721 47.32 92.0788 46.68C93.8388 45.9867 95.4654 44.92 96.9588 43.48L103.599 50.68C99.5454 55.32 93.6254 57.64 85.8388 57.64C80.9854 57.64 76.6921 56.7067 72.9588 54.84C69.2254 52.92 66.3454 50.28 64.3188 46.92C62.2921 43.56 61.2788 39.7467 61.2788 35.48C61.2788 31.2667 62.2654 27.48 64.2388 24.12C66.2654 20.7067 69.0121 18.0667 72.4788 16.2C75.9988 14.28 79.9188 13.32 84.2388 13.32C88.4521 13.32 92.2654 14.2267 95.6788 16.04C99.0921 17.8533 101.759 20.4667 103.679 23.88C105.652 27.24 106.639 31.16 106.639 35.64ZM84.3188 22.76C81.4921 22.76 79.1188 23.56 77.1988 25.16C75.2788 26.76 74.1054 28.9467 73.6788 31.72H94.8788C94.4521 29 93.2788 26.84 91.3588 25.24C89.4388 23.5867 87.0921 22.76 84.3188 22.76ZM142.708 54.92C141.481 55.8267 139.961 56.52 138.148 57C136.388 57.4267 134.521 57.64 132.548 57.64C127.428 57.64 123.454 56.3333 120.628 53.72C117.854 51.1067 116.468 47.2667 116.468 42.2V24.52H109.828V14.92H116.468V4.44H128.948V14.92H139.668V24.52H128.948V42.04C128.948 43.8533 129.401 45.2667 130.307 46.28C131.268 47.24 132.601 47.72 134.308 47.72C136.281 47.72 137.961 47.1867 139.348 46.12L142.708 54.92Z" fill="#0F0F0F"/>
<path d="M41.48 28.12V27.12H40.48V28.12H41.48ZM53.32 28.12H54.32V27.12H53.32V28.12ZM53.32 50.84L53.9222 51.6383L54.32 51.3383V50.84H53.32ZM42.76 56.12L43.0532 57.0761L43.0532 57.0761L42.76 56.12ZM15 54.28L14.5247 55.1599L14.5326 55.164L15 54.28ZM4.04 43.96L3.17887 44.4684L3.18249 44.4745L3.1862 44.4806L4.04 43.96ZM4.04 14.12L3.18341 13.604L3.18159 13.607L4.04 14.12ZM15.08 3.8L15.5433 4.68626L15.5511 4.68207L15.08 3.8ZM44.28 2.52L44.662 1.59583L44.662 1.59583L44.28 2.52ZM54.36 9.72L55.0383 10.4548L55.7495 9.79829L55.1165 9.06604L54.36 9.72ZM46.04 17.4L45.3148 18.0885L45.9937 18.8036L46.7183 18.1348L46.04 17.4ZM22.04 13.32L22.5141 14.2005L22.5141 14.2005L22.04 13.32ZM15.56 19.64L16.4293 20.1343L15.56 19.64ZM15.56 38.28L14.6907 38.7743L14.6907 38.7743L15.56 38.28ZM21.96 44.68L21.4657 45.5493L21.4757 45.555L21.4859 45.5605L21.96 44.68ZM41.48 44.52L41.9522 45.4015L42.48 45.1187V44.52H41.48ZM41.48 29.12H53.32V27.12H41.48V29.12ZM52.32 28.12V50.84H54.32V28.12H52.32ZM52.7178 50.0417C49.7795 52.2582 46.3664 53.9681 42.4668 55.1639L43.0532 57.0761C47.1536 55.8186 50.7805 54.0084 53.9222 51.6383L52.7178 50.0417ZM42.4668 55.1639C38.5587 56.3624 34.6308 56.96 30.68 56.96V58.96C34.8359 58.96 38.9613 58.3309 43.0532 57.0761L42.4668 55.1639ZM30.68 56.96C25.0118 56.96 19.9484 55.7652 15.4674 53.396L14.5326 55.164C19.3316 57.7014 24.7216 58.96 30.68 58.96V56.96ZM15.4753 53.4002C10.9862 50.975 7.4655 47.657 4.8938 43.4394L3.1862 44.4806C5.94783 49.0097 9.73379 52.5716 14.5247 55.1598L15.4753 53.4002ZM4.90113 43.4516C2.38587 39.1911 1.12 34.3825 1.12 29H-0.88C-0.88 34.7109 0.467466 39.8756 3.17887 44.4684L4.90113 43.4516ZM1.12 29C1.12 23.6174 2.38588 18.8376 4.89842 14.633L3.18159 13.607C0.467453 18.1491 -0.88 23.2893 -0.88 29H1.12ZM4.89658 14.636C7.46614 10.3705 11.0083 7.05678 15.5433 4.68622L14.6167 2.91377C9.76507 5.44988 5.94719 9.01613 3.18342 13.604L4.89658 14.636ZM15.5511 4.68207C20.085 2.26054 25.2005 1.04 30.92 1.04V-0.960001C24.9062 -0.960001 19.4616 0.326119 14.6089 2.91792L15.5511 4.68207ZM30.92 1.04C35.713 1.04 40.0343 1.84715 43.898 3.44416L44.662 1.59583C40.5257 -0.113823 35.9403 -0.960001 30.92 -0.960001V1.04ZM43.898 3.44416C47.7598 5.04038 50.9897 7.35019 53.6035 10.374L55.1165 9.06604C52.2903 5.79647 48.8002 3.30628 44.662 1.59583L43.898 3.44416ZM53.6817 8.98519L45.3617 16.6652L46.7183 18.1348L55.0383 10.4548L53.6817 8.98519ZM46.7652 16.7115C42.5823 12.3055 37.496 10.08 31.56 10.08V12.08C36.9307 12.08 41.4977 14.0678 45.3148 18.0885L46.7652 16.7115ZM31.56 10.08C27.8437 10.08 24.5036 10.8577 21.5659 12.4395L22.5141 14.2005C25.1231 12.7956 28.1296 12.08 31.56 12.08V10.08ZM21.5659 12.4395C18.6284 14.0213 16.3309 16.2613 14.6907 19.1457L16.4293 20.1343C17.8825 17.5787 19.905 15.6054 22.5141 14.2005L21.5659 12.4395ZM14.6907 19.1457C13.0481 22.0344 12.24 25.3288 12.24 29H14.24C14.24 25.6312 14.9786 22.6856 16.4293 20.1343L14.6907 19.1457ZM12.24 29C12.24 32.6208 13.0494 35.8878 14.6907 38.7743L16.4293 37.7857C14.9773 35.2322 14.24 32.3125 14.24 29H12.24ZM14.6907 38.7743C16.3263 41.6508 18.5892 43.9137 21.4657 45.5493L22.4543 43.8107C19.8908 42.353 17.887 40.3492 16.4293 37.7857L14.6907 38.7743ZM21.4859 45.5605C24.4214 47.1411 27.7343 47.92 31.4 47.92V45.92C28.0257 45.92 25.0453 45.2055 22.4341 43.7995L21.4859 45.5605ZM31.4 47.92C35.281 47.92 38.8059 47.087 41.9522 45.4015L41.0078 43.6385C38.1807 45.153 34.9857 45.92 31.4 45.92V47.92ZM42.48 44.52V28.12H40.48V44.52H42.48ZM106.399 39V40H107.325L107.396 39.0767L106.399 39ZM73.8388 39V38H72.5948L72.8621 39.2149L73.8388 39ZM77.9988 45.32L78.5762 44.5036L78.5762 44.5036L77.9988 45.32ZM92.0788 46.68L92.4299 47.6163L92.4376 47.6134L92.4453 47.6104L92.0788 46.68ZM96.9588 43.48L97.6939 42.8021L97.0007 42.0504L96.2646 42.7602L96.9588 43.48ZM103.599 50.68L104.352 51.3379L104.942 50.6619L104.334 50.0021L103.599 50.68ZM72.9588 54.84L72.5014 55.7293L72.5115 55.7344L72.9588 54.84ZM64.3188 46.92L63.4625 47.4365L63.4625 47.4365L64.3188 46.92ZM64.2388 24.12L63.3789 23.6095L63.3765 23.6136L64.2388 24.12ZM72.4788 16.2L72.9529 17.0805L72.9576 17.0779L72.4788 16.2ZM95.6788 16.04L96.1479 15.1569L96.1479 15.1569L95.6788 16.04ZM103.679 23.88L102.807 24.3703L102.812 24.3784L102.816 24.3864L103.679 23.88ZM77.1988 25.16L76.5586 24.3918L76.5586 24.3918L77.1988 25.16ZM73.6788 31.72L72.6904 31.5679L72.5131 32.72H73.6788V31.72ZM94.8788 31.72V32.72H96.0478L95.8667 31.565L94.8788 31.72ZM91.3588 25.24L90.7062 25.9978L90.7124 26.003L90.7186 26.0082L91.3588 25.24ZM105.639 35.64C105.639 35.6321 105.639 35.6444 105.636 35.6951C105.634 35.7392 105.631 35.7996 105.626 35.8776C105.616 36.0333 105.601 36.2499 105.581 36.5288C105.541 37.086 105.482 37.8839 105.402 38.9233L107.396 39.0767C107.553 37.0337 107.639 35.8507 107.639 35.64H105.639ZM106.399 38H73.8388V40H106.399V38ZM72.8621 39.2149C73.5011 42.1195 75.027 44.4429 77.4213 46.1364L78.5762 44.5036C76.5972 43.1038 75.3497 41.2138 74.8154 38.7851L72.8621 39.2149ZM77.4213 46.1364C79.8103 47.8262 82.7438 48.64 86.1588 48.64V46.64C83.0671 46.64 80.5605 45.9071 78.5762 44.5036L77.4213 46.1364ZM86.1588 48.64C88.4921 48.64 90.5885 48.3068 92.4299 47.6163L91.7276 45.7437C90.1557 46.3332 88.3054 46.64 86.1588 46.64V48.64ZM92.4453 47.6104C94.3385 46.8646 96.0744 45.722 97.6529 44.1998L96.2646 42.7602C94.8565 44.118 93.339 45.1088 91.7122 45.7496L92.4453 47.6104ZM96.2236 44.1579L102.864 51.3579L104.334 50.0021L97.6939 42.8021L96.2236 44.1579ZM102.846 50.0221C99.0302 54.3898 93.4187 56.64 85.8388 56.64V58.64C93.8321 58.64 100.061 56.2502 104.352 51.3379L102.846 50.0221ZM85.8388 56.64C81.1154 56.64 76.9795 55.7323 73.406 53.9456L72.5115 55.7344C76.4047 57.681 80.8554 58.64 85.8388 58.64V56.64ZM73.4161 53.9507C69.8357 52.1094 67.0991 49.5935 65.175 46.4035L63.4625 47.4365C65.5917 50.9665 68.6151 53.7306 72.5014 55.7293L73.4161 53.9507ZM65.175 46.4035C63.2505 43.2129 62.2788 39.5811 62.2788 35.48H60.2788C60.2788 39.9122 61.3336 43.9071 63.4625 47.4365L65.175 46.4035ZM62.2788 35.48C62.2788 31.4298 63.2252 27.8205 65.101 24.6264L63.3765 23.6136C61.3057 27.1395 60.2788 31.1036 60.2788 35.48H62.2788ZM65.0986 24.6305C67.0334 21.3719 69.6473 18.8604 72.9529 17.0805L72.0047 15.3195C68.3768 17.273 65.4974 20.0415 63.3789 23.6095L65.0986 24.6305ZM72.9576 17.0779C76.3194 15.2442 80.0728 14.32 84.2388 14.32V12.32C79.7648 12.32 75.6781 13.3158 71.9999 15.3221L72.9576 17.0779ZM84.2388 14.32C88.3036 14.32 91.9535 15.1933 95.2096 16.9231L96.1479 15.1569C92.5774 13.26 88.6006 12.32 84.2388 12.32V14.32ZM95.2096 16.9231C98.4516 18.6454 100.98 21.1213 102.807 24.3703L104.55 23.3897C102.538 19.812 99.7326 17.0612 96.1479 15.1569L95.2096 16.9231ZM102.816 24.3864C104.687 27.5711 105.639 31.311 105.639 35.64H107.639C107.639 31.009 106.617 26.9089 104.541 23.3736L102.816 24.3864ZM84.3188 21.76C81.2907 21.76 78.6818 22.6224 76.5586 24.3918L77.8389 25.9282C79.5557 24.4976 81.6935 23.76 84.3188 23.76V21.76ZM76.5586 24.3918C74.428 26.1672 73.1492 28.5853 72.6904 31.5679L74.6671 31.8721C75.0616 29.308 76.1295 27.3528 77.8389 25.9282L76.5586 24.3918ZM73.6788 32.72H94.8788V30.72H73.6788V32.72ZM95.8667 31.565C95.4065 28.6314 94.1249 26.2434 91.9989 24.4718L90.7186 26.0082C92.4326 27.4366 93.4977 29.3686 93.8908 31.875L95.8667 31.565ZM92.0113 24.4822C89.8921 22.6574 87.3072 21.76 84.3188 21.76V23.76C86.877 23.76 88.9854 24.5159 90.7062 25.9978L92.0113 24.4822ZM142.708 54.92L143.302 55.7242L143.913 55.2728L143.642 54.5633L142.708 54.92ZM138.148 57L138.383 57.9719L138.393 57.9694L138.403 57.9667L138.148 57ZM120.628 53.72L119.942 54.4478L119.949 54.4543L120.628 53.72ZM116.468 24.52H117.468V23.52H116.468V24.52ZM109.828 24.52H108.828V25.52H109.828V24.52ZM109.828 14.92V13.92H108.828V14.92H109.828ZM116.468 14.92V15.92H117.468V14.92H116.468ZM116.468 4.44V3.44H115.468V4.44H116.468ZM128.948 4.44H129.948V3.44H128.948V4.44ZM128.948 14.92H127.948V15.92H128.948V14.92ZM139.668 14.92H140.668V13.92H139.668V14.92ZM139.668 24.52V25.52H140.668V24.52H139.668ZM128.948 24.52V23.52H127.948V24.52H128.948ZM130.307 46.28L129.562 46.9468L129.581 46.9675L129.6 46.9871L130.307 46.28ZM139.348 46.12L140.282 45.7633L139.803 44.5083L138.738 45.3274L139.348 46.12ZM142.113 54.1158C141.008 54.9324 139.61 55.5784 137.892 56.0333L138.403 57.9667C140.312 57.4616 141.953 56.721 143.302 55.7242L142.113 54.1158ZM137.912 56.0281C136.236 56.4345 134.448 56.64 132.548 56.64V58.64C134.593 58.64 136.539 58.4188 138.383 57.9719L137.912 56.0281ZM132.548 56.64C127.594 56.64 123.894 55.3782 121.306 52.9857L119.949 54.4543C123.014 57.2884 127.261 58.64 132.548 58.64V56.64ZM121.313 52.9922C118.8 50.6243 117.468 47.0859 117.468 42.2H115.468C115.468 47.4474 116.908 51.5891 119.942 54.4478L121.313 52.9922ZM117.468 42.2V24.52H115.468V42.2H117.468ZM116.468 23.52H109.828V25.52H116.468V23.52ZM110.828 24.52V14.92H108.828V24.52H110.828ZM109.828 15.92H116.468V13.92H109.828V15.92ZM117.468 14.92V4.44H115.468V14.92H117.468ZM116.468 5.44H128.948V3.44H116.468V5.44ZM127.948 4.44V14.92H129.948V4.44H127.948ZM128.948 15.92H139.668V13.92H128.948V15.92ZM138.668 14.92V24.52H140.668V14.92H138.668ZM139.668 23.52H128.948V25.52H139.668V23.52ZM127.948 24.52V42.04H129.948V24.52H127.948ZM127.948 42.04C127.948 44.016 128.443 45.6962 129.562 46.9468L131.053 45.6132C130.358 44.8371 129.948 43.6907 129.948 42.04H127.948ZM129.6 46.9871C130.793 48.18 132.408 48.72 134.308 48.72V46.72C132.794 46.72 131.742 46.3 131.015 45.5729L129.6 46.9871ZM134.308 48.72C136.472 48.72 138.374 48.1308 139.957 46.9126L138.738 45.3274C137.548 46.2425 136.09 46.72 134.308 46.72V48.72ZM138.413 46.4767L141.773 55.2767L143.642 54.5633L140.282 45.7633L138.413 46.4767Z" fill="#14F195"/>
</svg>
