<svg width="336" height="64" viewBox="0 0 336 64" fill="none" xmlns="http://www.w3.org/2000/svg">
<path d="M1.76 19.96H14.24V63H1.76V19.96ZM8 13.96C5.70667 13.96 3.84 13.2933 2.4 11.96C0.96 10.6267 0.24 8.97333 0.24 7C0.24 5.02666 0.96 3.37333 2.4 2.04C3.84 0.706663 5.70667 0.0399952 8 0.0399952C10.2933 0.0399952 12.16 0.679996 13.6 1.96C15.04 3.24 15.76 4.84 15.76 6.76C15.76 8.84 15.04 10.5733 13.6 11.96C12.16 13.2933 10.2933 13.96 8 13.96ZM51.9825 19.32C57.3158 19.32 61.6092 20.92 64.8625 24.12C68.1692 27.32 69.8225 32.0667 69.8225 38.36V63H57.3425V40.28C57.3425 36.8667 56.5958 34.3333 55.1025 32.68C53.6092 30.9733 51.4492 30.12 48.6225 30.12C45.4758 30.12 42.9692 31.1067 41.1025 33.08C39.2358 35 38.3025 37.88 38.3025 41.72V63H25.8225V19.96H37.7425V25C39.3958 23.1867 41.4492 21.8 43.9025 20.84C46.3558 19.8267 49.0492 19.32 51.9825 19.32ZM131.551 60.92C130.325 61.8267 128.805 62.52 126.991 63C125.231 63.4267 123.365 63.64 121.391 63.64C116.271 63.64 112.298 62.3333 109.471 59.72C106.698 57.1067 105.311 53.2667 105.311 48.2V30.52H98.6713V20.92H105.311V10.44H117.791V20.92H128.511V30.52H117.791V48.04C117.791 49.8533 118.245 51.2667 119.151 52.28C120.111 53.24 121.445 53.72 123.151 53.72C125.125 53.72 126.805 53.1867 128.191 52.12L131.551 60.92ZM157.709 63.64C153.175 63.64 149.095 62.7067 145.469 60.84C141.895 58.92 139.095 56.28 137.069 52.92C135.042 49.56 134.029 45.7467 134.029 41.48C134.029 37.2133 135.042 33.4 137.069 30.04C139.095 26.68 141.895 24.0667 145.469 22.2C149.095 20.28 153.175 19.32 157.709 19.32C162.242 19.32 166.295 20.28 169.869 22.2C173.442 24.0667 176.242 26.68 178.269 30.04C180.295 33.4 181.309 37.2133 181.309 41.48C181.309 45.7467 180.295 49.56 178.269 52.92C176.242 56.28 173.442 58.92 169.869 60.84C166.295 62.7067 162.242 63.64 157.709 63.64ZM157.709 53.4C160.909 53.4 163.522 52.3333 165.549 50.2C167.629 48.0133 168.669 45.1067 168.669 41.48C168.669 37.8533 167.629 34.9733 165.549 32.84C163.522 30.6533 160.909 29.56 157.709 29.56C154.509 29.56 151.869 30.6533 149.789 32.84C147.709 34.9733 146.669 37.8533 146.669 41.48C146.669 45.1067 147.709 48.0133 149.789 50.2C151.869 52.3333 154.509 53.4 157.709 53.4ZM233.011 19.96V63H221.171V57.88C219.517 59.7467 217.544 61.1867 215.251 62.2C212.957 63.16 210.477 63.64 207.811 63.64C202.157 63.64 197.677 62.0133 194.371 58.76C191.064 55.5067 189.411 50.68 189.411 44.28V19.96H201.891V42.44C201.891 49.3733 204.797 52.84 210.611 52.84C213.597 52.84 215.997 51.88 217.811 49.96C219.624 47.9867 220.531 45.08 220.531 41.24V19.96H233.011ZM265.373 63.64C260.786 63.64 256.653 62.7067 252.973 60.84C249.346 58.92 246.493 56.28 244.413 52.92C242.386 49.56 241.373 45.7467 241.373 41.48C241.373 37.2133 242.386 33.4 244.413 30.04C246.493 26.68 249.346 24.0667 252.973 22.2C256.653 20.28 260.786 19.32 265.373 19.32C269.906 19.32 273.853 20.28 277.213 22.2C280.626 24.0667 283.106 26.76 284.653 30.28L274.973 35.48C272.733 31.5333 269.506 29.56 265.293 29.56C262.039 29.56 259.346 30.6267 257.213 32.76C255.079 34.8933 254.013 37.8 254.013 41.48C254.013 45.16 255.079 48.0667 257.213 50.2C259.346 52.3333 262.039 53.4 265.293 53.4C269.559 53.4 272.786 51.4267 274.973 47.48L284.653 52.76C283.106 56.1733 280.626 58.84 277.213 60.76C273.853 62.68 269.906 63.64 265.373 63.64ZM317.686 19.32C323.019 19.32 327.312 20.92 330.566 24.12C333.872 27.32 335.526 32.0667 335.526 38.36V63H323.046V40.28C323.046 36.8667 322.299 34.3333 320.806 32.68C319.312 30.9733 317.152 30.12 314.326 30.12C311.179 30.12 308.672 31.1067 306.806 33.08C304.939 35 304.006 37.88 304.006 41.72V63H291.526V3.64H304.006V24.44C305.659 22.7867 307.659 21.5333 310.006 20.68C312.352 19.7733 314.912 19.32 317.686 19.32Z" fill="#0F0F0F"/>
<path d="M1.76 19.96V18.96H0.76V19.96H1.76ZM14.24 19.96H15.24V18.96H14.24V19.96ZM14.24 63V64H15.24V63H14.24ZM1.76 63H0.76V64H1.76V63ZM2.4 11.96L1.72059 12.6938L1.72059 12.6938L2.4 11.96ZM2.4 2.04L3.07941 2.77376L3.07941 2.77376L2.4 2.04ZM13.6 1.96L12.9356 2.70741L12.9356 2.70741L13.6 1.96ZM13.6 11.96L14.2794 12.6938L14.2866 12.6871L14.2936 12.6803L13.6 11.96ZM1.76 20.96H14.24V18.96H1.76V20.96ZM13.24 19.96V63H15.24V19.96H13.24ZM14.24 62H1.76V64H14.24V62ZM2.76 63V19.96H0.76V63H2.76ZM8 12.96C5.91329 12.96 4.30381 12.3599 3.07941 11.2262L1.72059 12.6938C3.37619 14.2267 5.50005 14.96 8 14.96V12.96ZM3.07941 11.2262C1.84509 10.0833 1.24 8.69652 1.24 7H-0.76C-0.76 9.25014 0.0749102 11.17 1.72059 12.6938L3.07941 11.2262ZM1.24 7C1.24 5.30347 1.84509 3.91664 3.07941 2.77376L1.72059 1.30624C0.0749103 2.83002 -0.76 4.74985 -0.76 7H1.24ZM3.07941 2.77376C4.30381 1.64005 5.91329 1.04 8 1.04V-0.960005C5.50005 -0.960005 3.37619 -0.226728 1.72059 1.30624L3.07941 2.77376ZM8 1.04C10.0976 1.04 11.7124 1.62005 12.9356 2.70741L14.2644 1.21259C12.6076 -0.260056 10.4891 -0.960005 8 -0.960005V1.04ZM12.9356 2.70741C14.163 3.7984 14.76 5.12677 14.76 6.76H16.76C16.76 4.55323 15.917 2.6816 14.2644 1.21259L12.9356 2.70741ZM14.76 6.76C14.76 8.58058 14.1419 10.0499 12.9064 11.2397L14.2936 12.6803C15.9381 11.0968 16.76 9.09942 16.76 6.76H14.76ZM12.9206 11.2262C11.6962 12.3599 10.0867 12.96 8 12.96V14.96C10.5 14.96 12.6238 14.2267 14.2794 12.6938L12.9206 11.2262ZM64.8625 24.12L64.1612 24.8329L64.1671 24.8386L64.8625 24.12ZM69.8225 63V64H70.8225V63H69.8225ZM57.3425 63H56.3425V64H57.3425V63ZM55.1025 32.68L54.3499 33.3385L54.3551 33.3444L54.3604 33.3503L55.1025 32.68ZM41.1025 33.08L41.8196 33.7771L41.829 33.7672L41.1025 33.08ZM38.3025 63V64H39.3025V63H38.3025ZM25.8225 63H24.8225V64H25.8225V63ZM25.8225 19.96V18.96H24.8225V19.96H25.8225ZM37.7425 19.96H38.7425V18.96H37.7425V19.96ZM37.7425 25H36.7425V27.581L38.4815 25.6738L37.7425 25ZM43.9025 20.84L44.2669 21.7712L44.2756 21.7678L44.2843 21.7643L43.9025 20.84ZM51.9825 20.32C57.1011 20.32 61.1264 21.8478 64.1613 24.8329L65.5637 23.4071C62.0919 19.9922 57.5305 18.32 51.9825 18.32V20.32ZM64.1671 24.8386C67.216 27.7892 68.8225 32.2351 68.8225 38.36H70.8225C70.8225 31.8982 69.1223 26.8508 65.5579 23.4014L64.1671 24.8386ZM68.8225 38.36V63H70.8225V38.36H68.8225ZM69.8225 62H57.3425V64H69.8225V62ZM58.3425 63V40.28H56.3425V63H58.3425ZM58.3425 40.28C58.3425 36.7462 57.573 33.9233 55.8446 32.0097L54.3604 33.3503C55.6187 34.7434 56.3425 36.9871 56.3425 40.28H58.3425ZM55.8551 32.0215C54.1265 30.046 51.6607 29.12 48.6225 29.12V31.12C51.2376 31.12 53.0918 31.9006 54.3499 33.3385L55.8551 32.0215ZM48.6225 29.12C45.2485 29.12 42.4619 30.1877 40.376 32.3928L41.829 33.7672C43.4764 32.0256 45.7032 31.12 48.6225 31.12V29.12ZM40.3855 32.3829C38.2714 34.5574 37.3025 37.7328 37.3025 41.72H39.3025C39.3025 38.0272 40.2003 35.4426 41.8195 33.7771L40.3855 32.3829ZM37.3025 41.72V63H39.3025V41.72H37.3025ZM38.3025 62H25.8225V64H38.3025V62ZM26.8225 63V19.96H24.8225V63H26.8225ZM25.8225 20.96H37.7425V18.96H25.8225V20.96ZM36.7425 19.96V25H38.7425V19.96H36.7425ZM38.4815 25.6738C40.0239 23.9821 41.9458 22.6795 44.2669 21.7712L43.5381 19.9088C40.9526 20.9205 38.7678 22.3912 37.0035 24.3262L38.4815 25.6738ZM44.2843 21.7643C46.6044 20.8059 49.1664 20.32 51.9825 20.32V18.32C48.932 18.32 46.1073 18.8474 43.5207 19.9157L44.2843 21.7643ZM131.551 60.92L132.146 61.7242L132.756 61.2728L132.485 60.5633L131.551 60.92ZM126.991 63L127.227 63.9719L127.237 63.9694L127.247 63.9667L126.991 63ZM109.471 59.72L108.785 60.4478L108.792 60.4543L109.471 59.72ZM105.311 30.52H106.311V29.52H105.311V30.52ZM98.6713 30.52H97.6713V31.52H98.6713V30.52ZM98.6713 20.92V19.92H97.6713V20.92H98.6713ZM105.311 20.92V21.92H106.311V20.92H105.311ZM105.311 10.44V9.44H104.311V10.44H105.311ZM117.791 10.44H118.791V9.44H117.791V10.44ZM117.791 20.92H116.791V21.92H117.791V20.92ZM128.511 20.92H129.511V19.92H128.511V20.92ZM128.511 30.52V31.52H129.511V30.52H128.511ZM117.791 30.52V29.52H116.791V30.52H117.791ZM119.151 52.28L118.406 52.9468L118.425 52.9675L118.444 52.9871L119.151 52.28ZM128.191 52.12L129.125 51.7633L128.646 50.5083L127.582 51.3274L128.191 52.12ZM130.957 60.1158C129.852 60.9324 128.454 61.5784 126.735 62.0333L127.247 63.9667C129.155 63.4616 130.797 62.721 132.146 61.7242L130.957 60.1158ZM126.756 62.0281C125.079 62.4345 123.292 62.64 121.391 62.64V64.64C123.437 64.64 125.383 64.4188 127.227 63.9719L126.756 62.0281ZM121.391 62.64C116.438 62.64 112.738 61.3782 110.15 58.9857L108.792 60.4543C111.858 63.2884 116.104 64.64 121.391 64.64V62.64ZM110.157 58.9922C107.644 56.6243 106.311 53.0859 106.311 48.2H104.311C104.311 53.4474 105.752 57.5891 108.785 60.4478L110.157 58.9922ZM106.311 48.2V30.52H104.311V48.2H106.311ZM105.311 29.52H98.6713V31.52H105.311V29.52ZM99.6713 30.52V20.92H97.6713V30.52H99.6713ZM98.6713 21.92H105.311V19.92H98.6713V21.92ZM106.311 20.92V10.44H104.311V20.92H106.311ZM105.311 11.44H117.791V9.44H105.311V11.44ZM116.791 10.44V20.92H118.791V10.44H116.791ZM117.791 21.92H128.511V19.92H117.791V21.92ZM127.511 20.92V30.52H129.511V20.92H127.511ZM128.511 29.52H117.791V31.52H128.511V29.52ZM116.791 30.52V48.04H118.791V30.52H116.791ZM116.791 48.04C116.791 50.016 117.287 51.6962 118.406 52.9468L119.896 51.6132C119.202 50.8371 118.791 49.6907 118.791 48.04H116.791ZM118.444 52.9871C119.637 54.18 121.251 54.72 123.151 54.72V52.72C121.638 52.72 120.585 52.3 119.858 51.5729L118.444 52.9871ZM123.151 54.72C125.315 54.72 127.217 54.1308 128.801 52.9126L127.582 51.3274C126.392 52.2425 124.934 52.72 123.151 52.72V54.72ZM127.257 52.4767L130.617 61.2767L132.485 60.5633L129.125 51.7633L127.257 52.4767ZM145.469 60.84L144.995 61.7209L145.003 61.7251L145.011 61.7291L145.469 60.84ZM137.069 52.92L136.212 53.4365L136.212 53.4365L137.069 52.92ZM137.069 30.04L136.212 29.5235L136.212 29.5235L137.069 30.04ZM145.469 22.2L145.932 23.0864L145.937 23.0838L145.469 22.2ZM169.869 22.2L169.395 23.0809L169.406 23.0863L169.869 22.2ZM178.269 30.04L179.125 29.5235L179.125 29.5235L178.269 30.04ZM178.269 52.92L179.125 53.4365L179.125 53.4365L178.269 52.92ZM169.869 60.84L170.332 61.7264L170.342 61.7209L169.869 60.84ZM165.549 50.2L164.824 49.5108L164.824 49.5112L165.549 50.2ZM165.549 32.84L164.815 33.5198L164.824 33.529L164.833 33.5381L165.549 32.84ZM149.789 32.84L150.505 33.5382L150.513 33.5292L149.789 32.84ZM149.789 50.2L149.064 50.8893L149.073 50.8981L149.789 50.2ZM157.709 62.64C153.317 62.64 149.396 61.7369 145.926 59.9509L145.011 61.7291C148.795 63.6765 153.034 64.64 157.709 64.64V62.64ZM145.942 59.9591C142.521 58.121 139.856 55.6045 137.925 52.4035L136.212 53.4365C138.335 56.9555 141.27 59.719 144.995 61.7209L145.942 59.9591ZM137.925 52.4035C136.001 49.2129 135.029 45.5811 135.029 41.48H133.029C133.029 45.9122 134.084 49.9071 136.212 53.4365L137.925 52.4035ZM135.029 41.48C135.029 37.3789 136.001 33.7471 137.925 30.5565L136.212 29.5235C134.084 33.0529 133.029 37.0477 133.029 41.48H135.029ZM137.925 30.5565C139.854 27.358 142.516 24.8706 145.932 23.0863L145.006 21.3136C141.275 23.2628 138.337 26.002 136.212 29.5235L137.925 30.5565ZM145.937 23.0838C149.405 21.2478 153.321 20.32 157.709 20.32V18.32C153.03 18.32 148.786 19.3121 145.001 21.3162L145.937 23.0838ZM157.709 20.32C162.097 20.32 165.984 21.2479 169.395 23.0809L170.342 21.3191C166.607 19.3121 162.388 18.32 157.709 18.32V20.32ZM169.406 23.0863C172.821 24.8706 175.483 27.358 177.412 30.5565L179.125 29.5235C177.001 26.002 174.063 23.2628 170.332 21.3136L169.406 23.0863ZM177.412 30.5565C179.337 33.7471 180.309 37.3789 180.309 41.48H182.309C182.309 37.0477 181.254 33.0529 179.125 29.5235L177.412 30.5565ZM180.309 41.48C180.309 45.5811 179.337 49.2129 177.412 52.4035L179.125 53.4365C181.254 49.9071 182.309 45.9122 182.309 41.48H180.309ZM177.412 52.4035C175.482 55.6045 172.816 58.121 169.395 59.9591L170.342 61.7209C174.068 59.719 177.002 56.9555 179.125 53.4365L177.412 52.4035ZM169.406 59.9537C165.992 61.7368 162.101 62.64 157.709 62.64V64.64C162.383 64.64 166.599 63.6765 170.332 61.7263L169.406 59.9537ZM157.709 54.4C161.156 54.4 164.041 53.2393 166.274 50.8887L164.824 49.5112C163.003 51.4273 160.661 52.4 157.709 52.4V54.4ZM166.273 50.8892C168.565 48.4803 169.669 45.3083 169.669 41.48H167.669C167.669 44.905 166.693 47.5463 164.824 49.5108L166.273 50.8892ZM169.669 41.48C169.669 37.6526 168.565 34.501 166.265 32.1419L164.833 33.5381C166.693 35.4456 167.669 38.054 167.669 41.48H169.669ZM166.282 32.1602C164.051 29.7532 161.164 28.56 157.709 28.56V30.56C160.653 30.56 162.993 31.5535 164.815 33.5198L166.282 32.1602ZM157.709 28.56C154.253 28.56 151.345 29.7527 149.064 32.1508L150.513 33.5292C152.392 31.554 154.764 30.56 157.709 30.56V28.56ZM149.073 32.1419C146.773 34.501 145.669 37.6526 145.669 41.48H147.669C147.669 38.054 148.645 35.4456 150.505 33.5381L149.073 32.1419ZM145.669 41.48C145.669 45.3083 146.773 48.4803 149.064 50.8892L150.513 49.5108C148.645 47.5463 147.669 44.905 147.669 41.48H145.669ZM149.073 50.8981C151.356 53.2398 154.261 54.4 157.709 54.4V52.4C154.756 52.4 152.382 51.4269 150.505 49.5019L149.073 50.8981ZM233.011 19.96H234.011V18.96H233.011V19.96ZM233.011 63V64H234.011V63H233.011ZM221.171 63H220.171V64H221.171V63ZM221.171 57.88H222.171V55.2428L220.422 57.217L221.171 57.88ZM215.251 62.2L215.637 63.1224L215.646 63.1187L215.655 63.1147L215.251 62.2ZM194.371 58.76L195.072 58.0472L195.072 58.0472L194.371 58.76ZM189.411 19.96V18.96H188.411V19.96H189.411ZM201.891 19.96H202.891V18.96H201.891V19.96ZM217.811 49.96L218.538 50.6467L218.547 50.6366L217.811 49.96ZM220.531 19.96V18.96H219.531V19.96H220.531ZM232.011 19.96V63H234.011V19.96H232.011ZM233.011 62H221.171V64H233.011V62ZM222.171 63V57.88H220.171V63H222.171ZM220.422 57.217C218.865 58.9753 217.009 60.3298 214.846 61.2853L215.655 63.1147C218.079 62.0435 220.17 60.518 221.919 58.543L220.422 57.217ZM214.864 61.2776C212.702 62.1827 210.354 62.64 207.811 62.64V64.64C210.6 64.64 213.212 64.1373 215.637 63.1224L214.864 61.2776ZM207.811 62.64C202.359 62.64 198.152 61.0777 195.072 58.0472L193.669 59.4728C197.202 62.9489 201.956 64.64 207.811 64.64V62.64ZM195.072 58.0472C192.02 55.0441 190.411 50.5161 190.411 44.28H188.411C188.411 50.8439 190.108 55.9693 193.669 59.4728L195.072 58.0472ZM190.411 44.28V19.96H188.411V44.28H190.411ZM189.411 20.96H201.891V18.96H189.411V20.96ZM200.891 19.96V42.44H202.891V19.96H200.891ZM200.891 42.44C200.891 46.0221 201.638 48.8949 203.304 50.8825C204.999 52.9039 207.499 53.84 210.611 53.84V51.84C207.909 51.84 206.049 51.0428 204.837 49.5975C203.597 48.1184 202.891 45.7913 202.891 42.44H200.891ZM210.611 53.84C213.833 53.84 216.51 52.7937 218.538 50.6466L217.084 49.2734C215.485 50.9663 213.362 51.84 210.611 51.84V53.84ZM218.547 50.6366C220.591 48.4124 221.531 45.2228 221.531 41.24H219.531C219.531 44.9372 218.657 47.561 217.074 49.2834L218.547 50.6366ZM221.531 41.24V19.96H219.531V41.24H221.531ZM220.531 20.96H233.011V18.96H220.531V20.96ZM252.973 60.84L252.505 61.7238L252.512 61.7279L252.52 61.7318L252.973 60.84ZM244.413 52.92L243.556 53.4365L243.562 53.4464L244.413 52.92ZM244.413 30.04L243.562 29.5136L243.556 29.5235L244.413 30.04ZM252.973 22.2L253.43 23.0891L253.435 23.0866L252.973 22.2ZM277.213 22.2L276.716 23.0682L276.724 23.0729L276.733 23.0774L277.213 22.2ZM284.653 30.28L285.126 31.1609L285.94 30.7237L285.568 29.8777L284.653 30.28ZM274.973 35.48L274.103 35.9736L274.585 36.8233L275.446 36.3609L274.973 35.48ZM257.213 32.76L256.505 32.0529L256.505 32.0529L257.213 32.76ZM274.973 47.48L275.451 46.6021L274.579 46.1264L274.098 46.9954L274.973 47.48ZM284.653 52.76L285.563 53.1727L285.947 52.3268L285.131 51.8821L284.653 52.76ZM277.213 60.76L276.722 59.8884L276.716 59.8918L277.213 60.76ZM265.373 62.64C260.925 62.64 256.95 61.7361 253.425 59.9482L252.52 61.7318C256.355 63.6772 260.646 64.64 265.373 64.64V62.64ZM253.44 59.9562C249.964 58.116 247.246 55.5967 245.263 52.3936L243.562 53.4464C245.739 56.9633 248.727 59.724 252.505 61.7238L253.44 59.9562ZM245.269 52.4035C243.344 49.2129 242.373 45.5811 242.373 41.48H240.373C240.373 45.9122 241.427 49.9071 243.556 53.4365L245.269 52.4035ZM242.373 41.48C242.373 37.3789 243.344 33.7471 245.269 30.5565L243.556 29.5235C241.427 33.0529 240.373 37.0477 240.373 41.48H242.373ZM245.263 30.5664C247.244 27.3658 249.959 24.8755 253.43 23.0891L252.515 21.3109C248.732 23.2578 245.741 25.9942 243.562 29.5136L245.263 30.5664ZM253.435 23.0866C256.958 21.2487 260.93 20.32 265.373 20.32V18.32C260.642 18.32 256.347 19.3113 252.51 21.3134L253.435 23.0866ZM265.373 20.32C269.762 20.32 273.532 21.2484 276.716 23.0682L277.709 21.3318C274.173 19.3116 270.05 18.32 265.373 18.32V20.32ZM276.733 23.0774C279.955 24.8395 282.28 27.367 283.737 30.6823L285.568 29.8777C283.931 26.153 281.297 23.2939 277.692 21.3226L276.733 23.0774ZM284.179 29.3991L274.499 34.5991L275.446 36.3609L285.126 31.1609L284.179 29.3991ZM275.842 34.9864C273.441 30.7562 269.898 28.56 265.293 28.56V30.56C269.113 30.56 272.024 32.3104 274.103 35.9736L275.842 34.9864ZM265.293 28.56C261.797 28.56 258.842 29.7164 256.505 32.0529L257.92 33.4671C259.85 31.5369 262.281 30.56 265.293 30.56V28.56ZM256.505 32.0529C254.145 34.4135 253.013 37.5968 253.013 41.48H255.013C255.013 38.0032 256.014 35.3732 257.92 33.4671L256.505 32.0529ZM253.013 41.48C253.013 45.3632 254.145 48.5465 256.505 50.9071L257.92 49.4929C256.014 47.5868 255.013 44.9568 255.013 41.48H253.013ZM256.505 50.9071C258.842 53.2436 261.797 54.4 265.293 54.4V52.4C262.281 52.4 259.85 51.4231 257.92 49.4929L256.505 50.9071ZM265.293 54.4C267.586 54.4 269.644 53.8677 271.434 52.7731C273.221 51.6802 274.686 50.06 275.847 47.9646L274.098 46.9954C273.072 48.8466 271.83 50.1864 270.391 51.0669C268.954 51.9456 267.266 52.4 265.293 52.4V54.4ZM274.494 48.3579L284.174 53.6379L285.131 51.8821L275.451 46.6021L274.494 48.3579ZM283.742 52.3473C282.287 55.5577 279.959 58.0677 276.722 59.8884L277.703 61.6316C281.293 59.6123 283.925 56.789 285.563 53.1727L283.742 52.3473ZM276.716 59.8918C273.532 61.7116 269.762 62.64 265.373 62.64V64.64C270.05 64.64 274.173 63.6484 277.709 61.6282L276.716 59.8918ZM330.566 24.12L329.864 24.8329L329.87 24.8386L330.566 24.12ZM335.526 63V64H336.526V63H335.526ZM323.046 63H322.046V64H323.046V63ZM320.806 32.68L320.053 33.3385L320.058 33.3444L320.064 33.3503L320.806 32.68ZM306.806 33.08L307.523 33.7771L307.532 33.7672L306.806 33.08ZM304.006 63V64H305.006V63H304.006ZM291.526 63H290.526V64H291.526V63ZM291.526 3.64V2.64H290.526V3.64H291.526ZM304.006 3.64H305.006V2.64H304.006V3.64ZM304.006 24.44H303.006V26.8542L304.713 25.1471L304.006 24.44ZM310.006 20.68L310.347 21.6198L310.357 21.6164L310.366 21.6128L310.006 20.68ZM317.686 20.32C322.804 20.32 326.83 21.8478 329.864 24.8329L331.267 23.4071C327.795 19.9922 323.234 18.32 317.686 18.32V20.32ZM329.87 24.8386C332.919 27.7892 334.526 32.2351 334.526 38.36H336.526C336.526 31.8982 334.825 26.8508 331.261 23.4014L329.87 24.8386ZM334.526 38.36V63H336.526V38.36H334.526ZM335.526 62H323.046V64H335.526V62ZM324.046 63V40.28H322.046V63H324.046ZM324.046 40.28C324.046 36.7462 323.276 33.9233 321.548 32.0097L320.064 33.3503C321.322 34.7434 322.046 36.9871 322.046 40.28H324.046ZM321.558 32.0215C319.83 30.046 317.364 29.12 314.326 29.12V31.12C316.941 31.12 318.795 31.9006 320.053 33.3385L321.558 32.0215ZM314.326 29.12C310.952 29.12 308.165 30.1877 306.079 32.3928L307.532 33.7672C309.18 32.0256 311.406 31.12 314.326 31.12V29.12ZM306.089 32.3829C303.975 34.5574 303.006 37.7328 303.006 41.72H305.006C305.006 38.0272 305.903 35.4426 307.523 33.7771L306.089 32.3829ZM303.006 41.72V63H305.006V41.72H303.006ZM304.006 62H291.526V64H304.006V62ZM292.526 63V3.64H290.526V63H292.526ZM291.526 4.64H304.006V2.64H291.526V4.64ZM303.006 3.64V24.44H305.006V3.64H303.006ZM304.713 25.1471C306.256 23.604 308.129 22.4266 310.347 21.6198L309.664 19.7402C307.189 20.64 305.062 21.9693 303.299 23.7329L304.713 25.1471ZM310.366 21.6128C312.587 20.7549 315.023 20.32 317.686 20.32V18.32C314.802 18.32 312.118 18.7918 309.645 19.7472L310.366 21.6128Z" fill="white"/>
</svg>
