<svg width="713" height="135" viewBox="0 0 713 135" fill="none" xmlns="http://www.w3.org/2000/svg">
<path d="M65.176 107L45.736 78.92H44.584H24.28V107H0.952001V6.19999H44.584C53.512 6.19999 61.24 7.68799 67.768 10.664C74.392 13.64 79.48 17.864 83.032 23.336C86.584 28.808 88.36 35.288 88.36 42.776C88.36 50.264 86.536 56.744 82.888 62.216C79.336 67.592 74.248 71.72 67.624 74.6L90.232 107H65.176ZM64.744 42.776C64.744 37.112 62.92 32.792 59.272 29.816C55.624 26.744 50.296 25.208 43.288 25.208H24.28V60.344H43.288C50.296 60.344 55.624 58.808 59.272 55.736C62.92 52.664 64.744 48.344 64.744 42.776ZM142.123 108.152C133.963 108.152 126.619 106.472 120.091 103.112C113.659 99.656 108.619 94.904 104.971 88.856C101.323 82.808 99.4986 75.944 99.4986 68.264C99.4986 60.584 101.323 53.72 104.971 47.672C108.619 41.624 113.659 36.92 120.091 33.56C126.619 30.104 133.963 28.376 142.123 28.376C150.283 28.376 157.579 30.104 164.011 33.56C170.443 36.92 175.483 41.624 179.131 47.672C182.779 53.72 184.603 60.584 184.603 68.264C184.603 75.944 182.779 82.808 179.131 88.856C175.483 94.904 170.443 99.656 164.011 103.112C157.579 106.472 150.283 108.152 142.123 108.152ZM142.123 89.72C147.883 89.72 152.587 87.8 156.235 83.96C159.979 80.024 161.851 74.792 161.851 68.264C161.851 61.736 159.979 56.552 156.235 52.712C152.587 48.776 147.883 46.808 142.123 46.808C136.363 46.808 131.611 48.776 127.867 52.712C124.123 56.552 122.251 61.736 122.251 68.264C122.251 74.792 124.123 80.024 127.867 83.96C131.611 87.8 136.363 89.72 142.123 89.72ZM229.6 28.376C241.6 28.376 250.816 31.256 257.248 37.016C263.68 42.68 266.896 51.272 266.896 62.792V107H245.872V97.352C241.648 104.552 233.776 108.152 222.256 108.152C216.304 108.152 211.12 107.144 206.704 105.128C202.384 103.112 199.072 100.328 196.768 96.776C194.464 93.224 193.312 89.192 193.312 84.68C193.312 77.48 196 71.816 201.376 67.688C206.848 63.56 215.248 61.496 226.576 61.496H244.432C244.432 56.6 242.944 52.856 239.968 50.264C236.992 47.576 232.528 46.232 226.576 46.232C222.448 46.232 218.368 46.904 214.336 48.248C210.4 49.496 207.04 51.224 204.256 53.432L196.192 37.736C200.416 34.76 205.456 32.456 211.312 30.824C217.264 29.192 223.36 28.376 229.6 28.376ZM227.872 93.032C231.712 93.032 235.12 92.168 238.096 90.44C241.072 88.616 243.184 85.976 244.432 82.52V74.6H229.024C219.808 74.6 215.2 77.624 215.2 83.672C215.2 86.552 216.304 88.856 218.512 90.584C220.816 92.216 223.936 93.032 227.872 93.032ZM366.983 0.151994V107H345.527V98.072C339.959 104.792 331.895 108.152 321.335 108.152C314.039 108.152 307.415 106.52 301.463 103.256C295.607 99.992 290.999 95.336 287.639 89.288C284.279 83.24 282.599 76.232 282.599 68.264C282.599 60.296 284.279 53.288 287.639 47.24C290.999 41.192 295.607 36.536 301.463 33.272C307.415 30.008 314.039 28.376 321.335 28.376C331.223 28.376 338.951 31.496 344.519 37.736V0.151994H366.983ZM325.223 89.72C330.887 89.72 335.591 87.8 339.335 83.96C343.079 80.024 344.951 74.792 344.951 68.264C344.951 61.736 343.079 56.552 339.335 52.712C335.591 48.776 330.887 46.808 325.223 46.808C319.463 46.808 314.711 48.776 310.967 52.712C307.223 56.552 305.351 61.736 305.351 68.264C305.351 74.792 307.223 80.024 310.967 83.96C314.711 87.8 319.463 89.72 325.223 89.72ZM486.99 28.376C496.686 28.376 504.366 31.256 510.03 37.016C515.79 42.68 518.67 51.224 518.67 62.648V107H496.206V66.104C496.206 59.96 494.91 55.4 492.318 52.424C489.822 49.352 486.222 47.816 481.518 47.816C476.238 47.816 472.062 49.544 468.99 53C465.918 56.36 464.382 61.4 464.382 68.12V107H441.918V66.104C441.918 53.912 437.022 47.816 427.23 47.816C422.046 47.816 417.918 49.544 414.846 53C411.774 56.36 410.238 61.4 410.238 68.12V107H387.774V29.528H409.23V38.456C412.11 35.192 415.614 32.696 419.742 30.968C423.966 29.24 428.574 28.376 433.566 28.376C439.038 28.376 443.982 29.48 448.398 31.688C452.814 33.8 456.366 36.92 459.054 41.048C462.222 37.016 466.206 33.896 471.006 31.688C475.902 29.48 481.23 28.376 486.99 28.376ZM570.054 28.376C582.054 28.376 591.27 31.256 597.702 37.016C604.134 42.68 607.35 51.272 607.35 62.792V107H586.326V97.352C582.102 104.552 574.23 108.152 562.71 108.152C556.758 108.152 551.574 107.144 547.158 105.128C542.838 103.112 539.526 100.328 537.222 96.776C534.918 93.224 533.766 89.192 533.766 84.68C533.766 77.48 536.454 71.816 541.83 67.688C547.302 63.56 555.702 61.496 567.03 61.496H584.886C584.886 56.6 583.398 52.856 580.422 50.264C577.446 47.576 572.982 46.232 567.03 46.232C562.902 46.232 558.822 46.904 554.79 48.248C550.854 49.496 547.494 51.224 544.71 53.432L536.646 37.736C540.87 34.76 545.91 32.456 551.766 30.824C557.718 29.192 563.814 28.376 570.054 28.376ZM568.326 93.032C572.166 93.032 575.574 92.168 578.55 90.44C581.526 88.616 583.638 85.976 584.886 82.52V74.6H569.478C560.262 74.6 555.654 77.624 555.654 83.672C555.654 86.552 556.758 88.856 558.966 90.584C561.27 92.216 564.39 93.032 568.326 93.032ZM673.473 28.376C680.673 28.376 687.201 30.056 693.057 33.416C699.009 36.68 703.665 41.336 707.025 47.384C710.385 53.336 712.065 60.296 712.065 68.264C712.065 76.232 710.385 83.24 707.025 89.288C703.665 95.24 699.009 99.896 693.057 103.256C687.201 106.52 680.673 108.152 673.473 108.152C663.585 108.152 655.809 105.032 650.145 98.792V134.936H627.681V29.528H649.137V38.456C654.705 31.736 662.817 28.376 673.473 28.376ZM669.585 89.72C675.345 89.72 680.049 87.8 683.697 83.96C687.441 80.024 689.312 74.792 689.312 68.264C689.312 61.736 687.441 56.552 683.697 52.712C680.049 48.776 675.345 46.808 669.585 46.808C663.825 46.808 659.073 48.776 655.328 52.712C651.681 56.552 649.857 61.736 649.857 68.264C649.857 74.792 651.681 80.024 655.328 83.96C659.073 87.8 663.825 89.72 669.585 89.72Z" fill="#0F0F0F"/>
<path d="M65.176 107L63.5316 108.138L64.1281 109H65.176V107ZM45.736 78.92L47.3804 77.7816L46.7839 76.92H45.736V78.92ZM24.28 78.92V76.92H22.28V78.92H24.28ZM24.28 107V109H26.28V107H24.28ZM0.952001 107H-1.048V109H0.952001V107ZM0.952001 6.19999V4.19999H-1.048V6.19999H0.952001ZM67.768 10.664L66.9384 12.4838L66.9484 12.4883L67.768 10.664ZM82.888 62.216L81.2239 61.1066L81.2193 61.1135L82.888 62.216ZM67.624 74.6L66.8265 72.7659L64.5854 73.7403L65.9838 75.7445L67.624 74.6ZM90.232 107V109H94.0663L91.8722 105.856L90.232 107ZM59.272 29.816L57.9837 31.3458L57.9957 31.3559L58.0078 31.3657L59.272 29.816ZM24.28 25.208V23.208H22.28V25.208H24.28ZM24.28 60.344H22.28V62.344H24.28V60.344ZM59.272 55.736L60.5603 57.2658L59.272 55.736ZM66.8204 105.862L47.3804 77.7816L44.0916 80.0584L63.5316 108.138L66.8204 105.862ZM45.736 76.92H44.584V80.92H45.736V76.92ZM44.584 76.92H24.28V80.92H44.584V76.92ZM22.28 78.92V107H26.28V78.92H22.28ZM24.28 105H0.952001V109H24.28V105ZM2.952 107V6.19999H-1.048V107H2.952ZM0.952001 8.19999H44.584V4.19999H0.952001V8.19999ZM44.584 8.19999C53.2938 8.19999 60.7264 9.65186 66.9384 12.4838L68.5976 8.84418C61.7536 5.72413 53.7302 4.19999 44.584 4.19999V8.19999ZM66.9484 12.4883C73.2627 15.3252 78.035 19.3112 81.3544 24.4249L84.7096 22.2471C80.925 16.4168 75.5213 11.9548 68.5876 8.83966L66.9484 12.4883ZM81.3544 24.4249C84.6662 29.5268 86.36 35.6159 86.36 42.776H90.36C90.36 34.9601 88.5018 28.0891 84.7096 22.2471L81.3544 24.4249ZM86.36 42.776C86.36 49.9256 84.6235 56.0071 81.2239 61.1066L84.5521 63.3254C88.4485 57.4809 90.36 50.6024 90.36 42.776H86.36ZM81.2193 61.1135C77.906 66.1283 73.1398 70.021 66.8265 72.7659L68.4215 76.4341C75.3562 73.419 80.766 69.0557 84.5567 63.3185L81.2193 61.1135ZM65.9838 75.7445L88.5918 108.144L91.8722 105.856L69.2642 73.4555L65.9838 75.7445ZM90.232 105H65.176V109H90.232V105ZM66.744 42.776C66.744 36.6461 64.7452 31.6999 60.5363 28.2663L58.0078 31.3657C61.0948 33.8841 62.744 37.5779 62.744 42.776H66.744ZM60.5603 28.2862C56.4157 24.796 50.5523 23.208 43.288 23.208V27.208C50.0397 27.208 54.8323 28.692 57.9837 31.3458L60.5603 28.2862ZM43.288 23.208H24.28V27.208H43.288V23.208ZM22.28 25.208V60.344H26.28V25.208H22.28ZM24.28 62.344H43.288V58.344H24.28V62.344ZM43.288 62.344C50.5523 62.344 56.4157 60.756 60.5603 57.2658L57.9837 54.2062C54.8323 56.86 50.0397 58.344 43.288 58.344V62.344ZM60.5603 57.2658C64.7372 53.7484 66.744 48.8242 66.744 42.776H62.744C62.744 47.8638 61.1028 51.5796 57.9837 54.2062L60.5603 57.2658ZM120.091 103.112L119.144 104.874L119.16 104.882L119.175 104.89L120.091 103.112ZM104.971 88.856L103.258 89.889L104.971 88.856ZM104.971 47.672L103.258 46.639L104.971 47.672ZM120.091 33.56L121.017 35.3327L121.026 35.3276L120.091 33.56ZM164.011 33.56L163.064 35.3218L163.074 35.3273L163.085 35.3327L164.011 33.56ZM179.131 47.672L180.843 46.639L179.131 47.672ZM179.131 88.856L180.843 89.889L179.131 88.856ZM164.011 103.112L164.937 104.885L164.947 104.879L164.957 104.874L164.011 103.112ZM156.235 83.96L154.786 82.5816L154.785 82.5825L156.235 83.96ZM156.235 52.712L154.768 54.0715L154.785 54.0901L154.803 54.1082L156.235 52.712ZM127.867 52.712L129.299 54.1082L129.307 54.0994L129.316 54.0904L127.867 52.712ZM127.867 83.96L126.418 85.3384L126.426 85.3474L126.435 85.3562L127.867 83.96ZM142.123 106.152C134.245 106.152 127.22 104.532 121.006 101.334L119.175 104.89C126.017 108.412 133.68 110.152 142.123 110.152V106.152ZM121.037 101.35C114.91 98.058 110.139 93.5531 106.683 87.823L103.258 89.889C107.098 96.2549 112.407 101.254 119.144 104.874L121.037 101.35ZM106.683 87.823C103.24 82.1138 101.499 75.6128 101.499 68.264H97.4986C97.4986 76.2752 99.4057 83.5022 103.258 89.889L106.683 87.823ZM101.499 68.264C101.499 60.9152 103.24 54.4142 106.683 48.705L103.258 46.639C99.4057 53.0258 97.4986 60.2528 97.4986 68.264H101.499ZM106.683 48.705C110.136 42.9799 114.9 38.5278 121.017 35.3327L119.165 31.7873C112.417 35.3122 107.101 40.2681 103.258 46.639L106.683 48.705ZM121.026 35.3276C127.237 32.0397 134.254 30.376 142.123 30.376V26.376C133.671 26.376 126 28.1683 119.155 31.7924L121.026 35.3276ZM142.123 30.376C149.992 30.376 156.956 32.0398 163.064 35.3218L164.957 31.7982C158.201 28.1682 150.574 26.376 142.123 26.376V30.376ZM163.085 35.3327C169.201 38.5278 173.965 42.9799 177.418 48.705L180.843 46.639C177 40.2681 171.684 35.3122 164.937 31.7873L163.085 35.3327ZM177.418 48.705C180.862 54.4142 182.603 60.9152 182.603 68.264H186.603C186.603 60.2528 184.696 53.0258 180.843 46.639L177.418 48.705ZM182.603 68.264C182.603 75.6128 180.862 82.1138 177.418 87.823L180.843 89.889C184.696 83.5022 186.603 76.2752 186.603 68.264H182.603ZM177.418 87.823C173.962 93.5531 169.191 98.058 163.064 101.35L164.957 104.874C171.694 101.254 177.003 96.2549 180.843 89.889L177.418 87.823ZM163.085 101.339C156.972 104.532 150.001 106.152 142.123 106.152V110.152C150.564 110.152 158.185 108.412 164.937 104.885L163.085 101.339ZM142.123 91.72C148.378 91.72 153.624 89.612 157.685 85.3375L154.785 82.5825C151.549 85.988 147.388 87.72 142.123 87.72V91.72ZM157.684 85.3384C161.851 80.958 163.851 75.1952 163.851 68.264H159.851C159.851 74.3887 158.107 79.09 154.786 82.5816L157.684 85.3384ZM163.851 68.264C163.851 61.3346 161.851 55.6074 157.667 51.3158L154.803 54.1082C158.106 57.4966 159.851 62.1374 159.851 68.264H163.851ZM157.701 51.3525C153.645 46.9757 148.394 44.808 142.123 44.808V48.808C147.372 48.808 151.528 50.5763 154.768 54.0715L157.701 51.3525ZM142.123 44.808C135.852 44.808 130.564 46.9747 126.418 51.3336L129.316 54.0904C132.657 50.5773 136.873 48.808 142.123 48.808V44.808ZM126.435 51.3158C122.25 55.6074 120.251 61.3346 120.251 68.264H124.251C124.251 62.1374 125.995 57.4966 129.299 54.1082L126.435 51.3158ZM120.251 68.264C120.251 75.1952 122.251 80.958 126.418 85.3384L129.316 82.5816C125.995 79.09 124.251 74.3887 124.251 68.264H120.251ZM126.435 85.3562C130.585 89.6129 135.868 91.72 142.123 91.72V87.72C136.858 87.72 132.636 85.9871 129.299 82.5638L126.435 85.3562ZM257.248 37.016L255.914 38.5059L255.92 38.5115L255.927 38.517L257.248 37.016ZM266.896 107V109H268.896V107H266.896ZM245.872 107H243.872V109H245.872V107ZM245.872 97.352H247.872V89.9905L244.147 96.34L245.872 97.352ZM206.704 105.128L205.859 106.94L205.866 106.944L205.874 106.947L206.704 105.128ZM196.768 96.776L198.446 95.6876L196.768 96.776ZM201.376 67.688L200.172 66.0914L200.165 66.0965L200.158 66.1017L201.376 67.688ZM244.432 61.496V63.496H246.432V61.496H244.432ZM239.968 50.264L238.628 51.7482L238.641 51.7603L238.655 51.7722L239.968 50.264ZM214.336 48.248L214.941 50.1545L214.955 50.15L214.969 50.1454L214.336 48.248ZM204.256 53.432L202.477 54.346L203.591 56.5127L205.499 54.999L204.256 53.432ZM196.192 37.736L195.04 36.101L193.619 37.1028L194.413 38.65L196.192 37.736ZM211.312 30.824L210.784 28.8952L210.775 28.8974L211.312 30.824ZM238.096 90.44L239.101 92.1696L239.121 92.1576L239.141 92.1452L238.096 90.44ZM244.432 82.52L246.313 83.1993L246.432 82.87V82.52H244.432ZM244.432 74.6H246.432V72.6H244.432V74.6ZM218.512 90.584L217.28 92.159L217.317 92.1884L217.356 92.216L218.512 90.584ZM229.6 30.376C241.3 30.376 249.971 33.1833 255.914 38.5059L258.583 35.5261C251.662 29.3287 241.901 26.376 229.6 26.376V30.376ZM255.927 38.517C261.793 43.6827 264.896 51.6386 264.896 62.792H268.896C268.896 50.9054 265.568 41.6773 258.57 35.515L255.927 38.517ZM264.896 62.792V107H268.896V62.792H264.896ZM266.896 105H245.872V109H266.896V105ZM247.872 107V97.352H243.872V107H247.872ZM244.147 96.34C240.413 102.706 233.369 106.152 222.256 106.152V110.152C234.184 110.152 242.884 106.398 247.597 98.364L244.147 96.34ZM222.256 106.152C216.528 106.152 211.638 105.182 207.535 103.309L205.874 106.947C210.603 109.106 216.081 110.152 222.256 110.152V106.152ZM207.55 103.316C203.526 101.438 200.521 98.8867 198.446 95.6876L195.09 97.8644C197.623 101.769 201.243 104.786 205.859 106.94L207.55 103.316ZM198.446 95.6876C196.367 92.4813 195.312 88.8323 195.312 84.68H191.312C191.312 89.5517 192.562 93.9667 195.09 97.8644L198.446 95.6876ZM195.312 84.68C195.312 78.0566 197.746 72.9972 202.594 69.2743L200.158 66.1017C194.255 70.6348 191.312 76.9034 191.312 84.68H195.312ZM202.581 69.2846C207.544 65.5404 215.424 63.496 226.576 63.496V59.496C215.073 59.496 206.153 61.5796 200.172 66.0914L202.581 69.2846ZM226.576 63.496H244.432V59.496H226.576V63.496ZM246.432 61.496C246.432 56.1724 244.796 51.8166 241.282 48.7558L238.655 51.7722C241.093 53.8954 242.432 57.0276 242.432 61.496H246.432ZM241.309 48.7798C237.822 45.6305 232.789 44.232 226.576 44.232V48.232C232.268 48.232 236.163 49.5215 238.628 51.7482L241.309 48.7798ZM226.576 44.232C222.227 44.232 217.934 44.9407 213.704 46.3506L214.969 50.1454C218.803 48.8673 222.67 48.232 226.576 48.232V44.232ZM213.732 46.3415C209.601 47.6513 206.016 49.4837 203.014 51.865L205.499 54.999C208.065 52.9643 211.2 51.3407 214.941 50.1545L213.732 46.3415ZM206.035 52.518L197.971 36.822L194.413 38.65L202.477 54.346L206.035 52.518ZM197.344 39.371C201.352 36.5475 206.175 34.3318 211.849 32.7506L210.775 28.8974C204.737 30.5802 199.481 32.9725 195.04 36.101L197.344 39.371ZM211.841 32.7528C217.619 31.1686 223.537 30.376 229.6 30.376V26.376C223.184 26.376 216.91 27.2154 210.784 28.8952L211.841 32.7528ZM227.872 95.032C232.023 95.032 235.785 94.0946 239.101 92.1696L237.092 88.7104C234.455 90.2414 231.401 91.032 227.872 91.032V95.032ZM239.141 92.1452C242.526 90.0709 244.92 87.058 246.313 83.1993L242.551 81.8407C241.449 84.894 239.619 87.1611 237.051 88.7348L239.141 92.1452ZM246.432 82.52V74.6H242.432V82.52H246.432ZM244.432 72.6H229.024V76.6H244.432V72.6ZM229.024 72.6C224.261 72.6 220.342 73.3699 217.559 75.1959C214.63 77.1183 213.2 80.0518 213.2 83.672H217.2C217.2 81.2442 218.075 79.6417 219.754 78.5401C221.579 77.3421 224.572 76.6 229.024 76.6V72.6ZM213.2 83.672C213.2 87.1476 214.572 90.0401 217.28 92.159L219.745 89.009C218.037 87.6719 217.2 85.9564 217.2 83.672H213.2ZM217.356 92.216C220.108 94.1651 223.681 95.032 227.872 95.032V91.032C224.192 91.032 221.525 90.2669 219.668 88.952L217.356 92.216ZM366.983 0.151993H368.983V-1.84801H366.983V0.151993ZM366.983 107V109H368.983V107H366.983ZM345.527 107H343.527V109H345.527V107ZM345.527 98.072H347.527V92.5235L343.987 96.796L345.527 98.072ZM301.463 103.256L300.489 105.003L300.501 105.01L301.463 103.256ZM287.639 89.288L289.387 88.3167L287.639 89.288ZM287.639 47.24L289.387 48.2113L287.639 47.24ZM301.463 33.272L300.501 31.5183L300.489 31.525L301.463 33.272ZM344.519 37.736L343.027 39.0676L346.519 42.9813V37.736H344.519ZM344.519 0.151993V-1.84801H342.519V0.151993H344.519ZM339.335 83.96L340.767 85.3562L340.776 85.3474L340.784 85.3384L339.335 83.96ZM339.335 52.712L337.886 54.0904L337.895 54.0994L337.903 54.1082L339.335 52.712ZM310.967 52.712L312.399 54.1082L312.408 54.0994L312.416 54.0904L310.967 52.712ZM310.967 83.96L309.518 85.3384L309.527 85.3474L309.535 85.3562L310.967 83.96ZM364.983 0.151993V107H368.983V0.151993H364.983ZM366.983 105H345.527V109H366.983V105ZM347.527 107V98.072H343.527V107H347.527ZM343.987 96.796C338.879 102.961 331.437 106.152 321.335 106.152V110.152C332.353 110.152 341.039 106.623 347.067 99.348L343.987 96.796ZM321.335 106.152C314.349 106.152 308.06 104.593 302.425 101.502L300.501 105.01C306.77 108.447 313.729 110.152 321.335 110.152V106.152ZM302.437 101.509C296.917 98.4324 292.573 94.05 289.387 88.3167L285.891 90.2593C289.426 96.622 294.297 101.552 300.489 105.003L302.437 101.509ZM289.387 88.3167C286.216 82.6083 284.599 75.9442 284.599 68.264H280.599C280.599 76.5198 282.342 83.8717 285.891 90.2593L289.387 88.3167ZM284.599 68.264C284.599 60.5838 286.216 53.9197 289.387 48.2113L285.891 46.2687C282.342 52.6562 280.599 60.0082 280.599 68.264H284.599ZM289.387 48.2113C292.573 42.478 296.917 38.0956 302.437 35.019L300.489 31.525C294.297 34.9764 289.426 39.906 285.891 46.2687L289.387 48.2113ZM302.425 35.0256C308.06 31.9353 314.349 30.376 321.335 30.376V26.376C313.729 26.376 306.77 28.0807 300.501 31.5184L302.425 35.0256ZM321.335 30.376C330.767 30.376 337.908 33.331 343.027 39.0676L346.011 36.4044C339.994 29.661 331.679 26.376 321.335 26.376V30.376ZM346.519 37.736V0.151993H342.519V37.736H346.519ZM344.519 2.15199H366.983V-1.84801H344.519V2.15199ZM325.223 91.72C331.393 91.72 336.624 89.6058 340.767 85.3562L337.903 82.5638C334.558 85.9942 330.382 87.72 325.223 87.72V91.72ZM340.784 85.3384C344.951 80.958 346.951 75.1952 346.951 68.264H342.951C342.951 74.3887 341.207 79.09 337.886 82.5816L340.784 85.3384ZM346.951 68.264C346.951 61.3346 344.951 55.6074 340.767 51.3158L337.903 54.1082C341.207 57.4966 342.951 62.1374 342.951 68.264H346.951ZM340.784 51.3336C336.645 46.982 331.409 44.808 325.223 44.808V48.808C330.366 48.808 334.537 50.57 337.886 54.0904L340.784 51.3336ZM325.223 44.808C318.952 44.808 313.664 46.9747 309.518 51.3336L312.416 54.0904C315.758 50.5773 319.974 48.808 325.223 48.808V44.808ZM309.535 51.3158C305.351 55.6074 303.351 61.3346 303.351 68.264H307.351C307.351 62.1374 309.095 57.4966 312.399 54.1082L309.535 51.3158ZM303.351 68.264C303.351 75.1952 305.351 80.958 309.518 85.3384L312.416 82.5816C309.095 79.09 307.351 74.3887 307.351 68.264H303.351ZM309.535 85.3562C313.685 89.6129 318.968 91.72 325.223 91.72V87.72C319.958 87.72 315.737 85.9871 312.399 82.5638L309.535 85.3562ZM510.03 37.016L508.604 38.4183L508.616 38.4303L508.628 38.442L510.03 37.016ZM518.67 107V109H520.67V107H518.67ZM496.206 107H494.206V109H496.206V107ZM492.318 52.424L490.766 53.6852L490.788 53.7117L490.81 53.7376L492.318 52.424ZM468.99 53L470.466 54.3495L470.476 54.3392L470.485 54.3287L468.99 53ZM464.382 107V109H466.382V107H464.382ZM441.918 107H439.918V109H441.918V107ZM414.846 53L416.322 54.3495L416.332 54.3392L416.341 54.3287L414.846 53ZM410.238 107V109H412.238V107H410.238ZM387.774 107H385.774V109H387.774V107ZM387.774 29.528V27.528H385.774V29.528H387.774ZM409.23 29.528H411.23V27.528H409.23V29.528ZM409.23 38.456H407.23V43.7455L410.73 39.7792L409.23 38.456ZM419.742 30.968L418.985 29.1169L418.977 29.12L418.97 29.1231L419.742 30.968ZM448.398 31.688L447.504 33.4769L447.52 33.4847L447.535 33.4923L448.398 31.688ZM459.054 41.048L457.378 42.1393L458.902 44.4791L460.627 42.2836L459.054 41.048ZM471.006 31.688L470.184 29.8648L470.177 29.8679L470.17 29.871L471.006 31.688ZM486.99 30.376C496.265 30.376 503.39 33.1157 508.604 38.4183L511.456 35.6137C505.343 29.3963 497.107 26.376 486.99 26.376V30.376ZM508.628 38.442C513.87 43.5971 516.67 51.5351 516.67 62.648H520.67C520.67 50.9129 517.71 41.7629 511.433 35.59L508.628 38.442ZM516.67 62.648V107H520.67V62.648H516.67ZM518.67 105H496.206V109H518.67V105ZM498.206 107V66.104H494.206V107H498.206ZM498.206 66.104C498.206 59.7337 496.871 54.6061 493.826 51.1104L490.81 53.7376C492.949 56.1939 494.206 60.1863 494.206 66.104H498.206ZM493.87 51.1628C490.922 47.5336 486.698 45.816 481.518 45.816V49.816C485.746 49.816 488.723 51.1704 490.766 53.6852L493.87 51.1628ZM481.518 45.816C475.757 45.816 471.003 47.7255 467.495 51.6713L470.485 54.3287C473.122 51.3625 476.72 49.816 481.518 49.816V45.816ZM467.514 51.6505C463.975 55.5212 462.382 61.1339 462.382 68.12H466.382C466.382 61.6661 467.861 57.1988 470.466 54.3495L467.514 51.6505ZM462.382 68.12V107H466.382V68.12H462.382ZM464.382 105H441.918V109H464.382V105ZM443.918 107V66.104H439.918V107H443.918ZM443.918 66.104C443.918 59.7929 442.66 54.6893 439.806 51.1356C436.884 47.4982 432.565 45.816 427.23 45.816V49.816C431.688 49.816 434.712 51.1818 436.687 53.6404C438.729 56.1827 439.918 60.2231 439.918 66.104H443.918ZM427.23 45.816C421.552 45.816 416.851 47.7339 413.351 51.6713L416.341 54.3287C418.985 51.3541 422.54 49.816 427.23 49.816V45.816ZM413.37 51.6505C409.831 55.5212 408.238 61.1339 408.238 68.12H412.238C412.238 61.6661 413.717 57.1988 416.322 54.3495L413.37 51.6505ZM408.238 68.12V107H412.238V68.12H408.238ZM410.238 105H387.774V109H410.238V105ZM389.774 107V29.528H385.774V107H389.774ZM387.774 31.528H409.23V27.528H387.774V31.528ZM407.23 29.528V38.456H411.23V29.528H407.23ZM410.73 39.7792C413.404 36.7483 416.657 34.4276 420.515 32.8129L418.97 29.1231C414.571 30.9644 410.816 33.6357 407.731 37.1328L410.73 39.7792ZM420.5 32.8191C424.461 31.1983 428.809 30.376 433.566 30.376V26.376C428.339 26.376 423.471 27.2817 418.985 29.1169L420.5 32.8191ZM433.566 30.376C438.762 30.376 443.395 31.4222 447.504 33.4769L449.293 29.8991C444.57 27.5378 439.315 26.376 433.566 26.376V30.376ZM447.535 33.4923C451.618 35.4447 454.889 38.3171 457.378 42.1393L460.73 39.9566C457.843 35.5229 454.011 32.1553 449.261 29.8837L447.535 33.4923ZM460.627 42.2836C463.593 38.5089 467.321 35.5846 471.842 33.505L470.17 29.871C465.091 32.2074 460.852 35.5231 457.482 39.8124L460.627 42.2836ZM471.828 33.5112C476.448 31.428 481.493 30.376 486.99 30.376V26.376C480.968 26.376 475.357 27.532 470.184 29.8648L471.828 33.5112ZM597.701 37.016L596.367 38.5059L596.373 38.5115L596.38 38.517L597.701 37.016ZM607.349 107V109H609.349V107H607.349ZM586.326 107H584.326V109H586.326V107ZM586.326 97.352H588.326V89.9905L584.6 96.34L586.326 97.352ZM547.158 105.128L546.312 106.94L546.319 106.944L546.327 106.947L547.158 105.128ZM537.221 96.776L538.899 95.6876L537.221 96.776ZM541.83 67.688L540.625 66.0914L540.618 66.0965L540.611 66.1017L541.83 67.688ZM584.885 61.496V63.496H586.885V61.496H584.885ZM580.422 50.264L579.081 51.7482L579.094 51.7603L579.108 51.7722L580.422 50.264ZM554.789 48.248L555.394 50.1545L555.408 50.15L555.422 50.1454L554.789 48.248ZM544.709 53.432L542.931 54.346L544.044 56.5127L545.952 54.999L544.709 53.432ZM536.646 37.736L535.494 36.101L534.072 37.1028L534.867 38.65L536.646 37.736ZM551.766 30.824L551.237 28.8952L551.229 28.8974L551.766 30.824ZM578.549 90.44L579.554 92.1696L579.574 92.1576L579.595 92.1452L578.549 90.44ZM584.885 82.52L586.767 83.1993L586.885 82.87V82.52H584.885ZM584.885 74.6H586.885V72.6H584.885V74.6ZM558.966 90.584L557.733 92.159L557.771 92.1884L557.809 92.216L558.966 90.584ZM570.054 30.376C581.753 30.376 590.424 33.1833 596.367 38.5059L599.036 35.5261C592.115 29.3287 582.354 26.376 570.054 26.376V30.376ZM596.38 38.517C602.246 43.6827 605.349 51.6386 605.349 62.792H609.349C609.349 50.9054 606.021 41.6773 599.023 35.515L596.38 38.517ZM605.349 62.792V107H609.349V62.792H605.349ZM607.349 105H586.326V109H607.349V105ZM588.326 107V97.352H584.326V107H588.326ZM584.6 96.34C580.866 102.706 573.822 106.152 562.709 106.152V110.152C574.637 110.152 583.337 106.398 588.051 98.364L584.6 96.34ZM562.709 106.152C556.981 106.152 552.091 105.182 547.988 103.309L546.327 106.947C551.056 109.106 556.534 110.152 562.709 110.152V106.152ZM548.003 103.316C543.979 101.438 540.974 98.8867 538.899 95.6876L535.544 97.8644C538.077 101.769 541.696 104.786 546.312 106.94L548.003 103.316ZM538.899 95.6876C536.82 92.4813 535.766 88.8323 535.766 84.68H531.766C531.766 89.5517 533.015 93.9667 535.544 97.8644L538.899 95.6876ZM535.766 84.68C535.766 78.0566 538.199 72.9972 543.048 69.2743L540.611 66.1017C534.708 70.6348 531.766 76.9034 531.766 84.68H535.766ZM543.034 69.2846C547.997 65.5404 555.877 63.496 567.029 63.496V59.496C555.526 59.496 546.606 61.5796 540.625 66.0914L543.034 69.2846ZM567.029 63.496H584.885V59.496H567.029V63.496ZM586.885 61.496C586.885 56.1724 585.249 51.8166 581.735 48.7558L579.108 51.7722C581.546 53.8954 582.885 57.0276 582.885 61.496H586.885ZM581.762 48.7798C578.275 45.6305 573.242 44.232 567.029 44.232V48.232C572.721 48.232 576.616 49.5215 579.081 51.7482L581.762 48.7798ZM567.029 44.232C562.68 44.232 558.387 44.9407 554.157 46.3506L555.422 50.1454C559.256 48.8673 563.123 48.232 567.029 48.232V44.232ZM554.185 46.3415C550.054 47.6513 546.469 49.4837 543.467 51.865L545.952 54.999C548.518 52.9643 551.653 51.3407 555.394 50.1545L554.185 46.3415ZM546.488 52.518L538.424 36.822L534.867 38.65L542.931 54.346L546.488 52.518ZM537.797 39.371C541.805 36.5475 546.629 34.3318 552.302 32.7506L551.229 28.8974C545.19 30.5802 539.934 32.9725 535.494 36.101L537.797 39.371ZM552.294 32.7528C558.072 31.1686 563.99 30.376 570.054 30.376V26.376C563.637 26.376 557.363 27.2154 551.237 28.8952L552.294 32.7528ZM568.326 95.032C572.476 95.032 576.238 94.0946 579.554 92.1696L577.545 88.7104C574.909 90.2414 571.855 91.032 568.326 91.032V95.032ZM579.595 92.1452C582.979 90.0709 585.373 87.058 586.767 83.1993L583.004 81.8407C581.902 84.894 580.072 87.1611 577.504 88.7348L579.595 92.1452ZM586.885 82.52V74.6H582.885V82.52H586.885ZM584.885 72.6H569.477V76.6H584.885V72.6ZM569.477 72.6C564.714 72.6 560.795 73.3699 558.012 75.1959C555.083 77.1183 553.654 80.0518 553.654 83.672H557.654C557.654 81.2442 558.528 79.6417 560.207 78.5401C562.032 77.3421 565.025 76.6 569.477 76.6V72.6ZM553.654 83.672C553.654 87.1476 555.025 90.0401 557.733 92.159L560.198 89.009C558.49 87.6719 557.654 85.9564 557.654 83.672H553.654ZM557.809 92.216C560.561 94.1651 564.134 95.032 568.326 95.032V91.032C564.645 91.032 561.978 90.2669 560.122 88.952L557.809 92.216ZM693.057 33.416L692.061 35.1507L692.078 35.1603L692.095 35.1696L693.057 33.416ZM707.024 47.384L705.276 48.3553L705.283 48.3672L707.024 47.384ZM707.024 89.288L708.766 90.2712L708.773 90.2593L707.024 89.288ZM693.057 103.256L694.03 105.003L694.04 104.998L693.057 103.256ZM650.145 98.792L651.625 97.4478L648.145 93.6129V98.792H650.145ZM650.145 134.936V136.936H652.145V134.936H650.145ZM627.68 134.936H625.68V136.936H627.68V134.936ZM627.68 29.528V27.528H625.68V29.528H627.68ZM649.136 29.528H651.136V27.528H649.136V29.528ZM649.136 38.456H647.136V44.0045L650.677 39.732L649.136 38.456ZM683.697 83.96L682.247 82.5816L682.247 82.5825L683.697 83.96ZM683.697 52.712L682.23 54.0715L682.247 54.0901L682.265 54.1082L683.697 52.712ZM655.328 52.712L653.879 51.3336L653.878 51.3345L655.328 52.712ZM655.328 83.96L653.862 85.3195L653.879 85.3381L653.896 85.3562L655.328 83.96ZM673.472 30.376C680.347 30.376 686.528 31.9761 692.061 35.1507L694.052 31.6813C687.873 28.1359 680.998 26.376 673.472 26.376V30.376ZM692.095 35.1696C697.709 38.2486 702.096 42.6303 705.276 48.3553L708.773 46.4127C705.233 40.0417 700.308 35.1114 694.018 31.6624L692.095 35.1696ZM705.283 48.3672C708.447 53.9727 710.065 60.5829 710.065 68.264H714.065C714.065 60.0091 712.322 52.6992 708.766 46.4008L705.283 48.3672ZM710.065 68.264C710.065 75.9442 708.448 82.6083 705.276 88.3167L708.773 90.2593C712.321 83.8717 714.065 76.5198 714.065 68.264H710.065ZM705.283 88.3048C702.102 93.9396 697.708 98.3334 692.073 101.514L694.04 104.998C700.309 101.459 705.227 96.5404 708.766 90.2712L705.283 88.3048ZM692.083 101.509C686.546 104.595 680.358 106.152 673.472 106.152V110.152C680.987 110.152 687.855 108.445 694.03 105.003L692.083 101.509ZM673.472 106.152C664.042 106.152 656.844 103.197 651.625 97.4478L648.664 100.136C654.773 106.867 663.128 110.152 673.472 110.152V106.152ZM648.145 98.792V134.936H652.145V98.792H648.145ZM650.145 132.936H627.68V136.936H650.145V132.936ZM629.68 134.936V29.528H625.68V134.936H629.68ZM627.68 31.528H649.136V27.528H627.68V31.528ZM647.136 29.528V38.456H651.136V29.528H647.136ZM650.677 39.732C655.781 33.5714 663.267 30.376 673.472 30.376V26.376C662.366 26.376 653.628 29.9006 647.596 37.18L650.677 39.732ZM669.584 91.72C675.839 91.72 681.086 89.612 685.146 85.3375L682.247 82.5825C679.011 85.988 674.85 87.72 669.584 87.72V91.72ZM685.146 85.3384C689.312 80.958 691.312 75.1952 691.312 68.264H687.312C687.312 74.3887 685.569 79.09 682.247 82.5816L685.146 85.3384ZM691.312 68.264C691.312 61.3346 689.313 55.6074 685.128 51.3158L682.265 54.1082C685.568 57.4966 687.312 62.1374 687.312 68.264H691.312ZM685.163 51.3525C681.107 46.9757 675.856 44.808 669.584 44.808V48.808C674.833 48.808 678.99 50.5763 682.23 54.0715L685.163 51.3525ZM669.584 44.808C663.314 44.808 658.026 46.9747 653.879 51.3336L656.778 54.0904C660.119 50.5773 664.335 48.808 669.584 48.808V44.808ZM653.878 51.3345C649.799 55.6282 647.857 61.3488 647.857 68.264H651.857C651.857 62.1232 653.562 57.4758 656.779 54.0895L653.878 51.3345ZM647.857 68.264C647.857 75.1812 649.8 80.9373 653.862 85.3195L656.795 82.6005C653.561 79.1107 651.857 74.4028 651.857 68.264H647.857ZM653.896 85.3562C658.047 89.6129 663.33 91.72 669.584 91.72V87.72C664.319 87.72 660.098 85.9871 656.76 82.5638L653.896 85.3562Z" fill="url(#paint0_linear_81_64)"/>
<defs>
<linearGradient id="paint0_linear_81_64" x1="353" y1="-33" x2="353" y2="143" gradientUnits="userSpaceOnUse">
<stop stop-color="#8BEFC8"/>
<stop offset="1" stop-color="#9E4CFD"/>
</linearGradient>
</defs>
</svg>
