<svg width="890" height="169" viewBox="0 0 890 169" fill="none" xmlns="http://www.w3.org/2000/svg">
<path d="M81.22 134L56.92 98.9H55.48H30.1V134H0.940001V7.99999H55.48C66.64 7.99999 76.3 9.85999 84.46 13.58C92.74 17.3 99.1 22.58 103.54 29.42C107.98 36.26 110.2 44.36 110.2 53.72C110.2 63.08 107.92 71.18 103.36 78.02C98.92 84.74 92.56 89.9 84.28 93.5L112.54 134H81.22ZM80.68 53.72C80.68 46.64 78.4 41.24 73.84 37.52C69.28 33.68 62.62 31.76 53.86 31.76H30.1V75.68H53.86C62.62 75.68 69.28 73.76 73.84 69.92C78.4 66.08 80.68 60.68 80.68 53.72ZM177.403 135.44C167.203 135.44 158.023 133.34 149.863 129.14C141.823 124.82 135.523 118.88 130.963 111.32C126.403 103.76 124.123 95.18 124.123 85.58C124.123 75.98 126.403 67.4 130.963 59.84C135.523 52.28 141.823 46.4 149.863 42.2C158.023 37.88 167.203 35.72 177.403 35.72C187.603 35.72 196.723 37.88 204.763 42.2C212.803 46.4 219.103 52.28 223.663 59.84C228.223 67.4 230.503 75.98 230.503 85.58C230.503 95.18 228.223 103.76 223.663 111.32C219.103 118.88 212.803 124.82 204.763 129.14C196.723 133.34 187.603 135.44 177.403 135.44ZM177.403 112.4C184.603 112.4 190.483 110 195.043 105.2C199.723 100.28 202.063 93.74 202.063 85.58C202.063 77.42 199.723 70.94 195.043 66.14C190.483 61.22 184.603 58.76 177.403 58.76C170.203 58.76 164.263 61.22 159.583 66.14C154.903 70.94 152.563 77.42 152.563 85.58C152.563 93.74 154.903 100.28 159.583 105.2C164.263 110 170.203 112.4 177.403 112.4ZM286.75 35.72C301.75 35.72 313.27 39.32 321.31 46.52C329.35 53.6 333.37 64.34 333.37 78.74V134H307.09V121.94C301.81 130.94 291.97 135.44 277.57 135.44C270.13 135.44 263.65 134.18 258.13 131.66C252.73 129.14 248.59 125.66 245.71 121.22C242.83 116.78 241.39 111.74 241.39 106.1C241.39 97.1 244.75 90.02 251.47 84.86C258.31 79.7 268.81 77.12 282.97 77.12H305.29C305.29 71 303.43 66.32 299.71 63.08C295.99 59.72 290.41 58.04 282.97 58.04C277.81 58.04 272.71 58.88 267.67 60.56C262.75 62.12 258.55 64.28 255.07 67.04L244.99 47.42C250.27 43.7 256.57 40.82 263.89 38.78C271.33 36.74 278.95 35.72 286.75 35.72ZM284.59 116.54C289.39 116.54 293.65 115.46 297.37 113.3C301.09 111.02 303.73 107.72 305.29 103.4V93.5H286.03C274.51 93.5 268.75 97.28 268.75 104.84C268.75 108.44 270.13 111.32 272.89 113.48C275.77 115.52 279.67 116.54 284.59 116.54ZM458.479 0.439992V134H431.659V122.84C424.699 131.24 414.619 135.44 401.419 135.44C392.299 135.44 384.019 133.4 376.579 129.32C369.259 125.24 363.499 119.42 359.299 111.86C355.099 104.3 352.999 95.54 352.999 85.58C352.999 75.62 355.099 66.86 359.299 59.3C363.499 51.74 369.259 45.92 376.579 41.84C384.019 37.76 392.299 35.72 401.419 35.72C413.779 35.72 423.439 39.62 430.399 47.42V0.439992H458.479ZM406.279 112.4C413.359 112.4 419.239 110 423.919 105.2C428.599 100.28 430.939 93.74 430.939 85.58C430.939 77.42 428.599 70.94 423.919 66.14C419.239 61.22 413.359 58.76 406.279 58.76C399.079 58.76 393.139 61.22 388.459 66.14C383.779 70.94 381.439 77.42 381.439 85.58C381.439 93.74 383.779 100.28 388.459 105.2C393.139 110 399.079 112.4 406.279 112.4ZM608.488 35.72C620.608 35.72 630.208 39.32 637.288 46.52C644.488 53.6 648.088 64.28 648.088 78.56V134H620.008V82.88C620.008 75.2 618.388 69.5 615.148 65.78C612.028 61.94 607.528 60.02 601.648 60.02C595.048 60.02 589.828 62.18 585.988 66.5C582.148 70.7 580.228 77 580.228 85.4V134H552.148V82.88C552.148 67.64 546.028 60.02 533.788 60.02C527.308 60.02 522.148 62.18 518.308 66.5C514.468 70.7 512.548 77 512.548 85.4V134H484.468V37.16H511.288V48.32C514.888 44.24 519.268 41.12 524.428 38.96C529.708 36.8 535.468 35.72 541.708 35.72C548.548 35.72 554.728 37.1 560.248 39.86C565.768 42.5 570.208 46.4 573.568 51.56C577.528 46.52 582.508 42.62 588.508 39.86C594.628 37.1 601.288 35.72 608.488 35.72ZM712.317 35.72C727.317 35.72 738.837 39.32 746.877 46.52C754.917 53.6 758.937 64.34 758.937 78.74V134H732.657V121.94C727.377 130.94 717.537 135.44 703.137 135.44C695.697 135.44 689.217 134.18 683.697 131.66C678.297 129.14 674.157 125.66 671.277 121.22C668.397 116.78 666.957 111.74 666.957 106.1C666.957 97.1 670.317 90.02 677.037 84.86C683.877 79.7 694.377 77.12 708.537 77.12H730.857C730.857 71 728.997 66.32 725.277 63.08C721.557 59.72 715.977 58.04 708.537 58.04C703.377 58.04 698.277 58.88 693.237 60.56C688.317 62.12 684.117 64.28 680.637 67.04L670.557 47.42C675.837 43.7 682.137 40.82 689.457 38.78C696.897 36.74 704.517 35.72 712.317 35.72ZM710.157 116.54C714.957 116.54 719.217 115.46 722.937 113.3C726.657 111.02 729.297 107.72 730.857 103.4V93.5H711.597C700.077 93.5 694.317 97.28 694.317 104.84C694.317 108.44 695.697 111.32 698.457 113.48C701.337 115.52 705.237 116.54 710.157 116.54ZM841.591 35.72C850.591 35.72 858.751 37.82 866.071 42.02C873.511 46.1 879.331 51.92 883.531 59.48C887.731 66.92 889.831 75.62 889.831 85.58C889.831 95.54 887.731 104.3 883.531 111.86C879.331 119.3 873.511 125.12 866.071 129.32C858.751 133.4 850.591 135.44 841.591 135.44C829.231 135.44 819.511 131.54 812.431 123.74V168.92H784.351V37.16H811.171V48.32C818.131 39.92 828.271 35.72 841.591 35.72ZM836.731 112.4C843.931 112.4 849.811 110 854.371 105.2C859.051 100.28 861.391 93.74 861.391 85.58C861.391 77.42 859.051 70.94 854.371 66.14C849.811 61.22 843.931 58.76 836.731 58.76C829.531 58.76 823.591 61.22 818.911 66.14C814.351 70.94 812.071 77.42 812.071 85.58C812.071 93.74 814.351 100.28 818.911 105.2C823.591 110 829.531 112.4 836.731 112.4Z" fill="#0F0F0F"/>
<path d="M81.22 134L79.5756 135.138L80.1721 136H81.22V134ZM56.92 98.9L58.5644 97.7616L57.9679 96.9H56.92V98.9ZM30.1 98.9V96.9H28.1V98.9H30.1ZM30.1 134V136H32.1V134H30.1ZM0.940001 134H-1.06V136H0.940001V134ZM0.940001 7.99999V5.99999H-1.06V7.99999H0.940001ZM84.46 13.58L83.6304 15.3998L83.6404 15.4043L84.46 13.58ZM103.36 78.02L101.696 76.9106L101.691 76.9175L103.36 78.02ZM84.28 93.5L83.4825 91.6659L81.2414 92.6403L82.6398 94.6445L84.28 93.5ZM112.54 134V136H116.374L114.18 132.856L112.54 134ZM73.84 37.52L72.5517 39.0498L72.5637 39.0599L72.5758 39.0697L73.84 37.52ZM30.1 31.76V29.76H28.1V31.76H30.1ZM30.1 75.68H28.1V77.68H30.1V75.68ZM73.84 69.92L75.1283 71.4498L75.1283 71.4498L73.84 69.92ZM82.8644 132.862L58.5644 97.7616L55.2756 100.038L79.5756 135.138L82.8644 132.862ZM56.92 96.9H55.48V100.9H56.92V96.9ZM55.48 96.9H30.1V100.9H55.48V96.9ZM28.1 98.9V134H32.1V98.9H28.1ZM30.1 132H0.940001V136H30.1V132ZM2.94 134V7.99999H-1.06V134H2.94ZM0.940001 9.99999H55.48V5.99999H0.940001V9.99999ZM55.48 9.99999C66.4218 9.99999 75.7864 11.8239 83.6304 15.3998L85.2896 11.7602C76.8137 7.89613 66.8582 5.99999 55.48 5.99999V9.99999ZM83.6404 15.4043C91.6107 18.9852 97.655 24.0272 101.862 30.5089L105.218 28.3311C100.545 21.1328 93.8693 15.6148 85.2796 11.7557L83.6404 15.4043ZM101.862 30.5089C106.062 36.9788 108.2 44.6879 108.2 53.72H112.2C112.2 44.0321 109.898 35.5411 105.218 28.3311L101.862 30.5089ZM108.2 53.72C108.2 62.7416 106.008 70.4431 101.696 76.9106L105.024 79.1294C109.832 71.9169 112.2 63.4184 112.2 53.72H108.2ZM101.691 76.9175C97.49 83.2763 91.4518 88.201 83.4825 91.6659L85.0775 95.3341C93.6682 91.599 100.35 86.2037 105.029 79.1225L101.691 76.9175ZM82.6398 94.6445L110.9 135.144L114.18 132.856L85.9202 92.3555L82.6398 94.6445ZM112.54 132H81.22V136H112.54V132ZM82.68 53.72C82.68 46.1741 80.2253 40.1479 75.1043 35.9703L72.5758 39.0697C76.5748 42.3321 78.68 47.1059 78.68 53.72H82.68ZM75.1283 35.9902C70.0717 31.732 62.8763 29.76 53.86 29.76V33.76C62.3637 33.76 68.4883 35.628 72.5517 39.0498L75.1283 35.9902ZM53.86 29.76H30.1V33.76H53.86V29.76ZM28.1 31.76V75.68H32.1V31.76H28.1ZM30.1 77.68H53.86V73.68H30.1V77.68ZM53.86 77.68C62.8763 77.68 70.0717 75.708 75.1283 71.4498L72.5517 68.3902C68.4883 71.812 62.3637 73.68 53.86 73.68V77.68ZM75.1283 71.4498C80.2172 67.1644 82.68 61.1602 82.68 53.72H78.68C78.68 60.1998 76.5828 64.9956 72.5517 68.3902L75.1283 71.4498ZM149.863 129.14L148.917 130.902L148.932 130.91L148.948 130.918L149.863 129.14ZM130.963 111.32L129.251 112.353L129.251 112.353L130.963 111.32ZM130.963 59.84L129.251 58.807L129.251 58.807L130.963 59.84ZM149.863 42.2L150.789 43.9727L150.799 43.9676L149.863 42.2ZM204.763 42.2L203.817 43.9618L203.827 43.9673L203.837 43.9727L204.763 42.2ZM223.663 59.84L225.376 58.807L225.376 58.807L223.663 59.84ZM223.663 111.32L225.376 112.353L225.376 112.353L223.663 111.32ZM204.763 129.14L205.689 130.913L205.7 130.907L205.71 130.902L204.763 129.14ZM195.043 105.2L193.594 103.822L193.593 103.822L195.043 105.2ZM195.043 66.14L193.576 67.4995L193.594 67.5181L193.611 67.5362L195.043 66.14ZM159.583 66.14L161.015 67.5362L161.024 67.5274L161.032 67.5184L159.583 66.14ZM159.583 105.2L158.134 106.578L158.143 106.587L158.151 106.596L159.583 105.2ZM177.403 133.44C167.486 133.44 158.625 131.4 150.779 127.362L148.948 130.918C157.421 135.28 166.921 137.44 177.403 137.44V133.44ZM150.81 127.378C143.075 123.222 137.044 117.529 132.676 110.287L129.251 112.353C134.002 120.231 140.572 126.418 148.917 130.902L150.81 127.378ZM132.676 110.287C128.32 103.066 126.123 94.8488 126.123 85.58H122.123C122.123 95.5112 124.486 104.454 129.251 112.353L132.676 110.287ZM126.123 85.58C126.123 76.3112 128.32 68.0942 132.676 60.873L129.251 58.807C124.486 66.7058 122.123 75.6488 122.123 85.58H126.123ZM132.676 60.873C137.041 53.6359 143.065 48.0078 150.789 43.9727L148.937 40.4273C140.582 44.7922 134.005 50.9241 129.251 58.807L132.676 60.873ZM150.799 43.9676C158.641 39.8157 167.495 37.72 177.403 37.72V33.72C166.912 33.72 157.405 35.9443 148.928 40.4324L150.799 43.9676ZM177.403 37.72C187.312 37.72 196.101 39.8158 203.817 43.9618L205.71 40.4382C197.346 35.9442 187.894 33.72 177.403 33.72V37.72ZM203.837 43.9727C211.562 48.0078 217.586 53.6359 221.951 60.873L225.376 58.807C220.621 50.9241 214.045 44.7922 205.689 40.4273L203.837 43.9727ZM221.951 60.873C226.306 68.0942 228.503 76.3112 228.503 85.58H232.503C232.503 75.6488 230.14 66.7058 225.376 58.807L221.951 60.873ZM228.503 85.58C228.503 94.8488 226.306 103.066 221.951 110.287L225.376 112.353C230.14 104.454 232.503 95.5112 232.503 85.58H228.503ZM221.951 110.287C217.582 117.529 211.552 123.222 203.817 127.378L205.71 130.902C214.055 126.418 220.624 120.231 225.376 112.353L221.951 110.287ZM203.837 127.367C196.117 131.4 187.321 133.44 177.403 133.44V137.44C187.885 137.44 197.33 135.28 205.689 130.913L203.837 127.367ZM177.403 114.4C185.098 114.4 191.52 111.812 196.493 106.577L193.593 103.822C189.446 108.188 184.108 110.4 177.403 110.4V114.4ZM196.492 106.578C201.595 101.214 204.063 94.1432 204.063 85.58H200.063C200.063 93.3368 197.851 99.346 193.594 103.822L196.492 106.578ZM204.063 85.58C204.063 77.0186 201.596 69.9954 196.475 64.7438L193.611 67.5362C197.851 71.8846 200.063 77.8214 200.063 85.58H204.063ZM196.51 64.7805C191.542 59.4197 185.114 56.76 177.403 56.76V60.76C184.092 60.76 189.425 63.0203 193.576 67.4995L196.51 64.7805ZM177.403 56.76C169.692 56.76 163.216 59.4187 158.134 64.7616L161.032 67.5184C165.31 63.0213 170.714 60.76 177.403 60.76V56.76ZM158.151 64.7438C153.031 69.9954 150.563 77.0186 150.563 85.58H154.563C154.563 77.8214 156.776 71.8846 161.015 67.5362L158.151 64.7438ZM150.563 85.58C150.563 94.1432 153.031 101.214 158.134 106.578L161.032 103.822C156.775 99.346 154.563 93.3368 154.563 85.58H150.563ZM158.151 106.596C163.238 111.813 169.708 114.4 177.403 114.4V110.4C170.698 110.4 165.289 108.187 161.015 103.804L158.151 106.596ZM321.31 46.52L319.976 48.0099L319.982 48.0155L319.989 48.021L321.31 46.52ZM333.37 134V136H335.37V134H333.37ZM307.09 134H305.09V136H307.09V134ZM307.09 121.94H309.09V114.578L305.365 120.928L307.09 121.94ZM258.13 131.66L257.285 133.472L257.292 133.476L257.3 133.479L258.13 131.66ZM245.71 121.22L247.388 120.132L247.388 120.132L245.71 121.22ZM251.47 84.86L250.266 83.2634L250.259 83.2685L250.252 83.2737L251.47 84.86ZM305.29 77.12V79.12H307.29V77.12H305.29ZM299.71 63.08L298.37 64.5642L298.383 64.5763L298.397 64.5882L299.71 63.08ZM267.67 60.56L268.275 62.4665L268.289 62.462L268.303 62.4574L267.67 60.56ZM255.07 67.04L253.292 67.954L254.405 70.1207L256.313 68.607L255.07 67.04ZM244.99 47.42L243.839 45.785L242.417 46.7868L243.212 48.334L244.99 47.42ZM263.89 38.78L263.362 36.8512L263.354 36.8534L263.89 38.78ZM297.37 113.3L298.375 115.03L298.395 115.018L298.416 115.005L297.37 113.3ZM305.29 103.4L307.172 104.079L307.29 103.75V103.4H305.29ZM305.29 93.5H307.29V91.5H305.29V93.5ZM272.89 113.48L271.658 115.055L271.695 115.084L271.734 115.112L272.89 113.48ZM286.75 37.72C301.45 37.72 312.425 41.2473 319.976 48.0099L322.645 45.0301C314.116 37.3927 302.051 33.72 286.75 33.72V37.72ZM319.989 48.021C327.463 54.6027 331.37 64.7066 331.37 78.74H335.37C335.37 63.9734 331.238 52.5973 322.632 45.019L319.989 48.021ZM331.37 78.74V134H335.37V78.74H331.37ZM333.37 132H307.09V136H333.37V132ZM309.09 134V121.94H305.09V134H309.09ZM305.365 120.928C300.575 129.094 291.563 133.44 277.57 133.44V137.44C292.378 137.44 303.046 132.786 308.816 122.952L305.365 120.928ZM277.57 133.44C270.354 133.44 264.168 132.218 258.961 129.841L257.3 133.479C263.133 136.142 269.907 137.44 277.57 137.44V133.44ZM258.976 129.848C253.872 127.466 250.039 124.219 247.388 120.132L244.033 122.308C247.141 127.101 251.589 130.814 257.285 133.472L258.976 129.848ZM247.388 120.132C244.733 116.037 243.39 111.38 243.39 106.1H239.39C239.39 112.1 240.928 117.523 244.033 122.308L247.388 120.132ZM243.39 106.1C243.39 97.6766 246.496 91.2012 252.689 86.4463L250.252 83.2737C243.005 88.8388 239.39 96.5234 239.39 106.1H243.39ZM252.675 86.4566C259.006 81.6804 268.986 79.12 282.97 79.12V75.12C268.635 75.12 257.615 77.7196 250.266 83.2634L252.675 86.4566ZM282.97 79.12H305.29V75.12H282.97V79.12ZM307.29 77.12C307.29 70.5724 305.282 65.2806 301.024 61.5718L298.397 64.5882C301.579 67.3594 303.29 71.4276 303.29 77.12H307.29ZM301.051 61.5958C296.82 57.7745 290.671 56.04 282.97 56.04V60.04C290.15 60.04 295.161 61.6655 298.37 64.5642L301.051 61.5958ZM282.97 56.04C277.589 56.04 272.276 56.9167 267.038 58.6626L268.303 62.4574C273.145 60.8433 278.032 60.04 282.97 60.04V56.04ZM267.066 58.6535C261.951 60.2753 257.526 62.5397 253.828 65.473L256.313 68.607C259.575 66.0203 263.55 63.9647 268.275 62.4665L267.066 58.6535ZM256.849 66.126L246.769 46.506L243.212 48.334L253.292 67.954L256.849 66.126ZM246.142 49.055C251.206 45.4875 257.29 42.6958 264.427 40.7066L263.354 36.8534C255.851 38.9442 249.335 41.9125 243.839 45.785L246.142 49.055ZM264.419 40.7088C271.685 38.7166 279.127 37.72 286.75 37.72V33.72C278.774 33.72 270.976 34.7634 263.362 36.8512L264.419 40.7088ZM284.59 118.54C289.701 118.54 294.315 117.387 298.375 115.03L296.366 111.57C292.985 113.533 289.08 114.54 284.59 114.54V118.54ZM298.416 115.005C302.544 112.475 305.466 108.802 307.172 104.079L303.409 102.721C301.995 106.638 299.637 109.565 296.325 111.595L298.416 115.005ZM307.29 103.4V93.5H303.29V103.4H307.29ZM305.29 91.5H286.03V95.5H305.29V91.5ZM286.03 91.5C280.115 91.5 275.332 92.4589 271.973 94.6629C268.468 96.9633 266.75 100.464 266.75 104.84H270.75C270.75 101.656 271.913 99.4867 274.168 98.0071C276.569 96.4311 280.426 95.5 286.03 95.5V91.5ZM266.75 104.84C266.75 109.036 268.398 112.504 271.658 115.055L274.123 111.905C271.863 110.136 270.75 107.844 270.75 104.84H266.75ZM271.734 115.112C275.062 117.469 279.415 118.54 284.59 118.54V114.54C279.926 114.54 276.479 113.571 274.047 111.848L271.734 115.112ZM458.479 0.439992H460.479V-1.56001H458.479V0.439992ZM458.479 134V136H460.479V134H458.479ZM431.659 134H429.659V136H431.659V134ZM431.659 122.84H433.659V117.291L430.119 121.564L431.659 122.84ZM376.579 129.32L375.605 131.067L375.617 131.074L376.579 129.32ZM359.299 111.86L361.047 110.889L361.047 110.889L359.299 111.86ZM359.299 59.3L361.047 60.2713L361.047 60.2713L359.299 59.3ZM376.579 41.84L375.617 40.0863L375.605 40.093L376.579 41.84ZM430.399 47.42L428.907 48.7516L432.399 52.6653V47.42H430.399ZM430.399 0.439992V-1.56001H428.399V0.439992H430.399ZM423.919 105.2L425.351 106.596L425.36 106.587L425.368 106.578L423.919 105.2ZM423.919 66.14L422.47 67.5184L422.478 67.5274L422.487 67.5362L423.919 66.14ZM388.459 66.14L389.891 67.5362L389.9 67.5274L389.908 67.5184L388.459 66.14ZM388.459 105.2L387.01 106.578L387.018 106.587L387.027 106.596L388.459 105.2ZM456.479 0.439992V134H460.479V0.439992H456.479ZM458.479 132H431.659V136H458.479V132ZM433.659 134V122.84H429.659V134H433.659ZM430.119 121.564C423.619 129.409 414.161 133.44 401.419 133.44V137.44C415.077 137.44 425.779 133.071 433.199 124.116L430.119 121.564ZM401.419 133.44C392.609 133.44 384.664 131.473 377.541 127.566L375.617 131.074C383.374 135.327 391.989 137.44 401.419 137.44V133.44ZM377.553 127.573C370.569 123.68 365.072 118.134 361.047 110.889L357.551 112.831C361.925 120.706 367.949 126.8 375.605 131.067L377.553 127.573ZM361.047 110.889C357.036 103.668 354.999 95.2522 354.999 85.58H350.999C350.999 95.8278 353.162 104.932 357.551 112.831L361.047 110.889ZM354.999 85.58C354.999 75.9078 357.036 67.4917 361.047 60.2713L357.551 58.3287C353.162 66.2283 350.999 75.3322 350.999 85.58H354.999ZM361.047 60.2713C365.072 53.026 370.569 47.4796 377.553 43.587L375.605 40.093C367.949 44.3604 361.925 50.454 357.551 58.3287L361.047 60.2713ZM377.541 43.5936C384.664 39.6873 392.609 37.72 401.419 37.72V33.72C391.989 33.72 383.374 35.8327 375.617 40.0864L377.541 43.5936ZM401.419 37.72C413.323 37.72 422.396 41.455 428.907 48.7516L431.891 46.0884C424.482 37.785 414.235 33.72 401.419 33.72V37.72ZM432.399 47.42V0.439992H428.399V47.42H432.399ZM430.399 2.43999H458.479V-1.56001H430.399V2.43999ZM406.279 114.4C413.864 114.4 420.272 111.806 425.351 106.596L422.487 103.804C418.206 108.194 412.853 110.4 406.279 110.4V114.4ZM425.368 106.578C430.471 101.214 432.939 94.1432 432.939 85.58H428.939C428.939 93.3368 426.727 99.346 422.47 103.822L425.368 106.578ZM432.939 85.58C432.939 77.0186 430.471 69.9954 425.351 64.7438L422.487 67.5362C426.727 71.8846 428.939 77.8214 428.939 85.58H432.939ZM425.368 64.7616C420.293 59.426 413.88 56.76 406.279 56.76V60.76C412.837 60.76 418.185 63.014 422.47 67.5184L425.368 64.7616ZM406.279 56.76C398.568 56.76 392.092 59.4187 387.01 64.7616L389.908 67.5184C394.186 63.0213 399.59 60.76 406.279 60.76V56.76ZM387.027 64.7438C381.907 69.9954 379.439 77.0186 379.439 85.58H383.439C383.439 77.8214 385.651 71.8846 389.891 67.5362L387.027 64.7438ZM379.439 85.58C379.439 94.1432 381.907 101.214 387.01 106.578L389.908 103.822C385.651 99.346 383.439 93.3368 383.439 85.58H379.439ZM387.027 106.596C392.113 111.813 398.584 114.4 406.279 114.4V110.4C399.574 110.4 394.165 108.187 389.891 103.804L387.027 106.596ZM637.288 46.52L635.862 47.9223L635.874 47.9343L635.886 47.946L637.288 46.52ZM648.088 134V136H650.088V134H648.088ZM620.008 134H618.008V136H620.008V134ZM615.148 65.78L613.596 67.0412L613.617 67.0677L613.64 67.0936L615.148 65.78ZM585.988 66.5L587.464 67.8495L587.473 67.8392L587.483 67.8287L585.988 66.5ZM580.228 134V136H582.228V134H580.228ZM552.148 134H550.148V136H552.148V134ZM518.308 66.5L519.784 67.8495L519.793 67.8392L519.803 67.8287L518.308 66.5ZM512.548 134V136H514.548V134H512.548ZM484.468 134H482.468V136H484.468V134ZM484.468 37.16V35.16H482.468V37.16H484.468ZM511.288 37.16H513.288V35.16H511.288V37.16ZM511.288 48.32H509.288V53.6095L512.787 49.6432L511.288 48.32ZM524.428 38.96L523.671 37.1089L523.663 37.112L523.656 37.1151L524.428 38.96ZM560.248 39.86L559.353 41.6489L559.369 41.6567L559.385 41.6643L560.248 39.86ZM573.568 51.56L571.892 52.6513L573.415 54.9911L575.14 52.7956L573.568 51.56ZM588.508 39.86L587.686 38.0368L587.679 38.0399L587.672 38.043L588.508 39.86ZM608.488 37.72C620.187 37.72 629.232 41.1797 635.862 47.9223L638.714 45.1177C631.184 37.4603 621.029 33.72 608.488 33.72V37.72ZM635.886 47.946C642.568 54.5171 646.088 64.5911 646.088 78.56H650.088C650.088 63.9689 646.408 52.6829 638.69 45.0939L635.886 47.946ZM646.088 78.56V134H650.088V78.56H646.088ZM648.088 132H620.008V136H648.088V132ZM622.008 134V82.88H618.008V134H622.008ZM622.008 82.88C622.008 74.9737 620.349 68.7061 616.656 64.4664L613.64 67.0936C616.427 70.2939 618.008 75.4263 618.008 82.88H622.008ZM616.7 64.5188C613.127 60.1216 608.004 58.02 601.648 58.02V62.02C607.052 62.02 610.928 63.7584 613.596 67.0412L616.7 64.5188ZM601.648 58.02C594.566 58.02 588.768 60.3615 584.493 65.1713L587.483 67.8287C590.887 63.9985 595.529 62.02 601.648 62.02V58.02ZM584.512 65.1505C580.205 69.8612 578.228 76.7339 578.228 85.4H582.228C582.228 77.2661 584.091 71.5388 587.464 67.8495L584.512 65.1505ZM578.228 85.4V134H582.228V85.4H578.228ZM580.228 132H552.148V136H580.228V132ZM554.148 134V82.88H550.148V134H554.148ZM554.148 82.88C554.148 75.0449 552.583 68.7983 549.117 64.4826C545.584 60.0832 540.347 58.02 533.788 58.02V62.02C539.469 62.02 543.412 63.7668 545.998 66.9874C548.652 70.2917 550.148 75.4751 550.148 82.88H554.148ZM533.788 58.02C526.814 58.02 521.081 60.3699 516.813 65.1713L519.803 67.8287C523.215 63.9901 527.802 62.02 533.788 62.02V58.02ZM516.832 65.1505C512.525 69.8612 510.548 76.7339 510.548 85.4H514.548C514.548 77.2661 516.411 71.5388 519.784 67.8495L516.832 65.1505ZM510.548 85.4V134H514.548V85.4H510.548ZM512.548 132H484.468V136H512.548V132ZM486.468 134V37.16H482.468V134H486.468ZM484.468 39.16H511.288V35.16H484.468V39.16ZM509.288 37.16V48.32H513.288V37.16H509.288ZM512.787 49.6432C516.182 45.7963 520.311 42.8516 525.2 40.8049L523.656 37.1151C518.225 39.3884 513.594 42.6837 509.788 46.9968L512.787 49.6432ZM525.185 40.8111C530.203 38.7583 535.703 37.72 541.708 37.72V33.72C535.233 33.72 529.213 34.8417 523.671 37.1089L525.185 40.8111ZM541.708 37.72C548.271 37.72 554.14 39.0422 559.353 41.6489L561.142 38.0711C555.316 35.1578 548.824 33.72 541.708 33.72V37.72ZM559.385 41.6643C564.571 44.1447 568.731 47.7971 571.892 52.6513L575.244 50.4686C571.685 45.0029 566.964 40.8553 561.111 38.0557L559.385 41.6643ZM575.14 52.7956C578.898 48.0129 583.623 44.3086 589.344 41.677L587.672 38.043C581.393 40.9314 576.157 45.0271 571.995 50.3244L575.14 52.7956ZM589.33 41.6832C595.173 39.048 601.55 37.72 608.488 37.72V33.72C601.025 33.72 594.082 35.152 587.686 38.0368L589.33 41.6832ZM746.877 46.52L745.543 48.0099L745.549 48.0155L745.555 48.021L746.877 46.52ZM758.937 134V136H760.937V134H758.937ZM732.657 134H730.657V136H732.657V134ZM732.657 121.94H734.657V114.578L730.932 120.928L732.657 121.94ZM683.697 131.66L682.851 133.472L682.859 133.476L682.866 133.479L683.697 131.66ZM671.277 121.22L672.955 120.132L672.955 120.132L671.277 121.22ZM677.037 84.86L675.832 83.2634L675.826 83.2685L675.819 83.2737L677.037 84.86ZM730.857 77.12V79.12H732.857V77.12H730.857ZM725.277 63.08L723.936 64.5642L723.95 64.5763L723.963 64.5882L725.277 63.08ZM693.237 60.56L693.841 62.4665L693.855 62.462L693.869 62.4574L693.237 60.56ZM680.637 67.04L678.858 67.954L679.971 70.1207L681.88 68.607L680.637 67.04ZM670.557 47.42L669.405 45.785L667.983 46.7868L668.778 48.334L670.557 47.42ZM689.457 38.78L688.928 36.8512L688.92 36.8534L689.457 38.78ZM722.937 113.3L723.941 115.03L723.962 115.018L723.982 115.005L722.937 113.3ZM730.857 103.4L732.738 104.079L732.857 103.75V103.4H730.857ZM730.857 93.5H732.857V91.5H730.857V93.5ZM698.457 113.48L697.224 115.055L697.262 115.084L697.301 115.112L698.457 113.48ZM712.317 37.72C727.017 37.72 737.991 41.2473 745.543 48.0099L748.211 45.0301C739.683 37.3927 727.617 33.72 712.317 33.72V37.72ZM745.555 48.021C753.029 54.6027 756.937 64.7066 756.937 78.74H760.937C760.937 63.9734 756.805 52.5973 748.199 45.019L745.555 48.021ZM756.937 78.74V134H760.937V78.74H756.937ZM758.937 132H732.657V136H758.937V132ZM734.657 134V121.94H730.657V134H734.657ZM730.932 120.928C726.141 129.094 717.129 133.44 703.137 133.44V137.44C717.944 137.44 728.613 132.786 734.382 122.952L730.932 120.928ZM703.137 133.44C695.92 133.44 689.735 132.218 684.527 129.841L682.866 133.479C688.699 136.142 695.474 137.44 703.137 137.44V133.44ZM684.543 129.848C679.438 127.466 675.606 124.219 672.955 120.132L669.599 122.308C672.708 127.101 677.155 130.814 682.851 133.472L684.543 129.848ZM672.955 120.132C670.299 116.037 668.957 111.38 668.957 106.1H664.957C664.957 112.1 666.495 117.523 669.599 122.308L672.955 120.132ZM668.957 106.1C668.957 97.6766 672.062 91.2012 678.255 86.4463L675.819 83.2737C668.571 88.8388 664.957 96.5234 664.957 106.1H668.957ZM678.241 86.4566C684.573 81.6804 694.552 79.12 708.537 79.12V75.12C694.202 75.12 683.181 77.7196 675.832 83.2634L678.241 86.4566ZM708.537 79.12H730.857V75.12H708.537V79.12ZM732.857 77.12C732.857 70.5724 730.849 65.2806 726.59 61.5718L723.963 64.5882C727.145 67.3594 728.857 71.4276 728.857 77.12H732.857ZM726.617 61.5958C722.387 57.7745 716.238 56.04 708.537 56.04V60.04C715.716 60.04 720.727 61.6655 723.936 64.5642L726.617 61.5958ZM708.537 56.04C703.156 56.04 697.842 56.9167 692.604 58.6626L693.869 62.4574C698.712 60.8433 703.598 60.04 708.537 60.04V56.04ZM692.632 58.6535C687.518 60.2753 683.093 62.5397 679.394 65.473L681.88 68.607C685.141 66.0203 689.116 63.9647 693.841 62.4665L692.632 58.6535ZM682.416 66.126L672.336 46.506L668.778 48.334L678.858 67.954L682.416 66.126ZM671.709 49.055C676.772 45.4875 682.856 42.6958 689.994 40.7066L688.92 36.8534C681.418 38.9442 674.902 41.9125 669.405 45.785L671.709 49.055ZM689.986 40.7088C697.252 38.7166 704.694 37.72 712.317 37.72V33.72C704.34 33.72 696.542 34.7634 688.928 36.8512L689.986 40.7088ZM710.157 118.54C715.268 118.54 719.882 117.387 723.941 115.03L721.933 111.57C718.552 113.533 714.646 114.54 710.157 114.54V118.54ZM723.982 115.005C728.11 112.475 731.033 108.802 732.738 104.079L728.976 102.721C727.561 106.638 725.203 109.565 721.892 111.595L723.982 115.005ZM732.857 103.4V93.5H728.857V103.4H732.857ZM730.857 91.5H711.597V95.5H730.857V91.5ZM711.597 91.5C705.682 91.5 700.898 92.4589 697.54 94.6629C694.034 96.9633 692.317 100.464 692.317 104.84H696.317C696.317 101.656 697.48 99.4867 699.734 98.0071C702.136 96.4311 705.992 95.5 711.597 95.5V91.5ZM692.317 104.84C692.317 109.036 693.965 112.504 697.224 115.055L699.689 111.905C697.429 110.136 696.317 107.844 696.317 104.84H692.317ZM697.301 115.112C700.628 117.469 704.981 118.54 710.157 118.54V114.54C705.493 114.54 702.045 113.571 699.613 111.848L697.301 115.112ZM866.071 42.02L865.075 43.7547L865.092 43.7643L865.109 43.7736L866.071 42.02ZM883.531 59.48L881.782 60.4513L881.789 60.4632L883.531 59.48ZM883.531 111.86L885.272 112.843L885.279 112.831L883.531 111.86ZM866.071 129.32L867.044 131.067L867.054 131.062L866.071 129.32ZM812.431 123.74L813.912 122.396L810.431 118.561V123.74H812.431ZM812.431 168.92V170.92H814.431V168.92H812.431ZM784.351 168.92H782.351V170.92H784.351V168.92ZM784.351 37.16V35.16H782.351V37.16H784.351ZM811.171 37.16H813.171V35.16H811.171V37.16ZM811.171 48.32H809.171V53.8685L812.711 49.596L811.171 48.32ZM854.371 105.2L852.922 103.822L852.921 103.822L854.371 105.2ZM854.371 66.14L852.904 67.4995L852.921 67.5181L852.939 67.5362L854.371 66.14ZM818.911 66.14L817.462 64.7616L817.461 64.7625L818.911 66.14ZM818.911 105.2L817.444 106.56L817.461 106.578L817.479 106.596L818.911 105.2ZM841.591 37.72C850.265 37.72 858.078 39.7401 865.075 43.7547L867.066 40.2853C859.423 35.8999 850.916 33.72 841.591 33.72V37.72ZM865.109 43.7736C872.212 47.6686 877.762 53.2143 881.782 60.4513L885.279 58.5087C880.899 50.6257 874.81 44.5314 867.032 40.2664L865.109 43.7736ZM881.789 60.4632C885.793 67.5567 887.831 75.9069 887.831 85.58H891.831C891.831 75.3331 889.668 66.2833 885.272 58.4968L881.789 60.4632ZM887.831 85.58C887.831 95.2522 885.794 103.668 881.782 110.889L885.279 112.831C889.668 104.932 891.831 95.8278 891.831 85.58H887.831ZM881.789 110.877C877.768 118 872.21 123.557 865.087 127.578L867.054 131.062C874.811 126.683 880.893 120.6 885.272 112.843L881.789 110.877ZM865.097 127.573C858.097 131.475 850.276 133.44 841.591 133.44V137.44C850.905 137.44 859.405 135.325 867.044 131.067L865.097 127.573ZM841.591 133.44C829.688 133.44 820.546 129.705 813.912 122.396L810.95 125.084C818.475 133.375 828.774 137.44 841.591 137.44V133.44ZM810.431 123.74V168.92H814.431V123.74H810.431ZM812.431 166.92H784.351V170.92H812.431V166.92ZM786.351 168.92V37.16H782.351V168.92H786.351ZM784.351 39.16H811.171V35.16H784.351V39.16ZM809.171 37.16V48.32H813.171V37.16H809.171ZM812.711 49.596C819.207 41.7554 828.722 37.72 841.591 37.72V33.72C827.82 33.72 817.054 38.0846 809.631 47.044L812.711 49.596ZM836.731 114.4C844.426 114.4 850.848 111.812 855.821 106.577L852.921 103.822C848.773 108.188 843.436 110.4 836.731 110.4V114.4ZM855.82 106.578C860.923 101.214 863.391 94.1432 863.391 85.58H859.391C859.391 93.3368 857.179 99.346 852.922 103.822L855.82 106.578ZM863.391 85.58C863.391 77.0186 860.923 69.9954 855.803 64.7438L852.939 67.5362C857.178 71.8846 859.391 77.8214 859.391 85.58H863.391ZM855.837 64.7805C850.869 59.4197 844.442 56.76 836.731 56.76V60.76C843.42 60.76 848.752 63.0203 852.904 67.4995L855.837 64.7805ZM836.731 56.76C829.02 56.76 822.544 59.4187 817.462 64.7616L820.36 67.5184C824.637 63.0213 830.041 60.76 836.731 60.76V56.76ZM817.461 64.7625C812.47 70.0162 810.071 77.0328 810.071 85.58H814.071C814.071 77.8072 816.232 71.8638 820.361 67.5175L817.461 64.7625ZM810.071 85.58C810.071 94.1292 812.47 101.193 817.444 106.56L820.377 103.84C816.231 99.3667 814.071 93.3508 814.071 85.58H810.071ZM817.479 106.596C822.565 111.813 829.036 114.4 836.731 114.4V110.4C830.026 110.4 824.616 108.187 820.343 103.804L817.479 106.596Z" fill="url(#paint0_linear_92_3)"/>
<defs>
<linearGradient id="paint0_linear_92_3" x1="441" y1="-40" x2="441" y2="179" gradientUnits="userSpaceOnUse">
<stop stop-color="#8BEFC8"/>
<stop offset="1" stop-color="#9E4CFD"/>
</linearGradient>
</defs>
</svg>
