<svg width="890" height="169" viewBox="0 0 890 169" fill="none" xmlns="http://www.w3.org/2000/svg">
<path d="M81.22 134L56.92 98.9H55.48H30.1V134H0.940001V7.99999H55.48C66.64 7.99999 76.3 9.85999 84.46 13.58C92.74 17.3 99.1 22.58 103.54 29.42C107.98 36.26 110.2 44.36 110.2 53.72C110.2 63.08 107.92 71.18 103.36 78.02C98.92 84.74 92.56 89.9 84.28 93.5L112.54 134H81.22ZM80.68 53.72C80.68 46.64 78.4 41.24 73.84 37.52C69.28 33.68 62.62 31.76 53.86 31.76H30.1V75.68H53.86C62.62 75.68 69.28 73.76 73.84 69.92C78.4 66.08 80.68 60.68 80.68 53.72ZM177.403 135.44C167.203 135.44 158.023 133.34 149.863 129.14C141.823 124.82 135.523 118.88 130.963 111.32C126.403 103.76 124.123 95.18 124.123 85.58C124.123 75.98 126.403 67.4 130.963 59.84C135.523 52.28 141.823 46.4 149.863 42.2C158.023 37.88 167.203 35.72 177.403 35.72C187.603 35.72 196.723 37.88 204.763 42.2C212.803 46.4 219.103 52.28 223.663 59.84C228.223 67.4 230.503 75.98 230.503 85.58C230.503 95.18 228.223 103.76 223.663 111.32C219.103 118.88 212.803 124.82 204.763 129.14C196.723 133.34 187.603 135.44 177.403 135.44ZM177.403 112.4C184.603 112.4 190.483 110 195.043 105.2C199.723 100.28 202.063 93.74 202.063 85.58C202.063 77.42 199.723 70.94 195.043 66.14C190.483 61.22 184.603 58.76 177.403 58.76C170.203 58.76 164.263 61.22 159.583 66.14C154.903 70.94 152.563 77.42 152.563 85.58C152.563 93.74 154.903 100.28 159.583 105.2C164.263 110 170.203 112.4 177.403 112.4ZM286.75 35.72C301.75 35.72 313.27 39.32 321.31 46.52C329.35 53.6 333.37 64.34 333.37 78.74V134H307.09V121.94C301.81 130.94 291.97 135.44 277.57 135.44C270.13 135.44 263.65 134.18 258.13 131.66C252.73 129.14 248.59 125.66 245.71 121.22C242.83 116.78 241.39 111.74 241.39 106.1C241.39 97.1 244.75 90.02 251.47 84.86C258.31 79.7 268.81 77.12 282.97 77.12H305.29C305.29 71 303.43 66.32 299.71 63.08C295.99 59.72 290.41 58.04 282.97 58.04C277.81 58.04 272.71 58.88 267.67 60.56C262.75 62.12 258.55 64.28 255.07 67.04L244.99 47.42C250.27 43.7 256.57 40.82 263.89 38.78C271.33 36.74 278.95 35.72 286.75 35.72ZM284.59 116.54C289.39 116.54 293.65 115.46 297.37 113.3C301.09 111.02 303.73 107.72 305.29 103.4V93.5H286.03C274.51 93.5 268.75 97.28 268.75 104.84C268.75 108.44 270.13 111.32 272.89 113.48C275.77 115.52 279.67 116.54 284.59 116.54ZM458.479 0.439992V134H431.659V122.84C424.699 131.24 414.619 135.44 401.419 135.44C392.299 135.44 384.019 133.4 376.579 129.32C369.259 125.24 363.499 119.42 359.299 111.86C355.099 104.3 352.999 95.54 352.999 85.58C352.999 75.62 355.099 66.86 359.299 59.3C363.499 51.74 369.259 45.92 376.579 41.84C384.019 37.76 392.299 35.72 401.419 35.72C413.779 35.72 423.439 39.62 430.399 47.42V0.439992H458.479ZM406.279 112.4C413.359 112.4 419.239 110 423.919 105.2C428.599 100.28 430.939 93.74 430.939 85.58C430.939 77.42 428.599 70.94 423.919 66.14C419.239 61.22 413.359 58.76 406.279 58.76C399.079 58.76 393.139 61.22 388.459 66.14C383.779 70.94 381.439 77.42 381.439 85.58C381.439 93.74 383.779 100.28 388.459 105.2C393.139 110 399.079 112.4 406.279 112.4ZM608.488 35.72C620.608 35.72 630.208 39.32 637.288 46.52C644.488 53.6 648.088 64.28 648.088 78.56V134H620.008V82.88C620.008 75.2 618.388 69.5 615.148 65.78C612.028 61.94 607.528 60.02 601.648 60.02C595.048 60.02 589.828 62.18 585.988 66.5C582.148 70.7 580.228 77 580.228 85.4V134H552.148V82.88C552.148 67.64 546.028 60.02 533.788 60.02C527.308 60.02 522.148 62.18 518.308 66.5C514.468 70.7 512.548 77 512.548 85.4V134H484.468V37.16H511.288V48.32C514.888 44.24 519.268 41.12 524.428 38.96C529.708 36.8 535.468 35.72 541.708 35.72C548.548 35.72 554.728 37.1 560.248 39.86C565.768 42.5 570.208 46.4 573.568 51.56C577.528 46.52 582.508 42.62 588.508 39.86C594.628 37.1 601.288 35.72 608.488 35.72ZM712.317 35.72C727.317 35.72 738.837 39.32 746.877 46.52C754.917 53.6 758.937 64.34 758.937 78.74V134H732.657V121.94C727.377 130.94 717.537 135.44 703.137 135.44C695.697 135.44 689.217 134.18 683.697 131.66C678.297 129.14 674.157 125.66 671.277 121.22C668.397 116.78 666.957 111.74 666.957 106.1C666.957 97.1 670.317 90.02 677.037 84.86C683.877 79.7 694.377 77.12 708.537 77.12H730.857C730.857 71 728.997 66.32 725.277 63.08C721.557 59.72 715.977 58.04 708.537 58.04C703.377 58.04 698.277 58.88 693.237 60.56C688.317 62.12 684.117 64.28 680.637 67.04L670.557 47.42C675.837 43.7 682.137 40.82 689.457 38.78C696.897 36.74 704.517 35.72 712.317 35.72ZM710.157 116.54C714.957 116.54 719.217 115.46 722.937 113.3C726.657 111.02 729.297 107.72 730.857 103.4V93.5H711.597C700.077 93.5 694.317 97.28 694.317 104.84C694.317 108.44 695.697 111.32 698.457 113.48C701.337 115.52 705.237 116.54 710.157 116.54ZM841.591 35.72C850.591 35.72 858.751 37.82 866.071 42.02C873.511 46.1 879.331 51.92 883.531 59.48C887.731 66.92 889.831 75.62 889.831 85.58C889.831 95.54 887.731 104.3 883.531 111.86C879.331 119.3 873.511 125.12 866.071 129.32C858.751 133.4 850.591 135.44 841.591 135.44C829.231 135.44 819.511 131.54 812.431 123.74V168.92H784.351V37.16H811.171V48.32C818.131 39.92 828.271 35.72 841.591 35.72ZM836.731 112.4C843.931 112.4 849.811 110 854.371 105.2C859.051 100.28 861.391 93.74 861.391 85.58C861.391 77.42 859.051 70.94 854.371 66.14C849.811 61.22 843.931 58.76 836.731 58.76C829.531 58.76 823.591 61.22 818.911 66.14C814.351 70.94 812.071 77.42 812.071 85.58C812.071 93.74 814.351 100.28 818.911 105.2C823.591 110 829.531 112.4 836.731 112.4Z" fill="#0F0F0F"/>
<path d="M81.22 134L80.3978 134.569L80.6961 135H81.22V134ZM56.92 98.9L57.7422 98.3308L57.444 97.9H56.92V98.9ZM30.1 98.9V97.9H29.1V98.9H30.1ZM30.1 134V135H31.1V134H30.1ZM0.940001 134H-0.0599992V135H0.940001V134ZM0.940001 7.99999V6.99999H-0.0599992V7.99999H0.940001ZM84.46 13.58L84.0452 14.4899L84.0502 14.4922L84.46 13.58ZM103.36 78.02L102.528 77.4653L102.526 77.4687L103.36 78.02ZM84.28 93.5L83.8813 92.5829L82.7607 93.0701L83.4599 94.0722L84.28 93.5ZM112.54 134V135H114.457L113.36 133.428L112.54 134ZM73.84 37.52L73.1959 38.2849L73.2018 38.2899L73.2079 38.2949L73.84 37.52ZM30.1 31.76V30.76H29.1V31.76H30.1ZM30.1 75.68H29.1V76.68H30.1V75.68ZM73.84 69.92L74.4841 70.6849L74.4841 70.6849L73.84 69.92ZM82.0422 133.431L57.7422 98.3308L56.0978 99.4692L80.3978 134.569L82.0422 133.431ZM56.92 97.9H55.48V99.9H56.92V97.9ZM55.48 97.9H30.1V99.9H55.48V97.9ZM29.1 98.9V134H31.1V98.9H29.1ZM30.1 133H0.940001V135H30.1V133ZM1.94 134V7.99999H-0.0599992V134H1.94ZM0.940001 8.99999H55.48V6.99999H0.940001V8.99999ZM55.48 8.99999C66.5309 8.99999 76.0432 10.8419 84.0452 14.4899L84.8748 12.6701C76.5568 8.87806 66.7491 6.99999 55.48 6.99999V8.99999ZM84.0502 14.4922C92.1754 18.1426 98.3775 23.3036 102.701 29.9645L104.379 28.8755C99.8225 21.8564 93.3047 16.4574 84.8698 12.6678L84.0502 14.4922ZM102.701 29.9645C107.021 36.6194 109.2 44.5239 109.2 53.72H111.2C111.2 44.196 108.939 35.9006 104.379 28.8755L102.701 29.9645ZM109.2 53.72C109.2 62.9108 106.964 70.8116 102.528 77.4653L104.192 78.5747C108.876 71.5484 111.2 63.2492 111.2 53.72H109.2ZM102.526 77.4687C98.205 84.0081 92.0059 89.0505 83.8813 92.5829L84.6787 94.4171C93.1141 90.7495 99.635 85.4719 104.194 78.5713L102.526 77.4687ZM83.4599 94.0722L111.72 134.572L113.36 133.428L85.1001 92.9278L83.4599 94.0722ZM112.54 133H81.22V135H112.54V133ZM81.68 53.72C81.68 46.4071 79.3126 40.694 74.4721 36.7451L73.2079 38.2949C77.4874 41.786 79.68 46.8729 79.68 53.72H81.68ZM74.4841 36.7551C69.6758 32.706 62.7481 30.76 53.86 30.76V32.76C62.4919 32.76 68.8842 34.654 73.1959 38.2849L74.4841 36.7551ZM53.86 30.76H30.1V32.76H53.86V30.76ZM29.1 31.76V75.68H31.1V31.76H29.1ZM30.1 76.68H53.86V74.68H30.1V76.68ZM53.86 76.68C62.7481 76.68 69.6758 74.734 74.4841 70.6849L73.1959 69.1551C68.8842 72.786 62.4919 74.68 53.86 74.68V76.68ZM74.4841 70.6849C79.3086 66.6222 81.68 60.9201 81.68 53.72H79.68C79.68 60.4399 77.4914 65.5378 73.1959 69.1551L74.4841 70.6849ZM149.863 129.14L149.39 130.021L149.398 130.025L149.406 130.029L149.863 129.14ZM130.963 111.32L130.107 111.836L130.107 111.836L130.963 111.32ZM130.963 59.84L130.107 59.3235L130.107 59.3235L130.963 59.84ZM149.863 42.2L150.326 43.0864L150.331 43.0838L149.863 42.2ZM204.763 42.2L204.29 43.0809L204.3 43.0863L204.763 42.2ZM223.663 59.84L224.52 59.3235L224.52 59.3235L223.663 59.84ZM223.663 111.32L224.52 111.836L224.52 111.836L223.663 111.32ZM204.763 129.14L205.226 130.026L205.237 130.021L204.763 129.14ZM195.043 105.2L194.319 104.511L194.318 104.511L195.043 105.2ZM195.043 66.14L194.31 66.8198L194.318 66.829L194.327 66.8381L195.043 66.14ZM159.583 66.14L160.299 66.8382L160.308 66.8292L159.583 66.14ZM159.583 105.2L158.859 105.889L158.867 105.898L159.583 105.2ZM177.403 134.44C167.344 134.44 158.324 132.37 150.321 128.251L149.406 130.029C157.722 134.31 167.062 136.44 177.403 136.44V134.44ZM150.337 128.259C142.449 124.021 136.284 118.205 131.82 110.804L130.107 111.836C134.763 119.555 141.198 125.619 149.39 130.021L150.337 128.259ZM131.82 110.804C127.362 103.413 125.123 95.0144 125.123 85.58H123.123C123.123 95.3456 125.445 104.107 130.107 111.836L131.82 110.804ZM125.123 85.58C125.123 76.1456 127.362 67.7471 131.82 60.3565L130.107 59.3235C125.445 67.0529 123.123 75.8144 123.123 85.58H125.123ZM131.82 60.3565C136.282 52.958 142.444 47.2039 150.326 43.0863L149.4 41.3136C141.202 45.5961 134.764 51.602 130.107 59.3235L131.82 60.3565ZM150.331 43.0838C158.332 38.8478 167.349 36.72 177.403 36.72V34.72C167.058 34.72 157.714 36.9121 149.395 41.3162L150.331 43.0838ZM177.403 36.72C187.458 36.72 196.412 38.8479 204.29 43.0809L205.237 41.3191C197.035 36.9121 187.749 34.72 177.403 34.72V36.72ZM204.3 43.0863C212.182 47.2039 218.344 52.958 222.807 60.3565L224.52 59.3235C219.862 51.602 213.424 45.5961 205.226 41.3136L204.3 43.0863ZM222.807 60.3565C227.265 67.7471 229.503 76.1456 229.503 85.58H231.503C231.503 75.8144 229.182 67.0529 224.52 59.3235L222.807 60.3565ZM229.503 85.58C229.503 95.0144 227.265 103.413 222.807 110.804L224.52 111.836C229.182 104.107 231.503 95.3456 231.503 85.58H229.503ZM222.807 110.804C218.343 118.205 212.178 124.021 204.29 128.259L205.237 130.021C213.429 125.619 219.864 119.555 224.52 111.836L222.807 110.804ZM204.3 128.254C196.42 132.37 187.462 134.44 177.403 134.44V136.44C187.744 136.44 197.026 134.31 205.226 130.026L204.3 128.254ZM177.403 113.4C184.851 113.4 191.002 110.906 195.768 105.889L194.318 104.511C189.965 109.094 184.356 111.4 177.403 111.4V113.4ZM195.768 105.889C200.659 100.747 203.063 93.9416 203.063 85.58H201.063C201.063 93.5384 198.787 99.813 194.319 104.511L195.768 105.889ZM203.063 85.58C203.063 77.2193 200.659 70.4677 195.759 65.4419L194.327 66.8381C198.787 71.4123 201.063 77.6207 201.063 85.58H203.063ZM195.777 65.4602C191.012 60.3199 184.859 57.76 177.403 57.76V59.76C184.348 59.76 189.954 62.1201 194.31 66.8198L195.777 65.4602ZM177.403 57.76C169.948 57.76 163.74 60.3193 158.859 65.4508L160.308 66.8292C164.787 62.1207 170.459 59.76 177.403 59.76V57.76ZM158.867 65.4419C153.967 70.4677 151.563 77.2193 151.563 85.58H153.563C153.563 77.6207 155.839 71.4123 160.299 66.8381L158.867 65.4419ZM151.563 85.58C151.563 93.9416 153.967 100.747 158.859 105.889L160.308 104.511C155.839 99.813 153.563 93.5384 153.563 85.58H151.563ZM158.867 105.898C163.75 110.906 169.956 113.4 177.403 113.4V111.4C170.451 111.4 164.776 109.094 160.299 104.502L158.867 105.898ZM321.31 46.52L320.643 47.265L320.65 47.2705L321.31 46.52ZM333.37 134V135H334.37V134H333.37ZM307.09 134H306.09V135H307.09V134ZM307.09 121.94H308.09V118.259L306.228 121.434L307.09 121.94ZM258.13 131.66L257.708 132.566L257.715 132.57L258.13 131.66ZM245.71 121.22L246.549 120.676L246.549 120.676L245.71 121.22ZM251.47 84.86L250.868 84.0617L250.861 84.0668L251.47 84.86ZM305.29 77.12V78.12H306.29V77.12H305.29ZM299.71 63.08L299.04 63.8221L299.047 63.8281L299.054 63.8341L299.71 63.08ZM267.67 60.56L267.973 61.5132L267.98 61.511L267.987 61.5087L267.67 60.56ZM255.07 67.04L254.181 67.497L254.738 68.5803L255.692 67.8235L255.07 67.04ZM244.99 47.42L244.415 46.6025L243.704 47.1034L244.101 47.877L244.99 47.42ZM263.89 38.78L263.626 37.8156L263.622 37.8167L263.89 38.78ZM297.37 113.3L297.873 114.165L297.883 114.159L297.893 114.153L297.37 113.3ZM305.29 103.4L306.231 103.74L306.29 103.575V103.4H305.29ZM305.29 93.5H306.29V92.5H305.29V93.5ZM272.89 113.48L272.274 114.268L272.293 114.282L272.312 114.296L272.89 113.48ZM286.75 36.72C301.6 36.72 312.848 40.2836 320.643 47.2649L321.978 45.775C313.693 38.3564 301.901 34.72 286.75 34.72V36.72ZM320.65 47.2705C328.407 54.1013 332.37 64.5233 332.37 78.74H334.37C334.37 64.1567 330.294 53.0987 321.971 45.7695L320.65 47.2705ZM332.37 78.74V134H334.37V78.74H332.37ZM333.37 133H307.09V135H333.37V133ZM308.09 134V121.94H306.09V134H308.09ZM306.228 121.434C301.193 130.017 291.767 134.44 277.57 134.44V136.44C292.174 136.44 302.428 131.863 307.953 122.446L306.228 121.434ZM277.57 134.44C270.242 134.44 263.909 133.199 258.546 130.75L257.715 132.57C263.392 135.161 270.019 136.44 277.57 136.44V134.44ZM258.553 130.754C253.301 128.303 249.315 124.939 246.549 120.676L244.872 121.764C247.866 126.381 252.16 129.977 257.708 132.566L258.553 130.754ZM246.549 120.676C243.782 116.409 242.39 111.56 242.39 106.1H240.39C240.39 111.92 241.879 117.151 244.872 121.764L246.549 120.676ZM242.39 106.1C242.39 97.3883 245.623 90.6106 252.079 85.6531L250.861 84.0668C243.878 89.4294 240.39 96.8117 240.39 106.1H242.39ZM252.073 85.6583C258.658 80.6902 268.898 78.12 282.97 78.12V76.12C268.723 76.12 257.963 78.7098 250.868 84.0617L252.073 85.6583ZM282.97 78.12H305.29V76.12H282.97V78.12ZM306.29 77.12C306.29 70.7862 304.356 65.8003 300.367 62.3259L299.054 63.8341C302.505 66.8397 304.29 71.2138 304.29 77.12H306.29ZM300.381 62.3379C296.405 58.7473 290.541 57.04 282.97 57.04V59.04C290.28 59.04 295.576 60.6927 299.04 63.8221L300.381 62.3379ZM282.97 57.04C277.7 57.04 272.493 57.8983 267.354 59.6113L267.987 61.5087C272.928 59.8617 277.921 59.04 282.97 59.04V57.04ZM267.368 59.6068C262.351 61.1976 258.038 63.4098 254.449 66.2565L255.692 67.8235C259.063 65.1502 263.15 63.0424 267.973 61.5132L267.368 59.6068ZM255.96 66.583L245.88 46.963L244.101 47.877L254.181 67.497L255.96 66.583ZM245.566 48.2375C250.738 44.5938 256.93 41.7579 264.159 39.7433L263.622 37.8167C256.211 39.8821 249.803 42.8062 244.415 46.6025L245.566 48.2375ZM264.155 39.7444C271.508 37.7283 279.039 36.72 286.75 36.72V34.72C278.862 34.72 271.153 35.7517 263.626 37.8156L264.155 39.7444ZM284.59 117.54C289.546 117.54 293.983 116.423 297.873 114.165L296.868 112.435C293.318 114.497 289.235 115.54 284.59 115.54V117.54ZM297.893 114.153C301.817 111.747 304.598 108.261 306.231 103.74L304.35 103.06C302.863 107.179 300.364 110.293 296.848 112.447L297.893 114.153ZM306.29 103.4V93.5H304.29V103.4H306.29ZM305.29 92.5H286.03V94.5H305.29V92.5ZM286.03 92.5C280.193 92.5 275.641 93.4519 272.522 95.499C269.329 97.5941 267.75 100.762 267.75 104.84H269.75C269.75 101.358 271.052 98.8559 273.619 97.171C276.26 95.438 280.348 94.5 286.03 94.5V92.5ZM267.75 104.84C267.75 108.738 269.264 111.912 272.274 114.268L273.507 112.692C270.997 110.728 269.75 108.142 269.75 104.84H267.75ZM272.312 114.296C275.416 116.495 279.543 117.54 284.59 117.54V115.54C279.798 115.54 276.125 114.545 273.468 112.664L272.312 114.296ZM458.479 0.439992H459.479V-0.560008H458.479V0.439992ZM458.479 134V135H459.479V134H458.479ZM431.659 134H430.659V135H431.659V134ZM431.659 122.84H432.659V120.066L430.889 122.202L431.659 122.84ZM376.579 129.32L376.092 130.194L376.098 130.197L376.579 129.32ZM359.299 111.86L360.173 111.374L360.173 111.374L359.299 111.86ZM359.299 59.3L360.173 59.7856L360.173 59.7856L359.299 59.3ZM376.579 41.84L376.098 40.9632L376.092 40.9665L376.579 41.84ZM430.399 47.42L429.653 48.0858L431.399 50.0427V47.42H430.399ZM430.399 0.439992V-0.560008H429.399V0.439992H430.399ZM423.919 105.2L424.635 105.898L424.643 105.889L423.919 105.2ZM423.919 66.14L423.194 66.8293L423.203 66.8381L423.919 66.14ZM388.459 66.14L389.175 66.8382L389.183 66.8292L388.459 66.14ZM388.459 105.2L387.734 105.889L387.743 105.898L388.459 105.2ZM457.479 0.439992V134H459.479V0.439992H457.479ZM458.479 133H431.659V135H458.479V133ZM432.659 134V122.84H430.659V134H432.659ZM430.889 122.202C424.159 130.324 414.39 134.44 401.419 134.44V136.44C414.848 136.44 425.239 132.156 432.429 123.478L430.889 122.202ZM401.419 134.44C392.454 134.44 384.341 132.436 377.06 128.443L376.098 130.197C383.696 134.364 392.144 136.44 401.419 136.44V134.44ZM377.066 128.447C369.914 124.46 364.286 118.777 360.173 111.374L358.425 112.346C362.712 120.063 368.604 126.02 376.092 130.193L377.066 128.447ZM360.173 111.374C356.067 103.984 353.999 95.3961 353.999 85.58H351.999C351.999 95.6839 354.13 104.616 358.425 112.346L360.173 111.374ZM353.999 85.58C353.999 75.7639 356.067 67.1759 360.173 59.7856L358.425 58.8144C354.13 66.5441 351.999 75.4761 351.999 85.58H353.999ZM360.173 59.7856C364.286 52.383 369.914 46.6998 377.066 42.7135L376.092 40.9665C368.604 45.1402 362.712 51.097 358.425 58.8144L360.173 59.7856ZM377.06 42.7168C384.341 38.7236 392.454 36.72 401.419 36.72V34.72C392.144 34.72 383.696 36.7964 376.098 40.9632L377.06 42.7168ZM401.419 36.72C413.551 36.72 422.917 40.5375 429.653 48.0858L431.145 46.7542C423.96 38.7025 414.007 34.72 401.419 34.72V36.72ZM431.399 47.42V0.439992H429.399V47.42H431.399ZM430.399 1.43999H458.479V-0.560008H430.399V1.43999ZM406.279 113.4C413.612 113.4 419.755 110.903 424.635 105.898L423.203 104.502C418.723 109.097 413.106 111.4 406.279 111.4V113.4ZM424.643 105.889C429.535 100.747 431.939 93.9416 431.939 85.58H429.939C429.939 93.5384 427.663 99.813 423.194 104.511L424.643 105.889ZM431.939 85.58C431.939 77.2193 429.535 70.4677 424.635 65.4419L423.203 66.8381C427.663 71.4123 429.939 77.6207 429.939 85.58H431.939ZM424.643 65.4508C419.766 60.323 413.62 57.76 406.279 57.76V59.76C413.098 59.76 418.712 62.117 423.194 66.8292L424.643 65.4508ZM406.279 57.76C398.824 57.76 392.615 60.3193 387.734 65.4508L389.183 66.8292C393.662 62.1207 399.334 59.76 406.279 59.76V57.76ZM387.743 65.4419C382.843 70.4677 380.439 77.2193 380.439 85.58H382.439C382.439 77.6207 384.715 71.4123 389.175 66.8381L387.743 65.4419ZM380.439 85.58C380.439 93.9416 382.843 100.747 387.734 105.889L389.183 104.511C384.715 99.813 382.439 93.5384 382.439 85.58H380.439ZM387.743 105.898C392.626 110.906 398.831 113.4 406.279 113.4V111.4C399.326 111.4 393.652 109.094 389.175 104.502L387.743 105.898ZM637.288 46.52L636.575 47.2211L636.581 47.2271L636.587 47.233L637.288 46.52ZM648.088 134V135H649.088V134H648.088ZM620.008 134H619.008V135H620.008V134ZM615.148 65.78L614.372 66.4106L614.382 66.4239L614.394 66.4368L615.148 65.78ZM585.988 66.5L586.726 67.1748L586.735 67.1644L585.988 66.5ZM580.228 134V135H581.228V134H580.228ZM552.148 134H551.148V135H552.148V134ZM518.308 66.5L519.046 67.1748L519.055 67.1644L518.308 66.5ZM512.548 134V135H513.548V134H512.548ZM484.468 134H483.468V135H484.468V134ZM484.468 37.16V36.16H483.468V37.16H484.468ZM511.288 37.16H512.288V36.16H511.288V37.16ZM511.288 48.32H510.288V50.9648L512.038 48.9816L511.288 48.32ZM524.428 38.96L524.049 38.0344L524.042 38.0376L524.428 38.96ZM560.248 39.86L559.801 40.7544L559.808 40.7583L559.816 40.7621L560.248 39.86ZM573.568 51.56L572.73 52.1057L573.492 53.2756L574.354 52.1778L573.568 51.56ZM588.508 39.86L588.097 38.9484L588.09 38.9515L588.508 39.86ZM608.488 36.72C620.397 36.72 629.72 40.2498 636.575 47.2211L638.001 45.8189C630.696 38.3902 620.818 34.72 608.488 34.72V36.72ZM636.587 47.233C643.528 54.0586 647.088 64.4356 647.088 78.56H649.088C649.088 64.1244 645.448 53.1414 637.989 45.807L636.587 47.233ZM647.088 78.56V134H649.088V78.56H647.088ZM648.088 133H620.008V135H648.088V133ZM621.008 134V82.88H619.008V134H621.008ZM621.008 82.88C621.008 75.0869 619.368 69.103 615.902 65.1232L614.394 66.4368C617.407 69.8969 619.008 75.3131 619.008 82.88H621.008ZM615.924 65.1494C612.578 61.0308 607.766 59.02 601.648 59.02V61.02C607.29 61.02 611.478 62.8492 614.372 66.4106L615.924 65.1494ZM601.648 59.02C594.807 59.02 589.298 61.2707 585.24 65.8356L586.735 67.1644C590.358 63.0893 595.289 61.02 601.648 61.02V59.02ZM585.25 65.8252C581.176 70.2806 579.228 76.8669 579.228 85.4H581.228C581.228 77.1331 583.119 71.1194 586.726 67.1748L585.25 65.8252ZM579.228 85.4V134H581.228V85.4H579.228ZM580.228 133H552.148V135H580.228V133ZM553.148 134V82.88H551.148V134H553.148ZM553.148 82.88C553.148 75.1525 551.601 69.1716 548.337 65.1088C545.041 61.0041 540.127 59.02 533.788 59.02V61.02C539.688 61.02 543.955 62.8459 546.778 66.3612C549.635 69.9184 551.148 75.3675 551.148 82.88H553.148ZM533.788 59.02C527.061 59.02 521.614 61.2749 517.56 65.8356L519.055 67.1644C522.681 63.0851 527.555 61.02 533.788 61.02V59.02ZM517.57 65.8252C513.496 70.2806 511.548 76.8669 511.548 85.4H513.548C513.548 77.1331 515.439 71.1194 519.046 67.1748L517.57 65.8252ZM511.548 85.4V134H513.548V85.4H511.548ZM512.548 133H484.468V135H512.548V133ZM485.468 134V37.16H483.468V134H485.468ZM484.468 38.16H511.288V36.16H484.468V38.16ZM510.288 37.16V48.32H512.288V37.16H510.288ZM512.038 48.9816C515.535 45.0182 519.789 41.9858 524.814 39.8824L524.042 38.0376C518.746 40.2542 514.241 43.4618 510.538 47.6584L512.038 48.9816ZM524.806 39.8855C529.955 37.7791 535.585 36.72 541.708 36.72V34.72C535.35 34.72 529.46 35.8209 524.049 38.0345L524.806 39.8855ZM541.708 36.72C548.41 36.72 554.434 38.0711 559.801 40.7544L560.695 38.9656C555.022 36.1289 548.686 34.72 541.708 34.72V36.72ZM559.816 40.7621C565.17 43.3224 569.469 47.0985 572.73 52.1057L574.406 51.0143C570.946 45.7015 566.366 41.6776 560.679 38.9579L559.816 40.7621ZM574.354 52.1778C578.213 47.2664 583.065 43.4643 588.926 40.7685L588.09 38.9515C581.95 41.7757 576.843 45.7736 572.782 50.9422L574.354 52.1778ZM588.919 40.7716C594.901 38.074 601.419 36.72 608.488 36.72V34.72C601.156 34.72 594.355 36.126 588.097 38.9484L588.919 40.7716ZM746.877 46.52L746.21 47.265L746.216 47.2705L746.877 46.52ZM758.937 134V135H759.937V134H758.937ZM732.657 134H731.657V135H732.657V134ZM732.657 121.94H733.657V118.259L731.794 121.434L732.657 121.94ZM683.697 131.66L683.274 132.566L683.282 132.57L683.697 131.66ZM671.277 121.22L672.116 120.676L672.116 120.676L671.277 121.22ZM677.037 84.86L676.435 84.0617L676.428 84.0668L677.037 84.86ZM730.857 77.12V78.12H731.857V77.12H730.857ZM725.277 63.08L724.607 63.8221L724.613 63.8281L724.62 63.8341L725.277 63.08ZM693.237 60.56L693.539 61.5132L693.546 61.511L693.553 61.5087L693.237 60.56ZM680.637 67.04L679.747 67.497L680.304 68.5803L681.258 67.8235L680.637 67.04ZM670.557 47.42L669.981 46.6025L669.27 47.1034L669.667 47.877L670.557 47.42ZM689.457 38.78L689.192 37.8156L689.188 37.8167L689.457 38.78ZM722.937 113.3L723.439 114.165L723.449 114.159L723.459 114.153L722.937 113.3ZM730.857 103.4L731.797 103.74L731.857 103.575V103.4H730.857ZM730.857 93.5H731.857V92.5H730.857V93.5ZM698.457 113.48L697.841 114.268L697.859 114.282L697.879 114.296L698.457 113.48ZM712.317 36.72C727.167 36.72 738.414 40.2836 746.21 47.2649L747.544 45.775C739.26 38.3564 727.467 34.72 712.317 34.72V36.72ZM746.216 47.2705C753.973 54.1013 757.937 64.5233 757.937 78.74H759.937C759.937 64.1567 755.861 53.0987 747.538 45.7695L746.216 47.2705ZM757.937 78.74V134H759.937V78.74H757.937ZM758.937 133H732.657V135H758.937V133ZM733.657 134V121.94H731.657V134H733.657ZM731.794 121.434C726.759 130.017 717.333 134.44 703.137 134.44V136.44C717.741 136.44 727.995 131.863 733.519 122.446L731.794 121.434ZM703.137 134.44C695.809 134.44 689.476 133.199 684.112 130.75L683.282 132.57C688.958 135.161 695.585 136.44 703.137 136.44V134.44ZM684.12 130.754C678.868 128.303 674.881 124.939 672.116 120.676L670.438 121.764C673.432 126.381 677.726 129.977 683.274 132.566L684.12 130.754ZM672.116 120.676C669.348 116.409 667.957 111.56 667.957 106.1H665.957C665.957 111.92 667.446 117.151 670.438 121.764L672.116 120.676ZM667.957 106.1C667.957 97.3883 671.19 90.6106 677.646 85.6531L676.428 84.0668C669.444 89.4294 665.957 96.8117 665.957 106.1H667.957ZM677.639 85.6583C684.225 80.6902 694.465 78.12 708.537 78.12V76.12C694.289 76.12 683.529 78.7098 676.435 84.0617L677.639 85.6583ZM708.537 78.12H730.857V76.12H708.537V78.12ZM731.857 77.12C731.857 70.7862 729.923 65.8003 725.934 62.3259L724.62 63.8341C728.071 66.8397 729.857 71.2138 729.857 77.12H731.857ZM725.947 62.3379C721.972 58.7473 716.107 57.04 708.537 57.04V59.04C715.846 59.04 721.142 60.6927 724.607 63.8221L725.947 62.3379ZM708.537 57.04C703.266 57.04 698.06 57.8983 692.921 59.6113L693.553 61.5087C698.494 59.8617 703.488 59.04 708.537 59.04V57.04ZM692.935 59.6068C687.917 61.1976 683.605 63.4098 680.015 66.2565L681.258 67.8235C684.629 65.1502 688.716 63.0424 693.539 61.5132L692.935 59.6068ZM681.526 66.583L671.446 46.963L669.667 47.877L679.747 67.497L681.526 66.583ZM671.133 48.2375C676.305 44.5938 682.496 41.7579 689.725 39.7433L689.188 37.8167C681.777 39.8821 675.369 42.8062 669.981 46.6025L671.133 48.2375ZM689.721 39.7444C697.074 37.7283 704.605 36.72 712.317 36.72V34.72C704.429 34.72 696.72 35.7517 689.192 37.8156L689.721 39.7444ZM710.157 117.54C715.112 117.54 719.549 116.423 723.439 114.165L722.435 112.435C718.884 114.497 714.801 115.54 710.157 115.54V117.54ZM723.459 114.153C727.384 111.747 730.165 108.261 731.797 103.74L729.916 103.06C728.429 107.179 725.93 110.293 722.414 112.447L723.459 114.153ZM731.857 103.4V93.5H729.857V103.4H731.857ZM730.857 92.5H711.597V94.5H730.857V92.5ZM711.597 92.5C705.759 92.5 701.207 93.4519 698.088 95.499C694.896 97.5941 693.317 100.762 693.317 104.84H695.317C695.317 101.358 696.618 98.8559 699.186 97.171C701.826 95.438 705.914 94.5 711.597 94.5V92.5ZM693.317 104.84C693.317 108.738 694.831 111.912 697.841 114.268L699.073 112.692C696.563 110.728 695.317 108.142 695.317 104.84H693.317ZM697.879 114.296C700.983 116.495 705.109 117.54 710.157 117.54V115.54C705.365 115.54 701.691 114.545 699.035 112.664L697.879 114.296ZM866.071 42.02L865.573 42.8874L865.581 42.8922L865.59 42.8968L866.071 42.02ZM883.531 59.48L882.656 59.9656L882.66 59.9716L883.531 59.48ZM883.531 111.86L884.401 112.352L884.405 112.346L883.531 111.86ZM866.071 129.32L866.557 130.193L866.562 130.191L866.071 129.32ZM812.431 123.74L813.171 123.068L811.431 121.15V123.74H812.431ZM812.431 168.92V169.92H813.431V168.92H812.431ZM784.351 168.92H783.351V169.92H784.351V168.92ZM784.351 37.16V36.16H783.351V37.16H784.351ZM811.171 37.16H812.171V36.16H811.171V37.16ZM811.171 48.32H810.171V51.0942L811.941 48.958L811.171 48.32ZM854.371 105.2L853.646 104.511L853.646 104.511L854.371 105.2ZM854.371 66.14L853.637 66.8198L853.646 66.829L853.655 66.8381L854.371 66.14ZM818.911 66.14L818.186 65.4508L818.186 65.4512L818.911 66.14ZM818.911 105.2L818.177 105.88L818.186 105.889L818.195 105.898L818.911 105.2ZM841.591 36.72C850.428 36.72 858.415 38.7801 865.573 42.8874L866.568 41.1526C859.087 36.8599 850.753 34.72 841.591 34.72V36.72ZM865.59 42.8968C872.861 46.8843 878.546 52.5672 882.656 59.9656L884.405 58.9944C880.115 51.2728 874.16 45.3157 866.551 41.1432L865.59 42.8968ZM882.66 59.9716C886.762 67.2384 888.831 75.7635 888.831 85.58H890.831C890.831 75.4765 888.699 66.6016 884.401 58.9884L882.66 59.9716ZM888.831 85.58C888.831 95.3961 886.762 103.984 882.656 111.374L884.405 112.346C888.699 104.616 890.831 95.6839 890.831 85.58H888.831ZM882.66 111.368C878.549 118.65 872.86 124.339 865.579 128.449L866.562 130.191C874.161 125.901 880.112 119.95 884.401 112.352L882.66 111.368ZM865.584 128.447C858.424 132.437 850.433 134.44 841.591 134.44V136.44C850.748 136.44 859.078 134.363 866.557 130.193L865.584 128.447ZM841.591 134.44C829.459 134.44 820.028 130.622 813.171 123.068L811.69 124.412C818.993 132.458 829.002 136.44 841.591 136.44V134.44ZM811.431 123.74V168.92H813.431V123.74H811.431ZM812.431 167.92H784.351V169.92H812.431V167.92ZM785.351 168.92V37.16H783.351V168.92H785.351ZM784.351 38.16H811.171V36.16H784.351V38.16ZM810.171 37.16V48.32H812.171V37.16H810.171ZM811.941 48.958C818.669 40.8377 828.496 36.72 841.591 36.72V34.72C828.045 34.72 817.592 39.0023 810.401 47.682L811.941 48.958ZM836.731 113.4C844.178 113.4 850.329 110.906 855.096 105.889L853.646 104.511C849.292 109.094 843.683 111.4 836.731 111.4V113.4ZM855.095 105.889C859.987 100.747 862.391 93.9416 862.391 85.58H860.391C860.391 93.5384 858.115 99.813 853.646 104.511L855.095 105.889ZM862.391 85.58C862.391 77.2193 859.987 70.4677 855.087 65.4419L853.655 66.8381C858.114 71.4123 860.391 77.6207 860.391 85.58H862.391ZM855.104 65.4602C850.34 60.3199 844.186 57.76 836.731 57.76V59.76C843.675 59.76 849.281 62.1201 853.637 66.8198L855.104 65.4602ZM836.731 57.76C829.275 57.76 823.067 60.3193 818.186 65.4508L819.635 66.8292C824.114 62.1207 829.786 59.76 836.731 59.76V57.76ZM818.186 65.4512C813.41 70.4781 811.071 77.2264 811.071 85.58H813.071C813.071 77.6136 815.291 71.4019 819.636 66.8287L818.186 65.4512ZM811.071 85.58C811.071 93.9346 813.41 100.737 818.177 105.88L819.644 104.52C815.291 99.8234 813.071 93.5454 813.071 85.58H811.071ZM818.195 105.898C823.078 110.906 829.283 113.4 836.731 113.4V111.4C829.778 111.4 824.103 109.094 819.627 104.502L818.195 105.898Z" fill="url(#paint0_linear_92_3)"/>
<defs>
<linearGradient id="paint0_linear_92_3" x1="441" y1="-40" x2="441" y2="179" gradientUnits="userSpaceOnUse">
<stop stop-color="#8BEFC8"/>
<stop offset="1" stop-color="#9E4CFD"/>
</linearGradient>
</defs>
</svg>
