<svg width="713" height="135" viewBox="0 0 713 135" fill="none" xmlns="http://www.w3.org/2000/svg">
<path d="M65.176 107L45.736 78.92H44.584H24.28V107H0.952001V6.19999H44.584C53.512 6.19999 61.24 7.68799 67.768 10.664C74.392 13.64 79.48 17.864 83.032 23.336C86.584 28.808 88.36 35.288 88.36 42.776C88.36 50.264 86.536 56.744 82.888 62.216C79.336 67.592 74.248 71.72 67.624 74.6L90.232 107H65.176ZM64.744 42.776C64.744 37.112 62.92 32.792 59.272 29.816C55.624 26.744 50.296 25.208 43.288 25.208H24.28V60.344H43.288C50.296 60.344 55.624 58.808 59.272 55.736C62.92 52.664 64.744 48.344 64.744 42.776ZM142.123 108.152C133.963 108.152 126.619 106.472 120.091 103.112C113.659 99.656 108.619 94.904 104.971 88.856C101.323 82.808 99.4986 75.944 99.4986 68.264C99.4986 60.584 101.323 53.72 104.971 47.672C108.619 41.624 113.659 36.92 120.091 33.56C126.619 30.104 133.963 28.376 142.123 28.376C150.283 28.376 157.579 30.104 164.011 33.56C170.443 36.92 175.483 41.624 179.131 47.672C182.779 53.72 184.603 60.584 184.603 68.264C184.603 75.944 182.779 82.808 179.131 88.856C175.483 94.904 170.443 99.656 164.011 103.112C157.579 106.472 150.283 108.152 142.123 108.152ZM142.123 89.72C147.883 89.72 152.587 87.8 156.235 83.96C159.979 80.024 161.851 74.792 161.851 68.264C161.851 61.736 159.979 56.552 156.235 52.712C152.587 48.776 147.883 46.808 142.123 46.808C136.363 46.808 131.611 48.776 127.867 52.712C124.123 56.552 122.251 61.736 122.251 68.264C122.251 74.792 124.123 80.024 127.867 83.96C131.611 87.8 136.363 89.72 142.123 89.72ZM229.6 28.376C241.6 28.376 250.816 31.256 257.248 37.016C263.68 42.68 266.896 51.272 266.896 62.792V107H245.872V97.352C241.648 104.552 233.776 108.152 222.256 108.152C216.304 108.152 211.12 107.144 206.704 105.128C202.384 103.112 199.072 100.328 196.768 96.776C194.464 93.224 193.312 89.192 193.312 84.68C193.312 77.48 196 71.816 201.376 67.688C206.848 63.56 215.248 61.496 226.576 61.496H244.432C244.432 56.6 242.944 52.856 239.968 50.264C236.992 47.576 232.528 46.232 226.576 46.232C222.448 46.232 218.368 46.904 214.336 48.248C210.4 49.496 207.04 51.224 204.256 53.432L196.192 37.736C200.416 34.76 205.456 32.456 211.312 30.824C217.264 29.192 223.36 28.376 229.6 28.376ZM227.872 93.032C231.712 93.032 235.12 92.168 238.096 90.44C241.072 88.616 243.184 85.976 244.432 82.52V74.6H229.024C219.808 74.6 215.2 77.624 215.2 83.672C215.2 86.552 216.304 88.856 218.512 90.584C220.816 92.216 223.936 93.032 227.872 93.032ZM366.983 0.151994V107H345.527V98.072C339.959 104.792 331.895 108.152 321.335 108.152C314.039 108.152 307.415 106.52 301.463 103.256C295.607 99.992 290.999 95.336 287.639 89.288C284.279 83.24 282.599 76.232 282.599 68.264C282.599 60.296 284.279 53.288 287.639 47.24C290.999 41.192 295.607 36.536 301.463 33.272C307.415 30.008 314.039 28.376 321.335 28.376C331.223 28.376 338.951 31.496 344.519 37.736V0.151994H366.983ZM325.223 89.72C330.887 89.72 335.591 87.8 339.335 83.96C343.079 80.024 344.951 74.792 344.951 68.264C344.951 61.736 343.079 56.552 339.335 52.712C335.591 48.776 330.887 46.808 325.223 46.808C319.463 46.808 314.711 48.776 310.967 52.712C307.223 56.552 305.351 61.736 305.351 68.264C305.351 74.792 307.223 80.024 310.967 83.96C314.711 87.8 319.463 89.72 325.223 89.72ZM486.99 28.376C496.686 28.376 504.366 31.256 510.03 37.016C515.79 42.68 518.67 51.224 518.67 62.648V107H496.206V66.104C496.206 59.96 494.91 55.4 492.318 52.424C489.822 49.352 486.222 47.816 481.518 47.816C476.238 47.816 472.062 49.544 468.99 53C465.918 56.36 464.382 61.4 464.382 68.12V107H441.918V66.104C441.918 53.912 437.022 47.816 427.23 47.816C422.046 47.816 417.918 49.544 414.846 53C411.774 56.36 410.238 61.4 410.238 68.12V107H387.774V29.528H409.23V38.456C412.11 35.192 415.614 32.696 419.742 30.968C423.966 29.24 428.574 28.376 433.566 28.376C439.038 28.376 443.982 29.48 448.398 31.688C452.814 33.8 456.366 36.92 459.054 41.048C462.222 37.016 466.206 33.896 471.006 31.688C475.902 29.48 481.23 28.376 486.99 28.376ZM570.054 28.376C582.054 28.376 591.27 31.256 597.702 37.016C604.134 42.68 607.35 51.272 607.35 62.792V107H586.326V97.352C582.102 104.552 574.23 108.152 562.71 108.152C556.758 108.152 551.574 107.144 547.158 105.128C542.838 103.112 539.526 100.328 537.222 96.776C534.918 93.224 533.766 89.192 533.766 84.68C533.766 77.48 536.454 71.816 541.83 67.688C547.302 63.56 555.702 61.496 567.03 61.496H584.886C584.886 56.6 583.398 52.856 580.422 50.264C577.446 47.576 572.982 46.232 567.03 46.232C562.902 46.232 558.822 46.904 554.79 48.248C550.854 49.496 547.494 51.224 544.71 53.432L536.646 37.736C540.87 34.76 545.91 32.456 551.766 30.824C557.718 29.192 563.814 28.376 570.054 28.376ZM568.326 93.032C572.166 93.032 575.574 92.168 578.55 90.44C581.526 88.616 583.638 85.976 584.886 82.52V74.6H569.478C560.262 74.6 555.654 77.624 555.654 83.672C555.654 86.552 556.758 88.856 558.966 90.584C561.27 92.216 564.39 93.032 568.326 93.032ZM673.473 28.376C680.673 28.376 687.201 30.056 693.057 33.416C699.009 36.68 703.665 41.336 707.025 47.384C710.385 53.336 712.065 60.296 712.065 68.264C712.065 76.232 710.385 83.24 707.025 89.288C703.665 95.24 699.009 99.896 693.057 103.256C687.201 106.52 680.673 108.152 673.473 108.152C663.585 108.152 655.809 105.032 650.145 98.792V134.936H627.681V29.528H649.137V38.456C654.705 31.736 662.817 28.376 673.473 28.376ZM669.585 89.72C675.345 89.72 680.049 87.8 683.697 83.96C687.441 80.024 689.312 74.792 689.312 68.264C689.312 61.736 687.441 56.552 683.697 52.712C680.049 48.776 675.345 46.808 669.585 46.808C663.825 46.808 659.073 48.776 655.328 52.712C651.681 56.552 649.857 61.736 649.857 68.264C649.857 74.792 651.681 80.024 655.328 83.96C659.073 87.8 663.825 89.72 669.585 89.72Z" fill="#0F0F0F"/>
<path d="M65.176 107L64.3538 107.569L64.6521 108H65.176V107ZM45.736 78.92L46.5582 78.3508L46.26 77.92H45.736V78.92ZM24.28 78.92V77.92H23.28V78.92H24.28ZM24.28 107V108H25.28V107H24.28ZM0.952001 107H-0.0479994V108H0.952001V107ZM0.952001 6.19999V5.19999H-0.0479994V6.19999H0.952001ZM67.768 10.664L67.3532 11.5739L67.3582 11.5762L67.768 10.664ZM82.888 62.216L82.0559 61.6613L82.0537 61.6647L82.888 62.216ZM67.624 74.6L67.2253 73.6829L66.1047 74.1701L66.8039 75.1722L67.624 74.6ZM90.232 107V108H92.1492L91.0521 106.428L90.232 107ZM59.272 29.816L58.6279 30.5809L58.6338 30.5859L58.6399 30.5909L59.272 29.816ZM24.28 25.208V24.208H23.28V25.208H24.28ZM24.28 60.344H23.28V61.344H24.28V60.344ZM59.272 55.736L59.9161 56.5009L59.9161 56.5009L59.272 55.736ZM65.9982 106.431L46.5582 78.3508L44.9138 79.4892L64.3538 107.569L65.9982 106.431ZM45.736 77.92H44.584V79.92H45.736V77.92ZM44.584 77.92H24.28V79.92H44.584V77.92ZM23.28 78.92V107H25.28V78.92H23.28ZM24.28 106H0.952001V108H24.28V106ZM1.952 107V6.19999H-0.0479994V107H1.952ZM0.952001 7.19999H44.584V5.19999H0.952001V7.19999ZM44.584 7.19999C53.4029 7.19999 60.9832 8.66993 67.3532 11.5739L68.1828 9.75409C61.4968 6.70606 53.6211 5.19999 44.584 5.19999V7.19999ZM67.3582 11.5762C73.8274 14.4826 78.7575 18.5876 82.1932 23.8805L83.8708 22.7915C80.2025 17.1404 74.9567 12.7974 68.1778 9.75183L67.3582 11.5762ZM82.1932 23.8805C85.6251 29.1674 87.36 35.4519 87.36 42.776H89.36C89.36 35.124 87.5429 28.4486 83.8708 22.7915L82.1932 23.8805ZM87.36 42.776C87.36 50.0948 85.5798 56.3756 82.056 61.6613L83.7201 62.7707C87.4922 57.1124 89.36 50.4332 89.36 42.776H87.36ZM82.0537 61.6647C78.621 66.8601 73.6939 70.8705 67.2253 73.6829L68.0227 75.5171C74.8021 72.5695 80.051 68.3239 83.7223 62.7673L82.0537 61.6647ZM66.8039 75.1722L89.4119 107.572L91.0521 106.428L68.4441 74.0278L66.8039 75.1722ZM90.232 106H65.176V108H90.232V106ZM65.744 42.776C65.744 36.8791 63.8326 32.246 59.9041 29.0411L58.6399 30.5909C62.0074 33.338 63.744 37.3449 63.744 42.776H65.744ZM59.9161 29.0511C56.0198 25.77 50.4241 24.208 43.288 24.208V26.208C50.1679 26.208 55.2282 27.718 58.6279 30.5809L59.9161 29.0511ZM43.288 24.208H24.28V26.208H43.288V24.208ZM23.28 25.208V60.344H25.28V25.208H23.28ZM24.28 61.344H43.288V59.344H24.28V61.344ZM43.288 61.344C50.4241 61.344 56.0198 59.782 59.9161 56.5009L58.6279 54.9711C55.2282 57.834 50.1679 59.344 43.288 59.344V61.344ZM59.9161 56.5009C63.8286 53.2062 65.744 48.5841 65.744 42.776H63.744C63.744 48.1039 62.0114 52.1218 58.6279 54.9711L59.9161 56.5009ZM120.091 103.112L119.617 103.993L119.625 103.997L119.633 104.001L120.091 103.112ZM104.971 88.856L104.114 89.3725L104.114 89.3725L104.971 88.856ZM104.971 47.672L104.114 47.1555L104.114 47.1555L104.971 47.672ZM120.091 33.56L120.554 34.4464L120.559 34.4438L120.091 33.56ZM164.011 33.56L163.537 34.4409L163.548 34.4463L164.011 33.56ZM179.131 47.672L179.987 47.1555L179.987 47.1555L179.131 47.672ZM179.131 88.856L179.987 89.3725L179.987 89.3725L179.131 88.856ZM164.011 103.112L164.474 103.998L164.484 103.993L164.011 103.112ZM156.235 83.96L155.51 83.2708L155.51 83.2712L156.235 83.96ZM156.235 52.712L155.501 53.3918L155.51 53.401L155.519 53.4101L156.235 52.712ZM127.867 52.712L128.583 53.4102L128.591 53.4012L127.867 52.712ZM127.867 83.96L127.142 84.6493L127.151 84.6581L127.867 83.96ZM142.123 107.152C134.104 107.152 126.92 105.502 120.548 102.223L119.633 104.001C126.318 107.442 133.821 109.152 142.123 109.152V107.152ZM120.564 102.231C114.284 98.857 109.379 94.2285 105.827 88.3395L104.114 89.3725C107.858 95.5795 113.033 100.455 119.617 103.993L120.564 102.231ZM105.827 88.3395C102.281 82.4609 100.499 75.7784 100.499 68.264H98.4986C98.4986 76.1096 100.364 83.1551 104.114 89.3725L105.827 88.3395ZM100.499 68.264C100.499 60.7496 102.281 54.0671 105.827 48.1885L104.114 47.1555C100.364 53.3729 98.4986 60.4184 98.4986 68.264H100.499ZM105.827 48.1885C109.378 42.302 114.279 37.7239 120.554 34.4463L119.628 32.6736C113.038 36.1161 107.86 40.946 104.114 47.1555L105.827 48.1885ZM120.559 34.4438C126.928 31.0718 134.108 29.376 142.123 29.376V27.376C133.817 27.376 126.31 29.1361 119.623 32.6762L120.559 34.4438ZM142.123 29.376C150.137 29.376 157.267 31.0719 163.537 34.4409L164.484 32.6791C157.89 29.1361 150.428 27.376 142.123 27.376V29.376ZM163.548 34.4463C169.822 37.7239 174.724 42.302 178.274 48.1885L179.987 47.1555C176.242 40.946 171.063 36.1161 164.474 32.6736L163.548 34.4463ZM178.274 48.1885C181.82 54.0671 183.603 60.7496 183.603 68.264H185.603C185.603 60.4184 183.737 53.3729 179.987 47.1555L178.274 48.1885ZM183.603 68.264C183.603 75.7784 181.82 82.4609 178.274 88.3395L179.987 89.3725C183.737 83.1551 185.603 76.1096 185.603 68.264H183.603ZM178.274 88.3395C174.722 94.2285 169.817 98.857 163.537 102.231L164.484 103.993C171.068 100.455 176.243 95.5795 179.987 89.3725L178.274 88.3395ZM163.548 102.226C157.276 105.502 150.142 107.152 142.123 107.152V109.152C150.424 109.152 157.882 107.442 164.474 103.998L163.548 102.226ZM142.123 90.72C148.13 90.72 153.105 88.706 156.96 84.6487L155.51 83.2712C152.068 86.894 147.635 88.72 142.123 88.72V90.72ZM156.959 84.6492C160.915 80.491 162.851 74.9936 162.851 68.264H160.851C160.851 74.5904 159.043 79.557 155.51 83.2708L156.959 84.6492ZM162.851 68.264C162.851 61.5353 160.915 56.0797 156.951 52.0139L155.519 53.4101C159.042 57.0243 160.851 61.9367 160.851 68.264H162.851ZM156.968 52.0322C153.116 47.8759 148.138 45.808 142.123 45.808V47.808C147.627 47.808 152.057 49.6761 155.501 53.3918L156.968 52.0322ZM142.123 45.808C136.107 45.808 131.087 47.8753 127.142 52.0228L128.591 53.4012C132.134 49.6767 136.618 47.808 142.123 47.808V45.808ZM127.151 52.0139C123.186 56.0797 121.251 61.5353 121.251 68.264H123.251C123.251 61.9367 125.059 57.0243 128.583 53.4101L127.151 52.0139ZM121.251 68.264C121.251 74.9936 123.187 80.491 127.142 84.6492L128.591 83.2708C125.059 79.557 123.251 74.5904 123.251 68.264H121.251ZM127.151 84.6581C131.098 88.7064 136.115 90.72 142.123 90.72V88.72C136.61 88.72 132.123 86.8936 128.583 83.2619L127.151 84.6581ZM257.248 37.016L256.581 37.761L256.587 37.7665L257.248 37.016ZM266.896 107V108H267.896V107H266.896ZM245.872 107H244.872V108H245.872V107ZM245.872 97.352H246.872V93.6712L245.01 96.846L245.872 97.352ZM206.704 105.128L206.281 106.034L206.289 106.038L206.704 105.128ZM196.768 96.776L197.607 96.2318L197.607 96.2318L196.768 96.776ZM201.376 67.688L200.774 66.8897L200.767 66.8948L201.376 67.688ZM244.432 61.496V62.496H245.432V61.496H244.432ZM239.968 50.264L239.298 51.0061L239.305 51.0121L239.312 51.0181L239.968 50.264ZM214.336 48.248L214.639 49.2012L214.646 49.199L214.653 49.1967L214.336 48.248ZM204.256 53.432L203.367 53.889L203.923 54.9723L204.878 54.2155L204.256 53.432ZM196.192 37.736L195.616 36.9185L194.905 37.4194L195.303 38.193L196.192 37.736ZM211.312 30.824L211.048 29.8596L211.044 29.8607L211.312 30.824ZM238.096 90.44L238.599 91.3048L238.609 91.2988L238.619 91.2926L238.096 90.44ZM244.432 82.52L245.373 82.8596L245.432 82.695V82.52H244.432ZM244.432 74.6H245.432V73.6H244.432V74.6ZM218.512 90.584L217.896 91.3715L217.915 91.3862L217.934 91.4L218.512 90.584ZM229.6 29.376C241.45 29.376 250.393 32.2196 256.581 37.7609L257.915 36.271C251.239 30.2924 241.75 27.376 229.6 27.376V29.376ZM256.587 37.7665C262.737 43.1813 265.896 51.4553 265.896 62.792H267.896C267.896 51.0887 264.624 42.1787 257.909 36.2655L256.587 37.7665ZM265.896 62.792V107H267.896V62.792H265.896ZM266.896 106H245.872V108H266.896V106ZM246.872 107V97.352H244.872V107H246.872ZM245.01 96.846C241.031 103.629 233.573 107.152 222.256 107.152V109.152C233.98 109.152 242.266 105.475 246.735 97.858L245.01 96.846ZM222.256 107.152C216.416 107.152 211.379 106.163 207.12 104.218L206.289 106.038C210.861 108.125 216.193 109.152 222.256 109.152V107.152ZM207.127 104.222C202.955 102.275 199.797 99.6073 197.607 96.2318L195.929 97.3202C198.348 101.049 201.814 103.949 206.281 106.034L207.127 104.222ZM197.607 96.2318C195.415 92.8527 194.312 89.0122 194.312 84.68H192.312C192.312 89.3718 193.513 93.5953 195.929 97.3202L197.607 96.2318ZM194.312 84.68C194.312 77.7683 196.873 72.4066 201.985 68.4811L200.767 66.8948C195.128 71.2254 192.312 77.1917 192.312 84.68H194.312ZM201.979 68.4863C207.196 64.5502 215.336 62.496 226.576 62.496V60.496C215.161 60.496 206.5 62.5698 200.774 66.8897L201.979 68.4863ZM226.576 62.496H244.432V60.496H226.576V62.496ZM245.432 61.496C245.432 56.3862 243.87 52.3363 240.625 49.5099L239.312 51.0181C242.019 53.3757 243.432 56.8138 243.432 61.496H245.432ZM240.639 49.5219C237.407 46.6033 232.659 45.232 226.576 45.232V47.232C232.398 47.232 236.577 48.5487 239.298 51.0061L240.639 49.5219ZM226.576 45.232C222.338 45.232 218.151 45.9223 214.02 47.2993L214.653 49.1967C218.586 47.8857 222.559 47.232 226.576 47.232V45.232ZM214.034 47.2948C210.001 48.5736 206.528 50.3538 203.635 52.6485L204.878 54.2155C207.553 52.0942 210.8 50.4184 214.639 49.2012L214.034 47.2948ZM205.146 52.975L197.082 37.279L195.303 38.193L203.367 53.889L205.146 52.975ZM196.768 38.5535C200.884 35.6538 205.816 33.3939 211.581 31.7873L211.044 29.8607C205.097 31.5181 199.949 33.8662 195.616 36.9185L196.768 38.5535ZM211.577 31.7884C217.442 30.1803 223.449 29.376 229.6 29.376V27.376C223.272 27.376 217.087 28.2037 211.048 29.8596L211.577 31.7884ZM227.872 94.032C231.868 94.032 235.453 93.1313 238.599 91.3048L237.594 89.5752C234.788 91.2047 231.557 92.032 227.872 92.032V94.032ZM238.619 91.2926C241.799 89.3434 244.052 86.517 245.373 82.8596L243.492 82.1804C242.317 85.435 240.346 87.8886 237.574 89.5874L238.619 91.2926ZM245.432 82.52V74.6H243.432V82.52H245.432ZM244.432 73.6H229.024V75.6H244.432V73.6ZM229.024 73.6C224.339 73.6 220.651 74.3629 218.108 76.032C215.491 77.7491 214.2 80.3499 214.2 83.672H216.2C216.2 80.9461 217.214 79.0109 219.205 77.704C221.27 76.349 224.494 75.6 229.024 75.6V73.6ZM214.2 83.672C214.2 86.8498 215.438 89.448 217.896 91.3715L219.129 89.7965C217.17 88.264 216.2 86.2542 216.2 83.672H214.2ZM217.934 91.4C220.462 93.1905 223.809 94.032 227.872 94.032V92.032C224.064 92.032 221.171 91.2415 219.09 89.768L217.934 91.4ZM366.983 0.151994H367.983V-0.848006H366.983V0.151994ZM366.983 107V108H367.983V107H366.983ZM345.527 107H344.527V108H345.527V107ZM345.527 98.072H346.527V95.2977L344.757 97.434L345.527 98.072ZM301.463 103.256L300.976 104.13L300.982 104.133L301.463 103.256ZM287.639 89.288L288.513 88.8024L288.513 88.8024L287.639 89.288ZM287.639 47.24L288.513 47.7256L288.513 47.7256L287.639 47.24ZM301.463 33.272L300.982 32.3952L300.976 32.3985L301.463 33.272ZM344.519 37.736L343.773 38.4018L345.519 40.3587V37.736H344.519ZM344.519 0.151994V-0.848006H343.519V0.151994H344.519ZM339.335 83.96L340.051 84.6582L340.06 84.6492L339.335 83.96ZM339.335 52.712L338.611 53.4013L338.619 53.4101L339.335 52.712ZM310.967 52.712L311.683 53.4102L311.692 53.4012L310.967 52.712ZM310.967 83.96L310.243 84.6493L310.251 84.6581L310.967 83.96ZM365.983 0.151994V107H367.983V0.151994H365.983ZM366.983 106H345.527V108H366.983V106ZM346.527 107V98.072H344.527V107H346.527ZM344.757 97.434C339.419 103.876 331.666 107.152 321.335 107.152V109.152C332.124 109.152 340.499 105.708 346.297 98.71L344.757 97.434ZM321.335 107.152C314.194 107.152 307.738 105.556 301.944 102.379L300.982 104.133C307.093 107.484 313.884 109.152 321.335 109.152V107.152ZM301.95 102.383C296.262 99.2122 291.786 94.693 288.513 88.8024L286.765 89.7736C290.212 95.979 294.952 100.772 300.976 104.129L301.95 102.383ZM288.513 88.8024C285.248 82.9241 283.599 76.0881 283.599 68.264H281.599C281.599 76.3759 283.311 83.5559 286.765 89.7736L288.513 88.8024ZM283.599 68.264C283.599 60.4399 285.248 53.6039 288.513 47.7256L286.765 46.7544C283.311 52.9721 281.599 60.1521 281.599 68.264H283.599ZM288.513 47.7256C291.786 41.835 296.262 37.3158 301.95 34.1455L300.976 32.3985C294.952 35.7562 290.212 40.549 286.765 46.7544L288.513 47.7256ZM301.944 34.1488C307.738 30.9716 314.194 29.376 321.335 29.376V27.376C313.884 27.376 307.093 29.0444 300.982 32.3952L301.944 34.1488ZM321.335 29.376C330.995 29.376 338.43 32.4135 343.773 38.4018L345.265 37.0702C339.473 30.5785 331.451 27.376 321.335 27.376V29.376ZM345.519 37.736V0.151994H343.519V37.736H345.519ZM344.519 1.15199H366.983V-0.848006H344.519V1.15199ZM325.223 90.72C331.14 90.72 336.107 88.7029 340.051 84.6581L338.619 83.2619C335.075 86.8971 330.634 88.72 325.223 88.72V90.72ZM340.06 84.6492C344.015 80.491 345.951 74.9936 345.951 68.264H343.951C343.951 74.5904 342.143 79.557 338.611 83.2708L340.06 84.6492ZM345.951 68.264C345.951 61.5353 344.015 56.0797 340.051 52.0139L338.619 53.4101C342.143 57.0243 343.951 61.9367 343.951 68.264H345.951ZM340.06 52.0228C336.118 47.879 331.148 45.808 325.223 45.808V47.808C330.626 47.808 335.064 49.673 338.611 53.4012L340.06 52.0228ZM325.223 45.808C319.208 45.808 314.188 47.8753 310.243 52.0228L311.692 53.4012C315.235 49.6767 319.719 47.808 325.223 47.808V45.808ZM310.251 52.0139C306.287 56.0797 304.351 61.5353 304.351 68.264H306.351C306.351 61.9367 308.159 57.0243 311.683 53.4101L310.251 52.0139ZM304.351 68.264C304.351 74.9936 306.287 80.491 310.243 84.6492L311.692 83.2708C308.159 79.557 306.351 74.5904 306.351 68.264H304.351ZM310.251 84.6581C314.198 88.7064 319.216 90.72 325.223 90.72V88.72C319.711 88.72 315.224 86.8936 311.683 83.2619L310.251 84.6581ZM510.03 37.016L509.317 37.7171L509.323 37.7231L509.329 37.729L510.03 37.016ZM518.67 107V108H519.67V107H518.67ZM496.206 107H495.206V108H496.206V107ZM492.318 52.424L491.542 53.0546L491.553 53.0679L491.564 53.0808L492.318 52.424ZM468.99 53L469.728 53.6748L469.738 53.6644L468.99 53ZM464.382 107V108H465.382V107H464.382ZM441.918 107H440.918V108H441.918V107ZM414.846 53L415.584 53.6748L415.594 53.6644L414.846 53ZM410.238 107V108H411.238V107H410.238ZM387.774 107H386.774V108H387.774V107ZM387.774 29.528V28.528H386.774V29.528H387.774ZM409.23 29.528H410.23V28.528H409.23V29.528ZM409.23 38.456H408.23V41.1008L409.98 39.1176L409.23 38.456ZM419.742 30.968L419.364 30.0424L419.356 30.0456L419.742 30.968ZM448.398 31.688L447.951 32.5824L447.959 32.5863L447.967 32.5901L448.398 31.688ZM459.054 41.048L458.216 41.5937L458.978 42.7636L459.841 41.6658L459.054 41.048ZM471.006 31.688L470.595 30.7764L470.588 30.7795L471.006 31.688ZM486.99 29.376C496.476 29.376 503.878 32.1858 509.317 37.7171L510.743 36.3149C504.854 30.3262 496.897 27.376 486.99 27.376V29.376ZM509.329 37.729C514.83 43.1386 517.67 51.3796 517.67 62.648H519.67C519.67 51.0684 516.75 42.2214 510.731 36.303L509.329 37.729ZM517.67 62.648V107H519.67V62.648H517.67ZM518.67 106H496.206V108H518.67V106ZM497.206 107V66.104H495.206V107H497.206ZM497.206 66.104C497.206 59.8469 495.891 55.003 493.072 51.7672L491.564 53.0808C493.93 55.7969 495.206 60.0731 495.206 66.104H497.206ZM493.094 51.7934C490.372 48.4428 486.46 46.816 481.518 46.816V48.816C485.984 48.816 489.273 50.2612 491.542 53.0546L493.094 51.7934ZM481.518 46.816C475.998 46.816 471.533 48.6347 468.243 52.3356L469.738 53.6644C472.592 50.4533 476.479 48.816 481.518 48.816V46.816ZM468.252 52.3252C464.947 55.9406 463.382 61.2669 463.382 68.12H465.382C465.382 61.5331 466.89 56.7794 469.728 53.6748L468.252 52.3252ZM463.382 68.12V107H465.382V68.12H463.382ZM464.382 106H441.918V108H464.382V106ZM442.918 107V66.104H440.918V107H442.918ZM442.918 66.104C442.918 59.9005 441.677 55.0626 439.026 51.7618C436.341 48.4191 432.346 46.816 427.23 46.816V48.816C431.907 48.816 435.255 50.2609 437.467 53.0142C439.712 55.8094 440.918 60.1155 440.918 66.104H442.918ZM427.23 46.816C421.799 46.816 417.385 48.6389 414.099 52.3356L415.594 53.6644C418.452 50.4491 422.293 48.816 427.23 48.816V46.816ZM414.108 52.3252C410.803 55.9406 409.238 61.2669 409.238 68.12H411.238C411.238 61.5331 412.746 56.7794 415.584 53.6748L414.108 52.3252ZM409.238 68.12V107H411.238V68.12H409.238ZM410.238 106H387.774V108H410.238V106ZM388.774 107V29.528H386.774V107H388.774ZM387.774 30.528H409.23V28.528H387.774V30.528ZM408.23 29.528V38.456H410.23V29.528H408.23ZM409.98 39.1176C412.757 35.9702 416.136 33.5618 420.128 31.8904L419.356 30.0456C415.093 31.8302 411.463 34.4138 408.48 37.7944L409.98 39.1176ZM420.121 31.8935C424.214 30.2191 428.692 29.376 433.566 29.376V27.376C428.457 27.376 423.719 28.2609 419.364 30.0425L420.121 31.8935ZM433.566 29.376C438.9 29.376 443.688 30.4511 447.951 32.5824L448.845 30.7936C444.276 28.5089 439.176 27.376 433.566 27.376V29.376ZM447.967 32.5901C452.216 34.6224 455.628 37.6185 458.216 41.5937L459.892 40.5023C457.105 36.2215 453.412 32.9776 448.83 30.7859L447.967 32.5901ZM459.841 41.6658C462.908 37.7624 466.764 34.7403 471.424 32.5965L470.588 30.7795C465.649 33.0517 461.537 36.2696 458.268 40.4302L459.841 41.6658ZM471.417 32.5996C476.175 30.454 481.362 29.376 486.99 29.376V27.376C481.099 27.376 475.63 28.506 470.595 30.7764L471.417 32.5996ZM597.702 37.016L597.034 37.761L597.041 37.7665L597.702 37.016ZM607.35 107V108H608.35V107H607.35ZM586.326 107H585.326V108H586.326V107ZM586.326 97.352H587.326V93.6712L585.463 96.846L586.326 97.352ZM547.158 105.128L546.735 106.034L546.742 106.038L547.158 105.128ZM537.222 96.776L538.06 96.2318L538.06 96.2318L537.222 96.776ZM541.83 67.688L541.227 66.8897L541.22 66.8948L541.83 67.688ZM584.886 61.496V62.496H585.886V61.496H584.886ZM580.422 50.264L579.751 51.0061L579.758 51.0121L579.765 51.0181L580.422 50.264ZM554.79 48.248L555.092 49.2012L555.099 49.199L555.106 49.1967L554.79 48.248ZM544.71 53.432L543.82 53.889L544.377 54.9723L545.331 54.2155L544.71 53.432ZM536.646 37.736L536.07 36.9185L535.359 37.4194L535.756 38.193L536.646 37.736ZM551.766 30.824L551.501 29.8596L551.497 29.8607L551.766 30.824ZM578.55 90.44L579.052 91.3048L579.062 91.2988L579.072 91.2926L578.55 90.44ZM584.886 82.52L585.826 82.8596L585.886 82.695V82.52H584.886ZM584.886 74.6H585.886V73.6H584.886V74.6ZM558.966 90.584L558.349 91.3715L558.368 91.3862L558.387 91.4L558.966 90.584ZM570.054 29.376C581.903 29.376 590.847 32.2196 597.034 37.7609L598.369 36.271C591.692 30.2924 582.204 27.376 570.054 27.376V29.376ZM597.041 37.7665C603.19 43.1813 606.35 51.4553 606.35 62.792H608.35C608.35 51.0887 605.077 42.1787 598.362 36.2655L597.041 37.7665ZM606.35 62.792V107H608.35V62.792H606.35ZM607.35 106H586.326V108H607.35V106ZM587.326 107V97.352H585.326V107H587.326ZM585.463 96.846C581.484 103.629 574.026 107.152 562.71 107.152V109.152C574.433 109.152 582.719 105.475 587.188 97.858L585.463 96.846ZM562.71 107.152C556.869 107.152 551.832 106.163 547.573 104.218L546.742 106.038C551.315 108.125 556.646 109.152 562.71 109.152V107.152ZM547.58 104.222C543.408 102.275 540.25 99.6073 538.06 96.2318L536.383 97.3202C538.801 101.049 542.267 103.949 546.735 106.034L547.58 104.222ZM538.06 96.2318C535.869 92.8527 534.766 89.0122 534.766 84.68H532.766C532.766 89.3718 533.966 93.5953 536.383 97.3202L538.06 96.2318ZM534.766 84.68C534.766 77.7683 537.326 72.4066 542.439 68.4811L541.22 66.8948C535.581 71.2254 532.766 77.1917 532.766 84.68H534.766ZM542.432 68.4863C547.649 64.5502 555.789 62.496 567.03 62.496V60.496C555.614 60.496 546.954 62.5698 541.227 66.8897L542.432 68.4863ZM567.03 62.496H584.886V60.496H567.03V62.496ZM585.886 61.496C585.886 56.3862 584.323 52.3363 581.078 49.5099L579.765 51.0181C582.472 53.3757 583.886 56.8138 583.886 61.496H585.886ZM581.092 49.5219C577.86 46.6033 573.112 45.232 567.03 45.232V47.232C572.851 47.232 577.031 48.5487 579.751 51.0061L581.092 49.5219ZM567.03 45.232C562.791 45.232 558.604 45.9223 554.473 47.2993L555.106 49.1967C559.039 47.8857 563.012 47.232 567.03 47.232V45.232ZM554.487 47.2948C550.454 48.5736 546.981 50.3538 544.088 52.6485L545.331 54.2155C548.006 52.0942 551.253 50.4184 555.092 49.2012L554.487 47.2948ZM545.599 52.975L537.535 37.279L535.756 38.193L543.82 53.889L545.599 52.975ZM537.221 38.5535C541.337 35.6538 546.269 33.3939 552.034 31.7873L551.497 29.8607C545.55 31.5181 540.402 33.8662 536.07 36.9185L537.221 38.5535ZM552.03 31.7884C557.895 30.1803 563.902 29.376 570.054 29.376V27.376C563.725 27.376 557.54 28.2037 551.501 29.8596L552.03 31.7884ZM568.326 94.032C572.321 94.032 575.906 93.1313 579.052 91.3048L578.047 89.5752C575.241 91.2047 572.01 92.032 568.326 92.032V94.032ZM579.072 91.2926C582.252 89.3434 584.505 86.517 585.826 82.8596L583.945 82.1804C582.77 85.435 580.799 87.8886 578.027 89.5874L579.072 91.2926ZM585.886 82.52V74.6H583.886V82.52H585.886ZM584.886 73.6H569.478V75.6H584.886V73.6ZM569.478 73.6C564.792 73.6 561.104 74.3629 558.561 76.032C555.944 77.7491 554.654 80.3499 554.654 83.672H556.654C556.654 80.9461 557.667 79.0109 559.658 77.704C561.723 76.349 564.947 75.6 569.478 75.6V73.6ZM554.654 83.672C554.654 86.8498 555.891 89.448 558.349 91.3715L559.582 89.7965C557.624 88.264 556.654 86.2542 556.654 83.672H554.654ZM558.387 91.4C560.915 93.1905 564.262 94.032 568.326 94.032V92.032C564.517 92.032 561.624 91.2415 559.544 89.768L558.387 91.4ZM693.057 33.416L692.559 34.2834L692.567 34.2882L692.576 34.2928L693.057 33.416ZM707.025 47.384L706.15 47.8696L706.154 47.8756L707.025 47.384ZM707.025 89.288L707.895 89.7796L707.899 89.7736L707.025 89.288ZM693.057 103.256L693.543 104.129L693.548 104.127L693.057 103.256ZM650.145 98.792L650.885 98.1199L649.145 96.2024V98.792H650.145ZM650.145 134.936V135.936H651.145V134.936H650.145ZM627.681 134.936H626.681V135.936H627.681V134.936ZM627.681 29.528V28.528H626.681V29.528H627.681ZM649.137 29.528H650.137V28.528H649.137V29.528ZM649.137 38.456H648.137V41.2302L649.907 39.094L649.137 38.456ZM683.697 83.96L682.972 83.2708L682.972 83.2712L683.697 83.96ZM683.697 52.712L682.963 53.3918L682.972 53.401L682.981 53.4101L683.697 52.712ZM655.328 52.712L654.604 52.0228L654.604 52.0232L655.328 52.712ZM655.328 83.96L654.595 84.6398L654.604 84.649L654.612 84.6581L655.328 83.96ZM673.473 29.376C680.51 29.376 686.864 31.0161 692.559 34.2834L693.554 32.5486C687.537 29.0959 680.835 27.376 673.473 27.376V29.376ZM692.576 34.2928C698.359 37.4643 702.88 41.9832 706.15 47.8696L707.899 46.8984C704.449 40.6888 699.658 35.8957 693.537 32.5392L692.576 34.2928ZM706.154 47.8756C709.416 53.6544 711.065 60.4395 711.065 68.264H713.065C713.065 60.1525 711.353 53.0176 707.895 46.8924L706.154 47.8756ZM711.065 68.264C711.065 76.0881 709.416 82.9241 706.15 88.8024L707.899 89.7736C711.353 83.5559 713.065 76.3759 713.065 68.264H711.065ZM706.154 88.7964C702.883 94.5898 698.358 99.1147 692.565 102.385L693.548 104.127C699.659 100.677 704.446 95.8902 707.895 89.7796L706.154 88.7964ZM692.57 102.383C686.873 105.557 680.515 107.152 673.473 107.152V109.152C680.83 109.152 687.528 107.483 693.543 104.129L692.57 102.383ZM673.473 107.152C663.813 107.152 656.326 104.114 650.885 98.1199L649.404 99.4641C655.291 105.95 663.356 109.152 673.473 109.152V107.152ZM649.145 98.792V134.936H651.145V98.792H649.145ZM650.145 133.936H627.681V135.936H650.145V133.936ZM628.681 134.936V29.528H626.681V134.936H628.681ZM627.681 30.528H649.137V28.528H627.681V30.528ZM648.137 29.528V38.456H650.137V29.528H648.137ZM649.907 39.094C655.243 32.6537 663.042 29.376 673.473 29.376V27.376C662.591 27.376 654.166 30.8183 648.366 37.818L649.907 39.094ZM669.585 90.72C675.592 90.72 680.567 88.706 684.422 84.6487L682.972 83.2712C679.53 86.894 675.097 88.72 669.585 88.72V90.72ZM684.421 84.6492C688.376 80.491 690.312 74.9936 690.312 68.264H688.312C688.312 74.5904 686.505 79.557 682.972 83.2708L684.421 84.6492ZM690.312 68.264C690.312 61.5353 688.377 56.0797 684.413 52.0139L682.981 53.4101C686.504 57.0243 688.312 61.9367 688.312 68.264H690.312ZM684.43 52.0322C680.578 47.8759 675.6 45.808 669.585 45.808V47.808C675.089 47.808 679.519 49.6761 682.963 53.3918L684.43 52.0322ZM669.585 45.808C663.569 45.808 658.549 47.8753 654.604 52.0228L656.053 53.4012C659.596 49.6767 664.08 47.808 669.585 47.808V45.808ZM654.604 52.0232C650.74 56.0901 648.857 61.5424 648.857 68.264H650.857C650.857 61.9296 652.621 57.0139 656.053 53.4007L654.604 52.0232ZM648.857 68.264C648.857 74.9866 650.74 80.4806 654.595 84.6398L656.062 83.2802C652.621 79.5674 650.857 74.5974 650.857 68.264H648.857ZM654.612 84.6581C658.56 88.7064 663.577 90.72 669.585 90.72V88.72C664.072 88.72 659.585 86.8936 656.044 83.2619L654.612 84.6581Z" fill="#00FE9B"/>
</svg>
