<svg width="30" height="43" viewBox="0 0 30 43" fill="none" xmlns="http://www.w3.org/2000/svg">
<path d="M15.2251 42.8276C7.33898 42.8276 0.949219 36.197 0.949219 28.0652L0.949219 14.7207C0.949219 6.58886 7.33898 -1.76094e-09 15.2251 -3.93425e-09C23.1112 -6.10756e-09 29.5009 6.58886 29.5009 14.7207L29.5009 28.0652C29.5009 36.197 23.1112 42.8276 15.2251 42.8276ZM15.2251 3.54464C9.23973 3.54464 4.38675 8.54884 4.38675 14.7207L4.38675 28.0652C4.38675 34.237 9.23973 39.2412 15.2251 39.2412C21.2104 39.2412 26.0634 34.237 26.0634 28.0652L26.0634 14.7207C26.0634 8.54884 21.2104 3.54464 15.2251 3.54464Z" fill="white"/>
<path d="M15.2251 17.8448C13.9524 17.8448 12.8458 16.9175 12.8458 15.7462L12.8458 10.4263C12.8458 9.30371 13.8971 8.32759 15.2251 8.32759C16.5531 8.32759 17.6044 9.25491 17.6044 10.4263L17.6044 15.7462C17.6044 16.9175 16.5531 17.8448 15.2251 17.8448Z" fill="white"/>
</svg>
