<svg width="824" height="124" viewBox="0 0 824 124" fill="none" xmlns="http://www.w3.org/2000/svg">
<path d="M30.89 98.04C25.0833 98.04 19.4067 97.3467 13.86 95.96C8.31333 94.4867 3.89333 92.6667 0.6 90.5L7.36 75.94C10.48 77.9333 14.25 79.58 18.67 80.88C23.09 82.0933 27.4233 82.7 31.67 82.7C40.25 82.7 44.54 80.5767 44.54 76.33C44.54 74.3367 43.37 72.9067 41.03 72.04C38.69 71.1733 35.0933 70.4367 30.24 69.83C24.52 68.9633 19.7967 67.9667 16.07 66.84C12.3433 65.7133 9.09333 63.72 6.32 60.86C3.63333 58 2.29 53.9267 2.29 48.64C2.29 44.22 3.54667 40.32 6.06 36.94C8.66 33.4733 12.3867 30.7867 17.24 28.88C22.18 26.9733 27.9867 26.02 34.66 26.02C39.6 26.02 44.4967 26.5833 49.35 27.71C54.29 28.75 58.3633 30.2233 61.57 32.13L54.81 46.56C48.6567 43.0933 41.94 41.36 34.66 41.36C30.3267 41.36 27.0767 41.9667 24.91 43.18C22.7433 44.3933 21.66 45.9533 21.66 47.86C21.66 50.0267 22.83 51.5433 25.17 52.41C27.51 53.2767 31.2367 54.1 36.35 54.88C42.07 55.8333 46.75 56.8733 50.39 58C54.03 59.04 57.1933 60.99 59.88 63.85C62.5667 66.71 63.91 70.6967 63.91 75.81C63.91 80.1433 62.61 84 60.01 87.38C57.41 90.76 53.5967 93.4033 48.57 95.31C43.63 97.13 37.7367 98.04 30.89 98.04ZM121.532 93.62C119.539 95.0933 117.069 96.22 114.122 97C111.262 97.6933 108.229 98.04 105.022 98.04C96.7025 98.04 90.2458 95.9167 85.6525 91.67C81.1458 87.4233 78.8925 81.1833 78.8925 72.95V44.22L68.1025 44.22L68.1025 28.62H78.8925V11.59H99.1725V28.62L116.592 28.62L116.592 44.22H99.1725V72.69C99.1725 75.6367 99.9092 77.9333 101.382 79.58C102.942 81.14 105.109 81.92 107.882 81.92C111.089 81.92 113.819 81.0533 116.072 79.32L121.532 93.62ZM161.127 26.02C171.96 26.02 180.28 28.62 186.087 33.82C191.893 38.9333 194.797 46.69 194.797 57.09V97H175.817V88.29C172.003 94.79 164.897 98.04 154.497 98.04C149.123 98.04 144.443 97.13 140.457 95.31C136.557 93.49 133.567 90.9767 131.487 87.77C129.407 84.5633 128.367 80.9233 128.367 76.85C128.367 70.35 130.793 65.2367 135.647 61.51C140.587 57.7833 148.17 55.92 158.397 55.92H174.517C174.517 51.5 173.173 48.12 170.487 45.78C167.8 43.3533 163.77 42.14 158.397 42.14C154.67 42.14 150.987 42.7467 147.347 43.96C143.793 45.0867 140.76 46.6467 138.247 48.64L130.967 34.47C134.78 31.7833 139.33 29.7033 144.617 28.23C149.99 26.7567 155.493 26.02 161.127 26.02ZM159.567 84.39C163.033 84.39 166.11 83.61 168.797 82.05C171.483 80.4033 173.39 78.02 174.517 74.9V67.75H160.607C152.287 67.75 148.127 70.48 148.127 75.94C148.127 78.54 149.123 80.62 151.117 82.18C153.197 83.6533 156.013 84.39 159.567 84.39ZM281.301 27.06L249.711 101.29C246.505 109.35 242.518 115.027 237.751 118.32C233.071 121.613 227.395 123.26 220.721 123.26C217.081 123.26 213.485 122.697 209.931 121.57C206.378 120.443 203.475 118.883 201.221 116.89L208.631 102.46C210.191 103.847 211.968 104.93 213.961 105.71C216.041 106.49 218.078 106.88 220.071 106.88C222.845 106.88 225.098 106.187 226.831 104.8C228.565 103.5 230.125 101.29 231.511 98.17L231.771 97.52L201.481 27.06H222.411L242.041 74.51L261.801 27.06H281.301ZM371.503 93.62C369.51 95.0933 367.04 96.22 364.093 97C361.233 97.6933 358.2 98.04 354.993 98.04C346.673 98.04 340.217 95.9167 335.623 91.67C331.117 87.4233 328.863 81.1833 328.863 72.95V44.22H318.073V28.62H328.863V11.59H349.143V28.62H366.563V44.22L349.143 44.22V72.69C349.143 75.6367 349.88 77.9333 351.353 79.58C352.913 81.14 355.08 81.92 357.853 81.92C361.06 81.92 363.79 81.0533 366.043 79.32L371.503 93.62ZM453.347 27.06V97H434.107V88.68C431.421 91.7133 428.214 94.0533 424.487 95.7C420.761 97.26 416.731 98.04 412.397 98.04C403.211 98.04 395.931 95.3967 390.557 90.11C385.184 84.8233 382.497 76.98 382.497 66.58V27.06L402.777 27.06V63.59C402.777 74.8567 407.501 80.49 416.947 80.49C421.801 80.49 425.701 78.93 428.647 75.81C431.594 72.6033 433.067 67.88 433.067 61.64V27.06H453.347ZM514.645 26.02C523.312 26.02 530.289 28.62 535.575 33.82C540.949 39.02 543.635 46.7333 543.635 56.96V97H523.355V60.08C523.355 54.5333 522.142 50.4167 519.715 47.73C517.289 44.9567 513.779 43.57 509.185 43.57C504.072 43.57 499.999 45.1733 496.965 48.38C493.932 51.5 492.415 56.18 492.415 62.42V97H472.135V27.06H491.505V35.25C494.192 32.3033 497.529 30.05 501.515 28.49C505.502 26.8433 509.879 26.02 514.645 26.02ZM631.29 62.29C631.29 62.55 631.16 64.37 630.9 67.75H577.99C578.943 72.0833 581.197 75.5067 584.75 78.02C588.303 80.5333 592.723 81.79 598.01 81.79C601.65 81.79 604.857 81.27 607.63 80.23C610.49 79.1033 613.133 77.37 615.56 75.03L626.35 86.73C619.763 94.27 610.143 98.04 597.49 98.04C589.603 98.04 582.627 96.5233 576.56 93.49C570.493 90.37 565.813 86.08 562.52 80.62C559.227 75.16 557.58 68.9633 557.58 62.03C557.58 55.1833 559.183 49.03 562.39 43.57C565.683 38.0233 570.147 33.7333 575.78 30.7C581.5 27.58 587.87 26.02 594.89 26.02C601.737 26.02 607.933 27.4933 613.48 30.44C619.027 33.3867 623.36 37.6333 626.48 43.18C629.687 48.64 631.29 55.01 631.29 62.29ZM595.02 41.36C590.427 41.36 586.57 42.66 583.45 45.26C580.33 47.86 578.423 51.4133 577.73 55.92H612.18C611.487 51.5 609.58 47.99 606.46 45.39C603.34 42.7033 599.527 41.36 595.02 41.36ZM716.032 0.539993V97H696.662V88.94C691.635 95.0067 684.355 98.04 674.822 98.04C668.235 98.04 662.255 96.5667 656.882 93.62C651.595 90.6733 647.435 86.47 644.402 81.01C641.368 75.55 639.852 69.2233 639.852 62.03C639.852 54.8367 641.368 48.51 644.402 43.05C647.435 37.59 651.595 33.3867 656.882 30.44C662.255 27.4933 668.235 26.02 674.822 26.02C683.748 26.02 690.725 28.8367 695.752 34.47V0.539993H716.032ZM678.332 81.4C683.445 81.4 687.692 79.6667 691.072 76.2C694.452 72.6467 696.142 67.9233 696.142 62.03C696.142 56.1367 694.452 51.4567 691.072 47.99C687.692 44.4367 683.445 42.66 678.332 42.66C673.132 42.66 668.842 44.4367 665.462 47.99C662.082 51.4567 660.392 56.1367 660.392 62.03C660.392 67.9233 662.082 72.6467 665.462 76.2C668.842 79.6667 673.132 81.4 678.332 81.4ZM742.471 98.04C738.918 98.04 735.928 96.8267 733.501 94.4C731.075 91.9733 729.861 88.94 729.861 85.3C729.861 81.5733 731.075 78.5833 733.501 76.33C735.928 73.99 738.918 72.82 742.471 72.82C746.025 72.82 749.015 73.99 751.441 76.33C753.868 78.5833 755.081 81.5733 755.081 85.3C755.081 88.94 753.868 91.9733 751.441 94.4C749.015 96.8267 746.025 98.04 742.471 98.04ZM776.495 98.04C772.941 98.04 769.951 96.8267 767.525 94.4C765.098 91.9733 763.885 88.94 763.885 85.3C763.885 81.5733 765.098 78.5833 767.525 76.33C769.951 73.99 772.941 72.82 776.495 72.82C780.048 72.82 783.038 73.99 785.465 76.33C787.891 78.5833 789.105 81.5733 789.105 85.3C789.105 88.94 787.891 91.9733 785.465 94.4C783.038 96.8267 780.048 98.04 776.495 98.04ZM810.518 98.04C806.965 98.04 803.975 96.8267 801.548 94.4C799.122 91.9733 797.908 88.94 797.908 85.3C797.908 81.5733 799.122 78.5833 801.548 76.33C803.975 73.99 806.965 72.82 810.518 72.82C814.072 72.82 817.062 73.99 819.488 76.33C821.915 78.5833 823.128 81.5733 823.128 85.3C823.128 88.94 821.915 91.9733 819.488 94.4C817.062 96.8267 814.072 98.04 810.518 98.04Z" fill="#0F0F0F"/>
<path d="M13.86 95.96L13.3466 97.893L13.3607 97.8967L13.3749 97.9003L13.86 95.96ZM0.6 90.5L-1.21402 89.6578L-1.94054 91.2226L-0.499233 92.1708L0.6 90.5ZM7.36 75.94L8.43678 74.2546L6.50922 73.0231L5.54598 75.0978L7.36 75.94ZM18.67 80.88L18.1057 82.7987L18.1231 82.8038L18.1406 82.8086L18.67 80.88ZM41.03 72.04L40.3354 73.9155L41.03 72.04ZM30.24 69.83L29.9404 71.8074L29.9661 71.8113L29.9919 71.8145L30.24 69.83ZM16.07 66.84L16.6488 64.9256L16.07 66.84ZM6.32 60.86L4.8623 62.2293L4.87316 62.2409L4.8842 62.2523L6.32 60.86ZM6.06 36.94L4.45999 35.74L4.45508 35.7466L6.06 36.94ZM17.24 28.88L16.5198 27.0141L16.5087 27.0185L17.24 28.88ZM49.35 27.71L48.8977 29.6582L48.9178 29.6628L48.938 29.6671L49.35 27.71ZM61.57 32.13L63.3811 32.9784L64.15 31.3372L62.5922 30.4109L61.57 32.13ZM54.81 46.56L53.8283 48.3025L55.7066 49.3607L56.6211 47.4084L54.81 46.56ZM24.91 43.18L23.9328 41.435L24.91 43.18ZM25.17 52.41L25.8646 50.5345L25.17 52.41ZM36.35 54.88L36.6788 52.9072L36.6652 52.9049L36.6516 52.9029L36.35 54.88ZM50.39 58L49.7986 59.9106L49.8195 59.917L49.8406 59.923L50.39 58ZM59.88 63.85L58.4223 65.2193L59.88 63.85ZM60.01 87.38L61.5952 88.5994L60.01 87.38ZM48.57 95.31L49.2614 97.1867L49.2704 97.1834L49.2793 97.18L48.57 95.31ZM30.89 96.04C25.2443 96.04 19.7306 95.3661 14.3451 94.0197L13.3749 97.9003C19.0827 99.3272 24.9224 100.04 30.89 100.04V96.04ZM14.3734 94.027C8.94883 92.5861 4.75094 90.8369 1.69923 88.8292L-0.499233 92.1708C3.03573 94.4965 7.67783 96.3872 13.3466 97.893L14.3734 94.027ZM2.41402 91.3422L9.17402 76.7822L5.54598 75.0978L-1.21402 89.6578L2.41402 91.3422ZM6.28322 77.6254C9.5954 79.7415 13.5469 81.4579 18.1057 82.7987L19.2343 78.9613C14.9531 77.7021 11.3646 76.1252 8.43678 74.2546L6.28322 77.6254ZM18.1406 82.8086C22.7195 84.0656 27.2309 84.7 31.67 84.7V80.7C27.6158 80.7 23.4605 80.1211 19.1994 78.9513L18.1406 82.8086ZM31.67 84.7C36.0606 84.7 39.6493 84.1672 42.2097 82.9C43.5178 82.2525 44.6217 81.3816 45.3945 80.2341C46.1764 79.073 46.54 77.7458 46.54 76.33H42.54C42.54 77.0375 42.3673 77.5682 42.0767 77.9997C41.7771 78.4447 41.2722 78.9008 40.4353 79.315C38.7057 80.1711 35.8594 80.7 31.67 80.7V84.7ZM46.54 76.33C46.54 74.9107 46.1116 73.5974 45.2104 72.496C44.3347 71.4257 43.1155 70.6796 41.7246 70.1645L40.3354 73.9155C41.2845 74.267 41.8203 74.6693 42.1146 75.029C42.3834 75.3575 42.54 75.756 42.54 76.33H46.54ZM41.7246 70.1645C39.1614 69.2151 35.3779 68.4567 30.4881 67.8454L29.9919 71.8145C34.8088 72.4167 38.2186 73.1315 40.3354 73.9155L41.7246 70.1645ZM30.5396 67.8526C24.8734 66.994 20.2516 66.0148 16.6488 64.9256L15.4912 68.7544C19.3417 69.9185 24.1666 70.9326 29.9404 71.8074L30.5396 67.8526ZM16.6488 64.9256C13.2553 63.8996 10.2982 62.0896 7.7558 59.4677L4.8842 62.2523C7.88844 65.3504 11.4313 67.527 15.4912 68.7544L16.6488 64.9256ZM7.7777 59.4906C5.54577 57.1147 4.29 53.598 4.29 48.64H0.29C0.29 54.2553 1.72089 58.8853 4.8623 62.2293L7.7777 59.4906ZM4.29 48.64C4.29 44.6272 5.42134 41.1506 7.66492 38.1334L4.45508 35.7466C1.672 39.4893 0.29 43.8127 0.29 48.64H4.29ZM7.66 38.14C9.99587 35.0255 13.3926 32.5403 17.9713 30.7415L16.5087 27.0185C11.3807 29.0331 7.32413 31.9212 4.46 35.74L7.66 38.14ZM17.9601 30.7458C22.6193 28.9476 28.1714 28.02 34.66 28.02V24.02C27.8019 24.02 21.7407 24.9991 16.5198 27.0141L17.9601 30.7458ZM34.66 28.02C39.4465 28.02 44.1914 28.5656 48.8977 29.6582L49.8023 25.7618C44.8019 24.601 39.7535 24.02 34.66 24.02V28.02ZM48.938 29.6671C53.7337 30.6767 57.5836 32.0865 60.5478 33.8491L62.5922 30.4109C59.1431 28.3601 54.8463 26.8233 49.762 25.7529L48.938 29.6671ZM59.7589 31.2815L52.9989 45.7115L56.6211 47.4084L63.3811 32.9784L59.7589 31.2815ZM55.7917 44.8175C49.3292 41.1767 42.2729 39.36 34.66 39.36V43.36C41.6071 43.36 47.9841 45.01 53.8283 48.3025L55.7917 44.8175ZM34.66 39.36C30.2056 39.36 26.5449 39.9722 23.9328 41.435L25.8872 44.925C27.6085 43.9611 30.4478 43.36 34.66 43.36V39.36ZM23.9328 41.435C21.3551 42.8785 19.66 45.0077 19.66 47.86H23.66C23.66 46.8989 24.1316 45.9082 25.8872 44.925L23.9328 41.435ZM19.66 47.86C19.66 49.3245 20.064 50.6904 20.9539 51.8441C21.8278 52.9768 23.0581 53.7606 24.4754 54.2855L25.8646 50.5345C24.9419 50.1927 24.4172 49.7848 24.1211 49.4009C23.841 49.0379 23.66 48.5622 23.66 47.86H19.66ZM24.4754 54.2855C27.0165 55.2266 30.9117 56.0736 36.0484 56.8571L36.6516 52.9029C31.5616 52.1264 28.0035 51.3267 25.8646 50.5345L24.4754 54.2855ZM36.0212 56.8528C41.6931 57.7981 46.2767 58.8204 49.7986 59.9106L50.9814 56.0894C47.2233 54.9262 42.4469 53.8686 36.6788 52.9072L36.0212 56.8528ZM49.8406 59.923C53.1203 60.8601 55.9734 62.6124 58.4223 65.2193L61.3377 62.4806C58.4133 59.3675 54.9397 57.2199 50.9394 56.0769L49.8406 59.923ZM58.4223 65.2193C60.6651 67.6068 61.91 71.0464 61.91 75.81H65.91C65.91 70.3469 64.4682 65.8131 61.3377 62.4806L58.4223 65.2193ZM61.91 75.81C61.91 79.71 60.7511 83.1363 58.4248 86.1606L61.5952 88.5994C64.4689 84.8637 65.91 80.5767 65.91 75.81H61.91ZM58.4248 86.1606C56.1028 89.1791 52.6303 91.6308 47.8607 93.44L49.2793 97.18C54.563 95.1758 58.7172 92.3409 61.5952 88.5994L58.4248 86.1606ZM47.8786 93.4333C43.2153 95.1514 37.5679 96.04 30.89 96.04V100.04C37.9054 100.04 44.0447 99.1086 49.2614 97.1867L47.8786 93.4333ZM121.532 93.62L122.721 95.2283L123.943 94.3255L123.401 92.9066L121.532 93.62ZM114.122 97L114.594 98.9437L114.614 98.9388L114.634 98.9334L114.122 97ZM85.6525 91.67L84.2809 93.1256L84.2878 93.1321L84.2948 93.1385L85.6525 91.67ZM78.8925 44.22H80.8925V42.22H78.8925V44.22ZM68.1025 44.22H66.1025V46.22H68.1025V44.22ZM68.1025 28.62V26.62H66.1025V28.62H68.1025ZM78.8925 28.62V30.62H80.8925V28.62H78.8925ZM78.8925 11.59V9.59H76.8925V11.59H78.8925ZM99.1725 11.59H101.172V9.59H99.1725V11.59ZM99.1725 28.62H97.1725V30.62H99.1725V28.62ZM116.592 28.62H118.592V26.62H116.592V28.62ZM116.592 44.22V46.22H118.592V44.22H116.592ZM99.1725 44.22V42.22H97.1725V44.22H99.1725ZM101.382 79.58L99.892 80.9136L99.929 80.9549L99.9683 80.9942L101.382 79.58ZM116.072 79.32L117.941 78.6066L116.983 76.0967L114.853 77.7347L116.072 79.32ZM120.344 92.0116C118.594 93.3047 116.368 94.3368 113.611 95.0666L114.634 98.9334C117.771 98.1032 120.484 96.8819 122.721 95.2283L120.344 92.0116ZM113.651 95.0563C110.959 95.7091 108.084 96.04 105.023 96.04V100.04C108.374 100.04 111.566 99.6776 114.594 98.9437L113.651 95.0563ZM105.023 96.04C97.0361 96.04 91.1258 94.0064 87.0102 90.2014L84.2948 93.1385C89.3659 97.8269 96.3689 100.04 105.023 100.04V96.04ZM87.0241 90.2144C83.0382 86.4585 80.8925 80.8219 80.8925 72.95H76.8925C76.8925 81.5448 79.2534 88.3881 84.2809 93.1256L87.0241 90.2144ZM80.8925 72.95V44.22H76.8925V72.95H80.8925ZM78.8925 42.22L68.1025 42.22V46.22L78.8925 46.22V42.22ZM70.1025 44.22L70.1025 28.62H66.1025L66.1025 44.22L70.1025 44.22ZM68.1025 30.62H78.8925V26.62H68.1025V30.62ZM80.8925 28.62V11.59H76.8925V28.62H80.8925ZM78.8925 13.59H99.1725V9.59H78.8925V13.59ZM97.1725 11.59V28.62H101.172V11.59H97.1725ZM99.1725 30.62L116.592 30.62V26.62L99.1725 26.62V30.62ZM114.592 28.62L114.592 44.22H118.592L118.592 28.62H114.592ZM116.592 42.22H99.1725V46.22H116.592V42.22ZM97.1725 44.22V72.69H101.172V44.22H97.1725ZM97.1725 72.69C97.1725 75.9619 97.9942 78.7925 99.892 80.9136L102.873 78.2464C101.824 77.0742 101.172 75.3114 101.172 72.69H97.1725ZM99.9683 80.9942C101.994 83.02 104.722 83.92 107.882 83.92V79.92C105.496 79.92 103.891 79.26 102.797 78.1658L99.9683 80.9942ZM107.882 83.92C111.471 83.92 114.645 82.9416 117.292 80.9052L114.853 77.7347C112.994 79.1651 110.707 79.92 107.882 79.92V83.92ZM114.204 80.0334L119.664 94.3334L123.401 92.9066L117.941 78.6066L114.204 80.0334ZM186.087 33.82L184.752 35.3099L184.759 35.3155L184.765 35.321L186.087 33.82ZM194.797 97V99H196.797V97H194.797ZM175.817 97H173.817V99H175.817V97ZM175.817 88.29H177.817V80.9284L174.092 87.278L175.817 88.29ZM140.457 95.31L139.611 97.1224L139.618 97.1259L139.626 97.1294L140.457 95.31ZM131.487 87.77L133.165 86.6816L131.487 87.77ZM135.647 61.51L134.442 59.9134L134.435 59.9185L134.429 59.9237L135.647 61.51ZM174.517 55.92V57.92H176.517V55.92H174.517ZM170.487 45.78L169.146 47.2642L169.159 47.2763L169.173 47.2882L170.487 45.78ZM147.347 43.96L147.951 45.8665L147.965 45.862L147.979 45.8574L147.347 43.96ZM138.247 48.64L136.468 49.554L137.581 51.7207L139.489 50.207L138.247 48.64ZM130.967 34.47L129.815 32.835L128.393 33.8368L129.188 35.384L130.967 34.47ZM144.617 28.23L144.088 26.3012L144.08 26.3034L144.617 28.23ZM168.797 82.05L169.801 83.7796L169.821 83.7676L169.842 83.7552L168.797 82.05ZM174.517 74.9L176.398 75.5793L176.517 75.25V74.9H174.517ZM174.517 67.75H176.517V65.75H174.517V67.75ZM151.117 82.18L149.884 83.755L149.922 83.7844L149.961 83.812L151.117 82.18ZM161.127 28.02C171.66 28.02 179.434 30.5473 184.752 35.3099L187.421 32.3301C181.126 26.6927 172.26 24.02 161.127 24.02V28.02ZM184.765 35.321C190.006 39.936 192.797 47.0566 192.797 57.09H196.797C196.797 46.3234 193.781 37.9307 187.408 32.319L184.765 35.321ZM192.797 57.09V97H196.797V57.09H192.797ZM194.797 95H175.817V99H194.797V95ZM177.817 97V88.29H173.817V97H177.817ZM174.092 87.278C170.768 92.9438 164.489 96.04 154.497 96.04V100.04C165.304 100.04 173.239 96.6362 177.542 89.302L174.092 87.278ZM154.497 96.04C149.347 96.04 144.961 95.1678 141.287 93.4906L139.626 97.1294C143.925 99.0922 148.9 100.04 154.497 100.04V96.04ZM141.302 93.4976C137.698 91.8157 135.016 89.5353 133.165 86.6816L129.809 88.8584C132.118 92.418 135.415 95.1643 139.611 97.1224L141.302 93.4976ZM133.165 86.6816C131.309 83.8206 130.367 80.5636 130.367 76.85H126.367C126.367 81.283 127.504 85.306 129.809 88.8584L133.165 86.6816ZM130.367 76.85C130.367 70.9266 132.539 66.4179 136.865 63.0963L134.429 59.9237C129.048 64.0554 126.367 69.7734 126.367 76.85H130.367ZM136.851 63.1066C141.282 59.7637 148.345 57.92 158.397 57.92V53.92C147.995 53.92 139.891 55.8029 134.442 59.9134L136.851 63.1066ZM158.397 57.92H174.517V53.92H158.397V57.92ZM176.517 55.92C176.517 51.0724 175.025 47.0806 171.8 44.2718L169.173 47.2882C171.322 49.1594 172.517 51.9276 172.517 55.92H176.517ZM171.827 44.2958C168.63 41.4078 164.031 40.14 158.397 40.14V44.14C163.509 44.14 166.97 45.2988 169.146 47.2642L171.827 44.2958ZM158.397 40.14C154.449 40.14 150.552 40.7834 146.714 42.0626L147.979 45.8574C151.421 44.71 154.891 44.14 158.397 44.14V40.14ZM146.742 42.0535C142.994 43.2419 139.736 44.9063 137.004 47.073L139.489 50.207C141.784 48.387 144.592 46.9314 147.951 45.8665L146.742 42.0535ZM140.026 47.726L132.746 33.556L129.188 35.384L136.468 49.554L140.026 47.726ZM132.119 36.105C135.715 33.5709 140.049 31.5791 145.154 30.1566L144.08 26.3034C138.611 27.8275 133.845 29.9958 129.815 32.835L132.119 36.105ZM145.145 30.1588C150.345 28.7332 155.67 28.02 161.127 28.02V24.02C155.317 24.02 149.635 24.7801 144.088 26.3012L145.145 30.1588ZM159.567 86.39C163.344 86.39 166.775 85.5366 169.801 83.7796L167.792 80.3204C165.445 81.6834 162.722 82.39 159.567 82.39V86.39ZM169.842 83.7552C172.937 81.8582 175.126 79.102 176.398 75.5793L172.636 74.2207C171.654 76.938 170.03 78.9484 167.752 80.3448L169.842 83.7552ZM176.517 74.9V67.75H172.517V74.9H176.517ZM174.517 65.75H160.607V69.75H174.517V65.75ZM160.607 65.75C156.292 65.75 152.708 66.4464 150.149 68.1254C147.444 69.9008 146.127 72.6138 146.127 75.94H150.127C150.127 73.8062 150.889 72.4242 152.344 71.4696C153.945 70.4186 156.602 69.75 160.607 69.75V65.75ZM146.127 75.94C146.127 79.1356 147.391 81.8041 149.884 83.755L152.349 80.605C150.855 79.4359 150.127 77.9444 150.127 75.94H146.127ZM149.961 83.812C152.488 85.6024 155.758 86.39 159.567 86.39V82.39C156.269 82.39 153.905 81.7042 152.273 80.5479L149.961 83.812ZM281.301 27.06L283.142 27.8432L284.326 25.06H281.301V27.06ZM249.711 101.29L247.871 100.507L247.862 100.529L247.853 100.551L249.711 101.29ZM237.751 118.32L236.615 116.675L236.608 116.679L236.6 116.684L237.751 118.32ZM209.931 121.57L210.536 119.664L209.931 121.57ZM201.221 116.89L199.442 115.976L198.733 117.359L199.896 118.388L201.221 116.89ZM208.631 102.46L209.96 100.965L208.031 99.2506L206.852 101.546L208.631 102.46ZM213.961 105.71L213.233 107.572L213.246 107.578L213.259 107.583L213.961 105.71ZM226.831 104.8L225.631 103.2L225.606 103.219L225.582 103.238L226.831 104.8ZM231.511 98.17L233.339 98.9823L233.354 98.9478L233.368 98.9128L231.511 98.17ZM231.771 97.52L233.628 98.2628L233.937 97.4924L233.609 96.7301L231.771 97.52ZM201.481 27.06V25.06H198.445L199.644 27.8499L201.481 27.06ZM222.411 27.06L224.26 26.2954L223.748 25.06H222.411V27.06ZM242.041 74.51L240.193 75.2745L242.035 79.7271L243.888 75.2789L242.041 74.51ZM261.801 27.06V25.06H260.468L259.955 26.2911L261.801 27.06ZM279.461 26.2768L247.871 100.507L251.552 102.073L283.142 27.8432L279.461 26.2768ZM247.853 100.551C244.724 108.415 240.933 113.691 236.615 116.675L238.888 119.965C244.104 116.362 248.285 110.285 251.57 102.029L247.853 100.551ZM236.6 116.684C232.311 119.703 227.053 121.26 220.721 121.26V125.26C227.736 125.26 233.832 123.524 238.902 119.956L236.6 116.684ZM220.721 121.26C217.292 121.26 213.899 120.73 210.536 119.664L209.327 123.476C213.071 124.664 216.871 125.26 220.721 125.26V121.26ZM210.536 119.664C207.187 118.602 204.547 117.162 202.547 115.392L199.896 118.388C202.402 120.605 205.569 122.285 209.327 123.476L210.536 119.664ZM203.001 117.804L210.411 103.374L206.852 101.546L199.442 115.976L203.001 117.804ZM207.303 103.955C209.044 105.503 211.025 106.709 213.233 107.572L214.69 103.848C212.911 103.151 211.339 102.191 209.96 100.965L207.303 103.955ZM213.259 107.583C215.538 108.437 217.812 108.88 220.071 108.88V104.88C218.344 104.88 216.545 104.543 214.664 103.837L213.259 107.583ZM220.071 108.88C223.183 108.88 225.912 108.097 228.081 106.362L225.582 103.238C224.284 104.276 222.507 104.88 220.071 104.88V108.88ZM228.031 106.4C230.151 104.81 231.886 102.252 233.339 98.9823L229.684 97.3577C228.364 100.328 226.978 102.19 225.631 103.2L228.031 106.4ZM233.368 98.9128L233.628 98.2628L229.915 96.7772L229.655 97.4272L233.368 98.9128ZM233.609 96.7301L203.319 26.2701L199.644 27.8499L229.934 98.3099L233.609 96.7301ZM201.481 29.06H222.411V25.06H201.481V29.06ZM220.563 27.8245L240.193 75.2745L243.89 73.7454L224.26 26.2954L220.563 27.8245ZM243.888 75.2789L263.648 27.8289L259.955 26.2911L240.195 73.7411L243.888 75.2789ZM261.801 29.06H281.301V25.06H261.801V29.06ZM371.503 93.62L372.692 95.2283L373.913 94.3255L373.372 92.9066L371.503 93.62ZM364.093 97L364.564 98.9437L364.585 98.9388L364.605 98.9334L364.093 97ZM335.623 91.67L334.252 93.1256L334.258 93.1321L334.265 93.1385L335.623 91.67ZM328.863 44.22H330.863V42.22H328.863V44.22ZM318.073 44.22H316.073V46.22H318.073V44.22ZM318.073 28.62V26.62L316.073 26.62V28.62L318.073 28.62ZM328.863 28.62V30.62H330.863V28.62H328.863ZM328.863 11.59V9.59H326.863V11.59H328.863ZM349.143 11.59H351.143V9.59H349.143V11.59ZM349.143 28.62H347.143V30.62H349.143V28.62ZM366.563 28.62H368.563V26.62H366.563V28.62ZM366.563 44.22V46.22H368.563V44.22H366.563ZM349.143 44.22V42.22H347.143V44.22H349.143ZM351.353 79.58L349.863 80.9136L349.9 80.9549L349.939 80.9942L351.353 79.58ZM366.043 79.32L367.912 78.6066L366.953 76.0967L364.824 77.7347L366.043 79.32ZM370.314 92.0116C368.565 93.3047 366.338 94.3368 363.581 95.0666L364.605 98.9334C367.741 98.1032 370.455 96.8819 372.692 95.2283L370.314 92.0116ZM363.622 95.0563C360.929 95.7091 358.055 96.04 354.993 96.04V100.04C358.345 100.04 361.537 99.6776 364.564 98.9437L363.622 95.0563ZM354.993 96.04C347.007 96.04 341.097 94.0064 336.981 90.2014L334.265 93.1385C339.337 97.8269 346.34 100.04 354.993 100.04V96.04ZM336.995 90.2144C333.009 86.4585 330.863 80.8219 330.863 72.95H326.863C326.863 81.5448 329.224 88.3881 334.252 93.1256L336.995 90.2144ZM330.863 72.95V44.22H326.863V72.95H330.863ZM328.863 42.22H318.073V46.22H328.863V42.22ZM320.073 44.22V28.62L316.073 28.62V44.22H320.073ZM318.073 30.62H328.863V26.62H318.073V30.62ZM330.863 28.62V11.59H326.863V28.62H330.863ZM328.863 13.59H349.143V9.59H328.863V13.59ZM347.143 11.59V28.62H351.143V11.59H347.143ZM349.143 30.62H366.563V26.62H349.143V30.62ZM364.563 28.62V44.22H368.563V28.62H364.563ZM366.563 42.22L349.143 42.22V46.22L366.563 46.22V42.22ZM347.143 44.22V72.69H351.143V44.22H347.143ZM347.143 72.69C347.143 75.9619 347.965 78.7925 349.863 80.9136L352.844 78.2464C351.795 77.0742 351.143 75.3114 351.143 72.69H347.143ZM349.939 80.9942C351.965 83.02 354.693 83.92 357.853 83.92V79.92C355.467 79.92 353.862 79.26 352.767 78.1658L349.939 80.9942ZM357.853 83.92C361.442 83.92 364.615 82.9416 367.263 80.9052L364.824 77.7347C362.964 79.1651 360.678 79.92 357.853 79.92V83.92ZM364.175 80.0334L369.635 94.3334L373.372 92.9066L367.912 78.6066L364.175 80.0334ZM453.347 27.06H455.347V25.06H453.347V27.06ZM453.347 97V99H455.347V97H453.347ZM434.107 97H432.107V99H434.107V97ZM434.107 88.68H436.107V83.4055L432.61 87.3539L434.107 88.68ZM424.487 95.7L425.26 97.5449L425.278 97.5373L425.296 97.5294L424.487 95.7ZM390.557 90.11L391.96 88.6843L390.557 90.11ZM382.497 27.06V25.06H380.497V27.06H382.497ZM402.777 27.06H404.777V25.06H402.777V27.06ZM428.647 75.81L430.101 77.1832L430.111 77.1733L430.12 77.1632L428.647 75.81ZM433.067 27.06V25.06H431.067V27.06H433.067ZM451.347 27.06V97H455.347V27.06H451.347ZM453.347 95H434.107V99H453.347V95ZM436.107 97V88.68H432.107V97H436.107ZM432.61 87.3539C430.115 90.1707 427.144 92.3396 423.679 93.8706L425.296 97.5294C429.284 95.7671 432.726 93.256 435.604 90.0061L432.61 87.3539ZM423.715 93.8551C420.25 95.3055 416.485 96.04 412.397 96.04V100.04C416.976 100.04 421.271 99.2145 425.26 97.5449L423.715 93.8551ZM412.397 96.04C403.614 96.04 396.88 93.5254 391.96 88.6843L389.155 91.5357C394.981 97.2679 402.808 100.04 412.397 100.04V96.04ZM391.96 88.6843C387.095 83.8981 384.497 76.6521 384.497 66.58H380.497C380.497 77.3078 383.273 85.7486 389.155 91.5357L391.96 88.6843ZM384.497 66.58V27.06H380.497V66.58H384.497ZM382.497 29.06L402.777 29.06V25.06L382.497 25.06V29.06ZM400.777 27.06V63.59H404.777V27.06H400.777ZM400.777 63.59C400.777 69.4541 401.999 74.2248 404.787 77.55C407.632 80.9427 411.814 82.49 416.947 82.49V78.49C412.634 78.49 409.731 77.2206 407.852 74.98C405.917 72.6719 404.777 68.9925 404.777 63.59H400.777ZM416.947 82.49C422.272 82.49 426.726 80.7575 430.101 77.1832L427.193 74.4367C424.676 77.1025 421.33 78.49 416.947 78.49V82.49ZM430.12 77.1632C433.528 73.4547 435.067 68.1657 435.067 61.64H431.067C431.067 67.5943 429.66 71.752 427.175 74.4567L430.12 77.1632ZM435.067 61.64V27.06H431.067V61.64H435.067ZM433.067 29.06H453.347V25.06H433.067V29.06ZM535.575 33.82L534.173 35.2458L534.179 35.2515L534.185 35.2572L535.575 33.82ZM543.635 97V99H545.635V97H543.635ZM523.355 97H521.355V99H523.355V97ZM519.715 47.73L518.21 49.047L518.221 49.0589L518.231 49.0706L519.715 47.73ZM496.965 48.38L498.399 49.7741L498.409 49.7643L498.418 49.7544L496.965 48.38ZM492.415 97V99H494.415V97H492.415ZM472.135 97H470.135V99H472.135V97ZM472.135 27.06V25.06H470.135V27.06H472.135ZM491.505 27.06H493.505V25.06H491.505V27.06ZM491.505 35.25H489.505V40.412L492.983 36.5975L491.505 35.25ZM501.515 28.49L502.244 30.3525L502.262 30.3457L502.279 30.3385L501.515 28.49ZM514.645 28.02C522.883 28.02 529.323 30.4756 534.173 35.2458L536.978 32.3941C531.254 26.7644 523.741 24.02 514.645 24.02V28.02ZM534.185 35.2572C539.042 39.9584 541.635 47.0702 541.635 56.96H545.635C545.635 46.3965 542.855 38.0816 536.966 32.3828L534.185 35.2572ZM541.635 56.96V97H545.635V56.96H541.635ZM543.635 95H523.355V99H543.635V95ZM525.355 97V60.08H521.355V97H525.355ZM525.355 60.08C525.355 54.2924 524.096 49.5966 521.2 46.3894L518.231 49.0706C520.188 51.2367 521.355 54.7742 521.355 60.08H525.355ZM521.22 46.413C518.323 43.1021 514.202 41.57 509.185 41.57V45.57C513.356 45.57 516.254 46.8113 518.21 49.047L521.22 46.413ZM509.185 41.57C503.617 41.57 498.984 43.3354 495.512 47.0056L498.418 49.7544C501.013 47.0112 504.527 45.57 509.185 45.57V41.57ZM495.531 46.9858C492.003 50.6149 490.415 55.8856 490.415 62.42H494.415C494.415 56.4744 495.861 52.3851 498.399 49.7741L495.531 46.9858ZM490.415 62.42V97H494.415V62.42H490.415ZM492.415 95H472.135V99H492.415V95ZM474.135 97V27.06H470.135V97H474.135ZM472.135 29.06H491.505V25.06H472.135V29.06ZM489.505 27.06V35.25H493.505V27.06H489.505ZM492.983 36.5975C495.448 33.8942 498.522 31.809 502.244 30.3525L500.787 26.6275C496.535 28.291 492.936 30.7125 490.027 33.9025L492.983 36.5975ZM502.279 30.3385C505.999 28.8019 510.113 28.02 514.645 28.02V24.02C509.644 24.02 505.005 24.8848 500.752 26.6415L502.279 30.3385ZM630.9 67.75V69.75H632.752L632.894 67.9034L630.9 67.75ZM577.99 67.75V65.75H575.502L576.037 68.1797L577.99 67.75ZM584.75 78.02L585.905 76.3872L584.75 78.02ZM607.63 80.23L608.332 82.1026L608.348 82.0969L608.363 82.0908L607.63 80.23ZM615.56 75.03L617.03 73.6741L615.644 72.1708L614.172 73.5903L615.56 75.03ZM626.35 86.73L627.856 88.0458L629.037 86.6938L627.82 85.3741L626.35 86.73ZM576.56 93.49L575.645 95.2686L575.655 95.2738L575.665 95.2788L576.56 93.49ZM562.52 80.62L560.807 81.653L562.52 80.62ZM562.39 43.57L560.67 42.5489L560.665 42.5571L562.39 43.57ZM575.78 30.7L576.728 32.461L576.738 32.4558L575.78 30.7ZM613.48 30.44L614.418 28.6738L613.48 30.44ZM626.48 43.18L624.737 44.1605L624.746 44.1768L624.755 44.1928L626.48 43.18ZM583.45 45.26L582.17 43.7236L583.45 45.26ZM577.73 55.92L575.753 55.6159L575.399 57.92H577.73V55.92ZM612.18 55.92V57.92H614.518L614.156 55.6101L612.18 55.92ZM606.46 45.39L605.155 46.9055L605.167 46.9161L605.18 46.9264L606.46 45.39ZM629.29 62.29C629.29 62.2784 629.287 62.3694 629.269 62.6527C629.254 62.904 629.23 63.2547 629.197 63.7075C629.133 64.612 629.036 65.9077 628.906 67.5966L632.894 67.9034C633.148 64.5975 633.29 62.6514 633.29 62.29H629.29ZM630.9 65.75H577.99V69.75H630.9V65.75ZM576.037 68.1797C577.095 72.9891 579.626 76.8457 583.595 79.6528L585.905 76.3872C582.767 74.1676 580.792 71.1776 579.943 67.3203L576.037 68.1797ZM583.595 79.6528C587.553 82.4524 592.4 83.79 598.01 83.79V79.79C593.047 79.79 589.053 78.6143 585.905 76.3872L583.595 79.6528ZM598.01 83.79C601.837 83.79 605.289 83.2437 608.332 82.1026L606.928 78.3573C604.424 79.2963 601.463 79.79 598.01 79.79V83.79ZM608.363 82.0908C611.489 80.8592 614.351 78.974 616.948 76.4697L614.172 73.5903C611.915 75.766 609.49 77.3475 606.897 78.3692L608.363 82.0908ZM614.09 76.3859L624.88 88.0859L627.82 85.3741L617.03 73.6741L614.09 76.3859ZM624.844 85.4142C618.733 92.4096 609.73 96.04 597.49 96.04V100.04C610.557 100.04 620.794 96.1304 627.856 88.0458L624.844 85.4142ZM597.49 96.04C589.863 96.04 583.201 94.5747 577.454 91.7011L575.665 95.2788C582.052 98.472 589.343 100.04 597.49 100.04V96.04ZM577.475 91.7114C571.714 88.7488 567.321 84.7069 564.232 79.587L560.807 81.653C564.306 87.4531 569.273 91.9912 575.645 95.2686L577.475 91.7114ZM564.232 79.587C561.143 74.4658 559.58 68.6322 559.58 62.03H555.58C555.58 69.2945 557.31 75.8542 560.807 81.653L564.232 79.587ZM559.58 62.03C559.58 55.5095 561.103 49.711 564.114 44.5828L560.665 42.5571C557.264 48.349 555.58 54.8571 555.58 62.03H559.58ZM564.11 44.5911C567.219 39.3537 571.417 35.3207 576.728 32.4609L574.832 28.939C568.876 32.1459 564.147 36.6929 560.67 42.5489L564.11 44.5911ZM576.738 32.4558C582.141 29.5083 588.178 28.02 594.89 28.02V24.02C587.562 24.02 580.858 25.6517 574.822 28.9442L576.738 32.4558ZM594.89 28.02C601.44 28.02 607.309 29.4266 612.542 32.2062L614.418 28.6738C608.557 25.5601 602.034 24.02 594.89 24.02V28.02ZM612.542 32.2062C617.746 34.9709 621.802 38.9427 624.737 44.1605L628.223 42.1995C624.918 36.324 620.308 31.8025 614.418 28.6738L612.542 32.2062ZM624.755 44.1928C627.756 49.3022 629.29 55.312 629.29 62.29H633.29C633.29 54.708 631.617 47.9778 628.204 42.1671L624.755 44.1928ZM595.02 39.36C590.024 39.36 585.696 40.7849 582.17 43.7236L584.73 46.7964C587.444 44.5351 590.829 43.36 595.02 43.36V39.36ZM582.17 43.7236C578.628 46.6745 576.511 50.6907 575.753 55.6159L579.707 56.2241C580.336 52.136 582.031 49.0455 584.73 46.7964L582.17 43.7236ZM577.73 57.92H612.18V53.92H577.73V57.92ZM614.156 55.6101C613.395 50.7629 611.272 46.7968 607.74 43.8535L605.18 46.9264C607.888 49.1832 609.578 52.2371 610.204 56.2299L614.156 55.6101ZM607.765 43.8745C604.247 40.8448 599.957 39.36 595.02 39.36V43.36C599.096 43.36 602.433 44.5618 605.155 46.9055L607.765 43.8745ZM716.032 0.539993H718.032V-1.46001H716.032V0.539993ZM716.032 97V99H718.032V97H716.032ZM696.662 97H694.662V99H696.662V97ZM696.662 88.94H698.662V83.3915L695.122 87.664L696.662 88.94ZM656.882 93.62L655.908 95.367L655.92 95.3736L656.882 93.62ZM644.402 81.01L646.15 80.0387L644.402 81.01ZM644.402 43.05L646.15 44.0213L644.402 43.05ZM656.882 30.44L655.92 28.6863L655.908 28.693L656.882 30.44ZM695.752 34.47L694.259 35.8016L697.752 39.7153V34.47H695.752ZM695.752 0.539993V-1.46001H693.752V0.539993H695.752ZM691.072 76.2L692.504 77.5962L692.512 77.5874L692.521 77.5784L691.072 76.2ZM691.072 47.99L689.623 49.3684L689.631 49.3774L689.64 49.3862L691.072 47.99ZM665.462 47.99L666.894 49.3862L666.902 49.3774L666.911 49.3684L665.462 47.99ZM665.462 76.2L664.012 77.5784L664.021 77.5874L664.03 77.5962L665.462 76.2ZM714.032 0.539993V97H718.032V0.539993H714.032ZM716.032 95H696.662V99H716.032V95ZM698.662 97V88.94H694.662V97H698.662ZM695.122 87.664C690.555 93.1756 683.897 96.04 674.822 96.04V100.04C684.813 100.04 692.715 96.8377 698.202 90.216L695.122 87.664ZM674.822 96.04C668.545 96.04 662.9 94.6394 657.843 91.8664L655.92 95.3736C661.61 98.4939 667.925 100.04 674.822 100.04V96.04ZM657.855 91.873C652.905 89.1137 649.008 85.184 646.15 80.0387L642.653 81.9813C645.861 87.756 650.285 92.2329 655.908 95.367L657.855 91.873ZM646.15 80.0387C643.305 74.9183 641.852 68.9355 641.852 62.03H637.852C637.852 69.5111 639.431 76.1817 642.653 81.9813L646.15 80.0387ZM641.852 62.03C641.852 55.1245 643.305 49.1417 646.15 44.0213L642.653 42.0787C639.431 47.8783 637.852 54.5489 637.852 62.03H641.852ZM646.15 44.0213C649.008 38.876 652.905 34.9462 657.855 32.187L655.908 28.693C650.285 31.8271 645.861 36.304 642.653 42.0787L646.15 44.0213ZM657.843 32.1936C662.9 29.4206 668.545 28.02 674.822 28.02V24.02C667.925 24.02 661.61 25.5661 655.92 28.6864L657.843 32.1936ZM674.822 28.02C683.292 28.02 689.682 30.6716 694.259 35.8016L697.244 33.1384C691.768 27.0017 684.204 24.02 674.822 24.02V28.02ZM697.752 34.47V0.539993H693.752V34.47H697.752ZM695.752 2.53999H716.032V-1.46001H695.752V2.53999ZM678.332 83.4C683.95 83.4 688.724 81.4724 692.504 77.5962L689.64 74.8038C686.659 77.8609 682.939 79.4 678.332 79.4V83.4ZM692.521 77.5784C696.324 73.5806 698.142 68.3266 698.142 62.03H694.142C694.142 67.5201 692.58 71.7127 689.623 74.8216L692.521 77.5784ZM698.142 62.03C698.142 55.7352 696.324 50.512 692.504 46.5938L689.64 49.3862C692.579 52.4013 694.142 56.5381 694.142 62.03H698.142ZM692.521 46.6116C688.745 42.6427 683.966 40.66 678.332 40.66V44.66C682.923 44.66 686.638 46.2306 689.623 49.3684L692.521 46.6116ZM678.332 40.66C672.621 40.66 667.795 42.6353 664.012 46.6116L666.911 49.3684C669.888 46.238 673.642 44.66 678.332 44.66V40.66ZM664.03 46.5938C660.209 50.512 658.392 55.7352 658.392 62.03H662.392C662.392 56.5381 663.954 52.4013 666.894 49.3862L664.03 46.5938ZM658.392 62.03C658.392 68.3266 660.21 73.5807 664.012 77.5784L666.911 74.8216C663.953 71.7127 662.392 67.5201 662.392 62.03H658.392ZM664.03 77.5962C667.816 81.4795 672.637 83.4 678.332 83.4V79.4C673.626 79.4 669.867 77.8538 666.894 74.8038L664.03 77.5962ZM733.501 94.4L734.916 92.9858L733.501 94.4ZM733.501 76.33L734.862 77.7956L734.876 77.7828L734.89 77.7697L733.501 76.33ZM751.441 76.33L750.053 77.7697L750.067 77.7828L750.08 77.7956L751.441 76.33ZM751.441 94.4L750.027 92.9858L751.441 94.4ZM742.471 96.04C739.428 96.04 736.953 95.0228 734.916 92.9858L732.087 95.8142C734.903 98.6305 738.409 100.04 742.471 100.04V96.04ZM734.916 92.9858C732.889 90.9587 731.861 88.4453 731.861 85.3H727.861C727.861 89.4347 729.261 92.9879 732.087 95.8142L734.916 92.9858ZM731.861 85.3C731.861 82.0525 732.896 79.6211 734.862 77.7956L732.14 74.8644C729.253 77.5456 727.861 81.0942 727.861 85.3H731.861ZM734.89 77.7697C736.922 75.8101 739.405 74.82 742.471 74.82V70.82C738.431 70.82 734.934 72.1699 732.113 74.8903L734.89 77.7697ZM742.471 74.82C745.538 74.82 748.021 75.8101 750.053 77.7697L752.83 74.8903C750.009 72.1699 746.512 70.82 742.471 70.82V74.82ZM750.08 77.7956C752.046 79.6211 753.081 82.0525 753.081 85.3H757.081C757.081 81.0942 755.69 77.5456 752.802 74.8644L750.08 77.7956ZM753.081 85.3C753.081 88.4453 752.054 90.9587 750.027 92.9858L752.856 95.8142C755.682 92.9879 757.081 89.4347 757.081 85.3H753.081ZM750.027 92.9858C747.99 95.0228 745.515 96.04 742.471 96.04V100.04C746.534 100.04 750.039 98.6305 752.856 95.8142L750.027 92.9858ZM767.525 94.4L768.939 92.9858L767.525 94.4ZM767.525 76.33L768.886 77.7956L768.899 77.7828L768.913 77.7697L767.525 76.33ZM785.465 76.33L784.077 77.7697L784.09 77.7828L784.104 77.7956L785.465 76.33ZM785.465 94.4L784.051 92.9858L785.465 94.4ZM776.495 96.04C773.451 96.04 770.976 95.0228 768.939 92.9858L766.111 95.8142C768.927 98.6305 772.432 100.04 776.495 100.04V96.04ZM768.939 92.9858C766.912 90.9587 765.885 88.4453 765.885 85.3H761.885C761.885 89.4347 763.284 92.9879 766.111 95.8142L768.939 92.9858ZM765.885 85.3C765.885 82.0525 766.92 79.6211 768.886 77.7956L766.164 74.8644C763.277 77.5456 761.885 81.0942 761.885 85.3H765.885ZM768.913 77.7697C770.945 75.8101 773.428 74.82 776.495 74.82V70.82C772.455 70.82 768.958 72.1699 766.137 74.8903L768.913 77.7697ZM776.495 74.82C779.561 74.82 782.044 75.8101 784.077 77.7697L786.853 74.8903C784.032 72.1699 780.535 70.82 776.495 70.82V74.82ZM784.104 77.7956C786.07 79.6211 787.105 82.0525 787.105 85.3H791.105C791.105 81.0942 789.713 77.5456 786.826 74.8644L784.104 77.7956ZM787.105 85.3C787.105 88.4453 786.078 90.9587 784.051 92.9858L786.879 95.8142C789.705 92.9879 791.105 89.4347 791.105 85.3H787.105ZM784.051 92.9858C782.014 95.0228 779.539 96.04 776.495 96.04V100.04C780.558 100.04 784.063 98.6305 786.879 95.8142L784.051 92.9858ZM801.548 94.4L802.962 92.9858L801.548 94.4ZM801.548 76.33L802.909 77.7956L802.923 77.7828L802.936 77.7697L801.548 76.33ZM819.488 76.33L818.1 77.7697L818.114 77.7828L818.127 77.7956L819.488 76.33ZM819.488 94.4L818.074 92.9858L819.488 94.4ZM810.518 96.04C807.474 96.04 804.999 95.0228 802.962 92.9858L800.134 95.8142C802.95 98.6305 806.455 100.04 810.518 100.04V96.04ZM802.962 92.9858C800.935 90.9587 799.908 88.4453 799.908 85.3H795.908C795.908 89.4347 797.308 92.9879 800.134 95.8142L802.962 92.9858ZM799.908 85.3C799.908 82.0525 800.943 79.6211 802.909 77.7956L800.187 74.8644C797.3 77.5456 795.908 81.0942 795.908 85.3H799.908ZM802.936 77.7697C804.969 75.8101 807.452 74.82 810.518 74.82V70.82C806.478 70.82 802.981 72.1699 800.16 74.8903L802.936 77.7697ZM810.518 74.82C813.585 74.82 816.068 75.8101 818.1 77.7697L820.876 74.8903C818.055 72.1699 814.558 70.82 810.518 70.82V74.82ZM818.127 77.7956C820.093 79.6211 821.128 82.0525 821.128 85.3H825.128C825.128 81.0942 823.737 77.5456 820.849 74.8644L818.127 77.7956ZM821.128 85.3C821.128 88.4453 820.101 90.9587 818.074 92.9858L820.902 95.8142C823.729 92.9879 825.128 89.4347 825.128 85.3H821.128ZM818.074 92.9858C816.037 95.0228 813.562 96.04 810.518 96.04V100.04C814.581 100.04 818.086 98.6305 820.902 95.8142L818.074 92.9858Z" fill="url(#paint0_linear_128_2)"/>
<defs>
<linearGradient id="paint0_linear_128_2" x1="413" y1="-29" x2="413" y2="129" gradientUnits="userSpaceOnUse">
<stop stop-color="white"/>
<stop offset="1"/>
</linearGradient>
</defs>
</svg>
