<svg width="308" height="64" viewBox="0 0 308 64" fill="none" xmlns="http://www.w3.org/2000/svg">
<path d="M74.88 19.96L59.28 63H47.28L37.6 36.28L27.6 63H15.6L0.08 19.96H11.84L22 49.08L32.56 19.96H43.12L53.36 49.08L63.84 19.96H74.88ZM80.6819 19.96H93.1619V63H80.6819V19.96ZM86.9219 13.96C84.6285 13.96 82.7619 13.2933 81.3219 11.96C79.8819 10.6267 79.1619 8.97333 79.1619 7C79.1619 5.02666 79.8819 3.37333 81.3219 2.04C82.7619 0.706663 84.6285 0.0399952 86.9219 0.0399952C89.2152 0.0399952 91.0819 0.679996 92.5219 1.96C93.9619 3.24 94.6819 4.84 94.6819 6.76C94.6819 8.84 93.9619 10.5733 92.5219 11.96C91.0819 13.2933 89.2152 13.96 86.9219 13.96ZM132.504 60.92C131.278 61.8267 129.758 62.52 127.944 63C126.184 63.4267 124.318 63.64 122.344 63.64C117.224 63.64 113.251 62.3333 110.424 59.72C107.651 57.1067 106.264 53.2667 106.264 48.2V30.52H99.6244V20.92H106.264V10.44H118.744V20.92H129.464V30.52H118.744V48.04C118.744 49.8533 119.198 51.2667 120.104 52.28C121.064 53.24 122.398 53.72 124.104 53.72C126.078 53.72 127.758 53.1867 129.144 52.12L132.504 60.92ZM165.67 19.32C171.003 19.32 175.297 20.92 178.55 24.12C181.857 27.32 183.51 32.0667 183.51 38.36V63H171.03V40.28C171.03 36.8667 170.283 34.3333 168.79 32.68C167.297 30.9733 165.137 30.12 162.31 30.12C159.163 30.12 156.657 31.1067 154.79 33.08C152.923 35 151.99 37.88 151.99 41.72V63H139.51V3.64H151.99V24.44C153.643 22.7867 155.643 21.5333 157.99 20.68C160.337 19.7733 162.897 19.32 165.67 19.32ZM260.839 19.96V63H248.999V57.88C247.345 59.7467 245.372 61.1867 243.079 62.2C240.785 63.16 238.305 63.64 235.639 63.64C229.985 63.64 225.505 62.0133 222.199 58.76C218.892 55.5067 217.239 50.68 217.239 44.28V19.96H229.719V42.44C229.719 49.3733 232.625 52.84 238.439 52.84C241.425 52.84 243.825 51.88 245.639 49.96C247.452 47.9867 248.359 45.08 248.359 41.24V19.96H260.839ZM286.881 63.64C283.307 63.64 279.814 63.2133 276.401 62.36C272.987 61.4533 270.267 60.3333 268.241 59L272.401 50.04C274.321 51.2667 276.641 52.28 279.361 53.08C282.081 53.8267 284.747 54.2 287.361 54.2C292.641 54.2 295.281 52.8933 295.281 50.28C295.281 49.0533 294.561 48.1733 293.121 47.64C291.681 47.1067 289.467 46.6533 286.481 46.28C282.961 45.7467 280.054 45.1333 277.761 44.44C275.467 43.7467 273.467 42.52 271.761 40.76C270.107 39 269.281 36.4933 269.281 33.24C269.281 30.52 270.054 28.12 271.601 26.04C273.201 23.9067 275.494 22.2533 278.481 21.08C281.521 19.9067 285.094 19.32 289.201 19.32C292.241 19.32 295.254 19.6667 298.241 20.36C301.281 21 303.787 21.9067 305.761 23.08L301.601 31.96C297.814 29.8267 293.681 28.76 289.201 28.76C286.534 28.76 284.534 29.1333 283.201 29.88C281.867 30.6267 281.201 31.5867 281.201 32.76C281.201 34.0933 281.921 35.0267 283.361 35.56C284.801 36.0933 287.094 36.6 290.241 37.08C293.761 37.6667 296.641 38.3067 298.881 39C301.121 39.64 303.067 40.84 304.721 42.6C306.374 44.36 307.201 46.8133 307.201 49.96C307.201 52.6267 306.401 55 304.801 57.08C303.201 59.16 300.854 60.7867 297.761 61.96C294.721 63.08 291.094 63.64 286.881 63.64Z" fill="#0F0F0F"/>
<path d="M74.88 19.96L75.8202 20.3008L76.3061 18.96H74.88V19.96ZM59.28 63V64H59.9812L60.2202 63.3408L59.28 63ZM47.28 63L46.3398 63.3406L46.5787 64H47.28V63ZM37.6 36.28L38.5402 35.9394L37.6153 33.3862L36.6634 35.9295L37.6 36.28ZM27.6 63V64H28.2935L28.5366 63.3505L27.6 63ZM15.6 63L14.6593 63.3392L14.8976 64H15.6V63ZM0.08 19.96V18.96H-1.34362L-0.860709 20.2992L0.08 19.96ZM11.84 19.96L12.7842 19.6306L12.5502 18.96H11.84V19.96ZM22 49.08L21.0558 49.4094L21.9818 52.0635L22.9401 49.4209L22 49.08ZM32.56 19.96V18.96H31.8589L31.6199 19.6191L32.56 19.96ZM43.12 19.96L44.0634 19.6283L43.8284 18.96H43.12V19.96ZM53.36 49.08L52.4166 49.4117L53.3491 52.0634L54.3009 49.4186L53.36 49.08ZM63.84 19.96V18.96H63.1371L62.8991 19.6214L63.84 19.96ZM73.9399 19.6192L58.3399 62.6592L60.2202 63.3408L75.8202 20.3008L73.9399 19.6192ZM59.28 62H47.28V64H59.28V62ZM48.2202 62.6594L38.5402 35.9394L36.6598 36.6206L46.3398 63.3406L48.2202 62.6594ZM36.6634 35.9295L26.6634 62.6495L28.5366 63.3505L38.5366 36.6305L36.6634 35.9295ZM27.6 62H15.6V64H27.6V62ZM16.5407 62.6608L1.02071 19.6208L-0.860709 20.2992L14.6593 63.3392L16.5407 62.6608ZM0.08 20.96H11.84V18.96H0.08V20.96ZM10.8958 20.2894L21.0558 49.4094L22.9442 48.7506L12.7842 19.6306L10.8958 20.2894ZM22.9401 49.4209L33.5001 20.3009L31.6199 19.6191L21.0599 48.7391L22.9401 49.4209ZM32.56 20.96H43.12V18.96H32.56V20.96ZM42.1766 20.2917L52.4166 49.4117L54.3034 48.7483L44.0634 19.6283L42.1766 20.2917ZM54.3009 49.4186L64.7809 20.2986L62.8991 19.6214L52.4191 48.7414L54.3009 49.4186ZM63.84 20.96H74.88V18.96H63.84V20.96ZM80.6819 19.96V18.96H79.6819V19.96H80.6819ZM93.1619 19.96H94.1619V18.96H93.1619V19.96ZM93.1619 63V64H94.1619V63H93.1619ZM80.6819 63H79.6819V64H80.6819V63ZM81.3219 11.96L80.6425 12.6938L80.6425 12.6938L81.3219 11.96ZM81.3219 2.04L82.0013 2.77376L82.0013 2.77376L81.3219 2.04ZM92.5219 1.96L91.8575 2.70741L91.8575 2.70741L92.5219 1.96ZM92.5219 11.96L93.2013 12.6938L93.2085 12.6871L93.2155 12.6803L92.5219 11.96ZM80.6819 20.96H93.1619V18.96H80.6819V20.96ZM92.1619 19.96V63H94.1619V19.96H92.1619ZM93.1619 62H80.6819V64H93.1619V62ZM81.6819 63V19.96H79.6819V63H81.6819ZM86.9219 12.96C84.8352 12.96 83.2257 12.3599 82.0013 11.2262L80.6425 12.6938C82.2981 14.2267 84.4219 14.96 86.9219 14.96V12.96ZM82.0013 11.2262C80.767 10.0833 80.1619 8.69652 80.1619 7H78.1619C78.1619 9.25014 78.9968 11.17 80.6425 12.6938L82.0013 11.2262ZM80.1619 7C80.1619 5.30347 80.767 3.91664 82.0013 2.77376L80.6425 1.30624C78.9968 2.83002 78.1619 4.74985 78.1619 7H80.1619ZM82.0013 2.77376C83.2257 1.64005 84.8352 1.04 86.9219 1.04V-0.960005C84.4219 -0.960005 82.2981 -0.226728 80.6425 1.30624L82.0013 2.77376ZM86.9219 1.04C89.0194 1.04 90.6342 1.62005 91.8575 2.70741L93.1862 1.21259C91.5295 -0.260056 89.411 -0.960005 86.9219 -0.960005V1.04ZM91.8575 2.70741C93.0849 3.7984 93.6819 5.12677 93.6819 6.76H95.6819C95.6819 4.55323 94.8389 2.6816 93.1862 1.21259L91.8575 2.70741ZM93.6819 6.76C93.6819 8.58058 93.0638 10.0499 91.8282 11.2397L93.2155 12.6803C94.86 11.0968 95.6819 9.09942 95.6819 6.76H93.6819ZM91.8425 11.2262C90.6181 12.3599 89.0086 12.96 86.9219 12.96V14.96C89.4218 14.96 91.5457 14.2267 93.2013 12.6938L91.8425 11.2262ZM132.504 60.92L133.099 61.7242L133.709 61.2728L133.439 60.5633L132.504 60.92ZM127.944 63L128.18 63.9719L128.19 63.9694L128.2 63.9667L127.944 63ZM110.424 59.72L109.739 60.4478L109.746 60.4543L110.424 59.72ZM106.264 30.52H107.264V29.52H106.264V30.52ZM99.6244 30.52H98.6244V31.52H99.6244V30.52ZM99.6244 20.92V19.92H98.6244V20.92H99.6244ZM106.264 20.92V21.92H107.264V20.92H106.264ZM106.264 10.44V9.44H105.264V10.44H106.264ZM118.744 10.44H119.744V9.44H118.744V10.44ZM118.744 20.92H117.744V21.92H118.744V20.92ZM129.464 20.92H130.464V19.92H129.464V20.92ZM129.464 30.52V31.52H130.464V30.52H129.464ZM118.744 30.52V29.52H117.744V30.52H118.744ZM120.104 52.28L119.359 52.9468L119.378 52.9675L119.397 52.9871L120.104 52.28ZM129.144 52.12L130.079 51.7633L129.599 50.5083L128.535 51.3274L129.144 52.12ZM131.91 60.1158C130.805 60.9324 129.407 61.5784 127.688 62.0333L128.2 63.9667C130.109 63.4616 131.75 62.721 133.099 61.7242L131.91 60.1158ZM127.709 62.0281C126.032 62.4345 124.245 62.64 122.344 62.64V64.64C124.39 64.64 126.336 64.4188 128.18 63.9719L127.709 62.0281ZM122.344 62.64C117.391 62.64 113.691 61.3782 111.103 58.9857L109.746 60.4543C112.811 63.2884 117.058 64.64 122.344 64.64V62.64ZM111.11 58.9922C108.597 56.6243 107.264 53.0859 107.264 48.2H105.264C105.264 53.4474 106.705 57.5891 109.739 60.4478L111.11 58.9922ZM107.264 48.2V30.52H105.264V48.2H107.264ZM106.264 29.52H99.6244V31.52H106.264V29.52ZM100.624 30.52V20.92H98.6244V30.52H100.624ZM99.6244 21.92H106.264V19.92H99.6244V21.92ZM107.264 20.92V10.44H105.264V20.92H107.264ZM106.264 11.44H118.744V9.44H106.264V11.44ZM117.744 10.44V20.92H119.744V10.44H117.744ZM118.744 21.92H129.464V19.92H118.744V21.92ZM128.464 20.92V30.52H130.464V20.92H128.464ZM129.464 29.52H118.744V31.52H129.464V29.52ZM117.744 30.52V48.04H119.744V30.52H117.744ZM117.744 48.04C117.744 50.016 118.24 51.6962 119.359 52.9468L120.85 51.6132C120.155 50.8371 119.744 49.6907 119.744 48.04H117.744ZM119.397 52.9871C120.59 54.18 122.204 54.72 124.104 54.72V52.72C122.591 52.72 121.539 52.3 120.811 51.5729L119.397 52.9871ZM124.104 54.72C126.269 54.72 128.17 54.1308 129.754 52.9126L128.535 51.3274C127.345 52.2425 125.887 52.72 124.104 52.72V54.72ZM128.21 52.4767L131.57 61.2767L133.439 60.5633L130.079 51.7633L128.21 52.4767ZM178.55 24.12L177.849 24.8329L177.855 24.8386L178.55 24.12ZM183.51 63V64H184.51V63H183.51ZM171.03 63H170.03V64H171.03V63ZM168.79 32.68L168.037 33.3385L168.043 33.3444L168.048 33.3503L168.79 32.68ZM154.79 33.08L155.507 33.7771L155.516 33.7672L154.79 33.08ZM151.99 63V64H152.99V63H151.99ZM139.51 63H138.51V64H139.51V63ZM139.51 3.64V2.64H138.51V3.64H139.51ZM151.99 3.64H152.99V2.64H151.99V3.64ZM151.99 24.44H150.99V26.8542L152.697 25.1471L151.99 24.44ZM157.99 20.68L158.332 21.6198L158.341 21.6164L158.35 21.6128L157.99 20.68ZM165.67 20.32C170.789 20.32 174.814 21.8478 177.849 24.8329L179.251 23.4071C175.779 19.9922 171.218 18.32 165.67 18.32V20.32ZM177.855 24.8386C180.904 27.7892 182.51 32.2351 182.51 38.36H184.51C184.51 31.8982 182.81 26.8508 179.245 23.4014L177.855 24.8386ZM182.51 38.36V63H184.51V38.36H182.51ZM183.51 62H171.03V64H183.51V62ZM172.03 63V40.28H170.03V63H172.03ZM172.03 40.28C172.03 36.7462 171.261 33.9233 169.532 32.0097L168.048 33.3503C169.306 34.7434 170.03 36.9871 170.03 40.28H172.03ZM169.543 32.0215C167.814 30.046 165.348 29.12 162.31 29.12V31.12C164.925 31.12 166.779 31.9006 168.037 33.3385L169.543 32.0215ZM162.31 29.12C158.936 29.12 156.149 30.1877 154.064 32.3928L155.516 33.7672C157.164 32.0256 159.391 31.12 162.31 31.12V29.12ZM154.073 32.3829C151.959 34.5574 150.99 37.7328 150.99 41.72H152.99C152.99 38.0272 153.888 35.4426 155.507 33.7771L154.073 32.3829ZM150.99 41.72V63H152.99V41.72H150.99ZM151.99 62H139.51V64H151.99V62ZM140.51 63V3.64H138.51V63H140.51ZM139.51 4.64H151.99V2.64H139.51V4.64ZM150.99 3.64V24.44H152.99V3.64H150.99ZM152.697 25.1471C154.24 23.604 156.113 22.4266 158.332 21.6198L157.648 19.7402C155.174 20.64 153.046 21.9693 151.283 23.7329L152.697 25.1471ZM158.35 21.6128C160.571 20.7549 163.007 20.32 165.67 20.32V18.32C162.786 18.32 160.102 18.7918 157.63 19.7472L158.35 21.6128ZM260.839 19.96H261.839V18.96H260.839V19.96ZM260.839 63V64H261.839V63H260.839ZM248.999 63H247.999V64H248.999V63ZM248.999 57.88H249.999V55.2428L248.25 57.217L248.999 57.88ZM243.079 62.2L243.465 63.1224L243.474 63.1187L243.483 63.1147L243.079 62.2ZM222.199 58.76L222.9 58.0472L222.9 58.0472L222.199 58.76ZM217.239 19.96V18.96H216.239V19.96H217.239ZM229.719 19.96H230.719V18.96H229.719V19.96ZM245.639 49.96L246.366 50.6467L246.375 50.6366L245.639 49.96ZM248.359 19.96V18.96H247.359V19.96H248.359ZM259.839 19.96V63H261.839V19.96H259.839ZM260.839 62H248.999V64H260.839V62ZM249.999 63V57.88H247.999V63H249.999ZM248.25 57.217C246.693 58.9753 244.837 60.3298 242.675 61.2853L243.483 63.1147C245.907 62.0435 247.998 60.518 249.747 58.543L248.25 57.217ZM242.693 61.2776C240.53 62.1827 238.183 62.64 235.639 62.64V64.64C238.428 64.64 241.041 64.1373 243.465 63.1224L242.693 61.2776ZM235.639 62.64C230.187 62.64 225.98 61.0777 222.9 58.0472L221.497 59.4728C225.031 62.9489 229.784 64.64 235.639 64.64V62.64ZM222.9 58.0472C219.848 55.0441 218.239 50.5161 218.239 44.28H216.239C216.239 50.8439 217.936 55.9693 221.497 59.4728L222.9 58.0472ZM218.239 44.28V19.96H216.239V44.28H218.239ZM217.239 20.96H229.719V18.96H217.239V20.96ZM228.719 19.96V42.44H230.719V19.96H228.719ZM228.719 42.44C228.719 46.0221 229.466 48.8949 231.132 50.8825C232.827 52.9039 235.327 53.84 238.439 53.84V51.84C235.737 51.84 233.877 51.0428 232.665 49.5975C231.425 48.1184 230.719 45.7913 230.719 42.44H228.719ZM238.439 53.84C241.661 53.84 244.338 52.7937 246.366 50.6466L244.912 49.2734C243.313 50.9663 241.19 51.84 238.439 51.84V53.84ZM246.375 50.6366C248.419 48.4124 249.359 45.2228 249.359 41.24H247.359C247.359 44.9372 246.485 47.561 244.902 49.2834L246.375 50.6366ZM249.359 41.24V19.96H247.359V41.24H249.359ZM248.359 20.96H260.839V18.96H248.359V20.96ZM276.401 62.36L276.144 63.3265L276.151 63.3284L276.158 63.3301L276.401 62.36ZM268.241 59L267.334 58.5789L266.97 59.3613L267.691 59.8354L268.241 59ZM272.401 50.04L272.939 49.1973L271.975 48.5816L271.494 49.6189L272.401 50.04ZM279.361 53.08L279.078 54.0394L279.087 54.0419L279.096 54.0443L279.361 53.08ZM293.121 47.64L292.773 48.5777L292.773 48.5777L293.121 47.64ZM286.481 46.28L286.331 47.2687L286.344 47.2707L286.357 47.2723L286.481 46.28ZM277.761 44.44L278.05 43.4828L278.05 43.4828L277.761 44.44ZM271.761 40.76L271.032 41.4447L271.037 41.4505L271.043 41.4561L271.761 40.76ZM271.601 26.04L270.801 25.44L270.798 25.4433L271.601 26.04ZM278.481 21.08L278.121 20.1471L278.115 20.1492L278.481 21.08ZM298.241 20.36L298.014 21.3341L298.025 21.3364L298.035 21.3385L298.241 20.36ZM305.761 23.08L306.666 23.5042L307.051 22.6836L306.272 22.2205L305.761 23.08ZM301.601 31.96L301.11 32.8312L302.049 33.3603L302.506 32.3842L301.601 31.96ZM283.201 29.88L282.712 29.0075L282.712 29.0075L283.201 29.88ZM283.361 35.56L283.708 34.6222L283.708 34.6222L283.361 35.56ZM290.241 37.08L290.405 36.0935L290.391 36.0914L290.241 37.08ZM298.881 39L298.585 39.9553L298.595 39.9585L298.606 39.9615L298.881 39ZM304.721 42.6L303.992 43.2847L303.992 43.2847L304.721 42.6ZM304.801 57.08L305.593 57.6897L305.593 57.6897L304.801 57.08ZM297.761 61.96L298.106 62.8984L298.115 62.895L297.761 61.96ZM286.881 62.64C283.388 62.64 279.976 62.2231 276.643 61.3899L276.158 63.3301C279.652 64.2036 283.227 64.64 286.881 64.64V62.64ZM276.657 61.3935C273.305 60.5031 270.696 59.4184 268.79 58.1646L267.691 59.8354C269.838 61.2482 272.67 62.4036 276.144 63.3265L276.657 61.3935ZM269.148 59.4211L273.308 50.4611L271.494 49.6189L267.334 58.5789L269.148 59.4211ZM271.862 50.8827C273.878 52.1708 276.289 53.219 279.078 54.0394L279.643 52.1206C276.992 51.341 274.763 50.3626 272.939 49.1973L271.862 50.8827ZM279.096 54.0443C281.895 54.8128 284.651 55.2 287.361 55.2V53.2C284.844 53.2 282.266 52.8405 279.625 52.1157L279.096 54.0443ZM287.361 55.2C290.051 55.2 292.217 54.8724 293.744 54.1162C294.522 53.7312 295.167 53.2192 295.615 52.5536C296.068 51.8812 296.281 51.1104 296.281 50.28H294.281C294.281 50.7563 294.163 51.1288 293.956 51.4364C293.744 51.7508 293.399 52.0554 292.857 52.3238C291.745 52.8743 289.95 53.2 287.361 53.2V55.2ZM296.281 50.28C296.281 49.4554 296.033 48.7 295.515 48.0668C295.009 47.4491 294.298 47.0098 293.468 46.7023L292.773 48.5777C293.383 48.8035 293.752 49.0709 293.967 49.3332C294.169 49.58 294.281 49.878 294.281 50.28H296.281ZM293.468 46.7023C291.916 46.1276 289.61 45.6633 286.605 45.2877L286.357 47.2723C289.325 47.6433 291.445 48.0858 292.773 48.5777L293.468 46.7023ZM286.63 45.2913C283.137 44.762 280.281 44.1574 278.05 43.4828L277.471 45.3972C279.826 46.1093 282.784 46.7313 286.331 47.2687L286.63 45.2913ZM278.05 43.4828C275.923 42.8398 274.07 41.7048 272.479 40.0639L271.043 41.4561C272.865 43.3352 275.011 44.6535 277.471 45.3972L278.05 43.4828ZM272.489 40.0753C271.064 38.5574 270.281 36.329 270.281 33.24H268.281C268.281 36.6577 269.151 39.4426 271.032 41.4447L272.489 40.0753ZM270.281 33.24C270.281 30.7236 270.991 28.5353 272.403 26.6367L270.798 25.4433C269.117 27.7047 268.281 30.3164 268.281 33.24H270.281ZM272.401 26.64C273.869 24.6828 275.997 23.1301 278.846 22.0107L278.115 20.1492C274.991 21.3765 272.533 23.1306 270.801 25.44L272.401 26.64ZM278.841 22.0129C281.74 20.8938 285.186 20.32 289.201 20.32V18.32C285.002 18.32 281.301 18.9195 278.121 20.1471L278.841 22.0129ZM289.201 20.32C292.164 20.32 295.101 20.6578 298.014 21.3341L298.467 19.3859C295.407 18.6755 292.317 18.32 289.201 18.32V20.32ZM298.035 21.3385C301.002 21.9634 303.397 22.8383 305.25 23.9395L306.272 22.2205C304.177 20.9751 301.559 20.0366 298.447 19.3814L298.035 21.3385ZM304.855 22.6558L300.695 31.5358L302.506 32.3842L306.666 23.5042L304.855 22.6558ZM302.091 31.0888C298.15 28.8683 293.847 27.76 289.201 27.76V29.76C293.514 29.76 297.478 30.785 301.11 32.8312L302.091 31.0888ZM289.201 27.76C286.473 27.76 284.268 28.1361 282.712 29.0075L283.689 30.7525C284.8 30.1305 286.595 29.76 289.201 29.76V27.76ZM282.712 29.0075C281.173 29.8692 280.201 31.1139 280.201 32.76H282.201C282.201 32.0595 282.561 31.3841 283.689 30.7525L282.712 29.0075ZM280.201 32.76C280.201 33.6172 280.436 34.4065 280.949 35.0708C281.453 35.7247 282.17 36.1853 283.013 36.4977L283.708 34.6222C283.112 34.4014 282.748 34.1287 282.532 33.8492C282.325 33.5802 282.201 33.2361 282.201 32.76H280.201ZM283.013 36.4977C284.554 37.0683 286.931 37.5868 290.09 38.0686L290.391 36.0914C287.256 35.6132 285.047 35.1183 283.708 34.6222L283.013 36.4977ZM290.076 38.0664C293.572 38.649 296.404 39.2802 298.585 39.9553L299.176 38.0447C296.877 37.3331 293.949 36.6843 290.405 36.0936L290.076 38.0664ZM298.606 39.9615C300.666 40.5501 302.457 41.6512 303.992 43.2847L305.449 41.9153C303.677 40.0288 301.575 38.7299 299.155 38.0385L298.606 39.9615ZM303.992 43.2847C305.423 44.8084 306.201 46.9882 306.201 49.96H308.201C308.201 46.6385 307.325 43.9116 305.449 41.9153L303.992 43.2847ZM306.201 49.96C306.201 52.41 305.471 54.5681 304.008 56.4703L305.593 57.6897C307.33 55.4319 308.201 52.8433 308.201 49.96H306.201ZM304.008 56.4703C302.547 58.3695 300.371 59.9004 297.406 61.025L298.115 62.895C301.337 61.6729 303.854 59.9505 305.593 57.6897L304.008 56.4703ZM297.415 61.0217C294.513 62.0907 291.01 62.64 286.881 62.64V64.64C291.178 64.64 294.928 64.0693 298.106 62.8983L297.415 61.0217Z" fill="#9945FF"/>
</svg>
