<svg width="646" height="468" viewBox="0 0 646 468" fill="none" xmlns="http://www.w3.org/2000/svg">
<g opacity="0.43">
<path d="M-0.00189209 0.506747V0L217.931 0C375.35 0 532.769 0 690.188 0V0.506747C532.769 0.506747 375.35 0.506747 217.931 0.506747L-0.00189209 0.506747Z" fill="url(#paint0_linear_368_417)"/>
<path d="M32.7358 1.72294L32.8372 0C247.799 10.8444 466.207 22.0942 681.777 33.648L681.676 35.3709C466.106 23.8171 247.799 12.466 32.7358 1.72294Z" fill="url(#paint1_linear_368_417)"/>
<path d="M65.5717 1.72294L65.7744 0C78.2403 1.31754 90.6049 2.63509 103.071 3.85128C145.131 8.2093 188.711 12.6687 231.379 18.2429C271.615 23.5131 312.256 26.2495 351.58 28.8846C359.89 29.4927 368.201 29.9994 376.512 30.6075C401.545 32.3305 426.578 36.7898 450.801 41.0465C468.03 44.087 485.868 47.2288 503.604 49.3572C532.894 53.0057 562.69 56.4516 591.372 59.6948C614.683 62.4312 638.804 65.1677 662.52 68.0054L662.317 69.7284C638.702 66.8906 614.581 64.1542 591.17 61.4177C562.488 58.0732 532.691 54.6273 503.401 51.0801C485.665 48.9518 467.827 45.8099 450.497 42.7694C426.274 38.5128 401.342 34.1547 376.309 32.4318C367.998 31.8237 359.688 31.317 351.377 30.7089C312.053 28.0738 271.412 25.3373 231.075 20.0672C188.407 14.493 144.928 10.0336 102.767 5.67557C90.5036 4.35803 78.0376 3.04048 65.5717 1.72294Z" fill="url(#paint2_linear_368_417)"/>
<path d="M98.4106 1.72315L98.7146 0.101562C155.369 9.52706 206.55 18.2431 258.441 28.6821L261.583 29.2902C283.272 33.6482 305.771 38.2089 328.068 40.2359C334.96 40.844 341.953 41.2494 348.744 41.6548C362.02 42.4656 375.804 43.2764 389.385 45.7088C408.945 49.256 428.201 55.2356 446.748 60.9112C463.775 66.1814 481.309 71.5529 499.146 75.2015C526.612 80.7757 554.483 86.2485 581.543 91.5187C600.495 95.2686 620.056 99.0186 639.211 102.87L638.907 104.491C619.651 100.742 600.09 96.8902 581.239 93.1403C554.179 87.8701 526.308 82.3973 498.842 76.9244C481.005 73.2758 463.37 67.9043 446.343 62.6341C427.796 56.8572 408.54 50.979 389.081 47.4317C375.601 44.9993 361.919 44.1885 348.642 43.3778C341.852 42.9724 334.859 42.567 327.967 41.9589C305.467 39.9319 282.968 35.3712 261.279 31.0131L258.137 30.405C206.145 19.8647 155.065 11.1486 98.4106 1.72315Z" fill="url(#paint3_linear_368_417)"/>
<path d="M131.247 1.72315L131.653 0.101562C173.916 10.0338 216.584 21.2836 257.833 32.128C266.245 34.3577 274.657 36.5873 282.967 38.7157C299.285 42.9724 316.311 45.3034 332.933 47.5331C355.128 50.4722 378.033 53.614 399.317 61.4179C413.1 66.4854 426.276 72.9718 439.046 79.1541C455.464 87.1607 472.491 95.37 490.835 100.843C535.226 114.12 580.124 126.687 618.637 137.43L618.231 139.052C579.719 128.309 534.821 115.741 490.328 102.464C471.883 96.9916 454.755 88.6809 438.336 80.6743C425.566 74.492 412.492 68.107 398.709 63.0395C377.628 55.2356 354.824 52.1952 332.73 49.256C316.109 47.0263 298.981 44.6953 282.562 40.4386C274.15 38.2089 265.738 35.9792 257.427 33.8509C216.077 22.9052 173.51 11.6554 131.247 1.72315Z" fill="url(#paint4_linear_368_417)"/>
<path d="M163.983 1.72315L164.49 0.101562C187.193 7.19602 210.098 15.2026 232.192 23.0065C255.806 31.3172 280.231 39.8305 304.555 47.3304C316.008 50.8776 327.967 53.2086 339.521 55.4383C362.122 59.8977 385.533 64.4584 405.905 78.242C412.492 82.7013 418.675 87.8701 424.654 92.8363C428.911 96.3835 433.269 100.032 437.83 103.478C450.802 113.207 464.991 118.984 480.092 125.065L481.41 125.572C518.706 140.572 559.956 155.572 607.59 171.281L607.083 172.902C559.449 157.193 518.098 142.193 480.802 127.194L479.484 126.687C464.383 120.606 449.992 114.829 436.816 104.897C432.255 101.451 427.897 97.8024 423.539 94.2551C417.56 89.289 411.479 84.1202 404.891 79.7622C384.824 66.1814 362.628 61.8233 339.115 57.2626C327.561 55.0329 315.501 52.6006 303.947 49.0533C279.623 41.5535 255.198 33.0401 231.584 24.7295C209.591 16.8242 186.787 8.81761 163.983 1.72315Z" fill="url(#paint5_linear_368_417)"/>
<path d="M196.822 1.72288L197.43 0.202637C213.038 6.58765 228.747 13.7835 243.95 20.7766C272.733 34.0533 302.53 47.7355 333.137 56.4516L336.988 57.5664C365.265 65.4716 389.589 72.3634 410.061 96.1805C412.899 99.525 415.635 102.971 418.271 106.315C423.237 112.599 428.304 119.085 434.284 124.558C445.128 134.592 458.912 141.18 472.188 147.565C474.114 148.477 476.141 149.49 478.067 150.402C515.363 168.544 556.106 184.659 610.125 202.597L609.618 204.219C555.498 186.28 514.755 170.166 477.357 151.923C475.432 151.011 473.405 149.997 471.479 149.085C458.101 142.7 444.216 136.011 433.169 125.775C427.189 120.2 422.021 113.613 417.054 107.329C414.419 103.984 411.683 100.539 408.845 97.194C388.575 73.8837 364.454 66.9919 336.583 59.0866L332.732 57.9718C302.023 49.2557 272.226 35.4722 243.342 22.2968C228.139 15.3037 212.43 8.00654 196.822 1.72288Z" fill="url(#paint6_linear_368_417)"/>
<path d="M229.659 1.72288L230.47 0.202637C234.321 2.22962 238.172 4.25661 242.023 6.2836C280.131 26.3508 316.008 45.3031 355.231 61.3163C380.568 71.654 397.189 87.2618 412.594 115.133C429.824 146.551 453.945 160.74 481.309 174.929C524.484 197.226 570.091 213.34 620.969 230.671L620.462 232.293C569.483 214.962 523.775 198.746 480.6 176.449C452.931 162.159 428.709 147.767 411.175 116.045C396.074 88.5793 379.656 73.1742 354.724 62.9379C315.4 46.8234 279.421 27.871 241.314 7.80384C237.361 5.77685 233.51 3.74987 229.659 1.72288Z" fill="url(#paint7_linear_368_417)"/>
<path d="M262.393 1.7226L263.305 0.303711C268.17 3.54689 273.136 6.79007 278.001 10.0333C293.406 20.3709 309.419 31.0126 325.737 40.4381C331.513 43.7826 337.696 46.9244 343.675 49.8636C354.114 55.0324 364.857 60.4039 374.283 67.5997C393.033 81.89 400.634 100.741 408.843 120.605C410.769 125.166 412.694 129.93 414.721 134.693C428.809 166.415 460.227 182.125 490.632 197.327L491.747 197.935C531.273 217.698 573.434 233.61 614.177 249.015C621.17 251.65 628.163 254.285 635.156 256.92L634.548 258.542C627.555 255.907 620.562 253.272 613.569 250.637C572.725 235.232 530.564 219.32 490.936 199.557L489.821 198.949C459.214 183.645 427.491 167.733 413.201 135.402C411.073 130.639 409.147 125.876 407.323 121.315C399.316 101.653 391.614 83.0048 373.371 69.0186C364.047 61.9241 353.405 56.5526 342.966 51.3838C336.986 48.4447 330.804 45.3028 324.926 41.9583C308.609 32.5328 292.595 21.8911 277.19 11.5535C272.224 8.20896 267.359 4.86443 262.393 1.7226Z" fill="url(#paint8_linear_368_417)"/>
<path d="M295.232 1.62125L296.246 0.303711C317.022 16.8237 334.961 29.9991 352.697 41.9583C366.379 51.1811 380.467 61.6201 390.298 75.9104C399.419 89.1871 403.473 104.592 407.325 119.491C410.365 131.044 413.406 143.105 418.98 153.949C433.574 182.733 469.857 200.469 499.046 214.658C501.782 215.975 504.519 217.293 507.154 218.61C532.39 231.076 558.538 242.63 583.875 253.779C605.361 263.204 627.557 272.934 649.043 283.271L648.334 284.791C626.847 274.555 604.652 264.826 583.166 255.4C557.829 244.252 531.579 232.698 506.343 220.232C503.708 218.914 501.073 217.597 498.235 216.279C468.844 201.888 432.358 184.05 417.46 154.76C411.784 143.713 408.744 131.653 405.703 119.896C401.852 105.2 397.899 89.9979 388.98 76.9239C379.352 62.8363 365.366 52.4986 351.887 43.4785C333.948 31.418 316.009 18.1412 295.232 1.62125Z" fill="url(#paint9_linear_368_417)"/>
<path d="M328.069 1.62147L329.183 0.405273C334.96 5.77679 341.143 11.047 347.122 16.1144C370.129 35.7762 393.844 56.1474 403.574 86.2482C406.918 96.5859 408.54 107.734 410.162 118.477C412.898 137.227 415.837 156.585 427.796 172.193C448.168 198.746 483.133 216.482 514.045 232.191C517.896 234.117 521.646 236.043 525.396 237.968C534.011 242.428 542.727 246.786 551.139 251.144C587.118 269.387 624.313 288.238 657.961 312.156L656.947 313.575C623.401 289.758 586.307 270.907 550.328 252.765C541.916 248.509 533.098 244.049 524.585 239.59C520.937 237.664 517.187 235.739 513.335 233.813C482.221 218.002 447.053 200.165 426.479 173.307C414.216 157.396 411.378 137.734 408.54 118.781C406.918 108.14 405.297 96.9913 402.054 86.8563C392.527 57.1609 368.912 36.9924 346.109 17.432C340.028 12.2632 333.846 6.99299 328.069 1.62147Z" fill="url(#paint10_linear_368_417)"/>
<path d="M360.907 1.41883L362.123 0.202637C392.832 32.1277 411.277 58.2759 415.129 98.1062C415.635 103.174 416.041 108.241 416.345 113.106C418.574 141.788 420.399 166.618 443.304 188.713C471.884 216.28 506.647 236.144 540.295 255.4C582.862 279.623 626.746 304.758 658.367 345.5L657.05 346.514C625.631 306.075 581.848 281.042 539.484 256.819C505.735 237.563 470.871 217.597 442.189 189.929C418.777 167.328 416.852 142.294 414.723 113.207C414.318 108.342 414.014 103.376 413.507 98.3089C409.656 59.0866 391.312 33.0398 360.907 1.41883Z" fill="url(#paint11_linear_368_417)"/>
<path d="M393.641 1.31769L394.958 0.304199C422.728 36.4859 427.593 69.7285 426.275 108.545C426.174 110.37 426.174 112.295 426.073 114.12C425.465 129.626 424.856 145.639 429.823 160.436C435.701 177.868 449.586 192.159 462.356 203.814C483.132 222.766 507.254 238.273 530.564 253.272C542.523 260.975 554.989 268.981 566.746 277.393C606.475 305.569 632.015 337.595 651.98 384.52L650.46 385.229C630.596 338.608 605.258 306.785 565.833 278.812C554.077 270.502 541.611 262.495 529.652 254.793C506.24 239.691 482.119 224.185 461.241 205.131C448.268 193.273 434.181 178.882 428.201 161.044C423.134 145.943 423.742 129.727 424.35 114.12C424.451 112.295 424.451 110.37 424.552 108.545C425.87 70.0326 421.107 37.094 393.641 1.31769Z" fill="url(#paint12_linear_368_417)"/>
<path d="M426.376 1.21607L427.896 0.405273C447.963 36.6884 444.416 69.8296 440.261 108.342C439.855 111.586 439.551 114.93 439.146 118.275C435.092 156.99 448.369 186.787 483.435 217.901C497.726 230.57 513.435 242.022 528.536 253.069C546.678 266.245 565.427 279.927 581.846 295.839C617.926 330.602 630.595 375.702 642.25 426.681L640.628 427.086C629.075 376.31 616.609 331.514 580.832 297.055C564.414 281.244 545.765 267.664 527.624 254.488C512.421 243.441 496.712 231.989 482.321 219.219C446.747 187.699 433.369 157.395 437.423 118.173C437.727 114.829 438.132 111.484 438.538 108.241C442.693 69.931 446.24 36.9924 426.376 1.21607Z" fill="url(#paint13_linear_368_417)"/>
<path d="M453.134 138.747C453.134 136.923 453.134 135.099 453.236 133.173C454.047 117.565 456.986 102.768 459.823 88.4781C465.499 59.3908 470.87 32.0265 459.215 1.11493L460.837 0.506836C472.695 31.8238 467.222 59.4922 461.546 88.7822C458.709 103.072 455.871 117.768 455.06 133.173C452.628 177.159 479.587 207.462 506.14 231.178C514.552 238.678 523.674 246.076 532.491 253.272C555.801 272.225 579.922 291.785 596.138 317.528C618.537 353.507 623.705 397.492 628.57 440.059C629.786 450.194 630.901 459.721 632.219 469.146L630.496 469.349C629.178 459.822 628.063 450.295 626.847 440.161C621.881 397.796 616.814 354.014 594.517 318.44C578.504 292.9 554.484 273.441 531.275 254.59C522.457 247.394 513.336 239.995 504.823 232.496C479.08 209.591 453.134 180.503 453.134 138.747Z" fill="url(#paint14_linear_368_417)"/>
<path d="M472.087 149.389C472.087 147.869 472.087 146.349 472.188 144.727C473.201 124.863 478.674 106.113 483.944 87.9716C492.356 59.1884 500.262 32.0267 491.951 1.01379L493.573 0.608398C501.985 32.1281 493.978 59.4924 485.566 88.4783C480.296 106.519 474.924 125.167 473.809 144.829C471.58 186.686 500.059 216.888 529.349 244.354C532.187 247.09 535.126 249.725 538.065 252.462C564.923 277.292 592.692 303.035 604.145 339.825C614.685 373.371 616.712 408.54 618.638 442.593C619.955 464.485 621.172 486.984 624.719 508.977L623.097 509.281C619.55 487.187 618.232 464.586 617.016 442.694C615.091 408.844 613.064 373.777 602.625 340.433C591.273 303.947 563.706 278.407 536.95 253.678C534.011 251.043 531.173 248.306 528.234 245.57C499.755 218.915 472.087 189.524 472.087 149.389Z" fill="url(#paint15_linear_368_417)"/>
<path d="M492.256 156.787C492.256 153.544 492.458 150.2 492.864 146.855C495.296 126.687 502.695 107.633 509.789 89.1872C520.937 60.2013 531.579 32.837 524.991 1.11459L526.613 0.810547C533.302 32.9383 522.154 61.9242 511.309 89.7953C504.215 108.14 496.918 127.092 494.485 147.058C489.215 191.145 521.039 223.982 549.011 252.968C550.43 254.387 551.849 255.907 553.268 257.326C584.281 289.454 604.753 319.453 610.936 369.824C613.672 391.918 613.267 415.33 612.861 437.931C612.253 473.504 611.645 510.294 623.098 543.435L621.476 543.942C609.922 510.497 610.632 473.504 611.138 437.829C611.544 415.228 611.949 391.918 609.213 369.925C603.03 319.96 582.761 290.264 551.95 258.339C550.531 256.921 549.113 255.4 547.694 253.981C521.647 227.022 492.256 196.719 492.256 156.787Z" fill="url(#paint16_linear_368_417)"/>
<path d="M513.134 163.78C513.134 161.956 513.235 160.03 513.337 158.105C515.161 133.173 525.803 110.471 536.039 88.5791C548.809 61.3161 561.984 33.141 557.829 1.01324L559.552 0.810547C563.707 33.3437 550.43 61.8229 537.559 89.2886C527.424 111.079 516.884 133.68 515.059 158.308C512.222 196.009 537.559 224.894 562.086 252.867C567.356 258.846 572.322 264.522 577.085 270.299C609.314 309.825 615.395 350.162 614.889 402.357C614.787 415.836 613.774 429.924 612.862 443.403C609.72 488.403 606.477 534.922 632.523 573.739L631.105 574.651C604.652 535.327 607.997 488.504 611.139 443.201C612.051 429.62 613.064 415.634 613.166 402.256C613.672 350.466 607.591 310.433 575.768 271.312C571.106 265.535 566.14 259.86 560.869 253.88C538.37 228.34 513.134 199.557 513.134 163.78Z" fill="url(#paint17_linear_368_417)"/>
<path d="M535.123 168.646C535.123 168.139 535.123 167.531 535.123 167.024C535.731 137.937 549.616 112.397 563.095 87.6675C577.588 60.8099 592.689 33.1415 590.662 0.912383L592.385 0.811035C594.412 33.4455 579.311 61.418 564.616 88.3769C551.238 112.903 537.454 138.342 536.947 167.024C536.238 200.773 557.318 227.428 577.69 253.171C585.494 263.103 593.602 273.238 600.088 283.576C626.844 326.041 622.081 376.209 617.317 424.756C617.013 427.593 616.811 430.532 616.507 433.37C615.898 439.857 615.189 446.444 614.48 452.931C611.946 476.646 609.412 501.173 610.628 525.193C612.25 555.902 629.885 579.212 649.344 602.32L648.026 603.435C629.175 581.036 610.527 556.611 608.905 525.294C607.588 501.173 610.223 476.545 612.757 452.728C613.466 446.343 614.176 439.654 614.784 433.168C615.088 430.33 615.29 427.492 615.594 424.553C620.256 376.311 625.02 326.345 598.568 284.488C592.081 274.252 584.075 264.117 576.271 254.185C556.102 228.746 535.123 202.192 535.123 168.646Z" fill="url(#paint18_linear_368_417)"/>
<path d="M558.232 173.003C558.232 141.18 574.752 113.714 590.867 87.2618C606.88 60.7083 623.501 33.1412 623.501 1.01346C623.501 0.912108 623.501 0.912109 623.501 0.912109L625.224 0.912109C625.224 0.912109 625.224 1.01346 625.224 1.11481C625.224 33.648 608.502 61.4177 592.286 88.1739C576.272 114.626 559.753 141.889 559.955 173.51C560.057 204.32 577.793 229.252 594.819 253.475C604.752 267.562 615.089 282.157 621.88 297.764C639.109 337.696 630.494 387.357 622.893 431.242C621.069 441.883 619.346 451.917 617.927 461.545C617.42 465.194 616.812 468.944 616.305 472.795C612.556 496.815 608.502 523.875 614.785 547.185C621.778 573.334 639.819 595.225 657.352 616.407C661.102 620.968 665.055 625.731 668.703 630.393L667.386 631.407C663.737 626.846 659.784 622.083 656.034 617.522C638.501 596.239 620.258 574.246 613.164 547.692C606.88 524.078 610.934 496.815 614.583 472.694C615.191 468.741 615.697 465.092 616.204 461.444C617.522 451.714 619.346 441.681 621.17 431.039C628.771 387.357 637.285 338 620.258 298.474C613.569 282.967 603.333 268.475 593.401 254.387C576.171 230.063 558.334 204.827 558.232 173.51C558.232 173.307 558.232 173.206 558.232 173.003Z" fill="url(#paint19_linear_368_417)"/>
<path d="M581.747 176.652C581.747 143.409 600.598 114.626 618.942 86.8562C636.476 60.0999 654.617 32.5329 656.34 0.810547L658.063 0.911895C656.239 33.0397 637.996 60.8094 620.361 87.667C600.801 117.464 580.531 148.274 583.875 184.253C586.206 210.198 600.091 232.09 613.469 253.171C625.124 271.616 637.286 290.67 641.847 312.561C647.016 336.682 642.455 363.439 638.604 386.952L637.996 390.296C635.563 404.891 632.624 419.688 629.787 433.978C626.239 451.917 622.591 470.362 619.854 488.707C615.598 517.388 612.963 545.564 628.165 574.043C635.969 588.738 646.002 602.421 655.631 615.596C665.766 629.38 676.205 643.67 684.312 659.278L682.792 660.088C674.786 644.582 664.347 630.393 654.313 616.609C644.584 603.333 634.55 589.651 626.645 574.854C611.24 545.868 613.875 517.49 618.233 488.504C620.969 470.16 624.618 451.613 628.165 433.674C631.003 419.384 633.942 404.688 636.374 390.094L636.982 386.749C640.935 363.337 645.293 336.784 640.327 312.967C635.766 291.379 623.706 272.427 612.152 254.184C598.672 232.901 584.686 210.807 582.254 184.456C581.95 181.821 581.747 179.185 581.747 176.652Z" fill="url(#paint20_linear_368_417)"/>
<path d="M606.272 180.909C606.272 145.741 627.353 115.741 647.724 86.654C666.473 59.9991 685.831 32.432 689.277 0.811035L691 1.01373C687.554 33.0401 668.095 60.8099 649.244 87.6675C626.643 119.694 603.333 152.936 608.806 192.665C611.947 215.266 622.995 235.334 633.738 254.691C646.305 277.394 659.278 300.907 659.582 328.676C659.886 364.959 650.359 401.04 641.035 435.904C633.94 462.356 626.643 489.721 623.805 516.984C619.853 554.584 637.792 582.253 656.744 611.542C672.352 635.562 688.466 660.393 690.899 691L689.176 691.102C686.743 660.9 670.73 636.272 655.325 612.455C637.082 584.178 618.13 554.99 622.184 516.781C625.022 489.417 632.319 461.951 639.413 435.397C648.636 400.634 658.264 364.757 657.859 328.676C657.555 301.312 644.683 278.103 632.217 255.502C621.373 236.043 610.225 215.773 607.083 192.868C606.576 188.814 606.272 184.862 606.272 180.909Z" fill="url(#paint21_linear_368_417)"/>
</g>
<defs>
<linearGradient id="paint0_linear_368_417" x1="343.545" y1="0.0054091" x2="343.545" y2="0.269482" gradientUnits="userSpaceOnUse">
<stop offset="0.201276" stop-color="#02FE85"/>
<stop offset="1" stop-color="#02FED1"/>
</linearGradient>
<linearGradient id="paint1_linear_368_417" x1="355.801" y1="0.377555" x2="355.737" y2="18.8096" gradientUnits="userSpaceOnUse">
<stop offset="0.201276" stop-color="#02FE85"/>
<stop offset="1" stop-color="#02FED1"/>
</linearGradient>
<linearGradient id="paint2_linear_368_417" x1="362.707" y1="0.744292" x2="362.436" y2="37.0787" gradientUnits="userSpaceOnUse">
<stop offset="0.201276" stop-color="#02FE85"/>
<stop offset="1" stop-color="#02FED1"/>
</linearGradient>
<linearGradient id="paint3_linear_368_417" x1="367.598" y1="1.21584" x2="366.928" y2="55.6066" gradientUnits="userSpaceOnUse">
<stop offset="0.201276" stop-color="#02FE85"/>
<stop offset="1" stop-color="#02FED1"/>
</linearGradient>
<linearGradient id="paint4_linear_368_417" x1="373.849" y1="1.58474" x2="372.531" y2="73.9696" gradientUnits="userSpaceOnUse">
<stop offset="0.201276" stop-color="#02FE85"/>
<stop offset="1" stop-color="#02FED1"/>
</linearGradient>
<linearGradient id="paint5_linear_368_417" x1="384.792" y1="1.94606" x2="382.553" y2="91.9393" gradientUnits="userSpaceOnUse">
<stop offset="0.201276" stop-color="#02FE85"/>
<stop offset="1" stop-color="#02FED1"/>
</linearGradient>
<linearGradient id="paint6_linear_368_417" x1="402.547" y1="2.38034" x2="399.199" y2="108.591" gradientUnits="userSpaceOnUse">
<stop offset="0.201276" stop-color="#02FE85"/>
<stop offset="1" stop-color="#02FED1"/>
</linearGradient>
<linearGradient id="paint7_linear_368_417" x1="424.436" y1="2.68" x2="419.862" y2="123.452" gradientUnits="userSpaceOnUse">
<stop offset="0.201276" stop-color="#02FE85"/>
<stop offset="1" stop-color="#02FED1"/>
</linearGradient>
<linearGradient id="paint8_linear_368_417" x1="447.939" y1="3.06019" x2="441.997" y2="137.369" gradientUnits="userSpaceOnUse">
<stop offset="0.201276" stop-color="#02FE85"/>
<stop offset="1" stop-color="#02FED1"/>
</linearGradient>
<linearGradient id="paint9_linear_368_417" x1="471.344" y1="3.34038" x2="463.752" y2="151.201" gradientUnits="userSpaceOnUse">
<stop offset="0.201276" stop-color="#02FE85"/>
<stop offset="1" stop-color="#02FED1"/>
</linearGradient>
<linearGradient id="paint10_linear_368_417" x1="492.275" y1="3.7481" x2="482.417" y2="166.348" gradientUnits="userSpaceOnUse">
<stop offset="0.201276" stop-color="#02FE85"/>
<stop offset="1" stop-color="#02FED1"/>
</linearGradient>
<linearGradient id="paint11_linear_368_417" x1="508.97" y1="3.89921" x2="495.626" y2="183.375" gradientUnits="userSpaceOnUse">
<stop offset="0.201276" stop-color="#02FE85"/>
<stop offset="1" stop-color="#02FED1"/>
</linearGradient>
<linearGradient id="paint12_linear_368_417" x1="522.231" y1="4.41295" x2="503.315" y2="203.203" gradientUnits="userSpaceOnUse">
<stop offset="0.201276" stop-color="#02FE85"/>
<stop offset="1" stop-color="#02FED1"/>
</linearGradient>
<linearGradient id="paint13_linear_368_417" x1="533.829" y1="4.95973" x2="506.203" y2="223.822" gradientUnits="userSpaceOnUse">
<stop offset="0.201276" stop-color="#02FE85"/>
<stop offset="1" stop-color="#02FED1"/>
</linearGradient>
<linearGradient id="paint14_linear_368_417" x1="542.275" y1="5.51133" x2="502.537" y2="243.188" gradientUnits="userSpaceOnUse">
<stop offset="0.201276" stop-color="#02FE85"/>
<stop offset="1" stop-color="#02FED1"/>
</linearGradient>
<linearGradient id="paint15_linear_368_417" x1="548.06" y1="6.03805" x2="494.088" y2="259.627" gradientUnits="userSpaceOnUse">
<stop offset="0.201276" stop-color="#02FE85"/>
<stop offset="1" stop-color="#02FED1"/>
</linearGradient>
<linearGradient id="paint16_linear_368_417" x1="557.383" y1="6.60802" x2="487.278" y2="271.057" gradientUnits="userSpaceOnUse">
<stop offset="0.201276" stop-color="#02FE85"/>
<stop offset="1" stop-color="#02FED1"/>
</linearGradient>
<linearGradient id="paint17_linear_368_417" x1="572.561" y1="6.93581" x2="488.674" y2="280.223" gradientUnits="userSpaceOnUse">
<stop offset="0.201276" stop-color="#02FE85"/>
<stop offset="1" stop-color="#02FED1"/>
</linearGradient>
<linearGradient id="paint18_linear_368_417" x1="591.977" y1="7.24353" x2="496.954" y2="289.262" gradientUnits="userSpaceOnUse">
<stop offset="0.201276" stop-color="#02FE85"/>
<stop offset="1" stop-color="#02FED1"/>
</linearGradient>
<linearGradient id="paint19_linear_368_417" x1="613.22" y1="7.64211" x2="507.508" y2="297.671" gradientUnits="userSpaceOnUse">
<stop offset="0.201276" stop-color="#02FE85"/>
<stop offset="1" stop-color="#02FED1"/>
</linearGradient>
<linearGradient id="paint20_linear_368_417" x1="632.8" y1="7.84778" x2="512.106" y2="301.862" gradientUnits="userSpaceOnUse">
<stop offset="0.201276" stop-color="#02FE85"/>
<stop offset="1" stop-color="#02FED1"/>
</linearGradient>
<linearGradient id="paint21_linear_368_417" x1="648.446" y1="8.17931" x2="501.156" y2="291.265" gradientUnits="userSpaceOnUse">
<stop offset="0.201276" stop-color="#02FE85"/>
<stop offset="1" stop-color="#02FED1"/>
</linearGradient>
</defs>
</svg>
