<svg width="720" height="345" viewBox="0 0 720 345" fill="none" xmlns="http://www.w3.org/2000/svg">
<g filter="url(#filter0_b_1_2178)">
<path d="M0 10C0 4.47715 4.47715 0 10 0H710C715.523 0 720 4.47715 720 10V335C720 340.523 715.523 345 710 345H10C4.47716 345 0 340.523 0 335V10Z" fill="url(#paint0_linear_1_2178)" fill-opacity="0.1"/>
<g filter="url(#filter1_b_1_2178)">
<rect x="655" y="28" width="33" height="33" rx="10" fill="url(#paint1_linear_1_2178)" fill-opacity="0.1"/>
<path d="M666.4 42.2H666.6C667.37 42.2 668 42.83 668 43.6V50.6C668 51.37 667.37 52 666.6 52H666.4C665.63 52 665 51.37 665 50.6V43.6C665 42.83 665.63 42.2 666.4 42.2ZM672 38C672.77 38 673.4 38.63 673.4 39.4V50.6C673.4 51.37 672.77 52 672 52C671.23 52 670.6 51.37 670.6 50.6V39.4C670.6 38.63 671.23 38 672 38ZM677.6 46C678.37 46 679 46.63 679 47.4V50.6C679 51.37 678.37 52 677.6 52C676.83 52 676.2 51.37 676.2 50.6V47.4C676.2 46.63 676.83 46 677.6 46Z" fill="url(#paint2_linear_1_2178)"/>
<rect x="655.445" y="28.4453" width="32.1093" height="32.1093" rx="9.55465" stroke="url(#paint3_linear_1_2178)" stroke-opacity="0.4" stroke-width="0.890698"/>
</g>
<rect x="35" y="226" width="34.9606" height="58" rx="8" fill="white" fill-opacity="0.1"/>
<rect x="90.9607" y="142" width="34.9606" height="142" rx="8" fill="white" fill-opacity="0.1"/>
<rect x="146.921" y="186" width="34.9606" height="98" rx="8" fill="white" fill-opacity="0.1"/>
<rect x="202.882" y="172" width="34.9606" height="112" rx="8" fill="white" fill-opacity="0.1"/>
<rect x="258.843" y="194" width="34.9606" height="90" rx="8" fill="white" fill-opacity="0.1"/>
<rect x="314.803" y="123" width="34.9606" height="161" rx="8" fill="url(#paint4_linear_1_2178)"/>
<rect x="370.764" y="206" width="34.9606" height="78" rx="8" fill="white" fill-opacity="0.1"/>
<rect x="426.725" y="142" width="34.9606" height="142" rx="8" fill="white" fill-opacity="0.1"/>
<rect x="482.685" y="245" width="34.9606" height="39" rx="8" fill="white" fill-opacity="0.1"/>
<rect x="538.646" y="172" width="34.9606" height="112" rx="8" fill="white" fill-opacity="0.1"/>
<rect x="594.607" y="221" width="34.9606" height="63" rx="8" fill="white" fill-opacity="0.1"/>
<rect x="650.567" y="186" width="34.9606" height="98" rx="8" fill="white" fill-opacity="0.1"/>
<line x1="35" y1="123.5" x2="668" y2="123.5" stroke="url(#paint5_linear_1_2178)" stroke-dasharray="7 6"/>
<path d="M679.12 129.044V128.12C678.336 128.032 677.708 127.756 677.236 127.292C676.764 126.828 676.524 126.22 676.516 125.468H677.86C677.868 125.844 677.98 126.176 678.196 126.464C678.412 126.744 678.72 126.932 679.12 127.028V124.136C679.056 124.12 678.988 124.1 678.916 124.076C678.852 124.052 678.784 124.028 678.712 124.004C678.064 123.788 677.576 123.508 677.248 123.164C676.928 122.82 676.768 122.368 676.768 121.808C676.76 121.152 676.972 120.616 677.404 120.2C677.836 119.784 678.408 119.54 679.12 119.468V118.508H679.936V119.48C680.632 119.56 681.192 119.812 681.616 120.236C682.04 120.66 682.256 121.192 682.264 121.832H680.92C680.912 121.568 680.824 121.32 680.656 121.088C680.496 120.848 680.256 120.684 679.936 120.596V123.164C680 123.188 680.064 123.212 680.128 123.236C680.192 123.252 680.256 123.272 680.32 123.296C680.736 123.432 681.108 123.596 681.436 123.788C681.764 123.98 682.024 124.232 682.216 124.544C682.416 124.856 682.516 125.252 682.516 125.732C682.516 126.132 682.42 126.508 682.228 126.86C682.036 127.204 681.748 127.492 681.364 127.724C680.98 127.956 680.504 128.092 679.936 128.132V129.044H679.12ZM678.088 121.7C678.088 122.02 678.18 122.268 678.364 122.444C678.548 122.612 678.8 122.76 679.12 122.888V120.56C678.816 120.616 678.568 120.744 678.376 120.944C678.184 121.136 678.088 121.388 678.088 121.7ZM681.172 125.816C681.172 125.424 681.056 125.128 680.824 124.928C680.592 124.72 680.296 124.548 679.936 124.412V127.052C680.328 127.004 680.632 126.868 680.848 126.644C681.064 126.42 681.172 126.144 681.172 125.816ZM684.531 128V121.04L683.175 121.352V120.416L685.035 119.6H685.851V128H684.531ZM687.905 128L691.157 120.692H686.789V119.6H692.465V120.524L689.237 128H687.905ZM696.085 128.144C695.533 128.144 695.061 128.036 694.669 127.82C694.277 127.604 693.969 127.316 693.745 126.956C693.529 126.596 693.397 126.204 693.349 125.78H694.537C694.609 126.196 694.781 126.516 695.053 126.74C695.325 126.964 695.673 127.076 696.097 127.076C696.681 127.076 697.161 126.804 697.537 126.26C697.921 125.708 698.125 124.864 698.149 123.728C697.957 124.08 697.657 124.38 697.249 124.628C696.849 124.876 696.385 125 695.857 125C695.385 125 694.941 124.888 694.525 124.664C694.109 124.44 693.773 124.128 693.517 123.728C693.261 123.32 693.133 122.84 693.133 122.288C693.133 121.8 693.253 121.34 693.493 120.908C693.733 120.476 694.069 120.128 694.501 119.864C694.941 119.592 695.461 119.456 696.061 119.456C696.677 119.456 697.197 119.572 697.621 119.804C698.045 120.036 698.385 120.344 698.641 120.728C698.897 121.112 699.081 121.544 699.193 122.024C699.313 122.504 699.373 122.996 699.373 123.5C699.373 124.428 699.241 125.24 698.977 125.936C698.721 126.632 698.349 127.176 697.861 127.568C697.373 127.952 696.781 128.144 696.085 128.144ZM696.145 123.908C696.481 123.908 696.781 123.832 697.045 123.68C697.309 123.528 697.517 123.328 697.669 123.08C697.829 122.824 697.909 122.544 697.909 122.24C697.909 121.912 697.829 121.624 697.669 121.376C697.517 121.12 697.305 120.92 697.033 120.776C696.769 120.632 696.469 120.56 696.133 120.56C695.797 120.56 695.497 120.632 695.233 120.776C694.969 120.92 694.757 121.12 694.597 121.376C694.445 121.624 694.369 121.908 694.369 122.228C694.369 122.74 694.537 123.148 694.873 123.452C695.209 123.756 695.633 123.908 696.145 123.908Z" fill="url(#paint6_linear_1_2178)"/>
<path d="M45.0238 307.144C44.2398 307.144 43.6158 306.924 43.1518 306.484C42.6958 306.044 42.4678 305.424 42.4678 304.624H43.7398C43.7398 305.024 43.8358 305.356 44.0278 305.62C44.2278 305.884 44.5518 306.016 44.9998 306.016C45.4398 306.016 45.7518 305.892 45.9358 305.644C46.1198 305.388 46.2118 305.064 46.2118 304.672V298.6H47.4838V304.672C47.4838 305.464 47.2638 306.076 46.8238 306.508C46.3838 306.932 45.7838 307.144 45.0238 307.144ZM50.9113 307.144C50.4073 307.144 49.9913 307.06 49.6633 306.892C49.3353 306.724 49.0913 306.504 48.9313 306.232C48.7713 305.952 48.6913 305.648 48.6913 305.32C48.6913 304.744 48.9153 304.288 49.3633 303.952C49.8113 303.616 50.4513 303.448 51.2833 303.448H52.8433V303.34C52.8433 302.876 52.7153 302.528 52.4593 302.296C52.2113 302.064 51.8873 301.948 51.4873 301.948C51.1353 301.948 50.8273 302.036 50.5633 302.212C50.3073 302.38 50.1513 302.632 50.0953 302.968H48.8233C48.8633 302.536 49.0073 302.168 49.2553 301.864C49.5113 301.552 49.8313 301.316 50.2153 301.156C50.6073 300.988 51.0353 300.904 51.4993 300.904C52.3313 300.904 52.9753 301.124 53.4313 301.564C53.8873 301.996 54.1153 302.588 54.1153 303.34V307H53.0113L52.9033 305.98C52.7353 306.308 52.4913 306.584 52.1713 306.808C51.8513 307.032 51.4313 307.144 50.9113 307.144ZM51.1633 306.112C51.5073 306.112 51.7953 306.032 52.0273 305.872C52.2673 305.704 52.4513 305.484 52.5793 305.212C52.7153 304.94 52.7993 304.64 52.8313 304.312H51.4153C50.9113 304.312 50.5513 304.4 50.3353 304.576C50.1273 304.752 50.0233 304.972 50.0233 305.236C50.0233 305.508 50.1233 305.724 50.3233 305.884C50.5313 306.036 50.8113 306.112 51.1633 306.112ZM55.3585 307V301.048H56.4865L56.5825 302.092C56.7665 301.724 57.0345 301.436 57.3865 301.228C57.7465 301.012 58.1585 300.904 58.6225 300.904C59.3425 300.904 59.9065 301.128 60.3145 301.576C60.7305 302.024 60.9385 302.692 60.9385 303.58V307H59.6785V303.712C59.6785 302.56 59.2065 301.984 58.2625 301.984C57.7905 301.984 57.3985 302.152 57.0865 302.488C56.7825 302.824 56.6305 303.304 56.6305 303.928V307H55.3585Z" fill="#A3AED0"/>
<path d="M98.5271 307V298.6H103.795V299.632H99.7991V302.284H103.111V303.304H99.7991V307H98.5271ZM107.246 307.144C106.662 307.144 106.142 307.016 105.686 306.76C105.238 306.496 104.886 306.132 104.63 305.668C104.374 305.204 104.246 304.664 104.246 304.048C104.246 303.424 104.37 302.876 104.618 302.404C104.874 301.932 105.226 301.564 105.674 301.3C106.13 301.036 106.658 300.904 107.258 300.904C107.842 300.904 108.35 301.036 108.782 301.3C109.214 301.556 109.55 301.9 109.79 302.332C110.03 302.764 110.15 303.24 110.15 303.76C110.15 303.84 110.146 303.928 110.138 304.024C110.138 304.112 110.134 304.212 110.126 304.324H105.494C105.534 304.9 105.722 305.34 106.058 305.644C106.402 305.94 106.798 306.088 107.246 306.088C107.606 306.088 107.906 306.008 108.146 305.848C108.394 305.68 108.578 305.456 108.698 305.176H109.97C109.81 305.736 109.49 306.204 109.01 306.58C108.538 306.956 107.95 307.144 107.246 307.144ZM107.246 301.948C106.822 301.948 106.446 302.076 106.118 302.332C105.79 302.58 105.59 302.956 105.518 303.46H108.878C108.854 302.996 108.69 302.628 108.386 302.356C108.082 302.084 107.702 301.948 107.246 301.948ZM114.578 307.144C114.114 307.144 113.702 307.052 113.342 306.868C112.99 306.684 112.71 306.424 112.502 306.088L112.37 307H111.23V298.36H112.502V301.972C112.694 301.692 112.958 301.444 113.294 301.228C113.63 301.012 114.062 300.904 114.59 300.904C115.166 300.904 115.674 301.04 116.114 301.312C116.554 301.584 116.898 301.956 117.146 302.428C117.402 302.9 117.53 303.436 117.53 304.036C117.53 304.636 117.402 305.172 117.146 305.644C116.898 306.108 116.554 306.476 116.114 306.748C115.674 307.012 115.162 307.144 114.578 307.144ZM114.362 306.04C114.906 306.04 115.354 305.856 115.706 305.488C116.058 305.112 116.234 304.624 116.234 304.024C116.234 303.632 116.154 303.284 115.994 302.98C115.834 302.676 115.614 302.44 115.334 302.272C115.054 302.096 114.73 302.008 114.362 302.008C113.818 302.008 113.37 302.196 113.018 302.572C112.674 302.948 112.502 303.432 112.502 304.024C112.502 304.624 112.674 305.112 113.018 305.488C113.37 305.856 113.818 306.04 114.362 306.04Z" fill="#A3AED0"/>
<path d="M154.158 307V298.6H155.658L158.502 304.192L161.334 298.6H162.834V307H161.562V300.796L158.994 305.8H158.01L155.43 300.808V307H154.158ZM166.269 307.144C165.765 307.144 165.349 307.06 165.021 306.892C164.693 306.724 164.449 306.504 164.289 306.232C164.129 305.952 164.049 305.648 164.049 305.32C164.049 304.744 164.273 304.288 164.721 303.952C165.169 303.616 165.809 303.448 166.641 303.448H168.201V303.34C168.201 302.876 168.073 302.528 167.817 302.296C167.569 302.064 167.245 301.948 166.845 301.948C166.493 301.948 166.185 302.036 165.921 302.212C165.665 302.38 165.509 302.632 165.453 302.968H164.181C164.221 302.536 164.365 302.168 164.613 301.864C164.869 301.552 165.189 301.316 165.573 301.156C165.965 300.988 166.393 300.904 166.857 300.904C167.689 300.904 168.333 301.124 168.789 301.564C169.245 301.996 169.473 302.588 169.473 303.34V307H168.369L168.261 305.98C168.093 306.308 167.849 306.584 167.529 306.808C167.209 307.032 166.789 307.144 166.269 307.144ZM166.521 306.112C166.865 306.112 167.153 306.032 167.385 305.872C167.625 305.704 167.809 305.484 167.937 305.212C168.073 304.94 168.157 304.64 168.189 304.312H166.773C166.269 304.312 165.909 304.4 165.693 304.576C165.485 304.752 165.381 304.972 165.381 305.236C165.381 305.508 165.481 305.724 165.681 305.884C165.889 306.036 166.169 306.112 166.521 306.112ZM170.716 307V301.048H171.856L171.964 302.176C172.172 301.784 172.46 301.476 172.828 301.252C173.204 301.02 173.656 300.904 174.184 300.904V302.236H173.836C173.484 302.236 173.168 302.296 172.888 302.416C172.616 302.528 172.396 302.724 172.228 303.004C172.068 303.276 171.988 303.656 171.988 304.144V307H170.716Z" fill="#A3AED0"/>
<path d="M210.227 307L213.323 298.6H214.715L217.787 307H216.443L215.723 304.948H212.291L211.571 307H210.227ZM212.651 303.94H215.363L214.007 300.112L212.651 303.94ZM218.671 309.64V301.048H219.811L219.943 301.972C220.135 301.692 220.399 301.444 220.735 301.228C221.071 301.012 221.503 300.904 222.031 300.904C222.607 300.904 223.115 301.04 223.555 301.312C223.995 301.584 224.339 301.956 224.587 302.428C224.843 302.9 224.971 303.436 224.971 304.036C224.971 304.636 224.843 305.172 224.587 305.644C224.339 306.108 223.995 306.476 223.555 306.748C223.115 307.012 222.603 307.144 222.019 307.144C221.555 307.144 221.143 307.052 220.783 306.868C220.431 306.684 220.151 306.424 219.943 306.088V309.64H218.671ZM221.803 306.04C222.347 306.04 222.795 305.856 223.147 305.488C223.499 305.112 223.675 304.624 223.675 304.024C223.675 303.632 223.595 303.284 223.435 302.98C223.275 302.676 223.055 302.44 222.775 302.272C222.495 302.096 222.171 302.008 221.803 302.008C221.259 302.008 220.811 302.196 220.459 302.572C220.115 302.948 219.943 303.432 219.943 304.024C219.943 304.624 220.115 305.112 220.459 305.488C220.811 305.856 221.259 306.04 221.803 306.04ZM226.107 307V301.048H227.247L227.355 302.176C227.563 301.784 227.851 301.476 228.219 301.252C228.595 301.02 229.047 300.904 229.575 300.904V302.236H229.227C228.875 302.236 228.559 302.296 228.279 302.416C228.007 302.528 227.787 302.724 227.619 303.004C227.459 303.276 227.379 303.656 227.379 304.144V307H226.107Z" fill="#A3AED0"/>
<path d="M265.068 307V298.6H266.568L269.412 304.192L272.244 298.6H273.744V307H272.472V300.796L269.904 305.8H268.92L266.34 300.808V307H265.068ZM277.179 307.144C276.675 307.144 276.259 307.06 275.931 306.892C275.603 306.724 275.359 306.504 275.199 306.232C275.039 305.952 274.959 305.648 274.959 305.32C274.959 304.744 275.183 304.288 275.631 303.952C276.079 303.616 276.719 303.448 277.551 303.448H279.111V303.34C279.111 302.876 278.983 302.528 278.727 302.296C278.479 302.064 278.155 301.948 277.755 301.948C277.403 301.948 277.095 302.036 276.831 302.212C276.575 302.38 276.419 302.632 276.363 302.968H275.091C275.131 302.536 275.275 302.168 275.523 301.864C275.779 301.552 276.099 301.316 276.483 301.156C276.875 300.988 277.303 300.904 277.767 300.904C278.599 300.904 279.243 301.124 279.699 301.564C280.155 301.996 280.383 302.588 280.383 303.34V307H279.279L279.171 305.98C279.003 306.308 278.759 306.584 278.439 306.808C278.119 307.032 277.699 307.144 277.179 307.144ZM277.431 306.112C277.775 306.112 278.063 306.032 278.295 305.872C278.535 305.704 278.719 305.484 278.847 305.212C278.983 304.94 279.067 304.64 279.099 304.312H277.683C277.179 304.312 276.819 304.4 276.603 304.576C276.395 304.752 276.291 304.972 276.291 305.236C276.291 305.508 276.391 305.724 276.591 305.884C276.799 306.036 277.079 306.112 277.431 306.112ZM282.135 309.64L283.563 306.508H283.215L280.863 301.048H282.243L284.067 305.452L285.975 301.048H287.319L283.479 309.64H282.135Z" fill="#A3AED0"/>
<path d="M382.934 307.144C382.15 307.144 381.526 306.924 381.062 306.484C380.606 306.044 380.378 305.424 380.378 304.624H381.65C381.65 305.024 381.746 305.356 381.938 305.62C382.138 305.884 382.462 306.016 382.91 306.016C383.35 306.016 383.662 305.892 383.846 305.644C384.03 305.388 384.122 305.064 384.122 304.672V298.6H385.394V304.672C385.394 305.464 385.174 306.076 384.734 306.508C384.294 306.932 383.694 307.144 382.934 307.144ZM389.001 307.144C388.281 307.144 387.713 306.92 387.297 306.472C386.889 306.024 386.685 305.356 386.685 304.468V301.048H387.957V304.336C387.957 305.488 388.429 306.064 389.373 306.064C389.845 306.064 390.233 305.896 390.537 305.56C390.841 305.224 390.993 304.744 390.993 304.12V301.048H392.265V307H391.137L391.041 305.956C390.857 306.324 390.585 306.616 390.225 306.832C389.873 307.04 389.465 307.144 389.001 307.144ZM393.644 307V298.36H394.916V307H393.644Z" fill="#A3AED0"/>
<path d="M433.507 307L436.603 298.6H437.995L441.067 307H439.723L439.003 304.948H435.571L434.851 307H433.507ZM435.931 303.94H438.643L437.287 300.112L435.931 303.94ZM444.017 307.144C443.297 307.144 442.729 306.92 442.313 306.472C441.905 306.024 441.701 305.356 441.701 304.468V301.048H442.973V304.336C442.973 305.488 443.445 306.064 444.389 306.064C444.861 306.064 445.249 305.896 445.553 305.56C445.857 305.224 446.009 304.744 446.009 304.12V301.048H447.281V307H446.153L446.057 305.956C445.873 306.324 445.601 306.616 445.241 306.832C444.889 307.04 444.481 307.144 444.017 307.144ZM451.095 305.176C450.783 305.176 450.495 305.14 450.231 305.068L449.715 305.572C449.803 305.628 449.911 305.676 450.039 305.716C450.167 305.756 450.347 305.792 450.579 305.824C450.811 305.856 451.127 305.888 451.527 305.92C452.319 305.992 452.891 306.184 453.243 306.496C453.595 306.8 453.771 307.208 453.771 307.72C453.771 308.072 453.675 308.404 453.483 308.716C453.299 309.036 453.007 309.292 452.607 309.484C452.215 309.684 451.711 309.784 451.095 309.784C450.263 309.784 449.587 309.624 449.067 309.304C448.555 308.992 448.299 308.516 448.299 307.876C448.299 307.628 448.363 307.38 448.491 307.132C448.627 306.892 448.839 306.664 449.127 306.448C448.959 306.376 448.811 306.3 448.683 306.22C448.563 306.132 448.455 306.044 448.359 305.956V305.668L449.391 304.612C448.927 304.212 448.695 303.688 448.695 303.04C448.695 302.648 448.787 302.292 448.971 301.972C449.163 301.644 449.439 301.384 449.799 301.192C450.159 301 450.591 300.904 451.095 300.904C451.431 300.904 451.743 300.952 452.031 301.048H454.251V301.888L453.195 301.948C453.387 302.276 453.483 302.64 453.483 303.04C453.483 303.44 453.387 303.8 453.195 304.12C453.011 304.44 452.739 304.696 452.379 304.888C452.027 305.08 451.599 305.176 451.095 305.176ZM451.095 304.18C451.463 304.18 451.759 304.084 451.983 303.892C452.215 303.692 452.331 303.412 452.331 303.052C452.331 302.684 452.215 302.404 451.983 302.212C451.759 302.02 451.463 301.924 451.095 301.924C450.719 301.924 450.415 302.02 450.183 302.212C449.959 302.404 449.847 302.684 449.847 303.052C449.847 303.412 449.959 303.692 450.183 303.892C450.415 304.084 450.719 304.18 451.095 304.18ZM449.499 307.756C449.499 308.1 449.651 308.356 449.955 308.524C450.259 308.7 450.639 308.788 451.095 308.788C451.535 308.788 451.891 308.692 452.163 308.5C452.435 308.316 452.571 308.068 452.571 307.756C452.571 307.524 452.479 307.324 452.295 307.156C452.111 306.996 451.763 306.896 451.251 306.856C450.867 306.832 450.527 306.796 450.231 306.748C449.951 306.9 449.759 307.064 449.655 307.24C449.551 307.416 449.499 307.588 449.499 307.756Z" fill="#A3AED0"/>
<path d="M492.883 307.144C492.267 307.144 491.727 307.036 491.263 306.82C490.799 306.604 490.435 306.296 490.171 305.896C489.915 305.496 489.783 305.02 489.775 304.468H491.119C491.127 304.916 491.283 305.296 491.587 305.608C491.891 305.92 492.319 306.076 492.871 306.076C493.359 306.076 493.739 305.96 494.011 305.728C494.291 305.488 494.431 305.184 494.431 304.816C494.431 304.52 494.363 304.28 494.227 304.096C494.099 303.912 493.919 303.76 493.687 303.64C493.463 303.52 493.203 303.412 492.907 303.316C492.611 303.22 492.299 303.116 491.971 303.004C491.323 302.788 490.835 302.508 490.507 302.164C490.187 301.82 490.027 301.368 490.027 300.808C490.019 300.336 490.127 299.924 490.351 299.572C490.583 299.22 490.903 298.948 491.311 298.756C491.727 298.556 492.211 298.456 492.763 298.456C493.307 298.456 493.783 298.556 494.191 298.756C494.607 298.956 494.931 299.236 495.163 299.596C495.395 299.948 495.515 300.36 495.523 300.832H494.179C494.179 300.616 494.123 300.412 494.011 300.22C493.899 300.02 493.735 299.856 493.519 299.728C493.303 299.6 493.039 299.536 492.727 299.536C492.327 299.528 491.995 299.628 491.731 299.836C491.475 300.044 491.347 300.332 491.347 300.7C491.347 301.028 491.443 301.28 491.635 301.456C491.827 301.632 492.091 301.78 492.427 301.9C492.763 302.012 493.147 302.144 493.579 302.296C493.995 302.432 494.367 302.596 494.695 302.788C495.023 302.98 495.283 303.232 495.475 303.544C495.675 303.856 495.775 304.252 495.775 304.732C495.775 305.156 495.667 305.552 495.451 305.92C495.235 306.28 494.911 306.576 494.479 306.808C494.047 307.032 493.515 307.144 492.883 307.144ZM499.662 307.144C499.078 307.144 498.558 307.016 498.102 306.76C497.654 306.496 497.302 306.132 497.046 305.668C496.79 305.204 496.662 304.664 496.662 304.048C496.662 303.424 496.786 302.876 497.034 302.404C497.29 301.932 497.642 301.564 498.09 301.3C498.546 301.036 499.074 300.904 499.674 300.904C500.258 300.904 500.766 301.036 501.198 301.3C501.63 301.556 501.966 301.9 502.206 302.332C502.446 302.764 502.566 303.24 502.566 303.76C502.566 303.84 502.562 303.928 502.554 304.024C502.554 304.112 502.55 304.212 502.542 304.324H497.91C497.95 304.9 498.138 305.34 498.474 305.644C498.818 305.94 499.214 306.088 499.662 306.088C500.022 306.088 500.322 306.008 500.562 305.848C500.81 305.68 500.994 305.456 501.114 305.176H502.386C502.226 305.736 501.906 306.204 501.426 306.58C500.954 306.956 500.366 307.144 499.662 307.144ZM499.662 301.948C499.238 301.948 498.862 302.076 498.534 302.332C498.206 302.58 498.006 302.956 497.934 303.46H501.294C501.27 302.996 501.106 302.628 500.802 302.356C500.498 302.084 500.118 301.948 499.662 301.948ZM503.646 309.64V301.048H504.786L504.918 301.972C505.11 301.692 505.374 301.444 505.71 301.228C506.046 301.012 506.478 300.904 507.006 300.904C507.582 300.904 508.09 301.04 508.53 301.312C508.97 301.584 509.314 301.956 509.562 302.428C509.818 302.9 509.946 303.436 509.946 304.036C509.946 304.636 509.818 305.172 509.562 305.644C509.314 306.108 508.97 306.476 508.53 306.748C508.09 307.012 507.578 307.144 506.994 307.144C506.53 307.144 506.118 307.052 505.758 306.868C505.406 306.684 505.126 306.424 504.918 306.088V309.64H503.646ZM506.778 306.04C507.322 306.04 507.77 305.856 508.122 305.488C508.474 305.112 508.65 304.624 508.65 304.024C508.65 303.632 508.57 303.284 508.41 302.98C508.25 302.676 508.03 302.44 507.75 302.272C507.47 302.096 507.146 302.008 506.778 302.008C506.234 302.008 505.786 302.196 505.434 302.572C505.09 302.948 504.918 303.432 504.918 304.024C504.918 304.624 505.09 305.112 505.434 305.488C505.786 305.856 506.234 306.04 506.778 306.04Z" fill="#A3AED0"/>
<path d="M550.251 307.144C549.419 307.144 548.691 306.96 548.067 306.592C547.443 306.224 546.955 305.716 546.603 305.068C546.251 304.412 546.075 303.656 546.075 302.8C546.075 301.944 546.251 301.192 546.603 300.544C546.955 299.888 547.443 299.376 548.067 299.008C548.691 298.64 549.419 298.456 550.251 298.456C551.083 298.456 551.811 298.64 552.435 299.008C553.059 299.376 553.543 299.888 553.887 300.544C554.239 301.192 554.415 301.944 554.415 302.8C554.415 303.656 554.239 304.412 553.887 305.068C553.543 305.716 553.059 306.224 552.435 306.592C551.811 306.96 551.083 307.144 550.251 307.144ZM550.251 306.004C550.827 306.004 551.327 305.876 551.751 305.62C552.183 305.364 552.519 304.996 552.759 304.516C552.999 304.036 553.119 303.464 553.119 302.8C553.119 302.136 552.999 301.564 552.759 301.084C552.519 300.604 552.183 300.236 551.751 299.98C551.327 299.724 550.827 299.596 550.251 299.596C549.675 299.596 549.171 299.724 548.739 299.98C548.307 300.236 547.971 300.604 547.731 301.084C547.499 301.564 547.383 302.136 547.383 302.8C547.383 303.464 547.499 304.036 547.731 304.516C547.971 304.996 548.307 305.364 548.739 305.62C549.171 305.876 549.675 306.004 550.251 306.004ZM558.364 307.144C557.78 307.144 557.256 307.012 556.792 306.748C556.336 306.484 555.976 306.12 555.712 305.656C555.456 305.184 555.328 304.64 555.328 304.024C555.328 303.408 555.456 302.868 555.712 302.404C555.976 301.932 556.336 301.564 556.792 301.3C557.256 301.036 557.78 300.904 558.364 300.904C559.1 300.904 559.716 301.096 560.212 301.48C560.716 301.864 561.04 302.384 561.184 303.04H559.852C559.772 302.712 559.596 302.456 559.324 302.272C559.052 302.088 558.732 301.996 558.364 301.996C558.052 301.996 557.764 302.076 557.5 302.236C557.236 302.388 557.024 302.616 556.864 302.92C556.704 303.216 556.624 303.584 556.624 304.024C556.624 304.464 556.704 304.836 556.864 305.14C557.024 305.436 557.236 305.664 557.5 305.824C557.764 305.984 558.052 306.064 558.364 306.064C558.732 306.064 559.052 305.972 559.324 305.788C559.596 305.604 559.772 305.344 559.852 305.008H561.184C561.048 305.648 560.728 306.164 560.224 306.556C559.72 306.948 559.1 307.144 558.364 307.144ZM564.702 307C564.118 307 563.654 306.86 563.31 306.58C562.966 306.292 562.794 305.784 562.794 305.056V302.116H561.774V301.048H562.794L562.95 299.536H564.066V301.048H565.746V302.116H564.066V305.056C564.066 305.384 564.134 305.612 564.27 305.74C564.414 305.86 564.658 305.92 565.002 305.92H565.686V307H564.702Z" fill="#A3AED0"/>
<path d="M602.088 307V298.6H603.36L607.572 304.924V298.6H608.844V307H607.572L603.36 300.676V307H602.088ZM613.045 307.144C612.477 307.144 611.965 307.016 611.509 306.76C611.061 306.496 610.705 306.132 610.441 305.668C610.177 305.196 610.045 304.648 610.045 304.024C610.045 303.4 610.177 302.856 610.441 302.392C610.713 301.92 611.077 301.556 611.533 301.3C611.989 301.036 612.497 300.904 613.057 300.904C613.625 300.904 614.133 301.036 614.581 301.3C615.037 301.556 615.397 301.92 615.661 302.392C615.933 302.856 616.069 303.4 616.069 304.024C616.069 304.648 615.933 305.196 615.661 305.668C615.397 306.132 615.037 306.496 614.581 306.76C614.125 307.016 613.613 307.144 613.045 307.144ZM613.045 306.052C613.349 306.052 613.629 305.976 613.885 305.824C614.149 305.672 614.361 305.448 614.521 305.152C614.681 304.848 614.761 304.472 614.761 304.024C614.761 303.576 614.681 303.204 614.521 302.908C614.369 302.604 614.161 302.376 613.897 302.224C613.641 302.072 613.361 301.996 613.057 301.996C612.753 301.996 612.469 302.072 612.205 302.224C611.949 302.376 611.741 302.604 611.581 302.908C611.421 303.204 611.341 303.576 611.341 304.024C611.341 304.472 611.421 304.848 611.581 305.152C611.741 305.448 611.949 305.672 612.205 305.824C612.461 305.976 612.741 306.052 613.045 306.052ZM618.567 307L616.335 301.048H617.667L619.323 305.788L620.979 301.048H622.299L620.079 307H618.567Z" fill="#A3AED0"/>
<path d="M657.748 307V298.6H660.472C661.456 298.6 662.264 298.772 662.896 299.116C663.536 299.46 664.008 299.948 664.312 300.58C664.624 301.204 664.78 301.948 664.78 302.812C664.78 303.668 664.624 304.412 664.312 305.044C664.008 305.668 663.536 306.152 662.896 306.496C662.264 306.832 661.456 307 660.472 307H657.748ZM659.02 305.92H660.424C661.184 305.92 661.784 305.796 662.224 305.548C662.672 305.3 662.992 304.944 663.184 304.48C663.384 304.016 663.484 303.46 663.484 302.812C663.484 302.164 663.384 301.604 663.184 301.132C662.992 300.66 662.672 300.3 662.224 300.052C661.784 299.796 661.184 299.668 660.424 299.668H659.02V305.92ZM668.681 307.144C668.097 307.144 667.577 307.016 667.121 306.76C666.673 306.496 666.321 306.132 666.065 305.668C665.809 305.204 665.681 304.664 665.681 304.048C665.681 303.424 665.805 302.876 666.053 302.404C666.309 301.932 666.661 301.564 667.109 301.3C667.565 301.036 668.093 300.904 668.693 300.904C669.277 300.904 669.785 301.036 670.217 301.3C670.649 301.556 670.985 301.9 671.225 302.332C671.465 302.764 671.585 303.24 671.585 303.76C671.585 303.84 671.581 303.928 671.573 304.024C671.573 304.112 671.569 304.212 671.561 304.324H666.929C666.969 304.9 667.157 305.34 667.493 305.644C667.837 305.94 668.233 306.088 668.681 306.088C669.041 306.088 669.341 306.008 669.581 305.848C669.829 305.68 670.013 305.456 670.133 305.176H671.405C671.245 305.736 670.925 306.204 670.445 306.58C669.973 306.956 669.385 307.144 668.681 307.144ZM668.681 301.948C668.257 301.948 667.881 302.076 667.553 302.332C667.225 302.58 667.025 302.956 666.953 303.46H670.313C670.289 302.996 670.125 302.628 669.821 302.356C669.517 302.084 669.137 301.948 668.681 301.948ZM675.485 307.144C674.901 307.144 674.377 307.012 673.913 306.748C673.457 306.484 673.097 306.12 672.833 305.656C672.577 305.184 672.449 304.64 672.449 304.024C672.449 303.408 672.577 302.868 672.833 302.404C673.097 301.932 673.457 301.564 673.913 301.3C674.377 301.036 674.901 300.904 675.485 300.904C676.221 300.904 676.837 301.096 677.333 301.48C677.837 301.864 678.161 302.384 678.305 303.04H676.973C676.893 302.712 676.717 302.456 676.445 302.272C676.173 302.088 675.853 301.996 675.485 301.996C675.173 301.996 674.885 302.076 674.621 302.236C674.357 302.388 674.145 302.616 673.985 302.92C673.825 303.216 673.745 303.584 673.745 304.024C673.745 304.464 673.825 304.836 673.985 305.14C674.145 305.436 674.357 305.664 674.621 305.824C674.885 305.984 675.173 306.064 675.485 306.064C675.853 306.064 676.173 305.972 676.445 305.788C676.717 305.604 676.893 305.344 676.973 305.008H678.305C678.169 305.648 677.849 306.164 677.345 306.556C676.841 306.948 676.221 307.144 675.485 307.144Z" fill="#A3AED0"/>
<path d="M324.836 307.144C324.052 307.144 323.428 306.924 322.964 306.484C322.508 306.044 322.28 305.424 322.28 304.624H323.552C323.552 305.024 323.648 305.356 323.84 305.62C324.04 305.884 324.364 306.016 324.812 306.016C325.252 306.016 325.564 305.892 325.748 305.644C325.932 305.388 326.024 305.064 326.024 304.672V298.6H327.296V304.672C327.296 305.464 327.076 306.076 326.636 306.508C326.196 306.932 325.596 307.144 324.836 307.144ZM330.904 307.144C330.184 307.144 329.616 306.92 329.2 306.472C328.792 306.024 328.588 305.356 328.588 304.468V301.048H329.86V304.336C329.86 305.488 330.332 306.064 331.276 306.064C331.748 306.064 332.136 305.896 332.44 305.56C332.744 305.224 332.896 304.744 332.896 304.12V301.048H334.168V307H333.04L332.944 305.956C332.76 306.324 332.488 306.616 332.128 306.832C331.776 307.04 331.368 307.144 330.904 307.144ZM335.546 307V301.048H336.674L336.77 302.092C336.954 301.724 337.222 301.436 337.574 301.228C337.934 301.012 338.346 300.904 338.81 300.904C339.53 300.904 340.094 301.128 340.502 301.576C340.918 302.024 341.126 302.692 341.126 303.58V307H339.866V303.712C339.866 302.56 339.394 301.984 338.45 301.984C337.978 301.984 337.586 302.152 337.274 302.488C336.97 302.824 336.818 303.304 336.818 303.928V307H335.546Z" fill="#A3AED0"/>
<path opacity="0.7" d="M34.5942 45V36.404H31.6962V35.2H38.9622V36.404H36.0782V45H34.5942ZM42.0051 45.168C41.3425 45.168 40.7451 45.0187 40.2131 44.72C39.6905 44.412 39.2751 43.9873 38.9671 43.446C38.6591 42.8953 38.5051 42.256 38.5051 41.528C38.5051 40.8 38.6591 40.1653 38.9671 39.624C39.2845 39.0733 39.7091 38.6487 40.2411 38.35C40.7731 38.042 41.3658 37.888 42.0191 37.888C42.6818 37.888 43.2745 38.042 43.7971 38.35C44.3291 38.6487 44.7491 39.0733 45.0571 39.624C45.3745 40.1653 45.5331 40.8 45.5331 41.528C45.5331 42.256 45.3745 42.8953 45.0571 43.446C44.7491 43.9873 44.3291 44.412 43.7971 44.72C43.2651 45.0187 42.6678 45.168 42.0051 45.168ZM42.0051 43.894C42.3598 43.894 42.6865 43.8053 42.9851 43.628C43.2931 43.4507 43.5405 43.1893 43.7271 42.844C43.9138 42.4893 44.0071 42.0507 44.0071 41.528C44.0071 41.0053 43.9138 40.5713 43.7271 40.226C43.5498 39.8713 43.3071 39.6053 42.9991 39.428C42.7005 39.2507 42.3738 39.162 42.0191 39.162C41.6645 39.162 41.3331 39.2507 41.0251 39.428C40.7265 39.6053 40.4838 39.8713 40.2971 40.226C40.1105 40.5713 40.0171 41.0053 40.0171 41.528C40.0171 42.0507 40.1105 42.4893 40.2971 42.844C40.4838 43.1893 40.7265 43.4507 41.0251 43.628C41.3238 43.8053 41.6505 43.894 42.0051 43.894ZM49.4965 45C48.8152 45 48.2739 44.8367 47.8725 44.51C47.4712 44.174 47.2705 43.5813 47.2705 42.732V39.302H46.0805V38.056H47.2705L47.4525 36.292H48.7545V38.056H50.7145V39.302H48.7545V42.732C48.7545 43.1147 48.8339 43.3807 48.9925 43.53C49.1605 43.67 49.4452 43.74 49.8465 43.74H50.6445V45H49.4965ZM54.3167 45.168C53.7287 45.168 53.2434 45.07 52.8607 44.874C52.478 44.678 52.1934 44.4213 52.0067 44.104C51.82 43.7773 51.7267 43.4227 51.7267 43.04C51.7267 42.368 51.988 41.836 52.5107 41.444C53.0334 41.052 53.78 40.856 54.7507 40.856H56.5707V40.73C56.5707 40.1887 56.4214 39.7827 56.1227 39.512C55.8334 39.2413 55.4554 39.106 54.9887 39.106C54.578 39.106 54.2187 39.2087 53.9107 39.414C53.612 39.61 53.43 39.904 53.3647 40.296H51.8807C51.9274 39.792 52.0954 39.3627 52.3847 39.008C52.6834 38.644 53.0567 38.3687 53.5047 38.182C53.962 37.986 54.4614 37.888 55.0027 37.888C55.9734 37.888 56.7247 38.1447 57.2567 38.658C57.7887 39.162 58.0547 39.8527 58.0547 40.73V45H56.7667L56.6407 43.81C56.4447 44.1927 56.16 44.5147 55.7867 44.776C55.4134 45.0373 54.9234 45.168 54.3167 45.168ZM54.6107 43.964C55.012 43.964 55.348 43.8707 55.6187 43.684C55.8987 43.488 56.1134 43.2313 56.2627 42.914C56.4214 42.5967 56.5194 42.2467 56.5567 41.864H54.9047C54.3167 41.864 53.8967 41.9667 53.6447 42.172C53.402 42.3773 53.2807 42.634 53.2807 42.942C53.2807 43.2593 53.3974 43.5113 53.6307 43.698C53.8734 43.8753 54.2 43.964 54.6107 43.964ZM59.505 45V34.92H60.989V45H59.505ZM69.1256 45.168C68.407 45.168 67.777 45.042 67.2356 44.79C66.6943 44.538 66.2696 44.1787 65.9616 43.712C65.663 43.2453 65.509 42.69 65.4996 42.046H67.0676C67.077 42.5687 67.259 43.012 67.6136 43.376C67.9683 43.74 68.4676 43.922 69.1116 43.922C69.681 43.922 70.1243 43.7867 70.4416 43.516C70.7683 43.236 70.9316 42.8813 70.9316 42.452C70.9316 42.1067 70.8523 41.8267 70.6936 41.612C70.5443 41.3973 70.3343 41.22 70.0636 41.08C69.8023 40.94 69.499 40.814 69.1536 40.702C68.8083 40.59 68.4443 40.4687 68.0616 40.338C67.3056 40.086 66.7363 39.7593 66.3536 39.358C65.9803 38.9567 65.7936 38.4293 65.7936 37.776C65.7843 37.2253 65.9103 36.7447 66.1716 36.334C66.4423 35.9233 66.8156 35.606 67.2916 35.382C67.777 35.1487 68.3416 35.032 68.9856 35.032C69.6203 35.032 70.1756 35.1487 70.6516 35.382C71.137 35.6153 71.515 35.942 71.7856 36.362C72.0563 36.7727 72.1963 37.2533 72.2056 37.804H70.6376C70.6376 37.552 70.5723 37.314 70.4416 37.09C70.311 36.8567 70.1196 36.6653 69.8676 36.516C69.6156 36.3667 69.3076 36.292 68.9436 36.292C68.477 36.2827 68.0896 36.3993 67.7816 36.642C67.483 36.8847 67.3336 37.2207 67.3336 37.65C67.3336 38.0327 67.4456 38.3267 67.6696 38.532C67.8936 38.7373 68.2016 38.91 68.5936 39.05C68.9856 39.1807 69.4336 39.3347 69.9376 39.512C70.423 39.6707 70.857 39.862 71.2396 40.086C71.6223 40.31 71.9256 40.604 72.1496 40.968C72.383 41.332 72.4996 41.794 72.4996 42.354C72.4996 42.8487 72.3736 43.3107 72.1216 43.74C71.8696 44.16 71.4916 44.5053 70.9876 44.776C70.4836 45.0373 69.863 45.168 69.1256 45.168ZM73.7861 48.08V38.056H75.1161L75.2701 39.134C75.4941 38.8073 75.8021 38.518 76.1941 38.266C76.5861 38.014 77.0901 37.888 77.7061 37.888C78.3781 37.888 78.9708 38.0467 79.4841 38.364C79.9974 38.6813 80.3988 39.1153 80.6881 39.666C80.9868 40.2167 81.1361 40.842 81.1361 41.542C81.1361 42.242 80.9868 42.8673 80.6881 43.418C80.3988 43.9593 79.9974 44.3887 79.4841 44.706C78.9708 45.014 78.3734 45.168 77.6921 45.168C77.1508 45.168 76.6701 45.0607 76.2501 44.846C75.8394 44.6313 75.5128 44.328 75.2701 43.936V48.08H73.7861ZM77.4401 43.88C78.0748 43.88 78.5974 43.6653 79.0081 43.236C79.4188 42.7973 79.6241 42.228 79.6241 41.528C79.6241 41.0707 79.5308 40.6647 79.3441 40.31C79.1574 39.9553 78.9008 39.68 78.5741 39.484C78.2474 39.2787 77.8694 39.176 77.4401 39.176C76.8054 39.176 76.2828 39.3953 75.8721 39.834C75.4708 40.2727 75.2701 40.8373 75.2701 41.528C75.2701 42.228 75.4708 42.7973 75.8721 43.236C76.2828 43.6653 76.8054 43.88 77.4401 43.88ZM85.7092 45.168C85.0278 45.168 84.4212 45.0187 83.8892 44.72C83.3665 44.412 82.9558 43.9873 82.6572 43.446C82.3585 42.9047 82.2092 42.2747 82.2092 41.556C82.2092 40.828 82.3538 40.1887 82.6432 39.638C82.9418 39.0873 83.3525 38.658 83.8752 38.35C84.4072 38.042 85.0232 37.888 85.7232 37.888C86.4045 37.888 86.9972 38.042 87.5012 38.35C88.0052 38.6487 88.3972 39.05 88.6772 39.554C88.9572 40.058 89.0972 40.6133 89.0972 41.22C89.0972 41.3133 89.0925 41.416 89.0832 41.528C89.0832 41.6307 89.0785 41.7473 89.0692 41.878H83.6652C83.7118 42.55 83.9312 43.0633 84.3232 43.418C84.7245 43.7633 85.1865 43.936 85.7092 43.936C86.1292 43.936 86.4792 43.8427 86.7592 43.656C87.0485 43.46 87.2632 43.1987 87.4032 42.872H88.8872C88.7005 43.5253 88.3272 44.0713 87.7672 44.51C87.2165 44.9487 86.5305 45.168 85.7092 45.168ZM85.7092 39.106C85.2145 39.106 84.7758 39.2553 84.3932 39.554C84.0105 39.8433 83.7772 40.282 83.6932 40.87H87.6132C87.5852 40.3287 87.3938 39.8993 87.0392 39.582C86.6845 39.2647 86.2412 39.106 85.7092 39.106ZM90.357 45V38.056H91.673L91.785 39.274C91.9996 38.8447 92.3123 38.5087 92.723 38.266C93.143 38.014 93.6236 37.888 94.165 37.888C95.005 37.888 95.663 38.1493 96.139 38.672C96.6243 39.1947 96.867 39.974 96.867 41.01V45H95.397V41.164C95.397 39.82 94.8463 39.148 93.745 39.148C93.1943 39.148 92.737 39.344 92.373 39.736C92.0183 40.128 91.841 40.688 91.841 41.416V45H90.357ZM101.247 45C100.565 45 100.024 44.8367 99.6228 44.51C99.2214 44.174 99.0208 43.5813 99.0208 42.732V39.302H97.8308V38.056H99.0208L99.2028 36.292H100.505V38.056H102.465V39.302H100.505V42.732C100.505 43.1147 100.584 43.3807 100.743 43.53C100.911 43.67 101.195 43.74 101.597 43.74H102.395V45H101.247Z" fill="white"/>
<path d="M40.2802 86.958V84.34C38.0815 84.0907 36.2909 83.32 34.9082 82.028C33.5255 80.736 32.8115 79.002 32.7662 76.826H37.3562C37.4015 77.7327 37.6735 78.526 38.1722 79.206C38.6935 79.886 39.3962 80.3507 40.2802 80.6V73.426C40.0762 73.358 39.8609 73.29 39.6342 73.222C39.4302 73.154 39.2149 73.086 38.9882 73.018C37.1522 72.3833 35.7469 71.5673 34.7722 70.57C33.8202 69.5727 33.3442 68.2467 33.3442 66.592C33.3215 64.6427 33.9562 63.0787 35.2482 61.9C36.5402 60.6987 38.2175 60.0073 40.2802 59.826V57.072H42.5582V59.86C44.5982 60.064 46.2415 60.778 47.4882 62.002C48.7575 63.2033 49.4262 64.756 49.4942 66.66H44.8362C44.8135 66.0027 44.5982 65.402 44.1902 64.858C43.8049 64.2913 43.2609 63.8947 42.5582 63.668V69.992C42.7395 70.06 42.9209 70.128 43.1022 70.196C43.2835 70.2413 43.4649 70.298 43.6462 70.366C44.8249 70.774 45.9015 71.25 46.8762 71.794C47.8509 72.338 48.6329 73.0633 49.2222 73.97C49.8115 74.854 50.1062 75.9987 50.1062 77.404C50.1062 78.5827 49.8115 79.682 49.2222 80.702C48.6555 81.722 47.8055 82.572 46.6722 83.252C45.5615 83.9093 44.1902 84.2833 42.5582 84.374V86.958H40.2802ZM37.9002 66.286C37.9002 67.0113 38.1155 67.6007 38.5462 68.054C38.9769 68.4847 39.5549 68.8587 40.2802 69.176V63.532C39.5775 63.668 38.9995 63.974 38.5462 64.45C38.1155 64.926 37.9002 65.538 37.9002 66.286ZM45.4822 77.71C45.4822 76.8033 45.2102 76.0893 44.6662 75.568C44.1222 75.0467 43.4195 74.6047 42.5582 74.242V80.702C43.4649 80.566 44.1789 80.2373 44.7002 79.716C45.2215 79.1947 45.4822 78.526 45.4822 77.71ZM62.1653 84.408C60.3746 84.408 58.8673 84.0793 57.6433 83.422C56.4193 82.7647 55.4333 81.8807 54.6853 80.77C53.9373 79.6593 53.3933 78.424 53.0533 77.064C52.736 75.704 52.5773 74.31 52.5773 72.882C52.5773 70.23 52.9513 67.9293 53.6993 65.98C54.4473 64.008 55.524 62.4893 56.9293 61.424C58.3346 60.336 60.0346 59.792 62.0293 59.792C63.6613 59.792 65.044 60.1207 66.1773 60.778C67.3333 61.4127 68.2286 62.2513 68.8633 63.294C69.498 64.3367 69.872 65.4587 69.9853 66.66H65.9393C65.7353 65.6173 65.2933 64.8127 64.6133 64.246C63.9333 63.6793 63.0606 63.396 61.9953 63.396C60.4766 63.396 59.2526 64.0987 58.3233 65.504C57.394 66.8867 56.8953 69.006 56.8273 71.862C57.3713 70.9327 58.1873 70.162 59.2753 69.55C60.3633 68.938 61.576 68.632 62.9133 68.632C64.228 68.632 65.4633 68.9493 66.6193 69.584C67.7753 70.2187 68.7046 71.114 69.4073 72.27C70.1326 73.426 70.4953 74.786 70.4953 76.35C70.4953 77.778 70.144 79.104 69.4413 80.328C68.7613 81.552 67.7866 82.538 66.5173 83.286C65.2706 84.034 63.82 84.408 62.1653 84.408ZM61.9273 80.668C63.1966 80.668 64.2393 80.2827 65.0553 79.512C65.894 78.7187 66.3133 77.7213 66.3133 76.52C66.3133 75.2507 65.894 74.2307 65.0553 73.46C64.2166 72.6893 63.1513 72.304 61.8593 72.304C61.0206 72.304 60.2613 72.4967 59.5813 72.882C58.924 73.2447 58.4026 73.7433 58.0173 74.378C57.632 74.99 57.4393 75.6813 57.4393 76.452C57.4393 77.676 57.8586 78.6847 58.6973 79.478C59.5586 80.2713 60.6353 80.668 61.9273 80.668ZM82.4901 84.408C80.8581 84.408 79.3848 84.1247 78.0701 83.558C76.7555 82.9687 75.7015 82.1413 74.9081 81.076C74.1375 80.0107 73.7521 78.7753 73.7521 77.37C73.7521 75.9193 74.1261 74.65 74.8741 73.562C75.6448 72.474 76.6535 71.692 77.9001 71.216C76.8121 70.74 75.9508 70.06 75.3161 69.176C74.6815 68.2693 74.3641 67.2607 74.3641 66.15C74.3641 65.0167 74.6701 63.974 75.2821 63.022C75.8941 62.0473 76.8008 61.2653 78.0021 60.676C79.2261 60.0867 80.7221 59.792 82.4901 59.792C84.2581 59.792 85.7428 60.0867 86.9441 60.676C88.1455 61.2653 89.0521 62.0473 89.6641 63.022C90.2761 63.974 90.5821 65.0167 90.5821 66.15C90.5821 67.238 90.2535 68.2467 89.5961 69.176C88.9615 70.0827 88.1115 70.7627 87.0461 71.216C88.3155 71.692 89.3241 72.474 90.0721 73.562C90.8201 74.65 91.1941 75.9193 91.1941 77.37C91.1941 78.7753 90.8088 80.0107 90.0381 81.076C89.2675 82.1413 88.2135 82.9687 86.8761 83.558C85.5615 84.1247 84.0995 84.408 82.4901 84.408ZM82.4901 69.924C83.6688 69.924 84.5981 69.618 85.2781 69.006C85.9581 68.394 86.2981 67.612 86.2981 66.66C86.2981 65.6173 85.9581 64.8013 85.2781 64.212C84.6208 63.6227 83.6915 63.328 82.4901 63.328C81.2661 63.328 80.3255 63.6227 79.6681 64.212C79.0108 64.8013 78.6821 65.6173 78.6821 66.66C78.6821 67.6347 79.0108 68.428 79.6681 69.04C80.3481 69.6293 81.2888 69.924 82.4901 69.924ZM82.4901 80.77C83.9408 80.77 85.0401 80.4187 85.7881 79.716C86.5361 78.9907 86.9101 78.084 86.9101 76.996C86.9101 75.7947 86.5135 74.854 85.7201 74.174C84.9495 73.494 83.8728 73.154 82.4901 73.154C81.1075 73.154 80.0081 73.494 79.1921 74.174C78.3988 74.854 78.0021 75.7947 78.0021 76.996C78.0021 78.084 78.3761 78.9907 79.1241 79.716C79.8948 80.4187 81.0168 80.77 82.4901 80.77ZM93.9181 84V80.838C95.3688 79.6367 96.7741 78.4467 98.1341 77.268C99.5168 76.0893 100.741 74.922 101.806 73.766C102.894 72.61 103.755 71.488 104.39 70.4C105.047 69.2893 105.376 68.2127 105.376 67.17C105.376 66.1953 105.104 65.334 104.56 64.586C104.039 63.838 103.166 63.464 101.942 63.464C100.695 63.464 99.7548 63.872 99.1201 64.688C98.4855 65.504 98.1681 66.49 98.1681 67.646H93.9521C93.9975 65.9007 94.3828 64.45 95.1081 63.294C95.8335 62.1153 96.7968 61.2427 97.9981 60.676C99.1995 60.0867 100.548 59.792 102.044 59.792C104.469 59.792 106.351 60.4607 107.688 61.798C109.048 63.1127 109.728 64.824 109.728 66.932C109.728 68.2467 109.422 69.5273 108.81 70.774C108.221 72.0207 107.439 73.222 106.464 74.378C105.489 75.534 104.435 76.622 103.302 77.642C102.169 78.6393 101.069 79.5687 100.004 80.43H110.306V84H93.9181ZM115.008 84.238C114.215 84.238 113.557 83.9887 113.036 83.49C112.537 82.9913 112.288 82.3907 112.288 81.688C112.288 80.9627 112.537 80.3507 113.036 79.852C113.557 79.3533 114.215 79.104 115.008 79.104C115.801 79.104 116.447 79.3533 116.946 79.852C117.467 80.3507 117.728 80.9627 117.728 81.688C117.728 82.3907 117.467 82.9913 116.946 83.49C116.447 83.9887 115.801 84.238 115.008 84.238ZM129.262 84.408C127.517 84.408 126.009 84.102 124.74 83.49C123.493 82.878 122.507 82.0393 121.782 80.974C121.079 79.886 120.671 78.662 120.558 77.302H124.808C125.012 78.2767 125.511 79.0927 126.304 79.75C127.097 80.3847 128.083 80.702 129.262 80.702C130.531 80.702 131.563 80.2373 132.356 79.308C133.172 78.3787 133.58 77.2227 133.58 75.84C133.58 74.412 133.172 73.2787 132.356 72.44C131.563 71.6013 130.554 71.182 129.33 71.182C128.31 71.182 127.426 71.4313 126.678 71.93C125.93 72.4287 125.397 73.052 125.08 73.8H120.898L122.938 60.2H136.13V64.008H126.202L125.114 69.516C125.613 68.972 126.293 68.53 127.154 68.19C128.015 67.8273 128.979 67.646 130.044 67.646C131.744 67.646 133.161 68.0313 134.294 68.802C135.427 69.55 136.289 70.5473 136.878 71.794C137.467 73.018 137.762 74.3553 137.762 75.806C137.762 77.4607 137.399 78.934 136.674 80.226C135.971 81.518 134.974 82.538 133.682 83.286C132.413 84.034 130.939 84.408 129.262 84.408Z" fill="url(#paint7_linear_1_2178)"/>
<path d="M10 0.890698H710V-0.890698H10V0.890698ZM719.109 10V335H720.891V10H719.109ZM710 344.109H10V345.891H710V344.109ZM0.890698 335V10H-0.890698V335H0.890698ZM10 344.109C4.96908 344.109 0.890698 340.031 0.890698 335H-0.890698C-0.890698 341.015 3.98524 345.891 10 345.891V344.109ZM719.109 335C719.109 340.031 715.031 344.109 710 344.109V345.891C716.015 345.891 720.891 341.015 720.891 335H719.109ZM710 0.890698C715.031 0.890698 719.109 4.96907 719.109 10H720.891C720.891 3.98523 716.015 -0.890698 710 -0.890698V0.890698ZM10 -0.890698C3.98523 -0.890698 -0.890698 3.98523 -0.890698 10H0.890698C0.890698 4.96907 4.96907 0.890698 10 0.890698V-0.890698Z" fill="url(#paint8_linear_1_2178)" fill-opacity="0.4"/>
</g>
<defs>
<filter id="filter0_b_1_2178" x="-89.0698" y="-89.0698" width="898.14" height="523.14" filterUnits="userSpaceOnUse" color-interpolation-filters="sRGB">
<feFlood flood-opacity="0" result="BackgroundImageFix"/>
<feGaussianBlur in="BackgroundImage" stdDeviation="44.5349"/>
<feComposite in2="SourceAlpha" operator="in" result="effect1_backgroundBlur_1_2178"/>
<feBlend mode="normal" in="SourceGraphic" in2="effect1_backgroundBlur_1_2178" result="shape"/>
</filter>
<filter id="filter1_b_1_2178" x="565.93" y="-61.0698" width="211.14" height="211.14" filterUnits="userSpaceOnUse" color-interpolation-filters="sRGB">
<feFlood flood-opacity="0" result="BackgroundImageFix"/>
<feGaussianBlur in="BackgroundImage" stdDeviation="44.5349"/>
<feComposite in2="SourceAlpha" operator="in" result="effect1_backgroundBlur_1_2178"/>
<feBlend mode="normal" in="SourceGraphic" in2="effect1_backgroundBlur_1_2178" result="shape"/>
</filter>
<linearGradient id="paint0_linear_1_2178" x1="360" y1="0" x2="360" y2="345" gradientUnits="userSpaceOnUse">
<stop stop-color="#575DEE" stop-opacity="0.9"/>
<stop offset="0.480253" stop-color="#373CBE" stop-opacity="0.75"/>
<stop offset="1" stop-color="#3E429B" stop-opacity="0.4"/>
</linearGradient>
<linearGradient id="paint1_linear_1_2178" x1="671.5" y1="28" x2="671.5" y2="61" gradientUnits="userSpaceOnUse">
<stop stop-color="#575DEE" stop-opacity="0.9"/>
<stop offset="0.480253" stop-color="#373CBE" stop-opacity="0.75"/>
<stop offset="1" stop-color="#3E429B" stop-opacity="0.4"/>
</linearGradient>
<linearGradient id="paint2_linear_1_2178" x1="665.149" y1="45.0314" x2="672.415" y2="45.4954" gradientUnits="userSpaceOnUse">
<stop offset="0.201276" stop-color="#02FE85"/>
<stop offset="1" stop-color="#02FED1"/>
</linearGradient>
<linearGradient id="paint3_linear_1_2178" x1="655" y1="28" x2="677.522" y2="67.0441" gradientUnits="userSpaceOnUse">
<stop stop-color="#02FE85"/>
<stop offset="0.509432" stop-color="white" stop-opacity="0"/>
<stop offset="1" stop-color="#02FE85"/>
</linearGradient>
<linearGradient id="paint4_linear_1_2178" x1="315.176" y1="203.861" x2="333.391" y2="204.114" gradientUnits="userSpaceOnUse">
<stop offset="0.201276" stop-color="#02FE85"/>
<stop offset="1" stop-color="#02FED1"/>
</linearGradient>
<linearGradient id="paint5_linear_1_2178" x1="41.7567" y1="124.502" x2="41.9585" y2="132.657" gradientUnits="userSpaceOnUse">
<stop offset="0.201276" stop-color="#02FE85"/>
<stop offset="1" stop-color="#02FED1"/>
</linearGradient>
<linearGradient id="paint6_linear_1_2178" x1="676.382" y1="124.017" x2="694.825" y2="125.938" gradientUnits="userSpaceOnUse">
<stop offset="0.201276" stop-color="#02FE85"/>
<stop offset="1" stop-color="#02FED1"/>
</linearGradient>
<linearGradient id="paint7_linear_1_2178" x1="32.9033" y1="72.0316" x2="106.725" y2="89.7402" gradientUnits="userSpaceOnUse">
<stop offset="0.201276" stop-color="#02FE85"/>
<stop offset="1" stop-color="#02FED1"/>
</linearGradient>
<linearGradient id="paint8_linear_1_2178" x1="0" y1="0" x2="139.691" y2="505.396" gradientUnits="userSpaceOnUse">
<stop stop-color="#02FE85"/>
<stop offset="0.509432" stop-color="white" stop-opacity="0"/>
<stop offset="1" stop-color="#02FE85"/>
</linearGradient>
</defs>
</svg>
