<svg width="259" height="97" viewBox="0 0 259 97" fill="none" xmlns="http://www.w3.org/2000/svg">
<g filter="url(#filter0_b_1_2180)">
<path d="M0 10C0 4.47715 4.47715 0 10 0H249C254.523 0 259 4.47715 259 10V87C259 92.5229 254.523 97 249 97H10C4.47715 97 0 92.5229 0 87V10Z" fill="url(#paint0_linear_1_2180)" fill-opacity="0.1"/>
<path opacity="0.7" d="M28.8586 35.6414C28.1399 35.6414 27.5099 35.5154 26.9686 35.2634C26.4273 35.0114 26.0026 34.652 25.6946 34.1854C25.3959 33.7187 25.2419 33.1634 25.2326 32.5194H26.8006C26.8099 33.042 26.9919 33.4854 27.3466 33.8494C27.7013 34.2134 28.2006 34.3954 28.8446 34.3954C29.4139 34.3954 29.8573 34.26 30.1746 33.9894C30.5013 33.7094 30.6646 33.3547 30.6646 32.9254C30.6646 32.58 30.5853 32.3 30.4266 32.0854C30.2773 31.8707 30.0673 31.6934 29.7966 31.5534C29.5353 31.4134 29.2319 31.2874 28.8866 31.1754C28.5413 31.0634 28.1773 30.942 27.7946 30.8114C27.0386 30.5594 26.4693 30.2327 26.0866 29.8314C25.7133 29.43 25.5266 28.9027 25.5266 28.2494C25.5173 27.6987 25.6433 27.218 25.9046 26.8074C26.1753 26.3967 26.5486 26.0794 27.0246 25.8554C27.5099 25.622 28.0746 25.5054 28.7186 25.5054C29.3533 25.5054 29.9086 25.622 30.3846 25.8554C30.8699 26.0887 31.2479 26.4154 31.5186 26.8354C31.7893 27.246 31.9293 27.7267 31.9386 28.2774H30.3706C30.3706 28.0254 30.3053 27.7874 30.1746 27.5634C30.0439 27.33 29.8526 27.1387 29.6006 26.9894C29.3486 26.84 29.0406 26.7654 28.6766 26.7654C28.2099 26.756 27.8226 26.8727 27.5146 27.1154C27.2159 27.358 27.0666 27.694 27.0666 28.1234C27.0666 28.506 27.1786 28.8 27.4026 29.0054C27.6266 29.2107 27.9346 29.3834 28.3266 29.5234C28.7186 29.654 29.1666 29.808 29.6706 29.9854C30.1559 30.144 30.5899 30.3354 30.9726 30.5594C31.3553 30.7834 31.6586 31.0774 31.8826 31.4414C32.1159 31.8054 32.2326 32.2674 32.2326 32.8274C32.2326 33.322 32.1066 33.784 31.8546 34.2134C31.6026 34.6334 31.2246 34.9787 30.7206 35.2494C30.2166 35.5107 29.5959 35.6414 28.8586 35.6414ZM33.5191 38.5534V28.5294H34.8491L35.0031 29.6074C35.2271 29.2807 35.5351 28.9914 35.9271 28.7394C36.3191 28.4874 36.8231 28.3614 37.4391 28.3614C38.1111 28.3614 38.7038 28.52 39.2171 28.8374C39.7304 29.1547 40.1318 29.5887 40.4211 30.1394C40.7198 30.69 40.8691 31.3154 40.8691 32.0154C40.8691 32.7154 40.7198 33.3407 40.4211 33.8914C40.1318 34.4327 39.7304 34.862 39.2171 35.1794C38.7038 35.4874 38.1064 35.6414 37.4251 35.6414C36.8838 35.6414 36.4031 35.534 35.9831 35.3194C35.5724 35.1047 35.2458 34.8014 35.0031 34.4094V38.5534H33.5191ZM37.1731 34.3534C37.8078 34.3534 38.3304 34.1387 38.7411 33.7094C39.1518 33.2707 39.3571 32.7014 39.3571 32.0014C39.3571 31.544 39.2638 31.138 39.0771 30.7834C38.8904 30.4287 38.6338 30.1534 38.3071 29.9574C37.9804 29.752 37.6024 29.6494 37.1731 29.6494C36.5384 29.6494 36.0158 29.8687 35.6051 30.3074C35.2038 30.746 35.0031 31.3107 35.0031 32.0014C35.0031 32.7014 35.2038 33.2707 35.6051 33.7094C36.0158 34.1387 36.5384 34.3534 37.1731 34.3534ZM45.4422 35.6414C44.7608 35.6414 44.1542 35.492 43.6222 35.1934C43.0995 34.8854 42.6888 34.4607 42.3902 33.9194C42.0915 33.378 41.9422 32.748 41.9422 32.0294C41.9422 31.3014 42.0868 30.662 42.3762 30.1114C42.6748 29.5607 43.0855 29.1314 43.6082 28.8234C44.1402 28.5154 44.7562 28.3614 45.4562 28.3614C46.1375 28.3614 46.7302 28.5154 47.2342 28.8234C47.7382 29.122 48.1302 29.5234 48.4102 30.0274C48.6902 30.5314 48.8302 31.0867 48.8302 31.6934C48.8302 31.7867 48.8255 31.8894 48.8162 32.0014C48.8162 32.104 48.8115 32.2207 48.8022 32.3514H43.3982C43.4448 33.0234 43.6642 33.5367 44.0562 33.8914C44.4575 34.2367 44.9195 34.4094 45.4422 34.4094C45.8622 34.4094 46.2122 34.316 46.4922 34.1294C46.7815 33.9334 46.9962 33.672 47.1362 33.3454H48.6202C48.4335 33.9987 48.0602 34.5447 47.5002 34.9834C46.9495 35.422 46.2635 35.6414 45.4422 35.6414ZM45.4422 29.5794C44.9475 29.5794 44.5088 29.7287 44.1262 30.0274C43.7435 30.3167 43.5102 30.7554 43.4262 31.3434H47.3462C47.3182 30.802 47.1268 30.3727 46.7722 30.0554C46.4175 29.738 45.9742 29.5794 45.4422 29.5794ZM50.0899 35.4734V28.5294H51.4059L51.5179 29.7474C51.7326 29.318 52.0453 28.982 52.4559 28.7394C52.8759 28.4874 53.3566 28.3614 53.8979 28.3614C54.7379 28.3614 55.3959 28.6227 55.8719 29.1454C56.3573 29.668 56.5999 30.4474 56.5999 31.4834V35.4734H55.1299V31.6374C55.1299 30.2934 54.5793 29.6214 53.4779 29.6214C52.9273 29.6214 52.4699 29.8174 52.1059 30.2094C51.7513 30.6014 51.5739 31.1614 51.5739 31.8894V35.4734H50.0899ZM60.9798 35.4734C60.2984 35.4734 59.7571 35.31 59.3558 34.9834C58.9544 34.6474 58.7538 34.0547 58.7538 33.2054V29.7754H57.5638V28.5294H58.7538L58.9358 26.7654H60.2378V28.5294H62.1978V29.7754H60.2378V33.2054C60.2378 33.588 60.3171 33.854 60.4758 34.0034C60.6438 34.1434 60.9284 34.2134 61.3298 34.2134H62.1278V35.4734H60.9798ZM69.6073 35.4734C68.9259 35.4734 68.3846 35.31 67.9833 34.9834C67.5819 34.6474 67.3813 34.0547 67.3813 33.2054V29.7754H66.1913V28.5294H67.3813L67.5633 26.7654H68.8653V28.5294H70.8253V29.7754H68.8653V33.2054C68.8653 33.588 68.9446 33.854 69.1033 34.0034C69.2713 34.1434 69.5559 34.2134 69.9573 34.2134H70.7553V35.4734H69.6073ZM72.0754 35.4734V25.3934H73.5594V29.6494C73.7927 29.248 74.1147 28.9354 74.5254 28.7114C74.9454 28.478 75.4074 28.3614 75.9114 28.3614C76.7421 28.3614 77.3954 28.6227 77.8714 29.1454C78.3474 29.668 78.5854 30.4474 78.5854 31.4834V35.4734H77.1154V31.6374C77.1154 30.2934 76.5787 29.6214 75.5054 29.6214C74.9454 29.6214 74.4787 29.8174 74.1054 30.2094C73.7414 30.6014 73.5594 31.1614 73.5594 31.8894V35.4734H72.0754ZM80.8932 27.2134C80.6132 27.2134 80.3799 27.1294 80.1932 26.9614C80.0159 26.784 79.9272 26.5647 79.9272 26.3034C79.9272 26.042 80.0159 25.8274 80.1932 25.6594C80.3799 25.482 80.6132 25.3934 80.8932 25.3934C81.1732 25.3934 81.4019 25.482 81.5792 25.6594C81.7659 25.8274 81.8592 26.042 81.8592 26.3034C81.8592 26.5647 81.7659 26.784 81.5792 26.9614C81.4019 27.1294 81.1732 27.2134 80.8932 27.2134ZM80.1512 35.4734V28.5294H81.6352V35.4734H80.1512ZM86.0862 35.6414C85.2089 35.6414 84.4856 35.4267 83.9162 34.9974C83.3469 34.568 83.0202 33.9987 82.9362 33.2894H84.4342C84.5089 33.6067 84.6862 33.882 84.9662 34.1154C85.2462 34.3394 85.6149 34.4514 86.0722 34.4514C86.5202 34.4514 86.8469 34.358 87.0522 34.1714C87.2576 33.9847 87.3602 33.77 87.3602 33.5274C87.3602 33.1727 87.2156 32.9347 86.9262 32.8134C86.6462 32.6827 86.2542 32.566 85.7502 32.4634C85.3582 32.3794 84.9662 32.2674 84.5742 32.1274C84.1916 31.9874 83.8696 31.7914 83.6082 31.5394C83.3562 31.278 83.2302 30.928 83.2302 30.4894C83.2302 29.8827 83.4636 29.3787 83.9302 28.9774C84.3969 28.5667 85.0502 28.3614 85.8902 28.3614C86.6649 28.3614 87.2902 28.548 87.7662 28.9214C88.2516 29.2947 88.5362 29.822 88.6202 30.5034H87.1922C87.1456 30.2047 87.0056 29.9714 86.7722 29.8034C86.5482 29.6354 86.2449 29.5514 85.8622 29.5514C85.4889 29.5514 85.1996 29.6307 84.9942 29.7894C84.7889 29.9387 84.6862 30.1347 84.6862 30.3774C84.6862 30.62 84.8262 30.8114 85.1062 30.9514C85.3956 31.0914 85.7736 31.2174 86.2402 31.3294C86.7069 31.432 87.1362 31.5534 87.5282 31.6934C87.9296 31.824 88.2516 32.02 88.4942 32.2814C88.7369 32.5427 88.8582 32.9254 88.8582 33.4294C88.8676 34.064 88.6202 34.5914 88.1162 35.0114C87.6216 35.4314 86.9449 35.6414 86.0862 35.6414ZM93.4456 35.4734V28.5294H94.7616L94.8876 29.5094C95.1116 29.1547 95.4056 28.8747 95.7696 28.6694C96.143 28.464 96.5723 28.3614 97.0576 28.3614C98.159 28.3614 98.9243 28.7954 99.3536 29.6634C99.6056 29.262 99.9416 28.9447 100.362 28.7114C100.791 28.478 101.253 28.3614 101.748 28.3614C102.616 28.3614 103.297 28.6227 103.792 29.1454C104.286 29.668 104.534 30.4474 104.534 31.4834V35.4734H103.05V31.6374C103.05 30.2934 102.536 29.6214 101.51 29.6214C100.987 29.6214 100.558 29.8174 100.222 30.2094C99.895 30.6014 99.7316 31.1614 99.7316 31.8894V35.4734H98.2476V31.6374C98.2476 30.2934 97.7296 29.6214 96.6936 29.6214C96.1803 29.6214 95.7556 29.8174 95.4196 30.2094C95.093 30.6014 94.9296 31.1614 94.9296 31.8894V35.4734H93.4456ZM109.238 35.6414C108.575 35.6414 107.978 35.492 107.446 35.1934C106.923 34.8854 106.508 34.4607 106.2 33.9194C105.892 33.3687 105.738 32.7294 105.738 32.0014C105.738 31.2734 105.892 30.6387 106.2 30.0974C106.517 29.5467 106.942 29.122 107.474 28.8234C108.006 28.5154 108.599 28.3614 109.252 28.3614C109.915 28.3614 110.507 28.5154 111.03 28.8234C111.562 29.122 111.982 29.5467 112.29 30.0974C112.607 30.6387 112.766 31.2734 112.766 32.0014C112.766 32.7294 112.607 33.3687 112.29 33.9194C111.982 34.4607 111.562 34.8854 111.03 35.1934C110.498 35.492 109.901 35.6414 109.238 35.6414ZM109.238 34.3674C109.593 34.3674 109.919 34.2787 110.218 34.1014C110.526 33.924 110.773 33.6627 110.96 33.3174C111.147 32.9627 111.24 32.524 111.24 32.0014C111.24 31.4787 111.147 31.0447 110.96 30.6994C110.783 30.3447 110.54 30.0787 110.232 29.9014C109.933 29.724 109.607 29.6354 109.252 29.6354C108.897 29.6354 108.566 29.724 108.258 29.9014C107.959 30.0787 107.717 30.3447 107.53 30.6994C107.343 31.0447 107.25 31.4787 107.25 32.0014C107.25 32.524 107.343 32.9627 107.53 33.3174C107.717 33.6627 107.959 33.924 108.258 34.1014C108.557 34.2787 108.883 34.3674 109.238 34.3674ZM114.091 35.4734V28.5294H115.407L115.519 29.7474C115.733 29.318 116.046 28.982 116.457 28.7394C116.877 28.4874 117.357 28.3614 117.899 28.3614C118.739 28.3614 119.397 28.6227 119.873 29.1454C120.358 29.668 120.601 30.4474 120.601 31.4834V35.4734H119.131V31.6374C119.131 30.2934 118.58 29.6214 117.479 29.6214C116.928 29.6214 116.471 29.8174 116.107 30.2094C115.752 30.6014 115.575 31.1614 115.575 31.8894V35.4734H114.091ZM124.981 35.4734C124.299 35.4734 123.758 35.31 123.357 34.9834C122.955 34.6474 122.755 34.0547 122.755 33.2054V29.7754H121.565V28.5294H122.755L122.937 26.7654H124.239V28.5294H126.199V29.7754H124.239V33.2054C124.239 33.588 124.318 33.854 124.477 34.0034C124.645 34.1434 124.929 34.2134 125.331 34.2134H126.129V35.4734H124.981ZM127.449 35.4734V25.3934H128.933V29.6494C129.166 29.248 129.488 28.9354 129.899 28.7114C130.319 28.478 130.781 28.3614 131.285 28.3614C132.115 28.3614 132.769 28.6227 133.245 29.1454C133.721 29.668 133.959 30.4474 133.959 31.4834V35.4734H132.489V31.6374C132.489 30.2934 131.952 29.6214 130.879 29.6214C130.319 29.6214 129.852 29.8174 129.479 30.2094C129.115 30.6014 128.933 31.1614 128.933 31.8894V35.4734H127.449Z" fill="white"/>
<path d="M30.9666 70.219V68.371C29.4146 68.195 28.1506 67.651 27.1746 66.739C26.1986 65.827 25.6946 64.603 25.6626 63.067H28.9026C28.9346 63.707 29.1266 64.267 29.4786 64.747C29.8466 65.227 30.3426 65.555 30.9666 65.731V60.667C30.8226 60.619 30.6706 60.571 30.5106 60.523C30.3666 60.475 30.2146 60.427 30.0546 60.379C28.7586 59.931 27.7666 59.355 27.0786 58.651C26.4066 57.947 26.0706 57.011 26.0706 55.843C26.0546 54.467 26.5026 53.363 27.4146 52.531C28.3266 51.683 29.5106 51.195 30.9666 51.067V49.123H32.5746V51.091C34.0146 51.235 35.1746 51.739 36.0546 52.603C36.9506 53.451 37.4226 54.547 37.4706 55.891H34.1826C34.1666 55.427 34.0146 55.003 33.7266 54.619C33.4546 54.219 33.0706 53.939 32.5746 53.779V58.243C32.7026 58.291 32.8306 58.339 32.9586 58.387C33.0866 58.419 33.2146 58.459 33.3426 58.507C34.1746 58.795 34.9346 59.131 35.6226 59.515C36.3106 59.899 36.8626 60.411 37.2786 61.051C37.6946 61.675 37.9026 62.483 37.9026 63.475C37.9026 64.307 37.6946 65.083 37.2786 65.803C36.8786 66.523 36.2786 67.123 35.4786 67.603C34.6946 68.067 33.7266 68.331 32.5746 68.395V70.219H30.9666ZM29.2866 55.627C29.2866 56.139 29.4386 56.555 29.7426 56.875C30.0466 57.179 30.4546 57.443 30.9666 57.667V53.683C30.4706 53.779 30.0626 53.995 29.7426 54.331C29.4386 54.667 29.2866 55.099 29.2866 55.627ZM34.6386 63.691C34.6386 63.051 34.4466 62.547 34.0626 62.179C33.6786 61.811 33.1826 61.499 32.5746 61.243V65.803C33.2146 65.707 33.7186 65.475 34.0866 65.107C34.4546 64.739 34.6386 64.267 34.6386 63.691ZM46.4149 68.419C45.1509 68.419 44.0869 68.187 43.2229 67.723C42.3589 67.259 41.6629 66.635 41.1349 65.851C40.6069 65.067 40.2229 64.195 39.9829 63.235C39.7589 62.275 39.6469 61.291 39.6469 60.283C39.6469 58.411 39.9109 56.787 40.4389 55.411C40.9669 54.019 41.7269 52.947 42.7189 52.195C43.7109 51.427 44.9109 51.043 46.3189 51.043C47.4709 51.043 48.4469 51.275 49.2469 51.739C50.0629 52.187 50.6949 52.779 51.1429 53.515C51.5909 54.251 51.8549 55.043 51.9349 55.891H49.0789C48.9349 55.155 48.6229 54.587 48.1429 54.187C47.6629 53.787 47.0469 53.587 46.2949 53.587C45.2229 53.587 44.3589 54.083 43.7029 55.075C43.0469 56.051 42.6949 57.547 42.6469 59.563C43.0309 58.907 43.6069 58.363 44.3749 57.931C45.1429 57.499 45.9989 57.283 46.9429 57.283C47.8709 57.283 48.7429 57.507 49.5589 57.955C50.3749 58.403 51.0309 59.035 51.5269 59.851C52.0389 60.667 52.2949 61.627 52.2949 62.731C52.2949 63.739 52.0469 64.675 51.5509 65.539C51.0709 66.403 50.3829 67.099 49.4869 67.627C48.6069 68.155 47.5829 68.419 46.4149 68.419ZM46.2469 65.779C47.1429 65.779 47.8789 65.507 48.4549 64.963C49.0469 64.403 49.3429 63.699 49.3429 62.851C49.3429 61.955 49.0469 61.235 48.4549 60.691C47.8629 60.147 47.1109 59.875 46.1989 59.875C45.6069 59.875 45.0709 60.011 44.5909 60.283C44.1269 60.539 43.7589 60.891 43.4869 61.339C43.2149 61.771 43.0789 62.259 43.0789 62.803C43.0789 63.667 43.3749 64.379 43.9669 64.939C44.5749 65.499 45.3349 65.779 46.2469 65.779ZM60.7619 68.419C59.6099 68.419 58.5699 68.219 57.6419 67.819C56.7139 67.403 55.9699 66.819 55.4099 66.067C54.8659 65.315 54.5939 64.443 54.5939 63.451C54.5939 62.427 54.8579 61.531 55.3859 60.763C55.9299 59.995 56.6419 59.443 57.5219 59.107C56.7539 58.771 56.1459 58.291 55.6979 57.667C55.2499 57.027 55.0259 56.315 55.0259 55.531C55.0259 54.731 55.2419 53.995 55.6739 53.323C56.1059 52.635 56.7459 52.083 57.5939 51.667C58.4579 51.251 59.5139 51.043 60.7619 51.043C62.0099 51.043 63.0579 51.251 63.9059 51.667C64.7539 52.083 65.3939 52.635 65.8259 53.323C66.2579 53.995 66.4739 54.731 66.4739 55.531C66.4739 56.299 66.2419 57.011 65.7779 57.667C65.3299 58.307 64.7299 58.787 63.9779 59.107C64.8739 59.443 65.5859 59.995 66.1139 60.763C66.6419 61.531 66.9059 62.427 66.9059 63.451C66.9059 64.443 66.6339 65.315 66.0899 66.067C65.5459 66.819 64.8019 67.403 63.8579 67.819C62.9299 68.219 61.8979 68.419 60.7619 68.419ZM60.7619 58.195C61.5939 58.195 62.2499 57.979 62.7299 57.547C63.2099 57.115 63.4499 56.563 63.4499 55.891C63.4499 55.155 63.2099 54.579 62.7299 54.163C62.2659 53.747 61.6099 53.539 60.7619 53.539C59.8979 53.539 59.2339 53.747 58.7699 54.163C58.3059 54.579 58.0739 55.155 58.0739 55.891C58.0739 56.579 58.3059 57.139 58.7699 57.571C59.2499 57.987 59.9139 58.195 60.7619 58.195ZM60.7619 65.851C61.7859 65.851 62.5619 65.603 63.0899 65.107C63.6179 64.595 63.8819 63.955 63.8819 63.187C63.8819 62.339 63.6019 61.675 63.0419 61.195C62.4979 60.715 61.7379 60.475 60.7619 60.475C59.7859 60.475 59.0099 60.715 58.4339 61.195C57.8739 61.675 57.5939 62.339 57.5939 63.187C57.5939 63.955 57.8579 64.595 58.3859 65.107C58.9299 65.603 59.7219 65.851 60.7619 65.851ZM68.8287 68.131V65.899C69.8527 65.051 70.8447 64.211 71.8047 63.379C72.7807 62.547 73.6447 61.723 74.3967 60.907C75.1647 60.091 75.7727 59.299 76.2207 58.531C76.6847 57.747 76.9167 56.987 76.9167 56.251C76.9167 55.563 76.7247 54.955 76.3407 54.427C75.9727 53.899 75.3567 53.635 74.4927 53.635C73.6127 53.635 72.9487 53.923 72.5007 54.499C72.0527 55.075 71.8287 55.771 71.8287 56.587H68.8527C68.8847 55.355 69.1567 54.331 69.6687 53.515C70.1807 52.683 70.8607 52.067 71.7087 51.667C72.5567 51.251 73.5087 51.043 74.5647 51.043C76.2767 51.043 77.6047 51.515 78.5487 52.459C79.5087 53.387 79.9887 54.595 79.9887 56.083C79.9887 57.011 79.7727 57.915 79.3407 58.795C78.9247 59.675 78.3727 60.523 77.6847 61.339C76.9967 62.155 76.2527 62.923 75.4527 63.643C74.6527 64.347 73.8767 65.003 73.1247 65.611H80.3967V68.131H68.8287ZM83.7156 68.299C83.1556 68.299 82.6916 68.123 82.3236 67.771C81.9716 67.419 81.7956 66.995 81.7956 66.499C81.7956 65.987 81.9716 65.555 82.3236 65.203C82.6916 64.851 83.1556 64.675 83.7156 64.675C84.2756 64.675 84.7316 64.851 85.0836 65.203C85.4516 65.555 85.6356 65.987 85.6356 66.499C85.6356 66.995 85.4516 67.419 85.0836 67.771C84.7316 68.123 84.2756 68.299 83.7156 68.299ZM93.7772 68.419C92.5452 68.419 91.4812 68.203 90.5852 67.771C89.7052 67.339 89.0092 66.747 88.4972 65.995C88.0012 65.227 87.7132 64.363 87.6332 63.403H90.6332C90.7772 64.091 91.1292 64.667 91.6892 65.131C92.2492 65.579 92.9452 65.803 93.7772 65.803C94.6732 65.803 95.4012 65.475 95.9612 64.819C96.5372 64.163 96.8252 63.347 96.8252 62.371C96.8252 61.363 96.5372 60.563 95.9612 59.971C95.4012 59.379 94.6892 59.083 93.8252 59.083C93.1052 59.083 92.4812 59.259 91.9532 59.611C91.4252 59.963 91.0492 60.403 90.8252 60.931H87.8732L89.3132 51.331H98.6252V54.019H91.6172L90.8492 57.907C91.2012 57.523 91.6812 57.211 92.2892 56.971C92.8972 56.715 93.5772 56.587 94.3292 56.587C95.5292 56.587 96.5292 56.859 97.3292 57.403C98.1292 57.931 98.7372 58.635 99.1532 59.515C99.5692 60.379 99.7772 61.323 99.7772 62.347C99.7772 63.515 99.5212 64.555 99.0092 65.467C98.5132 66.379 97.8092 67.099 96.8972 67.627C96.0012 68.155 94.9612 68.419 93.7772 68.419Z" fill="url(#paint1_linear_1_2180)"/>
<rect opacity="0.1" x="224.074" y="70.5704" width="45.5705" height="5.33286" rx="2.66643" transform="rotate(-90 224.074 70.5704)" fill="white"/>
<rect x="224.074" y="70.5704" width="10.8668" height="5.33286" rx="2.66643" transform="rotate(-90 224.074 70.5704)" fill="url(#paint2_linear_1_2180)"/>
<rect opacity="0.1" x="209.555" y="70.5704" width="45.5705" height="5.33281" rx="2.66641" transform="rotate(-90 209.555 70.5704)" fill="white"/>
<rect x="209.555" y="70.5704" width="41.364" height="5.33287" rx="2.66643" transform="rotate(-90 209.555 70.5704)" fill="url(#paint3_linear_1_2180)"/>
<rect opacity="0.1" x="195.037" y="70.5704" width="45.5705" height="5.33286" rx="2.66643" transform="rotate(-90 195.037 70.5704)" fill="white"/>
<rect x="195.037" y="70.5704" width="31.5488" height="5.33287" rx="2.66643" transform="rotate(-90 195.037 70.5704)" fill="url(#paint4_linear_1_2180)"/>
<rect opacity="0.1" x="180.519" y="70.5704" width="45.5705" height="5.33287" rx="2.66644" transform="rotate(-90 180.519 70.5704)" fill="white"/>
<rect x="180.519" y="70.5704" width="23.4863" height="5.33287" rx="2.66643" transform="rotate(-90 180.519 70.5704)" fill="url(#paint5_linear_1_2180)"/>
<rect opacity="0.1" x="166" y="70.5704" width="45.5705" height="5.33287" rx="2.66644" transform="rotate(-90 166 70.5704)" fill="white"/>
<rect x="166" y="70.5704" width="37.508" height="5.33288" rx="2.66644" transform="rotate(-90 166 70.5704)" fill="url(#paint6_linear_1_2180)"/>
<path d="M10 0.890698H249V-0.890698H10V0.890698ZM258.109 10V87H259.891V10H258.109ZM249 96.1093H10V97.8907H249V96.1093ZM0.890698 87V10H-0.890698V87H0.890698ZM10 96.1093C4.96907 96.1093 0.890698 92.0309 0.890698 87H-0.890698C-0.890698 93.0148 3.98523 97.8907 10 97.8907V96.1093ZM258.109 87C258.109 92.0309 254.031 96.1093 249 96.1093V97.8907C255.015 97.8907 259.891 93.0148 259.891 87H258.109ZM249 0.890698C254.031 0.890698 258.109 4.96907 258.109 10H259.891C259.891 3.98523 255.015 -0.890698 249 -0.890698V0.890698ZM10 -0.890698C3.98523 -0.890698 -0.890698 3.98523 -0.890698 10H0.890698C0.890698 4.96907 4.96907 0.890698 10 0.890698V-0.890698Z" fill="url(#paint7_linear_1_2180)" fill-opacity="0.4"/>
</g>
<defs>
<filter id="filter0_b_1_2180" x="-89.0698" y="-89.0698" width="437.14" height="275.14" filterUnits="userSpaceOnUse" color-interpolation-filters="sRGB">
<feFlood flood-opacity="0" result="BackgroundImageFix"/>
<feGaussianBlur in="BackgroundImage" stdDeviation="44.5349"/>
<feComposite in2="SourceAlpha" operator="in" result="effect1_backgroundBlur_1_2180"/>
<feBlend mode="normal" in="SourceGraphic" in2="effect1_backgroundBlur_1_2180" result="shape"/>
</filter>
<linearGradient id="paint0_linear_1_2180" x1="129.5" y1="0" x2="129.5" y2="97" gradientUnits="userSpaceOnUse">
<stop stop-color="#575DEE" stop-opacity="0.9"/>
<stop offset="0.480253" stop-color="#373CBE" stop-opacity="0.75"/>
<stop offset="1" stop-color="#3E429B" stop-opacity="0.4"/>
</linearGradient>
<linearGradient id="paint1_linear_1_2180" x1="25.4741" y1="60.6255" x2="65.7053" y2="66.8078" gradientUnits="userSpaceOnUse">
<stop offset="0.201276" stop-color="#02FE85"/>
<stop offset="1" stop-color="#02FED1"/>
</linearGradient>
<linearGradient id="paint2_linear_1_2180" x1="224.19" y1="73.2488" x2="229.758" y2="73.9735" gradientUnits="userSpaceOnUse">
<stop offset="0.201276" stop-color="#02FE85"/>
<stop offset="1" stop-color="#02FED1"/>
</linearGradient>
<linearGradient id="paint3_linear_1_2180" x1="209.996" y1="73.2488" x2="227.305" y2="81.8225" gradientUnits="userSpaceOnUse">
<stop offset="0.201276" stop-color="#02FE85"/>
<stop offset="1" stop-color="#02FED1"/>
</linearGradient>
<linearGradient id="paint4_linear_1_2180" x1="195.374" y1="73.2488" x2="209.761" y2="78.6843" gradientUnits="userSpaceOnUse">
<stop offset="0.201276" stop-color="#02FE85"/>
<stop offset="1" stop-color="#02FED1"/>
</linearGradient>
<linearGradient id="paint5_linear_1_2180" x1="180.769" y1="73.2488" x2="192.111" y2="76.4388" gradientUnits="userSpaceOnUse">
<stop offset="0.201276" stop-color="#02FE85"/>
<stop offset="1" stop-color="#02FED1"/>
</linearGradient>
<linearGradient id="paint6_linear_1_2180" x1="166.4" y1="73.2488" x2="182.665" y2="80.5544" gradientUnits="userSpaceOnUse">
<stop offset="0.201276" stop-color="#02FE85"/>
<stop offset="1" stop-color="#02FED1"/>
</linearGradient>
<linearGradient id="paint7_linear_1_2180" x1="0" y1="0" x2="31.5695" y2="146.133" gradientUnits="userSpaceOnUse">
<stop stop-color="#02FE85"/>
<stop offset="0.509432" stop-color="white" stop-opacity="0"/>
<stop offset="1" stop-color="#02FE85"/>
</linearGradient>
</defs>
</svg>
